<?xml version="1.0" encoding="utf-8"?>
<!-- Generator: Adobe Illustrator 22.1.0, SVG Export Plug-In . SVG Version: 6.00 Build 0)  -->
<svg version="1.1" id="Layer_1" xmlns="http://www.w3.org/2000/svg" xmlns:xlink="http://www.w3.org/1999/xlink" x="0px" y="0px"
	 viewBox="0 0 100 100" style="enable-background:new 0 0 100 100;" xml:space="preserve">
<style type="text/css">
	.st0{fill:#FFFFFF;}
	.st1{fill:#0E73BA;}
	.st2{fill:#56A8DD;}
</style>
<g>
	<path class="st0" d="M9.8,92.1h16c4.3,0,7.8-3.5,7.8-7.8c0,0-0.5-8.6-0.5-8.6l2.6,10.6c1.5,5.4,4.8,5.8,8.7,5.8l13,0
		c3.6,0,6.7-2.4,7.6-5.9l1.8-8.4L66.3,84c0,0.1,0,0.1,0,0.2c0,4.3,3.5,7.8,7.8,7.8h15.9c4.3,0,7.8-3.5,7.8-7.8V13.1
		c0-4.3-3.5-7.8-7.8-7.8H66c-5.7,0-10.6,3.8-12,9.3l-4.1,16l-4.1-16c-1.4-5.4-6.3-9.2-11.9-9.2H9.8C5.5,5.3,2,8.8,2,13.1v71.1
		C2,88.5,5.5,92.1,9.8,92.1z"/>
	<g>
		<g>
			<path class="st1" d="M74,89.6c-3,0-5.4-2.4-5.4-5.4l1.2-15.3c0-1.7-1.4-1.8-1.9-1.8c-1.4,0-1.6,1-1.7,1.4l-3.8,17.2
				c-0.6,2.4-2.7,4-5.2,4H45.9c-4.6,0-6.8,0.3-8-4l-4.2-17.2c-0.1-0.3-0.3-1.4-1.7-1.4c-0.5,0-1.9,0.1-1.9,1.8L31,84.2
				c0,3-2.4,5.4-5.4,5.4h-16c-3,0-5.4-2.4-5.4-5.4V13.1c0-3,2.4-5.4,5.4-5.4h24.1c4.5,0,8.4,3.1,9.6,7.4l4.7,18.4
				c0.3,1.2,1.2,1.4,1.8,1.4s1.5-0.2,1.8-1.4l4.7-18.3c1.1-4.4,5.1-7.5,9.6-7.5h24.1c3,0,5.4,2.4,5.4,5.4v71.1c0,3-2.4,5.4-5.4,5.4
				H74z"/>
			<path class="st2" d="M12.4,11.8h22.6c1.9,0,3.6,1.3,4,3.1L45.8,41c1,4.2,7,4.2,8.1,0l6.7-26.1c0.5-1.8,2.1-3.1,4-3.1h22.5
				c2.3,0,4.2,1.9,4.2,4.2v65.5c0,2.3-1.9,4.2-4.2,4.2H76.7c-2.3,0-4.2-1.9-4.2-4.2V62.3c0-4.9-7-5.8-8.2-1L59,82.4
				c-0.5,1.8-2.1,3.1-4,3.1H44.5c-1.9,0-3.6-1.3-4-3.1l-5.4-21.1c-1.2-4.7-8.2-3.8-8.2,1v19.1c0,2.3-1.9,4.2-4.2,4.2H12.3
				c-2.3,0-4.2-1.9-4.2-4.2V15.9C8.3,13.7,10.2,11.8,12.4,11.8z"/>
		</g>
		<g>
			<path class="st1" d="M66.8,15.7c-1.9,0-3.6,1.6-3.6,3.6c0,1.2,0.6,2.2,1.5,2.9c-1.5,4.2-2.6,7.8-3.6,11.1
				c-3.3,10.7-4.6,15-11.4,15c-5.6,0-6.2-2.5-6.9-5.7c-0.6-2.5-1.3-5.6-5-6.4c-1.6-0.3-6.5-0.3-14.3-0.1c-3.4,0.1-7,0.1-9.8,0.1
				c-0.7,0-1.3,0.6-1.3,1.3c0,0.7,0.6,1.3,1.3,1.3c2.9,0,6.4-0.1,9.9-0.1c5.7-0.1,12.2-0.3,13.7,0.1c2.1,0.5,2.5,1.8,3.1,4.4
				c0.7,3.3,1.8,7.7,9.4,7.7c8.7,0,10.5-6,13.8-16.8c1-3.3,2.1-7,3.6-11.1c1.8-0.2,3.2-1.7,3.2-3.6C70.4,17.3,68.9,15.7,66.8,15.7z
				 M66.8,20.3C66.8,20.3,66.8,20.3,66.8,20.3c-0.2-0.1-0.3-0.1-0.5-0.1c-0.3-0.2-0.6-0.5-0.6-0.9c0-0.6,0.5-1,1-1s1,0.5,1,1
				C67.9,19.8,67.4,20.3,66.8,20.3z"/>
			<path class="st1" d="M76.2,16c-2,0-3.7,1.7-3.7,3.7c0,2,1.7,3.7,3.7,3.7c2,0,3.7-1.7,3.7-3.7C79.9,17.7,78.2,16,76.2,16z
				 M76.2,20.9c-0.6,0-1.1-0.5-1.1-1.1c0-0.6,0.5-1.1,1.1-1.1c0.6,0,1.1,0.5,1.1,1.1C77.3,20.3,76.8,20.9,76.2,20.9z"/>
			<path class="st1" d="M85,16c-2,0-3.7,1.7-3.7,3.7c0,2,1.7,3.7,3.7,3.7c2,0,3.7-1.7,3.7-3.7C88.7,17.7,87.1,16,85,16z M85,20.9
				c-0.6,0-1.1-0.5-1.1-1.1c0-0.6,0.5-1.1,1.1-1.1c0.6,0,1.1,0.5,1.1,1.1C86.2,20.3,85.7,20.9,85,20.9z"/>
			<path class="st1" d="M17,33.1h15.7c1.2,0,2.3-0.5,3.1-1.3c0.8-0.8,1.3-1.9,1.2-3.1l-0.1-8.3c0-0.5-0.1-0.9-0.2-1.3
				c-0.8-2.1-2.8-3.5-5.1-3.5H17.9c-3,0-5.4,2.4-5.4,5.5l0.3,7.8C12.8,31.3,14.6,33.1,17,33.1z M17.8,18.1h13.8
				c1.2,0,2.3,0.7,2.7,1.8c0.1,0.1,0.1,0.3,0.1,0.5l0.1,8.3c0,0.5-0.2,0.9-0.5,1.3c-0.3,0.3-0.8,0.5-1.3,0.5H17
				c-1,0-1.8-0.8-1.8-1.8l-0.3-7.8C15,19.4,16.3,18.1,17.8,18.1z"/>
		</g>
	</g>
</g>
</svg>
