<?xml version="1.0" encoding="UTF-8" standalone="no"?>
<!-- Created with Inkscape (http://www.inkscape.org/) -->

<svg
   xmlns:dc="http://purl.org/dc/elements/1.1/"
   xmlns:cc="http://creativecommons.org/ns#"
   xmlns:rdf="http://www.w3.org/1999/02/22-rdf-syntax-ns#"
   xmlns:svg="http://www.w3.org/2000/svg"
   xmlns="http://www.w3.org/2000/svg"
   xmlns:sodipodi="http://sodipodi.sourceforge.net/DTD/sodipodi-0.dtd"
   xmlns:inkscape="http://www.inkscape.org/namespaces/inkscape"
   version="1.1"
   id="svg10"
   xml:space="preserve"
   width="146.66667"
   height="146.66667"
   viewBox="0 0 146.66667 146.66667"
   sodipodi:docname="Logo_MENT_sello.svg"
   inkscape:version="0.92.3 (2405546, 2018-03-11)"><metadata
     id="metadata16"><rdf:RDF><cc:Work
         rdf:about=""><dc:format>image/svg+xml</dc:format><dc:type
           rdf:resource="http://purl.org/dc/dcmitype/StillImage" /><dc:title></dc:title></cc:Work></rdf:RDF></metadata><defs
     id="defs14"><clipPath
       clipPathUnits="userSpaceOnUse"
       id="clipPath26"><path
         d="M 0,110 H 110 V 0 H 0 Z"
         id="path24"
         inkscape:connector-curvature="0" /></clipPath></defs><sodipodi:namedview
     pagecolor="#ffffff"
     bordercolor="#666666"
     borderopacity="1"
     objecttolerance="10"
     gridtolerance="10"
     guidetolerance="10"
     inkscape:pageopacity="0"
     inkscape:pageshadow="2"
     inkscape:window-width="3200"
     inkscape:window-height="1668"
     id="namedview12"
     showgrid="false"
     inkscape:zoom="9.1431815"
     inkscape:cx="95.152874"
     inkscape:cy="73.333336"
     inkscape:window-x="-16"
     inkscape:window-y="-16"
     inkscape:window-maximized="1"
     inkscape:current-layer="g20" /><g
     id="g18"
     inkscape:groupmode="layer"
     inkscape:label="Logo_MENT_todos"
     transform="matrix(1.3333333,0,0,-1.3333333,0,146.66667)"><g
       id="g20"><g
         id="g22"
         clip-path="url(#clipPath26)"
         transform="translate(0.59768824,1.5)"><g
           id="g28"
           transform="translate(54.2872,108.4378)"><path
             d="m 0,0 v 0 c -29.982,0 -54.287,-24.306 -54.287,-54.288 0,-29.982 24.305,-54.287 54.287,-54.287 29.982,0 54.287,24.305 54.287,54.287 C 54.287,-24.306 29.982,0 0,0 m 0,-2.336 c 28.646,0 51.952,-23.306 51.952,-51.952 0,-28.646 -23.306,-51.951 -51.952,-51.951 -28.646,0 -51.951,23.305 -51.951,51.951 0,28.646 23.305,51.952 51.951,51.952"
             style="fill:#24aeca;fill-opacity:1;fill-rule:nonzero;stroke:none"
             id="path30"
             inkscape:connector-curvature="0" /></g><g
           id="g32"
           transform="translate(34.8273,42.0931)"><path
             d="m 0,0 c -0.029,-0.029 -0.036,-0.036 -0.099,-0.036 -0.051,0 -0.102,-0.006 -0.152,-0.018 h -0.47 v 0.288 h 0.622 c 0.059,0 0.078,-0.014 0.1,-0.036 0.009,-0.01 0.017,-0.015 0.026,-0.024 0,0 0.01,-0.021 0.01,-0.074 C 0.037,0.037 0.03,0.03 0,0 m -2.994,-2.623 c -0.085,0.039 -0.179,0.061 -0.279,0.061 h -1.47 v 0.29 h 0.983 c 0.373,0 0.676,0.302 0.676,0.675 v 0.903 c 0,0.374 -0.303,0.676 -0.676,0.676 h -0.983 v 0.271 h 1.47 c 0.1,0 0.194,0.022 0.279,0.061 z m -4.004,-0.898 -1.951,2.379 1.951,2.42 z m 8.466,1.798 c 0.165,0.14 0.308,0.3 0.434,0.483 0.271,0.393 0.408,0.844 0.408,1.34 0,0.664 -0.237,1.237 -0.704,1.705 -0.46,0.46 -1.049,0.703 -1.705,0.703 h -2.218 c -0.183,0 -0.347,-0.073 -0.469,-0.192 -0.123,0.129 -0.295,0.209 -0.487,0.209 h -3.048 c -0.228,0 -0.428,-0.113 -0.551,-0.285 -0.122,0.172 -0.322,0.285 -0.55,0.285 h -1.172 c -0.205,0 -0.398,-0.092 -0.527,-0.252 l -0.89,-1.103 v 0.679 c 0,0.374 -0.302,0.676 -0.676,0.676 h -0.902 c -0.346,0 -0.628,-0.26 -0.668,-0.595 -0.049,0.326 -0.327,0.578 -0.667,0.578 h -1.136 c -0.232,0 -0.448,-0.119 -0.572,-0.316 l -3.333,-5.269 v 4.908 c 0,0.373 -0.303,0.677 -0.677,0.677 h -0.937 c -0.27,0 -0.513,-0.16 -0.62,-0.407 l -1.506,-3.457 -1.492,3.455 c -0.107,0.248 -0.351,0.409 -0.621,0.409 h -0.956 c -0.373,0 -0.677,-0.304 -0.677,-0.677 v -5.989 c 0,-0.373 0.304,-0.676 0.677,-0.676 h 0.902 c 0.373,0 0.676,0.303 0.676,0.676 v 0.525 l 0.344,-0.794 c 0.108,-0.247 0.352,-0.407 0.622,-0.407 h 1.028 c 0.268,0 0.513,0.159 0.619,0.406 l 0.363,0.831 v -0.561 c 0,-0.373 0.303,-0.676 0.677,-0.676 h 0.901 c 0.151,0 0.288,0.05 0.401,0.133 0.113,-0.082 0.248,-0.133 0.393,-0.133 h 1.082 c 0.232,0 0.447,0.118 0.572,0.313 l 0.683,1.076 h 0.991 v -0.713 c 0,-0.373 0.303,-0.676 0.676,-0.676 h 0.92 c 0.347,0 0.628,0.261 0.669,0.596 0.048,-0.327 0.326,-0.578 0.666,-0.578 h 0.902 c 0.374,0 0.676,0.302 0.676,0.676 v 0.732 l 0.965,-1.178 c 0.129,-0.157 0.321,-0.248 0.524,-0.248 h 1.172 c 0.206,0 0.395,0.096 0.522,0.251 0.124,-0.142 0.304,-0.233 0.507,-0.233 h 3.048 c 0.182,0 0.347,0.073 0.469,0.19 0.123,-0.128 0.295,-0.208 0.487,-0.208 h 0.902 c 0.373,0 0.676,0.303 0.676,0.676 v 1.737 l 1.069,-2.05 c 0.116,-0.223 0.348,-0.363 0.6,-0.363 h 1.028 c 0.236,0 0.454,0.122 0.577,0.323 0.123,0.202 0.133,0.452 0.025,0.662 z"
             style="fill:#ffffff;fill-opacity:1;fill-rule:nonzero;stroke:none"
             id="path34"
             inkscape:connector-curvature="0" /></g><g
           id="g36"
           transform="translate(57.754,39.6165)"><path
             d="m 0,0 c -0.007,0.005 -0.013,0.012 -0.021,0.017 -0.107,0.064 -0.228,0.096 -0.348,0.096 -0.11,0 -0.218,-0.025 -0.317,-0.078 -0.218,-0.115 -0.452,-0.174 -0.694,-0.174 -0.424,0 -0.75,0.134 -1.037,0.433 -0.291,0.292 -0.433,0.631 -0.433,1.037 0,0.406 0.142,0.745 0.433,1.037 0.292,0.291 0.631,0.433 1.037,0.433 0.268,0 0.485,-0.052 0.668,-0.159 0.106,-0.062 0.224,-0.093 0.343,-0.093 0.115,0 0.231,0.029 0.336,0.089 C -0.021,2.645 -0.012,2.655 0,2.663 Z M -10.732,2.478 C -10.763,2.447 -10.769,2.44 -10.831,2.44 h -0.623 v 0.271 h 0.623 c 0.058,0 0.077,-0.016 0.099,-0.037 0.009,-0.009 0.016,-0.015 0.026,-0.024 0,0 0.01,-0.02 0.01,-0.074 0,-0.062 -0.006,-0.069 -0.036,-0.098 m -2.977,-1.352 c -0.026,0.04 -0.048,0.083 -0.078,0.12 -0.398,0.539 -1.05,0.934 -1.942,1.173 -0.442,0.115 -0.626,0.228 -0.695,0.281 0.001,0.003 0.002,0.004 0.001,0.004 0,0 0.011,0.01 0.064,0.031 0.075,0.036 0.173,0.052 0.291,0.052 0.028,0 0.057,-10e-4 0.099,-0.003 0.301,-0.014 0.405,-0.126 0.438,-0.163 0.134,-0.143 0.315,-0.217 0.497,-0.217 0.164,0 0.328,0.059 0.458,0.179 l 0.667,0.613 c 0.103,0.095 0.171,0.216 0.2,0.343 z M 3.725,5.002 H 0.677 c -0.24,0 -0.449,-0.126 -0.57,-0.315 -0.066,0.067 -0.14,0.125 -0.231,0.161 -0.386,0.15 -0.809,0.226 -1.256,0.226 -1.023,0 -1.913,-0.37 -2.642,-1.1 -0.337,-0.336 -0.593,-0.708 -0.776,-1.11 v 1.444 c 0,0.373 -0.303,0.676 -0.677,0.676 H -6.61 c -0.233,0 -0.449,-0.119 -0.573,-0.315 L -8.412,2.726 c -0.033,0.6 -0.266,1.124 -0.696,1.554 -0.46,0.46 -1.05,0.704 -1.705,0.704 h -2.219 c -0.373,0 -0.677,-0.303 -0.677,-0.676 V 3.837 c -0.024,0.113 -0.075,0.222 -0.158,0.313 -0.494,0.541 -1.165,0.839 -2.01,0.888 -0.051,10e-4 -0.102,0.002 -0.15,0.002 -0.619,0 -1.136,-0.134 -1.587,-0.413 -0.689,-0.434 -1.067,-1.093 -1.091,-1.897 -0.035,-0.829 0.345,-1.936 2.351,-2.501 0.389,-0.11 0.582,-0.213 0.671,-0.275 -0.101,-0.077 -0.217,-0.113 -0.367,-0.113 h -0.033 c -0.136,0.011 -0.248,0.038 -0.371,0.09 -0.08,0.05 -0.111,0.087 -0.116,0.1 -0.106,0.264 -0.36,0.426 -0.629,0.426 -0.076,0 -0.155,-0.014 -0.231,-0.041 l -0.846,-0.307 c -0.173,-0.062 -0.313,-0.191 -0.388,-0.359 -0.075,-0.167 -0.079,-0.357 -0.011,-0.527 0.206,-0.518 0.576,-0.94 1.065,-1.219 0.443,-0.256 0.903,-0.392 1.439,-0.416 h 0.109 c 0.699,0 1.303,0.203 1.788,0.595 0.232,0.182 0.42,0.391 0.565,0.618 v -0.483 c 0,-0.373 0.304,-0.675 0.677,-0.675 h 0.902 c 0.371,0 0.674,0.299 0.676,0.671 l 0.014,1.854 h 0.627 c 0.317,0 0.612,0.055 0.886,0.162 l -1.044,-1.649 c -0.132,-0.209 -0.139,-0.473 -0.02,-0.689 0.119,-0.216 0.345,-0.349 0.593,-0.349 h 1.082 c 0.231,0 0.446,0.118 0.57,0.313 l 0.684,1.075 h 0.991 v -0.713 c 0,-0.373 0.303,-0.675 0.676,-0.675 h 0.92 c 0.374,0 0.677,0.302 0.677,0.675 v 1.48 c 0.183,-0.402 0.439,-0.774 0.776,-1.11 0.729,-0.73 1.619,-1.1 2.642,-1.1 0.384,0 0.796,0.072 1.225,0.216 0.103,0.034 0.188,0.097 0.261,0.172 0.121,-0.189 0.331,-0.316 0.571,-0.316 h 3.048 c 0.374,0 0.676,0.303 0.676,0.677 v 0.902 c 0,0.373 -0.302,0.676 -0.676,0.676 h -1.47 v 0.289 h 0.982 c 0.374,0 0.677,0.303 0.677,0.676 v 0.902 c 0,0.374 -0.303,0.677 -0.677,0.677 H 2.255 v 0.27 h 1.47 c 0.374,0 0.676,0.303 0.676,0.676 v 0.92 c 0,0.374 -0.302,0.677 -0.676,0.677"
             style="fill:#ffffff;fill-opacity:1;fill-rule:nonzero;stroke:none"
             id="path38"
             inkscape:connector-curvature="0" /></g><g
           id="g40"
           transform="translate(96.7521,39.4408)"><path
             d="m 0,0 c -0.099,0.057 -0.212,0.091 -0.334,0.091 h -1.47 V 0.38 h 0.984 c 0.373,0 0.675,0.303 0.675,0.676 v 0.902 c 0,0.374 -0.302,0.677 -0.675,0.677 h -0.984 v 0.27 h 1.47 c 0.122,0 0.235,0.034 0.334,0.091 z m -20.528,1.525 c -0.002,0.497 -0.092,0.963 -0.268,1.393 0.043,-0.009 0.088,-0.013 0.134,-0.013 h 0.745 z m -2.705,-1.073 c -0.291,-0.292 -0.63,-0.433 -1.037,-0.433 -0.407,0 -0.746,0.141 -1.037,0.433 -0.292,0.291 -0.433,0.631 -0.433,1.037 0,0.407 0.141,0.745 0.443,1.047 0.276,0.288 0.603,0.423 1.027,0.423 0.407,0 0.746,-0.142 1.037,-0.434 0.292,-0.291 0.433,-0.629 0.433,-1.036 0,-0.406 -0.141,-0.746 -0.433,-1.037 m -4.825,-0.163 c -0.109,0 -0.217,-0.025 -0.317,-0.078 -0.218,-0.115 -0.45,-0.174 -0.693,-0.174 -0.411,0 -0.742,0.138 -1.036,0.433 -0.292,0.292 -0.434,0.631 -0.434,1.037 0,0.406 0.142,0.745 0.434,1.037 0.291,0.291 0.629,0.433 1.036,0.433 0.267,0 0.485,-0.052 0.667,-0.159 0.105,-0.062 0.224,-0.093 0.343,-0.093 0.091,0 0.181,0.023 0.266,0.06 -0.145,-0.398 -0.221,-0.824 -0.221,-1.278 0,-0.454 0.077,-0.88 0.222,-1.279 -0.086,0.037 -0.176,0.061 -0.267,0.061 M 3.725,0.073 h -1.47 v 4.41 C 2.255,4.856 1.952,5.16 1.578,5.16 H 0.677 C 0.479,5.16 0.303,5.073 0.179,4.938 0.055,5.084 -0.128,5.178 -0.334,5.178 H -3.382 C -3.696,5.178 -3.958,4.962 -4.034,4.672 -4.116,4.953 -4.373,5.16 -4.681,5.16 H -5.619 C -5.888,5.16 -6.132,5 -6.239,4.753 L -7.745,1.296 -9.237,4.751 C -9.344,4.999 -9.588,5.16 -9.857,5.16 h -0.956 c -0.374,0 -0.675,-0.302 -0.677,-0.674 v 0.015 c 0,0.374 -0.303,0.677 -0.677,0.677 h -0.92 c -0.373,0 -0.676,-0.303 -0.676,-0.677 V 0.587 c 0,-0.155 -0.05,-0.275 -0.163,-0.388 -0.112,-0.112 -0.232,-0.162 -0.387,-0.162 -0.156,0 -0.275,0.05 -0.387,0.163 -0.113,0.112 -0.163,0.232 -0.163,0.387 v 3.914 c 0,0.374 -0.303,0.677 -0.677,0.677 h -0.92 c -0.207,0 -0.39,-0.095 -0.514,-0.241 -0.127,0.138 -0.304,0.223 -0.496,0.223 h -3.192 c -0.374,0 -0.677,-0.304 -0.677,-0.677 V 3.827 c -0.09,0.111 -0.184,0.219 -0.288,0.323 -0.73,0.73 -1.619,1.1 -2.643,1.1 -1.024,0 -1.913,-0.37 -2.643,-1.101 -0.178,-0.177 -0.333,-0.365 -0.469,-0.561 v 0.805 c 0,0.279 -0.171,0.53 -0.43,0.63 -0.386,0.151 -0.809,0.227 -1.256,0.227 -1.024,0 -1.913,-0.37 -2.643,-1.101 -0.73,-0.729 -1.101,-1.618 -1.101,-2.642 0,-1.024 0.371,-1.913 1.101,-2.643 0.73,-0.73 1.619,-1.1 2.643,-1.1 0.383,0 0.796,0.072 1.224,0.215 0.277,0.092 0.462,0.351 0.462,0.642 v 0.805 c 0.136,-0.197 0.291,-0.384 0.469,-0.562 0.729,-0.73 1.619,-1.1 2.643,-1.1 0.965,0 1.808,0.333 2.513,0.981 -0.082,-0.204 -0.062,-0.434 0.059,-0.619 0.124,-0.192 0.338,-0.308 0.566,-0.308 h 3.23 c 0.373,0 0.675,0.303 0.675,0.676 v 0.902 c 0,0.375 -0.302,0.677 -0.675,0.677 h -0.783 l 1.549,3.493 V 0.587 c 0,-0.773 0.279,-1.443 0.829,-1.993 0.551,-0.551 1.221,-0.83 1.994,-0.83 0.773,0 1.443,0.279 2.003,0.84 0.55,0.573 0.818,1.219 0.82,1.976 v -2.086 c 0,-0.373 0.302,-0.676 0.677,-0.676 h 0.901 c 0.374,0 0.677,0.303 0.677,0.676 v 0.526 l 0.344,-0.794 c 0.107,-0.247 0.351,-0.408 0.62,-0.408 h 1.029 c 0.269,0 0.513,0.16 0.62,0.407 l 0.363,0.832 v -0.563 c 0,-0.373 0.303,-0.676 0.676,-0.676 h 0.902 c 0.315,0 0.577,0.215 0.653,0.506 0.082,-0.281 0.339,-0.488 0.646,-0.488 h 3.048 c 0.198,0 0.374,0.087 0.498,0.222 0.124,-0.146 0.307,-0.24 0.513,-0.24 h 3.048 c 0.374,0 0.676,0.303 0.676,0.676 v 0.902 c 0,0.375 -0.302,0.677 -0.676,0.677"
             style="fill:#ffffff;fill-opacity:1;fill-rule:nonzero;stroke:none"
             id="path42"
             inkscape:connector-curvature="0" /></g><g
           id="g44"
           transform="translate(10.9366,45.9349)"><path
             d="m 0,0 h 4.437 c 1.2,0 2.174,0.976 2.174,2.174 0,0.014 -0.14,2.379 -0.14,2.379 L 7.193,1.619 c 0.403,-1.499 1.33,-1.62 2.411,-1.62 L 13.204,0 c 1.002,0 1.866,0.672 2.104,1.649 L 15.819,3.98 15.686,2.226 C 15.685,2.208 15.684,2.191 15.684,2.174 15.684,0.976 16.659,0 17.857,0 h 4.42 c 1.199,0 2.174,0.976 2.174,2.174 v 19.733 c 0,1.198 -0.975,2.174 -2.174,2.174 h -6.673 c -1.573,0 -2.94,-1.062 -3.326,-2.584 L 11.146,17.066 10,21.515 c -0.384,1.51 -1.743,2.566 -3.308,2.566 H 0 c -1.198,0 -2.174,-0.976 -2.174,-2.174 V 2.174 C -2.174,0.976 -1.198,0 0,0"
             style="fill:#ffffff;fill-opacity:1;fill-rule:nonzero;stroke:none"
             id="path46"
             inkscape:connector-curvature="0" /></g><g
           id="g48"
           transform="translate(56.4738,48.0911)"><path
             d="m 0,0 v 3.896 c 0,1.198 -0.976,2.173 -2.174,2.173 h -8.757 v 0.452 h 7.675 c 1.198,0 2.174,0.974 2.174,2.172 v 3.428 c 0,0.787 -0.421,1.478 -1.049,1.858 1.033,0.168 1.824,1.067 1.824,2.146 v 3.626 c 0,1.198 -0.975,2.174 -2.173,2.174 h -16.216 c -1.199,0 -2.174,-0.976 -2.174,-2.174 V 0.018 c 0,-1.199 0.975,-2.174 2.173,-2.174 L -2.174,-2.174 C -0.976,-2.174 0,-1.199 0,0"
             style="fill:#ffffff;fill-opacity:1;fill-rule:nonzero;stroke:none"
             id="path50"
             inkscape:connector-curvature="0" /></g><g
           id="g52"
           transform="translate(66.088,48.0911)"><path
             d="M 0,0 V 5.038 L 3.911,-0.68 c 0.62,-0.876 1.602,-1.418 2.652,-1.471 0.055,-0.015 0.114,-0.023 0.173,-0.023 h 4.727 c 1.198,0 2.174,0.975 2.174,2.174 v 13.735 c 0.37,-0.293 0.836,-0.468 1.343,-0.468 h 4.284 V 0.018 c 0,-1.199 0.975,-2.174 2.173,-2.174 h 5.575 c 1.198,0 2.173,0.975 2.173,2.174 v 13.249 h 4.284 c 1.198,0 2.174,0.974 2.174,2.173 v 4.311 c 0,1.198 -0.976,2.174 -2.174,2.174 H 14.98 c -0.727,0 -1.371,-0.361 -1.765,-0.911 -0.397,0.54 -1.033,0.892 -1.752,0.892 H 6.25 c -1.198,0 -2.174,-0.974 -2.174,-2.174 v -5.107 l -3.937,5.79 c -0.631,0.945 -1.691,1.51 -2.836,1.51 h -4.672 c -1.198,0 -2.174,-0.976 -2.174,-2.174 V 0 c 0,-1.199 0.976,-2.174 2.174,-2.174 h 5.195 C -0.976,-2.174 0,-1.199 0,0"
             style="fill:#ffffff;fill-opacity:1;fill-rule:nonzero;stroke:none"
             id="path54"
             inkscape:connector-curvature="0" /></g><g
           id="g56"
           transform="translate(16.1378,43.9202)"><path
             d="m 0,0 v -5.988 h -0.901 v 3.805 l -1.66,-3.805 H -3.589 L -5.23,-2.2 V -5.988 H -6.133 V 0 h 0.956 L -3.066,-4.889 -0.937,0 Z"
             style="fill:#24aeca;fill-opacity:1;fill-rule:nonzero;stroke:none"
             id="path58"
             inkscape:connector-curvature="0" /></g><g
           id="g60"
           transform="translate(19.4757,40.2406)"><path
             d="M 0,0 H 1.461 V 2.309 Z M 2.381,3.68 V -2.309 H 1.461 V -0.92 H -0.577 L -1.462,-2.309 H -2.544 L 1.244,3.68 Z"
             style="fill:#24aeca;fill-opacity:1;fill-rule:nonzero;stroke:none"
             id="path62"
             inkscape:connector-curvature="0" /></g><g
           id="g64"
           transform="translate(27.3575,43.9202)"><path
             d="m 0,0 -2.398,-2.977 2.47,-3.011 H -1.1 l -1.876,2.29 -0.289,-0.342 v -1.931 h -0.901 v 5.989 h 0.901 v -2.597 l 2.093,2.597 H 0 Z"
             style="fill:#24aeca;fill-opacity:1;fill-rule:nonzero;stroke:none"
             id="path66"
             inkscape:connector-curvature="0" /></g><g
           id="g68"
           transform="translate(31.507,43.9202)"><path
             d="m 0,0 v -0.902 h -2.146 v -1.623 h 1.659 v -0.903 h -1.659 v -1.64 H 0 V -5.971 H -3.049 V 0.018 H 0 Z"
             style="fill:#24aeca;fill-opacity:1;fill-rule:nonzero;stroke:none"
             id="path70"
             inkscape:connector-curvature="0" /></g><g
           id="g72"
           transform="translate(34.6808,41.3773)"><path
             d="M 0,0 C 0.235,0 0.415,0.071 0.577,0.234 0.74,0.396 0.812,0.577 0.812,0.812 0.812,1.046 0.74,1.244 0.577,1.389 0.415,1.551 0.217,1.623 0,1.623 H -1.298 V -0.019 H 0 Z M 2.057,-3.445 H 1.028 L -0.288,-0.92 H -1.316 V -3.445 H -2.218 V 2.543 H 0 C 0.47,2.543 0.884,2.381 1.227,2.038 1.569,1.695 1.732,1.298 1.732,0.812 1.732,0.469 1.642,0.144 1.443,-0.145 1.245,-0.434 0.992,-0.632 0.686,-0.776 Z"
             style="fill:#24aeca;fill-opacity:1;fill-rule:nonzero;stroke:none"
             id="path74"
             inkscape:connector-curvature="0" /></g><g
           id="g76"
           transform="translate(41.5353,37.8773)"><path
             d="m 0,0 c -0.396,0.019 -0.757,0.127 -1.1,0.325 -0.379,0.216 -0.631,0.523 -0.776,0.884 l 0.848,0.307 C -0.956,1.335 -0.812,1.19 -0.595,1.064 -0.396,0.975 -0.198,0.92 0.036,0.902 0.379,0.884 0.668,0.975 0.902,1.154 1.101,1.317 1.19,1.497 1.209,1.695 1.227,2.074 0.83,2.381 0,2.615 -1.28,2.977 -1.894,3.59 -1.857,4.437 -1.84,5.033 -1.569,5.483 -1.082,5.79 -0.703,6.024 -0.252,6.115 0.271,6.097 0.902,6.061 1.426,5.845 1.804,5.43 L 1.137,4.816 C 0.92,5.051 0.613,5.177 0.234,5.195 -0.036,5.213 -0.271,5.177 -0.469,5.087 -0.775,4.961 -0.92,4.727 -0.937,4.401 -0.956,4.022 -0.559,3.716 0.271,3.5 1.011,3.301 1.533,2.994 1.84,2.58 2.057,2.31 2.146,1.984 2.129,1.66 2.11,1.19 1.895,0.775 1.479,0.451 1.101,0.145 0.649,0 0.108,0 Z"
             style="fill:#24aeca;fill-opacity:1;fill-rule:nonzero;stroke:none"
             id="path78"
             inkscape:connector-curvature="0" /></g><g
           id="g80"
           transform="translate(45.5763,41.3773)"><path
             d="M 0,0 H 1.299 C 1.533,0 1.713,0.071 1.876,0.234 2.038,0.396 2.11,0.577 2.11,0.812 2.11,1.046 2.038,1.244 1.876,1.389 1.713,1.551 1.515,1.623 1.299,1.623 H 0 Z M 0,-3.445 H -0.902 V 2.543 H 1.316 C 1.785,2.543 2.2,2.381 2.543,2.038 2.886,1.695 3.048,1.298 3.048,0.812 3.048,0.343 2.886,-0.072 2.543,-0.415 2.2,-0.758 1.804,-0.92 1.316,-0.92 H 0.018 Z"
             style="fill:#24aeca;fill-opacity:1;fill-rule:nonzero;stroke:none"
             id="path82"
             inkscape:connector-curvature="0" /></g><g
           id="g84"
           transform="translate(49.8507,40.2406)"><path
             d="M 0,0 H 1.461 V 2.309 Z M 2.381,3.68 V -2.309 H 1.461 V -0.92 H -0.577 L -1.461,-2.309 H -2.543 L 1.245,3.68 Z"
             style="fill:#24aeca;fill-opacity:1;fill-rule:nonzero;stroke:none"
             id="path86"
             inkscape:connector-curvature="0" /></g><g
           id="g88"
           transform="translate(56.3263,38.7972)"><path
             d="M 0,0 C 0.361,0 0.704,0.091 1.011,0.253 V -0.739 C 0.686,-0.848 0.343,-0.92 0,-0.92 c -0.848,0 -1.569,0.307 -2.164,0.902 -0.596,0.595 -0.902,1.317 -0.902,2.164 0,0.848 0.306,1.57 0.902,2.166 0.595,0.594 1.316,0.901 2.164,0.901 0.343,0 0.686,-0.054 1.011,-0.18 V 4.041 C 0.704,4.221 0.361,4.293 0,4.293 -0.595,4.293 -1.1,4.077 -1.515,3.662 -1.93,3.247 -2.146,2.742 -2.146,2.146 -2.146,1.552 -1.93,1.047 -1.515,0.632 -1.1,0.198 -0.595,0 0,0"
             style="fill:#24aeca;fill-opacity:1;fill-rule:nonzero;stroke:none"
             id="path90"
             inkscape:connector-curvature="0" /></g><g
           id="g92"
           transform="translate(61.4318,43.9202)"><path
             d="m 0,0 v -0.902 h -2.147 v -1.623 h 1.66 v -0.903 h -1.66 v -1.64 H 0 V -5.971 H -3.049 V 0.018 H 0 Z"
             style="fill:#24aeca;fill-opacity:1;fill-rule:nonzero;stroke:none"
             id="path94"
             inkscape:connector-curvature="0" /></g><g
           id="g96"
           transform="translate(67.6359,38.7972)"><path
             d="M 0,0 C 0.361,0 0.704,0.091 1.011,0.253 V -0.739 C 0.686,-0.848 0.343,-0.92 0,-0.92 c -0.848,0 -1.568,0.307 -2.164,0.902 -0.596,0.595 -0.902,1.317 -0.902,2.164 0,0.848 0.306,1.57 0.902,2.166 0.596,0.594 1.316,0.901 2.164,0.901 0.343,0 0.686,-0.054 1.011,-0.18 V 4.041 C 0.704,4.221 0.361,4.293 0,4.293 -0.595,4.293 -1.1,4.077 -1.515,3.662 -1.93,3.247 -2.146,2.742 -2.146,2.146 -2.146,1.552 -1.93,1.047 -1.515,0.632 -1.082,0.198 -0.577,0 0,0"
             style="fill:#24aeca;fill-opacity:1;fill-rule:nonzero;stroke:none"
             id="path98"
             inkscape:connector-curvature="0" /></g><g
           id="g100"
           transform="translate(70.9191,42.4408)"><path
             d="m 0,0 c -0.415,-0.414 -0.631,-0.92 -0.631,-1.515 0,-0.595 0.216,-1.1 0.631,-1.515 0.415,-0.415 0.92,-0.631 1.516,-0.631 0.594,0 1.099,0.216 1.514,0.631 0.415,0.415 0.632,0.92 0.632,1.515 C 3.662,-0.92 3.445,-0.414 3.03,0 2.615,0.415 2.11,0.632 1.516,0.632 0.92,0.632 0.415,0.434 0,0 m -0.649,-3.661 c -0.595,0.595 -0.902,1.316 -0.902,2.164 0,0.848 0.307,1.569 0.902,2.165 0.595,0.595 1.317,0.901 2.165,0.901 0.847,0 1.569,-0.306 2.164,-0.901 0.595,-0.596 0.902,-1.317 0.902,-2.165 0,-0.848 -0.307,-1.569 -0.902,-2.164 -0.595,-0.596 -1.317,-0.902 -2.164,-0.902 -0.848,0 -1.57,0.306 -2.165,0.902"
             style="fill:#24aeca;fill-opacity:1;fill-rule:nonzero;stroke:none"
             id="path102"
             inkscape:connector-curvature="0" /></g><g
           id="g104"
           transform="translate(79.2345,43.9202)"><path
             d="m 0,0 -2.255,-5.087 h 1.822 v -0.901 h -3.228 l 2.254,5.086 H -3.192 V 0 Z"
             style="fill:#24aeca;fill-opacity:1;fill-rule:nonzero;stroke:none"
             id="path106"
             inkscape:connector-curvature="0" /></g><g
           id="g108"
           transform="translate(80.8761,38.5091)"><path
             d="m 0,0 c -0.415,0.415 -0.631,0.92 -0.631,1.515 v 3.914 h 0.92 V 1.515 c 0,-0.343 0.126,-0.631 0.36,-0.866 0.235,-0.234 0.524,-0.361 0.867,-0.361 0.342,0 0.63,0.127 0.865,0.361 0.234,0.235 0.361,0.523 0.361,0.866 v 3.914 h 0.92 V 1.515 C 3.662,0.92 3.445,0.433 3.03,0 2.615,-0.415 2.11,-0.632 1.516,-0.632 0.92,-0.632 0.415,-0.415 0,0"
             style="fill:#24aeca;fill-opacity:1;fill-rule:nonzero;stroke:none"
             id="path110"
             inkscape:connector-curvature="0" /></g><g
           id="g112"
           transform="translate(92.0236,43.9202)"><path
             d="m 0,0 v -5.988 h -0.902 v 3.805 l -1.66,-3.805 H -3.59 L -5.231,-2.2 V -5.988 H -6.133 V 0 h 0.956 L -3.066,-4.889 -0.938,0 Z"
             style="fill:#24aeca;fill-opacity:1;fill-rule:nonzero;stroke:none"
             id="path114"
             inkscape:connector-curvature="0" /></g><g
           id="g116"
           transform="translate(96.3702,43.9202)"><path
             d="m 0,0 v -0.902 h -2.146 v -1.623 h 1.66 v -0.903 h -1.66 v -1.64 H 0 V -5.971 H -3.048 V 0.018 H 0 Z"
             style="fill:#24aeca;fill-opacity:1;fill-rule:nonzero;stroke:none"
             id="path118"
             inkscape:connector-curvature="0" /></g><g
           id="g120"
           transform="translate(98.2823,43.9202)"><path
             d="M 0,0 V -5.087 H 2.146 V -5.988 H -0.901 V 0 Z"
             style="fill:#24aeca;fill-opacity:1;fill-rule:nonzero;stroke:none"
             id="path122"
             inkscape:connector-curvature="0" /></g><g
           id="g124"
           transform="translate(28.7472,46.6077)"><path
             d="m 0,0 c -0.83,0 -1.498,0.667 -1.498,1.497 l 0.325,4.257 c 0,0.47 -0.396,0.505 -0.523,0.505 -0.379,0 -0.45,-0.288 -0.469,-0.378 L -3.211,1.118 C -3.373,0.451 -3.969,0 -4.654,0 h -3.139 c -1.263,0 -1.894,-0.09 -2.219,1.118 l -1.172,4.763 c -0.018,0.09 -0.09,0.378 -0.469,0.378 -0.126,0 -0.523,-0.035 -0.523,-0.505 l 0.252,-4.257 C -11.924,0.667 -12.591,0 -13.421,0 h -4.436 c -0.83,0 -1.498,0.667 -1.498,1.497 V 21.23 c 0,0.831 0.668,1.498 1.498,1.498 h 6.691 c 1.245,0 2.345,-0.848 2.651,-2.056 l 1.318,-5.106 c 0.09,-0.324 0.343,-0.378 0.486,-0.378 0.145,0 0.415,0.054 0.487,0.378 l 1.299,5.087 c 0.307,1.209 1.407,2.075 2.67,2.075 h 6.674 c 0.83,0 1.497,-0.667 1.497,-1.498 V 1.497 C 5.916,0.667 5.249,0 4.419,0 Z"
             style="fill:#0d72b9;fill-opacity:1;fill-rule:nonzero;stroke:none"
             id="path126"
             inkscape:connector-curvature="0" /></g><g
           id="g128"
           transform="translate(37.7296,46.6077)"><path
             d="M 0,0 C -0.83,0 -1.497,0.667 -1.497,1.497 V 21.23 c 0,0.831 0.667,1.498 1.497,1.498 h 16.216 c 0.83,0 1.497,-0.667 1.497,-1.498 v -3.625 c 0,-0.83 -0.667,-1.498 -1.497,-1.498 H 7.359 C 6.836,15.657 7.161,15.098 7.594,15.098 h 7.846 c 0.831,0 1.497,-0.667 1.497,-1.497 v -3.427 c 0,-0.83 -0.666,-1.497 -1.497,-1.497 H 7.089 V 6.872 h 9.433 c 0.831,0 1.498,-0.667 1.498,-1.497 V 1.479 c 0,-0.83 -0.667,-1.497 -1.498,-1.497 z"
             style="fill:#0d72b9;fill-opacity:1;fill-rule:nonzero;stroke:none"
             id="path130"
             inkscape:connector-curvature="0" /></g><g
           id="g132"
           transform="translate(87.4777,46.6077)"><path
             d="m 0,0 c -0.829,0 -1.497,0.667 -1.497,1.497 v 13.926 h -4.96 c -0.83,0 -1.497,0.667 -1.497,1.497 v 4.31 c 0,0.831 0.667,1.498 1.497,1.498 h 18.488 c 0.83,0 1.497,-0.667 1.497,-1.498 v -4.31 c 0,-0.83 -0.667,-1.497 -1.497,-1.497 H 7.071 V 1.497 C 7.071,0.667 6.403,0 5.574,0 Z"
             style="fill:#0d72b9;fill-opacity:1;fill-rule:nonzero;stroke:none"
             id="path134"
             inkscape:connector-curvature="0" /></g><g
           id="g136"
           transform="translate(72.7775,46.6077)"><path
             d="m 0,0 c -0.902,0 -1.75,0.451 -2.273,1.19 l -4.221,6.169 c -0.109,0.145 -0.235,0.217 -0.397,0.217 -0.144,0 -0.523,-0.091 -0.523,-0.505 V 1.479 c 0,-0.83 -0.667,-1.497 -1.497,-1.497 h -5.194 c -0.831,0 -1.499,0.667 -1.499,1.497 V 21.23 c 0,0.831 0.668,1.498 1.499,1.498 h 4.67 c 0.903,0 1.769,-0.452 2.274,-1.208 l 4.257,-6.26 c 0.108,-0.144 0.234,-0.216 0.396,-0.216 0.145,0 0.524,0.09 0.524,0.505 v 5.664 c 0,0.829 0.667,1.497 1.497,1.497 h 5.213 c 0.83,0 1.497,-0.668 1.497,-1.497 V 1.479 c 0,-0.83 -0.667,-1.497 -1.497,-1.497 H 0 Z"
             style="fill:#0d72b9;fill-opacity:1;fill-rule:nonzero;stroke:none"
             id="path138"
             inkscape:connector-curvature="0" /></g><g
           id="g140"
           transform="translate(11.6652,68.2171)"><path
             d="M 0,0 H 6.277 C 6.8,0 7.269,-0.36 7.396,-0.866 l 1.875,-7.251 c 0.289,-1.154 1.93,-1.154 2.237,0 l 1.858,7.251 C 13.492,-0.36 13.961,0 14.484,0 h 6.242 c 0.63,0 1.154,-0.523 1.154,-1.154 v -18.183 c 0,-0.631 -0.524,-1.154 -1.154,-1.154 h -2.887 c -0.631,0 -1.154,0.523 -1.154,1.154 v 5.321 c 0,1.354 -1.93,1.606 -2.273,0.289 l -1.497,-5.88 c -0.126,-0.505 -0.596,-0.866 -1.118,-0.866 H 8.893 c -0.524,0 -0.993,0.361 -1.119,0.866 l -1.497,5.862 c -0.342,1.317 -2.273,1.064 -2.273,-0.288 v -5.304 c 0,-0.631 -0.523,-1.154 -1.154,-1.154 h -2.886 c -0.632,0 -1.154,0.523 -1.154,1.154 V -1.154 C -1.154,-0.523 -0.632,0 0,0"
             style="fill:#55a7dc;fill-opacity:1;fill-rule:nonzero;stroke:none"
             id="path142"
             inkscape:connector-curvature="0" /></g><g
           id="g144"
           transform="translate(38.505,68.2171)"><path
             d="m 0,0 h 14.665 c 0.631,0 1.154,-0.523 1.154,-1.154 v -2.075 c 0,-0.631 -0.523,-1.154 -1.154,-1.154 H 6.331 c -0.631,0 -1.154,-0.523 -1.154,-1.154 v -0.956 c 0,-0.632 0.523,-1.155 1.154,-1.155 h 7.54 c 0.632,0 1.154,-0.523 1.154,-1.155 v -1.876 c 0,-0.631 -0.522,-1.154 -1.154,-1.154 h -7.54 c -0.631,0 -1.154,-0.522 -1.154,-1.154 v -1.732 c 0,-0.632 0.523,-1.154 1.154,-1.154 h 8.622 c 0.632,0 1.155,-0.523 1.155,-1.154 v -2.327 c 0,-0.632 -0.523,-1.155 -1.155,-1.155 H -0.018 c -0.631,0 -1.154,0.523 -1.154,1.155 v 18.2 C -1.154,-0.523 -0.631,0 0,0"
             style="fill:#55a7dc;fill-opacity:1;fill-rule:nonzero;stroke:none"
             id="path146"
             inkscape:connector-curvature="0" /></g><g
           id="g148"
           transform="translate(81.796,68.2171)"><path
             d="m 0,0 h 16.937 c 0.632,0 1.155,-0.523 1.155,-1.154 v -2.76 c 0,-0.632 -0.523,-1.154 -1.155,-1.154 h -4.148 c -0.632,0 -1.154,-0.524 -1.154,-1.155 v -13.114 c 0,-0.631 -0.524,-1.154 -1.155,-1.154 H 6.458 c -0.632,0 -1.155,0.523 -1.155,1.154 v 13.114 c 0,0.631 -0.523,1.155 -1.155,1.155 H 0 c -0.631,0 -1.154,0.522 -1.154,1.154 v 2.76 C -1.154,-0.523 -0.631,0 0,0"
             style="fill:#55a7dc;fill-opacity:1;fill-rule:nonzero;stroke:none"
             id="path150"
             inkscape:connector-curvature="0" /></g><g
           id="g152"
           transform="translate(59.4474,68.2171)"><path
             d="m 0,0 h 4.148 c 0.379,0 0.74,-0.181 0.956,-0.505 l 5.267,-7.738 c 0.632,-0.939 2.111,-0.487 2.111,0.649 v 6.44 c 0,0.631 0.523,1.154 1.155,1.154 h 3.661 c 0.632,0 1.154,-0.523 1.154,-1.154 v -18.183 c 0,-0.631 -0.522,-1.154 -1.154,-1.154 h -4.202 c -0.379,0 -0.741,0.18 -0.956,0.505 l -5.232,7.667 c -0.631,0.937 -2.11,0.486 -2.11,-0.65 v -6.368 c 0,-0.631 -0.524,-1.154 -1.154,-1.154 H 0 c -0.632,0 -1.154,0.523 -1.154,1.154 V -1.154 C -1.154,-0.523 -0.649,0 0,0"
             style="fill:#55a7dc;fill-opacity:1;fill-rule:nonzero;stroke:none"
             id="path154"
             inkscape:connector-curvature="0" /></g><g
           id="g156"
           transform="translate(26.7628,65.8538)"><path
             d="m 0,0 c 0,0 -0.019,0 -0.019,0.019 -0.036,0.017 -0.072,0.017 -0.108,0.017 -0.09,0.055 -0.162,0.145 -0.162,0.253 0,0.162 0.127,0.288 0.289,0.288 0.162,0 0.288,-0.126 0.288,-0.288 C 0.288,0.127 0.162,0 0,0 m 0,1.281 c -0.541,0 -0.992,-0.451 -0.992,-0.992 0,-0.325 0.162,-0.613 0.415,-0.794 -0.415,-1.154 -0.722,-2.164 -0.992,-3.066 -0.903,-2.958 -1.282,-4.167 -3.158,-4.167 -1.55,0 -1.712,0.704 -1.911,1.588 -0.163,0.685 -0.361,1.55 -1.389,1.767 -0.452,0.09 -1.804,0.072 -3.968,0.018 -0.956,-0.018 -1.948,-0.035 -2.724,-0.035 -0.199,0 -0.361,-0.163 -0.361,-0.362 0,-0.198 0.162,-0.36 0.361,-0.36 0.793,0 1.785,0.018 2.741,0.036 1.588,0.036 3.392,0.072 3.806,-0.018 0.578,-0.126 0.686,-0.505 0.849,-1.227 0.198,-0.901 0.486,-2.147 2.596,-2.147 2.418,0 2.923,1.66 3.843,4.672 0.271,0.903 0.595,1.93 1.01,3.085 0.505,0.054 0.902,0.469 0.902,0.992 C 0.992,0.83 0.559,1.281 0,1.281"
             style="fill:#0d72b9;fill-opacity:1;fill-rule:nonzero;stroke:none"
             id="path158"
             inkscape:connector-curvature="0" /></g><g
           id="g160"
           transform="translate(29.3605,65.6917)"><path
             d="m 0,0 c -0.181,0 -0.307,0.145 -0.307,0.307 0,0.18 0.144,0.306 0.307,0.306 0.18,0 0.307,-0.144 0.307,-0.306 C 0.307,0.145 0.162,0 0,0 m 0,1.353 c -0.56,0 -1.028,-0.469 -1.028,-1.028 0,-0.559 0.468,-1.028 1.028,-1.028 0.559,0 1.027,0.469 1.027,1.028 0,0.559 -0.468,1.028 -1.027,1.028"
             style="fill:#0d72b9;fill-opacity:1;fill-rule:nonzero;stroke:none"
             id="path162"
             inkscape:connector-curvature="0" /></g><g
           id="g164"
           transform="translate(31.8136,65.6917)"><path
             d="m 0,0 c -0.181,0 -0.307,0.145 -0.307,0.307 0,0.18 0.144,0.306 0.307,0.306 0.18,0 0.307,-0.144 0.307,-0.306 C 0.324,0.145 0.18,0 0,0 m 0,1.353 c -0.56,0 -1.028,-0.469 -1.028,-1.028 0,-0.559 0.468,-1.028 1.028,-1.028 0.559,0 1.027,0.469 1.027,1.028 0,0.559 -0.45,1.028 -1.027,1.028"
             style="fill:#0d72b9;fill-opacity:1;fill-rule:nonzero;stroke:none"
             id="path166"
             inkscape:connector-curvature="0" /></g><g
           id="g168"
           transform="translate(13.1622,66.4495)"><path
             d="m 0,0 h 3.824 c 0.324,0 0.631,-0.198 0.739,-0.505 0.018,-0.036 0.018,-0.072 0.018,-0.127 l 0.036,-2.29 c 0,-0.127 -0.054,-0.253 -0.143,-0.361 -0.091,-0.09 -0.217,-0.145 -0.362,-0.145 h -4.346 c -0.271,0 -0.488,0.217 -0.505,0.488 l -0.073,2.165 C -0.794,-0.36 -0.434,0 0,0 m -0.217,-4.148 h 4.348 c 0.324,0 0.631,0.126 0.865,0.36 0.234,0.234 0.361,0.541 0.343,0.866 l -0.036,2.29 c 0,0.145 -0.018,0.253 -0.054,0.361 C 5.032,0.307 4.474,0.703 3.842,0.703 H 0.018 c -0.83,0 -1.497,-0.667 -1.497,-1.515 l 0.072,-2.165 c 0,-0.667 0.523,-1.171 1.19,-1.171"
             style="fill:#0d72b9;fill-opacity:1;fill-rule:nonzero;stroke:none"
             id="path170"
             inkscape:connector-curvature="0" /></g><g
           id="g172"
           transform="translate(76.4025,66.3597)"><path
             d="m 0,0 c -0.054,-0.072 -0.126,-0.127 -0.216,-0.127 -0.091,-0.018 -0.18,0 -0.253,0.055 -0.072,0.053 -0.126,0.126 -0.126,0.216 -0.018,0.09 0,0.18 0.054,0.252 0.055,0.073 0.126,0.126 0.217,0.126 h 0.053 c 0.073,0 0.145,-0.017 0.199,-0.053 C 0,0.414 0.055,0.342 0.055,0.252 0.072,0.162 0.055,0.071 0,0 M 0.343,1.027 C 0.108,1.19 -0.162,1.263 -0.433,1.208 -0.703,1.172 -0.956,1.01 -1.118,0.793 -1.19,0.703 -1.227,0.595 -1.263,0.486 h -1.37 c -0.47,0 -0.848,-0.379 -0.848,-0.847 l 0.018,-6.205 c 0,-0.271 -0.487,-0.993 -1.281,-1.317 C -5.249,-8.1 -6.024,-8.189 -6.8,-7.45 l -5.34,7.864 c -0.162,0.235 -0.414,0.361 -0.703,0.361 h -3.427 c -0.469,0 -0.848,-0.379 -0.848,-0.847 v -17.227 c 0,-0.198 0.163,-0.36 0.361,-0.36 l 2.958,-0.019 c 0.091,0 0.181,0.036 0.253,0.109 0.072,0.072 0.108,0.162 0.108,0.253 v 1.424 c 0,0.199 -0.163,0.361 -0.361,0.361 -0.198,0 -0.36,-0.162 -0.36,-0.361 v -1.064 l -2.237,0.019 v 16.865 c 0,0.072 0.054,0.126 0.126,0.126 h 3.427 c 0.036,0 0.09,-0.018 0.109,-0.054 l 5.375,-7.883 0.054,-0.054 c 0.829,-0.812 1.858,-1.046 2.868,-0.614 0.919,0.398 1.713,1.299 1.713,1.985 l -0.017,6.205 c 0,0.072 0.053,0.126 0.126,0.126 h 1.388 c 0.073,-0.18 0.199,-0.325 0.343,-0.451 0.181,-0.126 0.398,-0.198 0.613,-0.198 0.055,0 0.109,0 0.163,0.018 0.27,0.036 0.523,0.198 0.685,0.415 C 0.74,-0.235 0.812,0.054 0.758,0.324 0.722,0.631 0.56,0.865 0.343,1.027"
             style="fill:#0d72b9;fill-opacity:1;fill-rule:nonzero;stroke:none"
             id="path174"
             inkscape:connector-curvature="0" /></g><g
           id="g176"
           transform="translate(76.0597,49.1868)"><path
             d="m 0,0 c -0.144,-0.018 -0.307,0.019 -0.433,0.108 -0.126,0.091 -0.198,0.217 -0.234,0.379 -0.054,0.307 0.162,0.614 0.487,0.668 h 0.09 C 0.036,1.155 0.145,1.119 0.253,1.047 0.379,0.956 0.451,0.83 0.487,0.668 0.523,0.343 0.307,0.055 0,0 M 0.613,1.533 C 0.361,1.714 0.036,1.804 -0.271,1.75 -0.793,1.66 -1.172,1.263 -1.263,0.776 H -3.282 L -8.225,7.252 C -8.352,7.414 -8.567,7.432 -8.73,7.324 -8.893,7.197 -8.91,6.981 -8.802,6.818 l 5.05,-6.619 C -3.68,0.108 -3.571,0.055 -3.463,0.055 h 2.309 c 0.091,-0.181 0.217,-0.326 0.379,-0.451 0.198,-0.145 0.451,-0.235 0.703,-0.235 0.072,0 0.127,0 0.199,0.018 0.307,0.054 0.595,0.217 0.775,0.487 C 1.083,0.145 1.173,0.451 1.119,0.758 1.028,1.064 0.866,1.354 0.613,1.533"
             style="fill:#0d72b9;fill-opacity:1;fill-rule:nonzero;stroke:none"
             id="path178"
             inkscape:connector-curvature="0" /></g><g
           id="g180"
           transform="translate(62.6222,54.2738)"><path
             d="m 0,0 c -0.199,0 -0.361,-0.162 -0.361,-0.36 v -2.274 c 0,-0.198 0.162,-0.36 0.361,-0.36 0.198,0 0.36,0.162 0.36,0.36 V -0.36 C 0.36,-0.162 0.198,0 0,0"
             style="fill:#0d72b9;fill-opacity:1;fill-rule:nonzero;stroke:none"
             id="path182"
             inkscape:connector-curvature="0" /></g><g
           id="g184"
           transform="translate(62.6222,56.5462)"><path
             d="m 0,0 c -0.199,0 -0.361,-0.162 -0.361,-0.36 v -0.993 c 0,-0.198 0.162,-0.36 0.361,-0.36 0.198,0 0.36,0.162 0.36,0.36 V -0.36 C 0.36,-0.162 0.198,0 0,0"
             style="fill:#0d72b9;fill-opacity:1;fill-rule:nonzero;stroke:none"
             id="path186"
             inkscape:connector-curvature="0" /></g><g
           id="g188"
           transform="translate(87.9835,56.8177)"><path
             d="m 0,0 c -0.199,0 -0.361,-0.163 -0.361,-0.361 v -7.991 c 0,-0.199 0.162,-0.361 0.361,-0.361 0.198,0 0.36,0.162 0.36,0.361 v 7.991 C 0.36,-0.163 0.198,0 0,0"
             style="fill:#0d72b9;fill-opacity:1;fill-rule:nonzero;stroke:none"
             id="path190"
             inkscape:connector-curvature="0" /></g><g
           id="g192"
           transform="translate(92.4747,58.7113)"><path
             d="m 0,0 c -0.198,0 -0.361,-0.162 -0.361,-0.36 v -9.885 c 0,-0.199 0.163,-0.361 0.361,-0.361 0.198,0 0.36,0.162 0.36,0.361 V -0.36 C 0.36,-0.162 0.198,0 0,0"
             style="fill:#0d72b9;fill-opacity:1;fill-rule:nonzero;stroke:none"
             id="path194"
             inkscape:connector-curvature="0" /></g><g
           id="g196"
           transform="translate(90.9777,60.6771)"><path
             d="m 0,0 c -0.199,0 -0.361,-0.162 -0.361,-0.36 v -11.851 c 0,-0.199 0.162,-0.361 0.361,-0.361 0.198,0 0.36,0.162 0.36,0.361 V -0.36 C 0.36,-0.162 0.198,0 0,0"
             style="fill:#0d72b9;fill-opacity:1;fill-rule:nonzero;stroke:none"
             id="path198"
             inkscape:connector-curvature="0" /></g><g
           id="g200"
           transform="translate(89.4806,59.6312)"><path
             d="m 0,0 c -0.199,0 -0.361,-0.162 -0.361,-0.36 v -10.805 c 0,-0.199 0.162,-0.361 0.361,-0.361 0.198,0 0.36,0.162 0.36,0.361 V -0.36 C 0.36,-0.162 0.198,0 0,0"
             style="fill:#0d72b9;fill-opacity:1;fill-rule:nonzero;stroke:none"
             id="path202"
             inkscape:connector-curvature="0" /></g><g
           id="g204"
           transform="translate(43.3214,66.3958)"><path
             d="m 0,0 c -0.055,-0.091 -0.145,-0.127 -0.253,-0.145 -0.198,-0.036 -0.396,0.109 -0.433,0.307 -0.036,0.198 0.109,0.397 0.307,0.433 h 0.054 c 0.072,0 0.163,-0.018 0.217,-0.073 C -0.019,0.469 0.018,0.378 0.036,0.271 0.09,0.18 0.054,0.071 0,0 m 0.343,1.1 c -0.235,0.162 -0.524,0.234 -0.812,0.198 -0.595,-0.09 -0.992,-0.65 -0.902,-1.244 0.055,-0.289 0.198,-0.541 0.433,-0.703 0.18,-0.145 0.415,-0.2 0.631,-0.2 0.054,0 0.109,0 0.181,0.019 0.595,0.09 0.991,0.649 0.901,1.244 C 0.722,0.667 0.577,0.92 0.343,1.1"
             style="fill:#0d72b9;fill-opacity:1;fill-rule:nonzero;stroke:none"
             id="path206"
             inkscape:connector-curvature="0" /></g><g
           id="g208"
           transform="translate(41.4269,64.5911)"><path
             d="m 0,0 c -0.107,-0.018 -0.198,0.055 -0.216,0.163 -0.018,0.108 0.054,0.198 0.162,0.216 h 0.036 c 0.09,0 0.181,-0.072 0.199,-0.162 C 0.181,0.108 0.108,0.019 0,0 M 0.866,0.325 C 0.794,0.812 0.325,1.155 -0.18,1.083 -0.667,1.011 -1.01,0.542 -0.937,0.036 c 0.072,-0.45 0.451,-0.757 0.902,-0.757 0.054,0 0.09,0 0.143,0.018 0.505,0.072 0.83,0.541 0.758,1.028"
             style="fill:#0d72b9;fill-opacity:1;fill-rule:nonzero;stroke:none"
             id="path210"
             inkscape:connector-curvature="0" /></g><g
           id="g212"
           transform="translate(38.0001,65.2767)"><path
             d="M 0,0 C 0.072,0 0.145,0.019 0.217,0.072 L 1.912,1.317 C 2.074,1.425 2.11,1.66 1.984,1.822 1.876,1.984 1.642,2.021 1.479,1.895 L -0.217,0.649 C -0.379,0.541 -0.415,0.307 -0.289,0.145 -0.217,0.055 -0.108,0 0,0"
             style="fill:#0d72b9;fill-opacity:1;fill-rule:nonzero;stroke:none"
             id="path214"
             inkscape:connector-curvature="0" /></g><g
           id="g216"
           transform="translate(38.0001,63.762)"><path
             d="M 0,0 C 0.072,0 0.145,0.018 0.217,0.072 L 1.912,1.316 C 2.074,1.425 2.11,1.659 1.984,1.821 1.876,1.984 1.642,2.021 1.479,1.894 L -0.217,0.649 C -0.379,0.541 -0.415,0.307 -0.289,0.145 -0.217,0.054 -0.108,0 0,0"
             style="fill:#0d72b9;fill-opacity:1;fill-rule:nonzero;stroke:none"
             id="path218"
             inkscape:connector-curvature="0" /></g><g
           id="g220"
           transform="translate(38.0001,62.2464)"><path
             d="M 0,0 C 0.072,0 0.145,0.019 0.217,0.072 L 1.912,1.317 C 2.074,1.425 2.11,1.66 1.984,1.822 1.876,1.984 1.642,2.021 1.479,1.895 L -0.217,0.649 C -0.379,0.541 -0.415,0.307 -0.289,0.145 -0.217,0.055 -0.108,0 0,0"
             style="fill:#0d72b9;fill-opacity:1;fill-rule:nonzero;stroke:none"
             id="path222"
             inkscape:connector-curvature="0" /></g><g
           id="g224"
           transform="translate(38.0001,60.7318)"><path
             d="M 0,0 C 0.072,0 0.145,0.018 0.217,0.072 L 1.912,1.316 C 2.074,1.425 2.11,1.659 1.984,1.821 1.876,1.983 1.642,2.02 1.479,1.894 L -0.217,0.649 C -0.379,0.541 -0.415,0.307 -0.289,0.144 -0.217,0.054 -0.108,0 0,0"
             style="fill:#0d72b9;fill-opacity:1;fill-rule:nonzero;stroke:none"
             id="path226"
             inkscape:connector-curvature="0" /></g><g
           id="g228"
           transform="translate(38.0001,59.2161)"><path
             d="M 0,0 C 0.072,0 0.145,0.019 0.217,0.072 L 1.912,1.317 C 2.074,1.425 2.11,1.659 1.984,1.822 1.876,1.984 1.642,2.021 1.479,1.895 L -0.217,0.649 C -0.379,0.541 -0.415,0.307 -0.289,0.145 -0.217,0.055 -0.108,0 0,0"
             style="fill:#0d72b9;fill-opacity:1;fill-rule:nonzero;stroke:none"
             id="path230"
             inkscape:connector-curvature="0" /></g><g
           id="g232"
           transform="translate(38.0001,57.7015)"><path
             d="M 0,0 C 0.072,0 0.145,0.018 0.217,0.071 L 1.912,1.316 C 2.074,1.425 2.11,1.659 1.984,1.821 1.876,1.983 1.642,2.02 1.479,1.894 L -0.217,0.649 C -0.379,0.541 -0.415,0.307 -0.289,0.144 -0.217,0.054 -0.108,0 0,0"
             style="fill:#0d72b9;fill-opacity:1;fill-rule:nonzero;stroke:none"
             id="path234"
             inkscape:connector-curvature="0" /></g><g
           id="g236"
           transform="translate(38.0001,56.1859)"><path
             d="M 0,0 C 0.072,0 0.145,0.019 0.217,0.072 L 1.912,1.316 C 2.074,1.425 2.11,1.659 1.984,1.822 1.876,1.984 1.642,2.021 1.479,1.894 L -0.217,0.649 C -0.379,0.541 -0.415,0.307 -0.289,0.145 -0.217,0.054 -0.108,0 0,0"
             style="fill:#0d72b9;fill-opacity:1;fill-rule:nonzero;stroke:none"
             id="path238"
             inkscape:connector-curvature="0" /></g><g
           id="g240"
           transform="translate(38.0001,54.6712)"><path
             d="M 0,0 C 0.072,0 0.145,0.018 0.217,0.071 L 1.912,1.316 C 2.074,1.425 2.11,1.659 1.984,1.821 1.876,1.983 1.642,2.02 1.479,1.894 L -0.217,0.648 C -0.379,0.541 -0.415,0.307 -0.289,0.144 -0.217,0.054 -0.108,0 0,0"
             style="fill:#0d72b9;fill-opacity:1;fill-rule:nonzero;stroke:none"
             id="path242"
             inkscape:connector-curvature="0" /></g><g
           id="g244"
           transform="translate(38.0001,53.1556)"><path
             d="M 0,0 C 0.072,0 0.145,0.018 0.217,0.072 L 1.912,1.316 C 2.074,1.425 2.11,1.659 1.984,1.822 1.876,1.984 1.642,2.021 1.479,1.894 L -0.217,0.649 C -0.379,0.541 -0.415,0.307 -0.289,0.145 -0.217,0.054 -0.108,0 0,0"
             style="fill:#0d72b9;fill-opacity:1;fill-rule:nonzero;stroke:none"
             id="path246"
             inkscape:connector-curvature="0" /></g><g
           id="g248"
           transform="translate(38.0001,51.64)"><path
             d="M 0,0 C 0.072,0 0.145,0.019 0.217,0.072 L 1.912,1.317 C 2.074,1.426 2.11,1.66 1.984,1.822 1.876,1.984 1.642,2.021 1.479,1.895 L -0.217,0.649 C -0.379,0.542 -0.415,0.307 -0.289,0.145 -0.217,0.055 -0.108,0 0,0"
             style="fill:#0d72b9;fill-opacity:1;fill-rule:nonzero;stroke:none"
             id="path250"
             inkscape:connector-curvature="0" /></g><g
           id="g252"
           transform="translate(39.4796,52.0189)"><path
             d="m 0,0 -1.696,-1.244 c -0.162,-0.109 -0.199,-0.343 -0.073,-0.505 0.073,-0.091 0.181,-0.145 0.29,-0.145 0.072,0 0.144,0.018 0.216,0.073 l 1.696,1.244 c 0.162,0.108 0.198,0.343 0.072,0.505 C 0.396,0.072 0.162,0.108 0,0"
             style="fill:#0d72b9;fill-opacity:1;fill-rule:nonzero;stroke:none"
             id="path254"
             inkscape:connector-curvature="0" /></g><g
           id="g256"
           transform="translate(39.4796,50.5042)"><path
             d="m 0,0 -1.696,-1.245 c -0.162,-0.109 -0.199,-0.343 -0.073,-0.505 0.073,-0.09 0.181,-0.145 0.29,-0.145 0.072,0 0.144,0.019 0.216,0.073 l 1.696,1.245 c 0.162,0.108 0.198,0.343 0.072,0.505 C 0.396,0.072 0.162,0.108 0,0"
             style="fill:#0d72b9;fill-opacity:1;fill-rule:nonzero;stroke:none"
             id="path258"
             inkscape:connector-curvature="0" /></g></g></g></g></svg>