<?xml version="1.0" encoding="UTF-8" standalone="no"?>
<!-- Generator: Adobe Illustrator 22.1.0, SVG Export Plug-In . SVG Version: 6.00 Build 0)  -->

<svg
   xmlns:dc="http://purl.org/dc/elements/1.1/"
   xmlns:cc="http://creativecommons.org/ns#"
   xmlns:rdf="http://www.w3.org/1999/02/22-rdf-syntax-ns#"
   xmlns:svg="http://www.w3.org/2000/svg"
   xmlns="http://www.w3.org/2000/svg"
   xmlns:sodipodi="http://sodipodi.sourceforge.net/DTD/sodipodi-0.dtd"
   xmlns:inkscape="http://www.inkscape.org/namespaces/inkscape"
   version="1.1"
   id="Layer_1"
   x="0px"
   y="0px"
   viewBox="0 0 219.68505 205.51182"
   xml:space="preserve"
   inkscape:version="0.91 r13725"
   sodipodi:docname="Ment.svg"
   width="62mm"
   height="58mm"><metadata
     id="metadata31"><rdf:RDF><cc:Work
         rdf:about=""><dc:format>image/svg+xml</dc:format><dc:type
           rdf:resource="http://purl.org/dc/dcmitype/StillImage" /><dc:title></dc:title></cc:Work></rdf:RDF></metadata><defs
     id="defs29" /><sodipodi:namedview
     pagecolor="#ffffff"
     bordercolor="#666666"
     borderopacity="1"
     objecttolerance="10"
     gridtolerance="10"
     guidetolerance="10"
     inkscape:pageopacity="0"
     inkscape:pageshadow="2"
     inkscape:window-width="1361"
     inkscape:window-height="978"
     id="namedview27"
     showgrid="false"
     inkscape:document-units="mm"
     units="mm"
     inkscape:zoom="2.5051337"
     inkscape:cx="75.398211"
     inkscape:cy="105.25911"
     inkscape:window-x="546"
     inkscape:window-y="35"
     inkscape:window-maximized="0"
     inkscape:current-layer="g4546" /><style
     type="text/css"
     id="style3">
	.st0{fill:#FFFFFF;}
	.st1{fill:#0E73BA;}
	.st2{fill:#56A8DD;}
</style><g
     inkscape:groupmode="layer"
     id="layer1"
     inkscape:label="Base"
     style="display:none"><path
       style="fill:#0e73ba"
       inkscape:connector-curvature="0"
       id="path13"
       d="m 166.4116,198.86581 c -7.02469,0 -12.64445,-5.61975 -12.64445,-12.64444 l 2.80988,-35.82593 c 0,-3.98066 -3.27819,-4.21481 -4.44897,-4.21481 -3.27819,0 -3.7465,2.34156 -3.98066,3.27819 l -8.89794,40.27489 c -1.40494,5.61975 -6.32222,9.36625 -12.17613,9.36625 l -26.45967,0 c -10.771193,0 -15.922633,0.70247 -18.732509,-9.36625 l -9.834567,-40.27489 c -0.234157,-0.70247 -0.702469,-3.27819 -3.980658,-3.27819 -1.170782,0 -4.448971,0.23415 -4.448971,4.21481 l 2.107407,35.82593 c 0,7.02469 -5.619753,12.64444 -12.644444,12.64444 l -37.465017,0 c -7.0246909,0 -12.6444436,-5.61975 -12.6444436,-12.64444 l 0,-166.485177 c 0,-7.024691 5.6197527,-12.6444433 12.6444436,-12.6444433 l 56.431683,0 c 10.537036,0 19.669134,7.2588473 22.47901,17.3275703 l 11.005346,43.084771 c 0.70247,2.809876 2.80988,3.278189 4.21482,3.278189 1.40494,0 3.51234,-0.468313 4.21481,-3.278189 L 124.96592,24.653477 C 127.54164,14.350597 136.9079,7.0917497 147.44493,7.0917497 l 56.43168,0 c 7.0247,0 12.64445,5.6197523 12.64445,12.6444433 l 0,166.485177 c 0,7.02469 -5.61975,12.64444 -12.64445,12.64444 l -37.46501,0 z"
       class="st1" /><path
       style="fill:#56a8dd"
       inkscape:connector-curvature="0"
       id="path15"
       d="m 22.171279,16.69216 52.919337,0 c 4.448971,0 8.429629,3.044033 9.366255,7.258848 l 15.922629,61.11481 c 2.34157,9.834567 16.39095,9.834567 18.96667,0 l 15.68847,-61.11481 c 1.17079,-4.214815 4.91729,-7.258848 9.36626,-7.258848 l 52.68518,0 c 5.3856,0 9.83457,4.448971 9.83457,9.834568 l 0,153.372412 c 0,5.3856 -4.44897,9.83457 -9.83457,9.83457 l -24.35226,0 c -5.3856,0 -9.83457,-4.44897 -9.83457,-9.83457 l 0,-44.95802 c 0,-11.47366 -16.39094,-13.58107 -19.20082,-2.34156 l -12.41029,49.40699 c -1.17078,4.21482 -4.91728,7.25885 -9.36625,7.25885 l -24.586419,0 c -4.448971,0 -8.429629,-3.04403 -9.366255,-7.25885 L 75.324773,132.59956 c -2.809877,-11.00535 -19.200822,-8.89794 -19.200822,2.34156 l 0,44.72387 c 0,5.38559 -4.448971,9.83456 -9.834567,9.83456 l -24.352261,0 c -5.385597,0 -9.834568,-4.44897 -9.834568,-9.83456 l 0,-153.372419 c 0.468313,-5.15144 4.917284,-9.600411 10.068724,-9.600411 z"
       class="st2" /><path
       style="fill:#0e73ba"
       inkscape:connector-curvature="0"
       id="path19"
       d="m 149.55234,25.824259 c -4.44897,0 -8.42963,3.746501 -8.42963,8.429628 0,2.809877 1.40494,5.15144 3.51235,6.790535 -3.51235,9.834567 -6.08807,18.264196 -8.42963,25.991356 -7.72716,25.05473 -10.7712,35.123452 -26.69383,35.123452 -13.112755,0 -14.517693,-5.853907 -16.156788,-13.346911 C 91.949874,82.95841 90.31078,75.699563 81.646994,73.826312 77.900493,73.123843 66.426831,73.123843 48.162635,73.592156 c -7.961316,0.234156 -16.390945,0.234156 -22.947323,0.234156 -1.639095,0 -3.044033,1.404938 -3.044033,3.044033 0,1.639095 1.404938,3.044033 3.044033,3.044033 6.790534,0 14.986007,-0.234157 23.181479,-0.234157 13.346913,-0.234156 28.567076,-0.702469 32.079422,0.234157 4.917283,1.170781 5.853909,4.214814 7.258847,10.30288 1.639094,7.727159 4.214814,18.030042 22.0107,18.030042 20.3716,0 24.58642,-14.049384 32.31358,-39.338271 2.34156,-7.72716 4.91728,-16.390945 8.42962,-25.991356 4.21482,-0.468313 7.49301,-3.980658 7.49301,-8.429629 0,-4.917284 -3.51235,-8.663785 -8.42963,-8.663785 z m 0,10.771192 c 0,0 0,0 0,0 -0.46831,-0.234156 -0.70247,-0.234156 -1.17078,-0.234156 -0.70247,-0.468313 -1.40494,-1.170782 -1.40494,-2.107408 0,-1.404938 1.17078,-2.341563 2.34156,-2.341563 1.17078,0 2.34157,1.170782 2.34157,2.341563 0.46831,1.170782 -0.70247,2.341564 -2.10741,2.341564 z"
       class="st1" /><path
       style="fill:#0e73ba"
       inkscape:connector-curvature="0"
       id="path21"
       d="m 171.56304,26.526728 c -4.68313,0 -8.66379,3.980658 -8.66379,8.663785 0,4.683127 3.98066,8.663785 8.66379,8.663785 4.68312,0 8.66378,-3.980658 8.66378,-8.663785 0,-4.683127 -3.98066,-8.663785 -8.66378,-8.663785 z m 0,11.473661 c -1.40494,0 -2.57572,-1.170782 -2.57572,-2.57572 0,-1.404938 1.17078,-2.57572 2.57572,-2.57572 1.40493,0 2.57572,1.170782 2.57572,2.57572 0,1.170782 -1.17079,2.57572 -2.57572,2.57572 z"
       class="st1" /><path
       style="fill:#0e73ba"
       inkscape:connector-curvature="0"
       id="path23"
       d="m 192.1688,26.526728 c -4.68313,0 -8.66379,3.980658 -8.66379,8.663785 0,4.683127 3.98066,8.663785 8.66379,8.663785 4.68312,0 8.66378,-3.980658 8.66378,-8.663785 0,-4.683127 -3.7465,-8.663785 -8.66378,-8.663785 z m 0,11.473661 c -1.40494,0 -2.57572,-1.170782 -2.57572,-2.57572 0,-1.404938 1.17078,-2.57572 2.57572,-2.57572 1.40493,0 2.57572,1.170782 2.57572,2.57572 0.23415,1.170782 -0.93663,2.57572 -2.57572,2.57572 z"
       class="st1" /><path
       style="fill:#0e73ba"
       inkscape:connector-curvature="0"
       id="path25"
       d="m 32.942472,66.567465 36.762548,0 c 2.809876,0 5.385596,-1.170782 7.258847,-3.044033 1.873251,-1.87325 3.044033,-4.44897 2.809877,-7.258847 L 79.539587,36.829607 c 0,-1.170781 -0.234156,-2.107407 -0.468313,-3.044032 -1.87325,-4.917284 -6.556378,-8.195473 -11.941974,-8.195473 l -32.079421,0 c -7.024691,0 -12.644444,5.619753 -12.644444,12.8786 l 0.702469,18.264196 c 0,5.619753 4.214815,9.834567 9.834568,9.834567 z m 1.87325,-35.123454 32.313578,0 c 2.809876,0 5.385596,1.639095 6.322222,4.214815 0.234156,0.234156 0.234156,0.702469 0.234156,1.170781 l 0.234157,19.434978 c 0,1.170782 -0.468313,2.107408 -1.170782,3.044033 -0.702469,0.702469 -1.873251,1.170782 -3.044033,1.170782 l -36.762548,0 c -2.341564,0 -4.214815,-1.873251 -4.214815,-4.214815 L 28.025188,38.000389 c 0.234156,-3.512345 3.278189,-6.556378 6.790534,-6.556378 z"
       class="st1" /></g><g
     style="display:inline"
     inkscape:label="SilkS"
     id="g4258"
     inkscape:groupmode="layer"><path
       style="display:inline;fill:#56a8dd"
       d="M 76.171875 11.791016 L 72.564453 11.847656 L 68.957031 11.904297 L 65.349609 11.960938 L 61.744141 12.015625 L 58.136719 12.072266 L 54.529297 12.128906 L 50.921875 12.185547 L 47.314453 12.240234 L 43.707031 12.296875 L 40.101562 12.353516 L 36.494141 12.410156 L 32.886719 12.464844 L 29.279297 12.521484 L 25.671875 12.578125 L 22.064453 12.634766 L 18.457031 12.689453 C 17.169327 12.709513 15.92611 12.998733 14.777344 13.5 C 13.628578 14.001268 12.575319 14.714918 11.667969 15.587891 C 10.76062 16.460863 9.999 17.493737 9.4355469 18.628906 C 9.2946835 18.912699 9.1661478 19.202145 9.0507812 19.498047 C 8.9354146 19.793949 8.8343625 20.096044 8.7460938 20.402344 C 8.6578248 20.708645 8.5830072 21.018996 8.5234375 21.333984 C 8.4638675 21.648973 8.4198944 21.967098 8.390625 22.289062 L 8.390625 32.494141 L 8.390625 42.697266 L 8.390625 52.900391 L 8.390625 63.103516 L 8.390625 73.306641 L 8.390625 83.509766 L 8.390625 93.712891 L 8.390625 103.91602 L 8.390625 114.11914 L 8.390625 124.32227 L 8.390625 134.52539 L 8.390625 144.72852 L 8.390625 154.93164 L 8.390625 165.13477 L 8.390625 175.33984 L 8.390625 185.54297 C 8.390625 186.88937 8.6684767 188.18286 9.1699219 189.36523 C 9.671367 190.54761 10.39611 191.61854 11.289062 192.51758 C 12.182015 193.41662 13.243446 194.14424 14.417969 194.64062 C 15.592493 195.13701 16.878453 195.40253 18.224609 195.37695 L 26.111328 195.22656 L 33.996094 195.07617 L 41.882812 194.92578 L 49.767578 194.77734 C 51.113734 194.75174 52.401832 194.46106 53.576172 193.95508 C 54.750512 193.44909 55.812369 192.72805 56.705078 191.8418 C 57.597787 190.95554 58.321004 189.90273 58.822266 188.73633 C 59.323528 187.56994 59.601562 186.28976 59.601562 184.94336 L 59.601562 183.36914 L 59.601562 181.79492 L 59.601562 180.2207 L 59.601562 178.64648 L 59.601562 177.07227 L 59.601562 175.49805 L 59.601562 173.92383 L 59.601562 172.34961 C 59.601562 170.77555 59.589032 169.68805 59.570312 168.84375 C 59.551603 167.99944 59.526903 167.39988 59.501953 166.79883 C 59.477003 166.19777 59.452304 165.59626 59.433594 164.75195 C 59.414884 163.90764 59.402344 162.82014 59.402344 161.24609 L 59.402344 159.67188 L 59.402344 158.09766 L 59.402344 156.52344 L 59.402344 154.94922 L 59.402344 153.375 L 59.402344 151.80078 L 59.402344 150.22656 L 59.402344 148.65234 L 59.402344 147.08008 L 59.402344 145.50586 L 59.402344 143.93164 L 59.402344 142.35742 C 59.402344 141.65495 59.446671 140.98678 59.53125 140.35547 C 59.61583 139.72415 59.74105 139.12837 59.900391 138.57031 C 60.059733 138.01225 60.254224 137.49248 60.478516 137.00977 C 60.702807 136.52706 60.9569 136.08299 61.236328 135.67773 C 61.515756 135.27246 61.819779 134.90579 62.144531 134.58008 C 62.469283 134.25436 62.813567 133.96868 63.173828 133.72461 C 63.534089 133.48055 63.910917 133.27751 64.296875 133.11719 C 64.682833 132.95687 65.078628 132.84009 65.480469 132.76562 C 65.882309 132.69113 66.289356 132.66033 66.697266 132.67383 C 67.105175 132.68733 67.513803 132.74411 67.917969 132.84766 C 68.322135 132.95117 68.722673 133.10123 69.113281 133.29688 C 69.503888 133.49251 69.884716 133.73356 70.251953 134.02344 C 70.619197 134.31332 70.972587 134.65089 71.306641 135.03711 C 71.640694 135.42334 71.955042 135.85908 72.246094 136.34375 C 72.537146 136.82842 72.804729 137.36207 73.042969 137.94727 C 73.281209 138.53248 73.490399 139.16958 73.666016 139.85742 L 74.060547 141.57812 L 74.457031 143.29688 L 74.851562 145.01758 L 75.246094 146.73828 L 75.642578 148.45898 L 76.037109 150.17969 L 76.431641 151.90039 L 76.828125 153.62109 C 77.484808 155.5967 78.128761 157.57352 78.742188 159.49023 C 79.355614 161.40693 79.937334 163.26231 80.466797 164.99609 C 80.99626 166.72987 81.474114 168.34073 81.878906 169.76758 C 82.283697 171.19443 82.616055 172.43768 82.855469 173.43359 L 83.373047 175.13672 L 83.892578 176.83984 L 84.412109 178.54102 L 84.929688 180.24414 L 86.509766 187.12695 C 86.743921 188.18066 87.327963 189.15087 88.140625 190.01562 C 88.953286 190.88038 89.994639 191.63947 91.146484 192.26562 C 92.298329 192.89178 93.560795 193.3867 94.8125 193.72461 C 96.064206 194.06252 97.305727 194.24219 98.417969 194.24219 L 104.56445 194.24219 L 110.71094 194.24219 L 116.85742 194.24219 L 123.00391 194.24219 C 124.11615 194.24219 125.36966 194.0523 126.64258 193.70117 C 127.9155 193.35003 129.20855 192.83911 130.39844 192.19531 C 131.58833 191.55151 132.67591 190.77447 133.53906 189.89648 C 134.40221 189.01849 135.03934 188.03808 135.33203 186.98438 L 137.48242 179.10547 L 138.10938 176.85742 L 138.73633 174.61133 L 139.36133 172.36328 L 139.98828 170.11719 C 140.47194 168.23876 140.81815 166.86036 141.10938 165.69922 C 141.4006 164.53807 141.63627 163.59342 141.89844 162.58398 C 142.16061 161.57454 142.44921 160.49947 142.8457 159.07617 C 143.24218 157.65287 143.74723 155.88125 144.44141 153.47852 L 144.82812 151.75781 L 145.2168 150.03906 L 145.60352 148.31836 L 145.99219 146.59766 L 146.38086 144.87695 L 146.76758 143.15625 L 147.15625 141.43555 L 147.54297 139.71484 C 147.71859 139.01237 147.92379 138.36455 148.15234 137.76758 C 148.3809 137.17061 148.63327 136.62457 148.90625 136.13086 C 149.17923 135.63714 149.47238 135.19541 149.78125 134.80273 C 150.09013 134.41004 150.4157 134.06734 150.75195 133.77344 C 151.0882 133.47953 151.43592 133.23446 151.79102 133.03711 C 152.14611 132.83976 152.50763 132.69092 152.87305 132.58789 C 153.23848 132.48485 153.60737 132.42698 153.97461 132.41602 C 154.34184 132.40502 154.70784 132.44067 155.06836 132.51953 C 155.42888 132.59843 155.78363 132.72023 156.12891 132.88672 C 156.4742 133.05321 156.80934 133.26377 157.13086 133.51562 C 157.45239 133.76748 157.75959 134.06149 158.04883 134.39648 C 158.33807 134.73147 158.60898 135.10755 158.85742 135.52344 C 159.10586 135.93932 159.33214 136.39412 159.53125 136.88867 C 159.73037 137.38321 159.90365 137.91732 160.04492 138.48828 C 160.18618 139.05925 160.2962 139.66734 160.37109 140.3125 C 160.44599 140.95765 160.48438 141.64031 160.48438 142.35742 L 160.48438 143.93945 L 160.48438 145.51953 L 160.48438 147.10156 L 160.48438 148.68359 L 160.48438 150.26367 L 160.48438 151.8457 L 160.48438 153.42773 L 160.48438 155.00781 L 160.48438 156.58984 L 160.48438 158.17188 L 160.48438 159.75195 L 160.48438 161.33398 C 160.48438 162.91536 160.49693 164.0097 160.51562 164.86133 C 160.53432 165.71296 160.55908 166.32131 160.58398 166.92969 C 160.60888 167.53807 160.6356 168.14641 160.6543 168.99805 C 160.673 169.84968 160.68555 170.94401 160.68555 172.52539 L 160.68555 174.10742 L 160.68555 175.68945 L 160.68555 177.26953 L 160.68555 178.85156 L 160.68555 180.43359 L 160.68555 182.01367 L 160.68555 183.5957 L 160.68555 185.17773 C 160.68555 186.52413 160.96345 187.80806 161.46484 188.97852 C 161.96623 190.14899 162.69107 191.20619 163.58398 192.0957 C 164.47689 192.98521 165.53638 193.7074 166.71094 194.21094 C 167.88549 194.71448 169.17514 194.99917 170.52148 195.01172 L 178.55664 195.08594 L 186.5918 195.16016 L 194.62695 195.23633 L 202.66211 195.31055 C 204.00845 195.32315 205.29633 195.05156 206.4707 194.55273 C 207.64508 194.0539 208.70695 193.32743 209.59961 192.43164 C 210.49228 191.53586 211.21559 190.47128 211.7168 189.29297 C 211.8421 188.9984 211.95423 188.69644 212.05078 188.38867 C 212.14738 188.08091 212.22884 187.76644 212.29492 187.44727 C 212.36102 187.12811 212.41141 186.80339 212.44531 186.47461 C 212.47921 186.14584 212.49609 185.81316 212.49609 185.47656 L 212.49609 175.27344 L 212.49609 165.07031 L 212.49609 154.86719 L 212.49609 144.66406 L 212.49609 134.46094 L 212.49609 124.25781 L 212.49609 114.05469 L 212.49609 103.85156 L 212.49609 93.648438 L 212.49609 83.443359 L 212.49609 73.240234 L 212.49609 63.037109 L 212.49609 52.833984 L 212.49609 42.630859 L 212.49609 32.427734 L 212.49609 22.224609 C 212.49609 20.87821 212.21801 19.593804 211.7168 18.423828 C 211.21559 17.253851 210.49228 16.197715 209.59961 15.308594 C 208.70695 14.419474 207.64507 13.697191 206.4707 13.193359 C 205.29633 12.689528 204.00844 12.404735 202.66211 12.390625 L 199.08789 12.353516 L 195.51562 12.316406 L 191.94141 12.279297 L 188.36719 12.240234 L 184.79297 12.203125 L 181.2207 12.166016 L 177.64648 12.128906 L 174.07227 12.091797 L 170.49805 12.052734 L 166.92578 12.015625 L 163.35156 11.978516 L 159.77734 11.941406 L 156.20312 11.904297 L 152.63086 11.867188 L 149.05664 11.828125 L 145.48242 11.791016 C 144.37024 11.779356 143.3017 11.963548 142.30664 12.3125 C 141.31159 12.661452 140.38975 13.175552 139.57031 13.822266 C 138.75088 14.468981 138.03454 15.249227 137.44922 16.130859 C 136.86391 17.012491 136.40989 17.995125 136.11719 19.048828 L 135.10156 22.357422 L 134.08594 25.666016 L 133.07031 28.972656 L 132.05469 32.28125 L 131.03711 35.589844 L 130.02148 38.898438 L 129.00586 42.205078 L 127.99023 45.513672 L 126.97461 48.822266 L 125.95898 52.130859 L 124.94336 55.4375 L 123.92578 58.746094 L 122.91016 62.054688 L 121.89453 65.363281 L 120.87891 68.669922 L 119.86328 71.978516 C 119.7023 72.593177 119.49691 73.169203 119.25195 73.707031 C 119.00699 74.244859 118.72192 74.744082 118.4043 75.205078 C 118.08668 75.666073 117.73638 76.088493 117.35742 76.472656 C 116.97845 76.856818 116.57157 77.204389 116.14258 77.511719 C 115.7136 77.819049 115.2626 78.087861 114.79492 78.318359 C 114.32723 78.548857 113.84273 78.740866 113.34766 78.894531 C 112.85259 79.048196 112.34708 79.163401 111.83594 79.240234 C 111.32481 79.317064 110.80885 79.355469 110.29297 79.355469 C 109.77709 79.355469 109.26125 79.317062 108.75195 79.240234 C 108.24264 79.163404 107.73946 79.048196 107.24805 78.894531 C 106.75664 78.740866 106.27665 78.548857 105.81445 78.318359 C 105.35225 78.087861 104.908 77.819049 104.48633 77.511719 C 104.06467 77.204389 103.66473 76.856818 103.29492 76.472656 C 102.9251 76.088493 102.58399 75.666073 102.27734 75.205078 C 101.9707 74.744082 101.69896 74.244859 101.4668 73.707031 C 101.23464 73.169203 101.04283 72.593177 100.89648 71.978516 L 99.9375 68.669922 L 98.976562 65.363281 L 98.017578 62.054688 L 97.056641 58.746094 L 96.097656 55.4375 L 95.136719 52.130859 L 94.177734 48.822266 L 93.216797 45.513672 L 92.257812 42.205078 L 91.298828 38.898438 L 90.337891 35.589844 L 89.378906 32.28125 L 88.417969 28.972656 L 87.458984 25.666016 L 86.498047 22.357422 L 85.539062 19.048828 C 85.480523 18.785402 85.409827 18.525789 85.328125 18.271484 C 85.246425 18.01718 85.154387 17.769559 85.050781 17.525391 C 84.947175 17.281222 84.833235 17.041611 84.708984 16.808594 C 84.584734 16.575576 84.450277 16.347804 84.306641 16.126953 C 83.732097 15.243551 83.006208 14.462584 82.171875 13.814453 C 81.337542 13.166322 80.39438 12.650624 79.380859 12.302734 C 78.367338 11.954844 77.283983 11.773696 76.171875 11.791016 z M 171.40625 27.955078 C 171.99164 27.955078 172.56601 28.016763 173.12305 28.134766 C 173.68009 28.252766 174.22044 28.427198 174.73633 28.650391 C 175.25222 28.873584 175.74316 29.145359 176.20508 29.460938 C 176.66701 29.776515 177.09898 30.136094 177.49414 30.53125 C 177.8893 30.926406 178.24888 31.358386 178.56445 31.820312 C 178.88003 32.282238 179.15181 32.773174 179.375 33.289062 C 179.5982 33.804951 179.77263 34.345301 179.89062 34.902344 C 180.00862 35.459388 180.07031 36.03375 180.07031 36.619141 C 180.07031 37.204532 180.00862 37.778895 179.89062 38.335938 C 179.77263 38.892981 179.5982 39.433331 179.375 39.949219 C 179.15181 40.465108 178.88003 40.956042 178.56445 41.417969 C 178.24888 41.879895 177.8893 42.311875 177.49414 42.707031 C 177.09898 43.102187 176.66701 43.461766 176.20508 43.777344 C 175.74316 44.092923 175.25222 44.364698 174.73633 44.587891 C 174.22044 44.811084 173.68009 44.985516 173.12305 45.103516 C 172.56601 45.221517 171.99164 45.283203 171.40625 45.283203 C 170.82086 45.283203 170.24649 45.221519 169.68945 45.103516 C 169.1324 44.985516 168.59205 44.811084 168.07617 44.587891 C 167.56028 44.364698 167.06935 44.092923 166.60742 43.777344 C 166.1455 43.461766 165.71351 43.102187 165.31836 42.707031 C 164.9232 42.311875 164.56363 41.879895 164.24805 41.417969 C 163.93247 40.956042 163.6607 40.465108 163.4375 39.949219 C 163.21431 39.433331 163.03987 38.892981 162.92188 38.335938 C 162.80388 37.778895 162.74219 37.204532 162.74219 36.619141 C 162.74219 36.03375 162.80388 35.459388 162.92188 34.902344 C 163.03987 34.345301 163.21431 33.804951 163.4375 33.289062 C 163.6607 32.773174 163.93247 32.282238 164.24805 31.820312 C 164.56363 31.358386 164.9232 30.926406 165.31836 30.53125 C 165.71351 30.136094 166.1455 29.776515 166.60742 29.460938 C 167.06935 29.145359 167.56028 28.873584 168.07617 28.650391 C 168.59205 28.427198 169.1324 28.252766 169.68945 28.134766 C 170.24649 28.016765 170.82086 27.955078 171.40625 27.955078 z M 192.01172 27.955078 C 192.62638 27.955078 193.22187 28.016763 193.79492 28.134766 C 194.36797 28.252766 194.91807 28.427198 195.43945 28.650391 C 195.96082 28.873584 196.45442 29.145359 196.91406 29.460938 C 197.3737 29.776515 197.79966 30.136094 198.1875 30.53125 C 198.57534 30.926406 198.92449 31.358386 199.23047 31.820312 C 199.53644 32.282238 199.79963 32.773174 200.01367 33.289062 C 200.22772 33.804951 200.39381 34.345301 200.50586 34.902344 C 200.61792 35.459388 200.67578 36.03375 200.67578 36.619141 C 200.67578 37.204532 200.61409 37.778894 200.49609 38.335938 C 200.37809 38.89298 200.20367 39.43333 199.98047 39.949219 C 199.75728 40.465108 199.4855 40.956043 199.16992 41.417969 C 198.85435 41.879895 198.49477 42.311874 198.09961 42.707031 C 197.70445 43.102187 197.27248 43.461765 196.81055 43.777344 C 196.34863 44.092922 195.85769 44.364698 195.3418 44.587891 C 194.82591 44.811084 194.28556 44.985516 193.72852 45.103516 C 193.17148 45.221517 192.59711 45.283203 192.01172 45.283203 C 191.42633 45.283203 190.85196 45.221519 190.29492 45.103516 C 189.73787 44.985516 189.19752 44.811084 188.68164 44.587891 C 188.16575 44.364698 187.67482 44.092922 187.21289 43.777344 C 186.75097 43.461765 186.31898 43.102187 185.92383 42.707031 C 185.52867 42.311874 185.1691 41.879895 184.85352 41.417969 C 184.53794 40.956043 184.26617 40.465108 184.04297 39.949219 C 183.81978 39.43333 183.64534 38.89298 183.52734 38.335938 C 183.40934 37.778894 183.34766 37.204532 183.34766 36.619141 C 183.34766 36.03375 183.40934 35.459388 183.52734 34.902344 C 183.64534 34.345301 183.81978 33.804951 184.04297 33.289062 C 184.26617 32.773174 184.53794 32.282238 184.85352 31.820312 C 185.1691 31.358386 185.52867 30.926406 185.92383 30.53125 C 186.31898 30.136094 186.75097 29.776515 187.21289 29.460938 C 187.67482 29.145359 188.16575 28.873584 188.68164 28.650391 C 189.19752 28.427198 189.73787 28.252766 190.29492 28.134766 C 190.85196 28.016765 191.42633 27.955078 192.01172 27.955078 z M 151.02148 28.460938 C 151.63614 28.460938 152.22828 28.518801 152.79492 28.630859 C 153.36156 28.742914 153.90367 28.909001 154.41406 29.123047 C 154.92445 29.337094 155.4037 29.600276 155.84961 29.90625 C 156.29552 30.212225 156.70689 30.56138 157.08008 30.949219 C 157.45328 31.337058 157.78784 31.763016 158.08008 32.222656 C 158.37232 32.682295 158.62311 33.175889 158.82617 33.697266 C 159.02923 34.218643 159.18538 34.768746 159.29102 35.341797 C 159.39667 35.914847 159.45117 36.51034 159.45117 37.125 C 159.45117 37.681122 159.40059 38.223356 159.30273 38.746094 C 159.20493 39.268831 159.05961 39.772785 158.87305 40.253906 C 158.6865 40.735027 158.45754 41.191775 158.19141 41.623047 C 157.92529 42.054319 157.62171 42.458841 157.28516 42.832031 C 156.94861 43.205221 156.57948 43.548593 156.18164 43.855469 C 155.78381 44.162346 155.35818 44.433687 154.9082 44.666016 C 154.45822 44.898346 153.98322 45.090683 153.49023 45.240234 C 152.99725 45.389785 152.48583 45.496149 151.95898 45.554688 C 148.44664 55.155095 145.87086 63.819715 143.5293 71.546875 C 142.5634 74.707986 141.65239 77.693669 140.75781 80.498047 C 139.86324 83.302425 138.98602 85.924656 138.08594 88.361328 C 137.18586 90.798 136.26366 93.049429 135.28125 95.107422 C 134.29884 97.165415 133.25484 99.030882 132.11328 100.69922 C 129.83014 104.03591 127.1522 106.58269 123.77148 108.29492 C 120.39077 110.00716 116.30774 110.88477 111.21484 110.88477 C 106.76587 110.88477 103.26759 110.24087 100.49805 109.1543 C 97.728503 108.06774 95.686925 106.5383 94.150391 104.76758 C 92.613857 102.99687 91.583929 100.9841 90.833984 98.931641 C 90.084038 96.879184 89.614853 94.787259 89.205078 92.855469 C 88.853846 91.333452 88.532219 90.00159 88.169922 88.841797 C 87.807626 87.682005 87.404911 86.693539 86.892578 85.859375 C 86.380246 85.025211 85.758371 84.345913 84.957031 83.800781 C 84.15569 83.25565 83.174632 82.845429 81.945312 82.552734 C 81.067226 82.318577 79.457362 82.172062 77.328125 82.087891 C 75.198887 82.003721 72.549811 81.981484 69.59375 81.996094 C 66.637688 82.010704 63.374183 82.06282 60.015625 82.125 C 56.657066 82.18718 53.203916 82.259819 49.867188 82.318359 C 45.519158 82.163316 43.909603 82.120167 39.546875 82.361328 C 36.986552 82.502983 34.968716 82.145712 32.667969 82.251953 C 30.367223 82.358195 28.281618 82.427734 26.583984 82.427734 C 26.174212 82.427734 25.77831 82.341005 25.416016 82.183594 C 25.053722 82.026188 24.725438 81.799655 24.447266 81.521484 C 24.169094 81.243312 23.942564 80.913076 23.785156 80.550781 C 23.627749 80.188487 23.539063 79.792587 23.539062 79.382812 C 23.539062 78.973041 23.627754 78.578908 23.785156 78.216797 C 23.942564 77.854687 24.169094 77.525975 24.447266 77.248047 C 24.725438 76.970119 25.053722 76.743162 25.416016 76.585938 C 25.77831 76.428714 26.174212 76.339844 26.583984 76.339844 C 28.223078 76.339844 30.602582 76.408262 32.888672 76.320312 C 38.845595 76.299433 44.220702 76.207225 49.632812 76.230469 C 54.198859 76.113392 58.34037 76.025563 62.042969 75.970703 C 65.745568 75.915843 69.008481 75.893533 71.818359 75.908203 C 74.628238 75.922863 76.985159 75.974918 78.873047 76.066406 C 79.345019 76.089276 79.787968 76.114618 80.201172 76.142578 C 80.614376 76.170538 80.997584 76.201215 81.351562 76.234375 C 81.705541 76.267535 82.029923 76.303323 82.324219 76.341797 C 82.618515 76.380277 82.883032 76.420943 83.117188 76.464844 C 83.658673 76.581922 84.171898 76.719469 84.660156 76.876953 C 85.148414 77.034436 85.612434 77.211675 86.050781 77.40625 C 86.489127 77.600824 86.903171 77.812665 87.294922 78.041016 C 87.686673 78.269367 88.055825 78.514624 88.404297 78.773438 C 89.798185 79.808694 90.859275 81.074745 91.693359 82.464844 C 92.527443 83.854943 93.134561 85.369504 93.621094 86.902344 C 94.107627 88.435183 94.472984 89.985742 94.824219 91.449219 C 95.233992 93.322468 95.628267 95.092736 96.195312 96.695312 C 96.762359 98.29789 97.502068 99.733447 98.599609 100.93359 C 99.69715 102.13374 101.15304 103.09968 103.1543 103.76562 C 105.15555 104.43157 107.70228 104.79687 110.98047 104.79688 C 114.96113 104.79688 118.13783 104.16741 120.7832 102.83203 C 123.42857 101.49664 125.54353 99.45532 127.40234 96.630859 C 129.26114 93.8064 130.86344 90.199649 132.48438 85.732422 C 133.29484 83.498809 134.109 81.050075 134.96289 78.376953 C 135.81678 75.70383 136.70989 72.80567 137.67578 69.673828 C 140.01734 61.946672 142.59312 53.516199 146.10547 43.681641 C 145.84204 43.476754 145.58975 43.261551 145.34961 43.035156 C 145.10948 42.808761 144.88206 42.571203 144.66797 42.324219 C 144.45387 42.077234 144.25366 41.81939 144.06836 41.552734 C 143.88307 41.286079 143.71233 41.010017 143.55859 40.724609 C 143.40484 40.439201 143.26788 40.14504 143.14844 39.841797 C 143.029 39.538555 142.92613 39.226408 142.84375 38.90625 C 142.76135 38.586092 142.69882 38.258031 142.65625 37.921875 C 142.61365 37.58572 142.5918 37.24186 142.5918 36.890625 C 142.5918 36.305234 142.65394 35.734229 142.77148 35.183594 C 142.88901 34.632959 143.06185 34.102559 143.2832 33.597656 C 143.50455 33.092754 143.77449 32.614209 144.08594 32.166016 C 144.39738 31.717823 144.75084 31.30043 145.13867 30.919922 C 145.52649 30.539415 145.94796 30.194424 146.39844 29.892578 C 146.84892 29.590733 147.32872 29.331348 147.82812 29.119141 C 148.32754 28.906934 148.84818 28.742451 149.38281 28.630859 C 149.91743 28.519267 150.46536 28.460937 151.02148 28.460938 z M 33.986328 28.832031 L 42.005859 28.832031 L 50.025391 28.832031 L 58.044922 28.832031 L 66.064453 28.832031 C 67.410853 28.832031 68.71379 29.035752 69.939453 29.419922 C 71.165116 29.804082 72.314446 30.368838 73.353516 31.085938 C 74.392586 31.803047 75.320803 32.673045 76.107422 33.671875 C 76.894041 34.670695 77.537546 35.798024 78.005859 37.027344 C 78.064399 37.261494 78.124808 37.494612 78.179688 37.732422 C 78.234562 37.970242 78.284225 38.212148 78.328125 38.460938 C 78.372025 38.709727 78.409937 38.965332 78.435547 39.232422 C 78.461157 39.499502 78.474609 39.777613 78.474609 40.070312 L 78.533203 44.929688 L 78.591797 49.789062 L 78.650391 54.646484 L 78.708984 59.505859 C 78.767517 60.208329 78.738915 60.89661 78.632812 61.5625 C 78.52671 62.22838 78.342541 62.871668 78.09375 63.486328 C 77.844959 64.100988 77.531637 64.685565 77.162109 65.234375 C 76.792582 65.783175 76.366749 66.295362 75.898438 66.763672 C 75.430125 67.231982 74.917945 67.65806 74.369141 68.03125 C 73.820336 68.40443 73.235754 68.724861 72.621094 68.988281 C 72.006433 69.251711 71.363149 69.456673 70.697266 69.595703 C 70.031383 69.734713 69.343095 69.808594 68.640625 69.808594 L 59.449219 69.808594 L 50.259766 69.808594 L 41.068359 69.808594 L 31.878906 69.808594 C 30.473967 69.808594 29.156119 69.54544 27.970703 69.0625 C 26.785287 68.57955 25.731601 67.876137 24.853516 66.998047 C 23.97543 66.119967 23.272009 65.066269 22.789062 63.880859 C 22.306116 62.695439 22.042969 61.379549 22.042969 59.974609 L 21.867188 55.408203 L 21.691406 50.841797 L 21.515625 46.275391 L 21.341797 41.708984 C 21.341797 39.894274 21.691512 38.182396 22.328125 36.634766 C 22.964737 35.087136 23.887785 33.704978 25.029297 32.548828 C 26.170809 31.392678 27.532177 30.462536 29.046875 29.822266 C 30.561574 29.181996 32.230155 28.832031 33.986328 28.832031 z M 33.751953 34.685547 C 32.873868 34.685547 32.025146 34.874584 31.242188 35.214844 C 30.459228 35.555104 29.741613 36.046454 29.126953 36.646484 C 28.512293 37.246504 28.00014 37.955075 27.626953 38.734375 C 27.253766 39.513675 27.019477 40.364098 26.960938 41.242188 L 27.136719 45.806641 L 27.3125 50.373047 L 27.488281 54.939453 L 27.664062 59.505859 C 27.664062 60.091249 27.779984 60.647444 27.992188 61.152344 C 28.204391 61.657244 28.512074 62.109724 28.892578 62.490234 C 29.273082 62.870734 29.727485 63.178415 30.232422 63.390625 C 30.737321 63.602825 31.293516 63.720703 31.878906 63.720703 L 41.068359 63.720703 L 50.259766 63.720703 L 59.449219 63.720703 L 68.640625 63.720703 C 68.933323 63.720703 69.22634 63.691619 69.511719 63.636719 C 69.797099 63.581839 70.074465 63.500877 70.337891 63.398438 C 70.601317 63.295998 70.851286 63.171987 71.078125 63.029297 C 71.304964 62.886607 71.50993 62.724448 71.685547 62.548828 C 71.861165 62.314668 72.021374 62.08157 72.164062 61.84375 C 72.306751 61.60594 72.43076 61.364024 72.533203 61.115234 C 72.635646 60.866444 72.716604 60.61083 72.771484 60.34375 C 72.826364 60.07666 72.855469 59.798549 72.855469 59.505859 L 72.796875 54.646484 L 72.738281 49.789062 L 72.679688 44.929688 L 72.621094 40.070312 C 72.621094 39.953233 72.620887 39.836076 72.617188 39.722656 C 72.613528 39.609236 72.606427 39.500877 72.591797 39.398438 C 72.577167 39.295998 72.554414 39.199334 72.521484 39.115234 C 72.488557 39.031084 72.445259 38.958891 72.386719 38.900391 C 72.152561 38.256461 71.815529 37.670177 71.398438 37.154297 C 70.981346 36.638427 70.483856 36.192042 69.927734 35.826172 C 69.371612 35.460302 68.756717 35.176332 68.105469 34.982422 C 67.454221 34.788512 66.766923 34.685547 66.064453 34.685547 L 57.986328 34.685547 L 49.908203 34.685547 L 41.830078 34.685547 L 33.751953 34.685547 z "
       transform="translate(-7.629395e-6,0)"
       id="path15-5" /></g><g
     inkscape:groupmode="layer"
     id="g4288"
     inkscape:label="Cu"
     style="display:inline"><path
       style="display:inline;fill:#800000"
       inkscape:connector-curvature="0"
       id="path19-2"
       d="m 146.01168,43.586727 c 0,0 -0.3805,1.141512 -0.98785,2.974517 -0.60734,1.833004 -1.44152,4.357502 -2.34888,7.123473 -0.90736,2.765971 -1.88789,5.773416 -2.78792,8.572316 -0.90004,2.7989 -1.71959,5.389254 -2.30498,7.321044 -1.93179,6.263685 -3.57088,11.590744 -5.19169,16.05801 -1.6208,4.467266 -3.22331,8.074738 -5.08192,10.899249 -1.85862,2.824512 -3.97335,4.866064 -6.61858,6.201484 -2.64524,1.33542 -5.82098,1.96472 -9.80164,1.96472 -3.27819,0 -5.82464,-0.36587 -7.82595,-1.03175 -2.0013,-0.66588 -3.457462,-1.63178 -4.55507,-2.83183 C 97.409592,99.637908 96.670536,98.2037 96.103438,96.601192 95.536341,94.998685 95.141202,93.227878 94.731428,91.354628 94.380194,89.89115 94.014324,88.339864 93.527718,86.806871 93.041112,85.273878 92.433769,83.759178 91.599587,82.368875 90.765405,80.978571 89.704384,79.712663 88.310422,78.677252 86.91646,77.641842 85.189557,76.83693 83.023611,76.368617 82.086986,76.193 80.667413,76.061286 78.779527,75.969819 76.89164,75.878351 74.535441,75.82713 71.725564,75.812495 c -2.809877,-0.01463 -6.073432,0.0073 -9.776029,0.0622 -3.702597,0.05488 -7.844237,0.142689 -12.410285,0.259766 -1.99033,0.05854 -4.009929,0.102445 -6.022211,0.135374 -2.012282,0.03293 -4.017246,0.05488 -5.978306,0.06952 -1.96106,0.01463 -3.878216,0.02195 -5.71488,0.02561 -1.836665,0.0037 -3.592838,0.0037 -5.231933,0.0037 -0.409772,0 -0.804911,0.08781 -1.167121,0.245133 -0.36221,0.157324 -0.691492,0.384163 -0.969553,0.662223 -0.27806,0.278061 -0.504899,0.607343 -0.662223,0.969553 -0.157324,0.36221 -0.245133,0.757349 -0.245133,1.167121 0,0.409775 0.08781,0.804915 0.245133,1.167127 0.157324,0.362211 0.384163,0.691494 0.662223,0.969556 0.278061,0.278061 0.607343,0.5049 0.969553,0.662224 0.36221,0.157324 0.757349,0.245133 1.167121,0.245133 1.697635,0 3.483078,-0.01463 5.334377,-0.03659 1.8513,-0.02195 3.768455,-0.05122 5.729514,-0.08049 1.96106,-0.02927 3.966023,-0.05854 5.992939,-0.08049 2.026915,-0.02195 4.075783,-0.03659 6.12465,-0.03659 3.33673,-0.05854 6.790538,-0.131714 10.149219,-0.193912 3.358681,-0.0622 6.622236,-0.11342 9.57846,-0.128054 2.956225,-0.01463 5.605119,0.0073 7.734479,0.09147 2.12936,0.08415 3.739186,0.2305 4.617273,0.464657 1.22932,0.292695 2.209849,0.702468 3.011102,1.247613 0.801254,0.545145 1.423231,1.225661 1.935448,2.059843 0.512217,0.834182 0.914673,1.82203 1.276884,2.981836 0.362211,1.159806 0.684176,2.491571 1.03541,4.013589 0.409774,1.931791 0.878086,4.024563 1.628118,6.077091 0.750033,2.052532 1.781784,4.064812 3.318436,5.835612 1.536652,1.77081 3.578203,3.30015 6.347831,4.38678 2.76964,1.08663 6.26735,1.73056 10.71632,1.73056 5.0929,0 9.176,-0.87809 12.55663,-2.59036 3.38064,-1.71227 6.0588,-4.25872 8.34183,-7.59545 2.28302,-3.336726 4.17091,-7.463733 5.97098,-12.337112 1.80008,-4.87338 3.51235,-10.493132 5.44414,-16.815352 0.58539,-1.93179 1.40494,-4.522145 2.30497,-7.321046 0.90004,-2.7989 1.88057,-5.806346 2.78792,-8.572319 0.90736,-2.765972 1.74154,-5.290471 2.34888,-7.123477 0.60735,-1.833006 0.98785,-2.974518 0.98785,-2.974518 0,0 -0.13755,0.0062 -0.35912,0.01061 -0.22157,0.0044 -0.52715,0.007 -0.86323,-8.2e-5 -0.33608,-0.0071 -0.70264,-0.02401 -1.04617,-0.05862 -0.34352,-0.03461 -0.66401,-0.08696 -0.90792,-0.165013 -0.24391,-0.07805 -0.53321,-0.220838 -0.82996,-0.391111 -0.29674,-0.170273 -0.60093,-0.368033 -0.87464,-0.556038 -0.2737,-0.188004 -0.51692,-0.366251 -0.69171,-0.497498 -0.17479,-0.131246 -0.28115,-0.215492 -0.28115,-0.215492 z"
       class="st1"
       sodipodi:nodetypes="cssscssssssscssscssscssssssssssssssscssscssscssssssscssscsssssssc" /><path
       style="display:inline;fill:#800000;fill-opacity:1"
       inkscape:connector-curvature="0"
       id="path25-7"
       d="m 31.637581,69.956556 9.190637,0 9.190638,0 9.190637,0 9.190638,0 c 0.70247,0 1.390305,-0.07317 2.056188,-0.212204 0.665883,-0.13903 1.309813,-0.343917 1.924474,-0.607342 0.61466,-0.263426 1.200052,-0.585391 1.748856,-0.958577 0.548804,-0.373186 1.06102,-0.797594 1.529333,-1.265907 0.468312,-0.468313 0.892721,-0.980529 1.262248,-1.529333 0.369528,-0.548804 0.684176,-1.134195 0.932967,-1.748856 0.248791,-0.61466 0.431726,-1.258591 0.537829,-1.924473 0.106103,-0.665883 0.135373,-1.353718 0.07684,-2.056188 l -0.05854,-4.858745 -0.05854,-4.858745 -0.05854,-4.858745 -0.05854,-4.858745 c 0,-0.292695 -0.01463,-0.570756 -0.04024,-0.83784 -0.02561,-0.267085 -0.0622,-0.523194 -0.1061,-0.771985 -0.0439,-0.248791 -0.09513,-0.490265 -0.150005,-0.72808 -0.05488,-0.237814 -0.11342,-0.47197 -0.17196,-0.706125 -0.468313,-1.22932 -1.112243,-2.356197 -1.898862,-3.35502 -0.786619,-0.998822 -1.715928,-1.869591 -2.754997,-2.586695 -1.03907,-0.717104 -2.1879,-1.280543 -3.413563,-1.664705 -1.225663,-0.384163 -2.528159,-0.58905 -3.874559,-0.58905 l -8.019855,0 -8.019855,0 -8.019855,0 -8.019855,0 c -1.756173,0 -3.424536,0.351234 -4.939235,0.991505 -1.514698,0.640272 -2.875732,1.569579 -4.017244,2.725726 -1.141512,1.156147 -2.063502,2.539133 -2.700114,4.08676 -0.636613,1.547628 -0.987847,3.259897 -0.987847,5.074609 l 0.175617,4.566048 0.175618,4.566047 0.175617,4.566047 0.175618,4.566048 c 0,1.40494 0.263426,2.722071 0.746373,3.907488 0.482947,1.185417 1.185415,2.239121 2.063501,3.117207 0.878085,0.878086 1.931788,1.580555 3.117204,2.063502 1.185416,0.482947 2.502544,0.746373 3.907482,0.746373 z m 1.87325,-35.12345 8.078395,0 8.078395,0 8.078395,0 8.078395,0 c 0.70247,0 1.390305,0.102443 2.041553,0.296353 0.651248,0.193911 1.265909,0.479288 1.822031,0.845157 0.556122,0.365869 1.053704,0.812229 1.470796,1.328104 0.417092,0.515875 0.753692,1.101266 0.98785,1.745196 0.05854,0.05854 0.102441,0.131714 0.135368,0.215865 0.03293,0.08415 0.05488,0.179276 0.06951,0.281719 0.01463,0.102443 0.02195,0.212203 0.02561,0.325622 0.0037,0.113419 0.0037,0.230497 0.0037,0.347574 l 0.05854,4.858745 0.05854,4.858745 0.05854,4.858745 0.05854,4.858745 c 0,0.292695 -0.02927,0.570756 -0.08415,0.83784 -0.05488,0.267085 -0.135371,0.523194 -0.237814,0.771985 -0.102443,0.248791 -0.226838,0.490265 -0.369527,0.72808 -0.142689,0.237814 -0.303671,0.47197 -0.479289,0.706125 -0.175617,0.175617 -0.380504,0.336601 -0.607343,0.47929 -0.226839,0.14269 -0.475631,0.267087 -0.739057,0.369531 -0.263426,0.102445 -0.541487,0.182937 -0.826867,0.237818 -0.285379,0.05488 -0.578075,0.08415 -0.870773,0.08415 l -9.190637,0 -9.190638,0 -9.190637,0 -9.190638,0 c -0.58539,0 -1.141511,-0.117078 -1.64641,-0.329282 -0.504937,-0.212204 -0.958614,-0.519534 -1.339118,-0.900038 -0.380504,-0.380505 -0.687834,-0.834183 -0.900038,-1.339084 -0.212204,-0.5049 -0.329282,-1.061022 -0.329282,-1.646415 l -0.175617,-4.56605 -0.175618,-4.56605 -0.175617,-4.56605 -0.175618,-4.56605 c 0.05854,-0.878085 0.292697,-1.726901 0.665884,-2.506201 0.373187,-0.779301 0.885404,-1.489087 1.500064,-2.089111 0.61466,-0.600025 1.331763,-1.09029 2.114722,-1.430548 0.782959,-0.340258 1.631775,-0.53051 2.50986,-0.53051 z"
       class="st1"
       sodipodi:nodetypes="scccsssssssscccccssscsssscccsssscccccssssscccsssscssscccccssscsssscccsssscccccssss" /></g><g
     style="display:inline"
     inkscape:label="Mask"
     id="g4546"
     inkscape:groupmode="layer"><path
       sodipodi:nodetypes="cssscssssssscssscssscssssssssssssssscssscssscssssssscssscsssssssc"
       class="st1"
       d="m 146.01168,43.586727 c 0,0 -0.3805,1.141512 -0.98785,2.974517 -0.60734,1.833004 -1.44152,4.357502 -2.34888,7.123473 -0.90736,2.765971 -1.88789,5.773416 -2.78792,8.572316 -0.90004,2.7989 -1.71959,5.389254 -2.30498,7.321044 -1.93179,6.263685 -3.57088,11.590744 -5.19169,16.05801 -1.6208,4.467266 -3.22331,8.074738 -5.08192,10.899249 -1.85862,2.824512 -3.97335,4.866064 -6.61858,6.201484 -2.64524,1.33542 -5.82098,1.96472 -9.80164,1.96472 -3.27819,0 -5.82464,-0.36587 -7.82595,-1.03175 -2.0013,-0.66588 -3.457462,-1.63178 -4.55507,-2.83183 C 97.409592,99.637908 96.670536,98.2037 96.103438,96.601192 95.536341,94.998685 95.141202,93.227878 94.731428,91.354628 94.380194,89.89115 94.014324,88.339864 93.527718,86.806871 93.041112,85.273878 92.433769,83.759178 91.599587,82.368875 90.765405,80.978571 89.704384,79.712663 88.310422,78.677252 86.91646,77.641842 85.189557,76.83693 83.023611,76.368617 82.086986,76.193 80.667413,76.061286 78.779527,75.969819 76.89164,75.878351 74.535441,75.82713 71.725564,75.812495 c -2.809877,-0.01463 -6.073432,0.0073 -9.776029,0.0622 -3.702597,0.05488 -7.844237,0.142689 -12.410285,0.259766 -1.99033,0.05854 -4.009929,0.102445 -6.022211,0.135374 -2.012282,0.03293 -4.017246,0.05488 -5.978306,0.06952 -1.96106,0.01463 -3.878216,0.02195 -5.71488,0.02561 -1.836665,0.0037 -3.592838,0.0037 -5.231933,0.0037 -0.409772,0 -0.804911,0.08781 -1.167121,0.245133 -0.36221,0.157324 -0.691492,0.384163 -0.969553,0.662223 -0.27806,0.278061 -0.504899,0.607343 -0.662223,0.969553 -0.157324,0.36221 -0.245133,0.757349 -0.245133,1.167121 0,0.409775 0.08781,0.804915 0.245133,1.167127 0.157324,0.362211 0.384163,0.691494 0.662223,0.969556 0.278061,0.278061 0.607343,0.5049 0.969553,0.662224 0.36221,0.157324 0.757349,0.245133 1.167121,0.245133 1.697635,0 3.483078,-0.01463 5.334377,-0.03659 1.8513,-0.02195 3.768455,-0.05122 5.729514,-0.08049 1.96106,-0.02927 3.966023,-0.05854 5.992939,-0.08049 2.026915,-0.02195 4.075783,-0.03659 6.12465,-0.03659 3.33673,-0.05854 6.790538,-0.131714 10.149219,-0.193912 3.358681,-0.0622 6.622236,-0.11342 9.57846,-0.128054 2.956225,-0.01463 5.605119,0.0073 7.734479,0.09147 2.12936,0.08415 3.739186,0.2305 4.617273,0.464657 1.22932,0.292695 2.209849,0.702468 3.011102,1.247613 0.801254,0.545145 1.423231,1.225661 1.935448,2.059843 0.512217,0.834182 0.914673,1.82203 1.276884,2.981836 0.362211,1.159806 0.684176,2.491571 1.03541,4.013589 0.409774,1.931791 0.878086,4.024563 1.628118,6.077091 0.750033,2.052532 1.781784,4.064812 3.318436,5.835612 1.536652,1.77081 3.578203,3.30015 6.347831,4.38678 2.76964,1.08663 6.26735,1.73056 10.71632,1.73056 5.0929,0 9.176,-0.87809 12.55663,-2.59036 3.38064,-1.71227 6.0588,-4.25872 8.34183,-7.59545 2.28302,-3.336726 4.17091,-7.463733 5.97098,-12.337112 1.80008,-4.87338 3.51235,-10.493132 5.44414,-16.815352 0.58539,-1.93179 1.40494,-4.522145 2.30497,-7.321046 0.90004,-2.7989 1.88057,-5.806346 2.78792,-8.572319 0.90736,-2.765972 1.74154,-5.290471 2.34888,-7.123477 0.60735,-1.833006 0.98785,-2.974518 0.98785,-2.974518 0,0 -0.13755,0.0062 -0.35912,0.01061 -0.22157,0.0044 -0.52715,0.007 -0.86323,-8.2e-5 -0.33608,-0.0071 -0.70264,-0.02401 -1.04617,-0.05862 -0.34352,-0.03461 -0.66401,-0.08696 -0.90792,-0.165013 -0.24391,-0.07805 -0.53321,-0.220838 -0.82996,-0.391111 -0.29674,-0.170273 -0.60093,-0.368033 -0.87464,-0.556038 -0.2737,-0.188004 -0.51692,-0.366251 -0.69171,-0.497498 -0.17479,-0.131246 -0.28115,-0.215492 -0.28115,-0.215492 z"
       id="path4548"
       inkscape:connector-curvature="0"
       style="display:inline;fill:#800000" /><path
       sodipodi:nodetypes="scccsssssssscccccssscsssscccsssscccccssssscccsssscssscccccssscsssscccsssscccccssss"
       class="st1"
       d="m 31.637581,69.956556 9.190637,0 9.190638,0 9.190637,0 9.190638,0 c 0.70247,0 1.390305,-0.07317 2.056188,-0.212204 0.665883,-0.13903 1.309813,-0.343917 1.924474,-0.607342 0.61466,-0.263426 1.200052,-0.585391 1.748856,-0.958577 0.548804,-0.373186 1.06102,-0.797594 1.529333,-1.265907 0.468312,-0.468313 0.892721,-0.980529 1.262248,-1.529333 0.369528,-0.548804 0.684176,-1.134195 0.932967,-1.748856 0.248791,-0.61466 0.431726,-1.258591 0.537829,-1.924473 0.106103,-0.665883 0.135373,-1.353718 0.07684,-2.056188 l -0.05854,-4.858745 -0.05854,-4.858745 -0.05854,-4.858745 -0.05854,-4.858745 c 0,-0.292695 -0.01463,-0.570756 -0.04024,-0.83784 -0.02561,-0.267085 -0.0622,-0.523194 -0.1061,-0.771985 -0.0439,-0.248791 -0.09513,-0.490265 -0.150005,-0.72808 -0.05488,-0.237814 -0.11342,-0.47197 -0.17196,-0.706125 -0.468313,-1.22932 -1.112243,-2.356197 -1.898862,-3.35502 -0.786619,-0.998822 -1.715928,-1.869591 -2.754997,-2.586695 -1.03907,-0.717104 -2.1879,-1.280543 -3.413563,-1.664705 -1.225663,-0.384163 -2.528159,-0.58905 -3.874559,-0.58905 l -8.019855,0 -8.019855,0 -8.019855,0 -8.019855,0 c -1.756173,0 -3.424536,0.351234 -4.939235,0.991505 -1.514698,0.640272 -2.875732,1.569579 -4.017244,2.725726 -1.141512,1.156147 -2.063502,2.539133 -2.700114,4.08676 -0.636613,1.547628 -0.987847,3.259897 -0.987847,5.074609 l 0.175617,4.566048 0.175618,4.566047 0.175617,4.566047 0.175618,4.566048 c 0,1.40494 0.263426,2.722071 0.746373,3.907488 0.482947,1.185417 1.185415,2.239121 2.063501,3.117207 0.878085,0.878086 1.931788,1.580555 3.117204,2.063502 1.185416,0.482947 2.502544,0.746373 3.907482,0.746373 z m 1.87325,-35.12345 8.078395,0 8.078395,0 8.078395,0 8.078395,0 c 0.70247,0 1.390305,0.102443 2.041553,0.296353 0.651248,0.193911 1.265909,0.479288 1.822031,0.845157 0.556122,0.365869 1.053704,0.812229 1.470796,1.328104 0.417092,0.515875 0.753692,1.101266 0.98785,1.745196 0.05854,0.05854 0.102441,0.131714 0.135368,0.215865 0.03293,0.08415 0.05488,0.179276 0.06951,0.281719 0.01463,0.102443 0.02195,0.212203 0.02561,0.325622 0.0037,0.113419 0.0037,0.230497 0.0037,0.347574 l 0.05854,4.858745 0.05854,4.858745 0.05854,4.858745 0.05854,4.858745 c 0,0.292695 -0.02927,0.570756 -0.08415,0.83784 -0.05488,0.267085 -0.135371,0.523194 -0.237814,0.771985 -0.102443,0.248791 -0.226838,0.490265 -0.369527,0.72808 -0.142689,0.237814 -0.303671,0.47197 -0.479289,0.706125 -0.175617,0.175617 -0.380504,0.336601 -0.607343,0.47929 -0.226839,0.14269 -0.475631,0.267087 -0.739057,0.369531 -0.263426,0.102445 -0.541487,0.182937 -0.826867,0.237818 -0.285379,0.05488 -0.578075,0.08415 -0.870773,0.08415 l -9.190637,0 -9.190638,0 -9.190637,0 -9.190638,0 c -0.58539,0 -1.141511,-0.117078 -1.64641,-0.329282 -0.504937,-0.212204 -0.958614,-0.519534 -1.339118,-0.900038 -0.380504,-0.380505 -0.687834,-0.834183 -0.900038,-1.339084 -0.212204,-0.5049 -0.329282,-1.061022 -0.329282,-1.646415 l -0.175617,-4.56605 -0.175618,-4.56605 -0.175617,-4.56605 -0.175618,-4.56605 c 0.05854,-0.878085 0.292697,-1.726901 0.665884,-2.506201 0.373187,-0.779301 0.885404,-1.489087 1.500064,-2.089111 0.61466,-0.600025 1.331763,-1.09029 2.114722,-1.430548 0.782959,-0.340258 1.631775,-0.53051 2.50986,-0.53051 z"
       id="path4550"
       inkscape:connector-curvature="0"
       style="display:inline;fill:#800000;fill-opacity:1" /></g><g
     inkscape:label="Edge.Cuts"
     id="g4228"
     inkscape:groupmode="layer"
     style="display:inline"><path
       class="st1"
       d="m 166.83533,198.01835 c -0.87809,0 -1.73422,-0.0878 -2.56017,-0.25519 -0.82595,-0.16739 -1.62172,-0.41435 -2.37907,-0.73266 -0.75735,-0.3183 -1.47628,-0.70795 -2.14856,-1.16072 -0.67229,-0.45276 -1.29793,-0.96864 -1.86868,-1.53939 -0.57076,-0.57076 -1.08664,-1.19639 -1.5394,-1.86868 -0.45276,-0.67228 -0.84242,-1.39122 -1.16072,-2.14857 -0.31831,-0.75734 -0.56527,-1.55311 -0.73266,-2.37906 -0.16738,-0.82595 -0.25519,-1.68208 -0.25519,-2.56017 l 0.35124,-4.47824 0.35123,-4.47824 0.35123,-4.47824 0.35124,-4.47825 0.35123,-4.47824 0.35124,-4.47824 0.35123,-4.47824 0.35124,-4.47824 c 0,-0.49758 -0.0512,-0.93663 -0.14315,-1.32399 -0.0919,-0.38736 -0.22455,-0.72305 -0.38736,-1.01391 -0.16281,-0.29087 -0.35581,-0.53692 -0.56847,-0.74501 -0.21266,-0.20808 -0.44499,-0.37821 -0.68646,-0.51724 -0.24148,-0.13903 -0.4921,-0.24696 -0.74135,-0.33066 -0.24924,-0.0837 -0.49712,-0.14314 -0.73311,-0.18522 -0.23598,-0.0421 -0.46008,-0.0668 -0.66176,-0.0809 -0.20169,-0.0142 -0.38096,-0.0178 -0.52731,-0.0178 -0.40977,0 -0.77564,0.0366 -1.10264,0.10244 -0.32699,0.0659 -0.61512,0.16099 -0.8694,0.27806 -0.25427,0.11708 -0.47471,0.25611 -0.66634,0.40978 -0.19162,0.15366 -0.35443,0.32196 -0.49346,0.49758 -0.13903,0.17562 -0.25428,0.35855 -0.35078,0.54149 -0.0965,0.18293 -0.17424,0.36586 -0.23827,0.54148 -0.064,0.17562 -0.11434,0.34392 -0.15595,0.49759 -0.0416,0.15366 -0.0745,0.29269 -0.10382,0.40977 l -1.11224,5.03436 -1.11225,5.03436 -1.11224,5.03436 -1.11224,5.03436 -1.11224,5.03437 -1.11225,5.03436 -1.11224,5.03436 -1.11224,5.03436 c -0.17562,0.70247 -0.40612,1.37567 -0.68646,2.01594 -0.28035,0.64027 -0.61055,1.24761 -0.98556,1.81837 -0.37502,0.57075 -0.79485,1.10492 -1.25448,1.59885 -0.45962,0.49392 -0.95903,0.9476 -1.4932,1.35737 -0.53417,0.40977 -1.1031,0.77564 -1.70175,1.09395 -0.59865,0.31831 -1.22703,0.58905 -1.88011,0.80857 -0.65308,0.21952 -1.33085,0.38782 -2.02829,0.50124 -0.69744,0.11342 -1.41454,0.17196 -2.14628,0.17196 l -3.30746,0 -3.30746,0 -3.30746,0 -3.30746,0 -3.30745,0 -3.30746,0 -3.30746,0 -3.30746,0 c -1.346399,0 -2.60499,0.011 -3.782174,0.0105 -1.177185,-4.6e-4 -2.272964,-0.0123 -3.293739,-0.0581 -1.020776,-0.0457 -1.966548,-0.12531 -2.84372,-0.26114 -0.877172,-0.13583 -1.685743,-0.32791 -2.432116,-0.59866 -0.746374,-0.27074 -1.430549,-0.62014 -2.05893,-1.07062 -0.62838,-0.45048 -1.200966,-1.00202 -1.724159,-1.67705 -0.523193,-0.67503 -0.996994,-1.47354 -1.427805,-2.41794 -0.430811,-0.9444 -0.818633,-2.03469 -1.169867,-3.29328 l -1.229321,-5.03436 -1.229321,-5.03436 -1.229321,-5.03436 -1.229321,-5.03437 -1.22932,-5.03436 -1.229321,-5.03436 -1.229321,-5.03436 -1.229321,-5.03436 c -0.02927,-0.0878 -0.0622,-0.20489 -0.103816,-0.34255 -0.04162,-0.13765 -0.09192,-0.29589 -0.155951,-0.46602 -0.06403,-0.17013 -0.141775,-0.35215 -0.238273,-0.53737 -0.0965,-0.18522 -0.211747,-0.37365 -0.350777,-0.55658 -0.13903,-0.18294 -0.301842,-0.36038 -0.493466,-0.52365 -0.191624,-0.16327 -0.41206,-0.31236 -0.66634,-0.43859 -0.254279,-0.12622 -0.542401,-0.22958 -0.869396,-0.30138 -0.326996,-0.0718 -0.692865,-0.11205 -1.102639,-0.11205 -0.146348,0 -0.325624,0.004 -0.527309,0.0178 -0.201686,0.0142 -0.425781,0.0389 -0.661766,0.0809 -0.235986,0.0421 -0.483863,0.10153 -0.733111,0.18522 -0.249249,0.0837 -0.499869,0.19163 -0.741343,0.33066 -0.241474,0.13903 -0.473801,0.30916 -0.686462,0.51724 -0.212662,0.20809 -0.405658,0.45414 -0.56847,0.74501 -0.162811,0.29086 -0.295439,0.62655 -0.387364,1.01391 -0.09192,0.38736 -0.143146,0.82641 -0.143146,1.32399 l 0.263426,4.47824 0.263426,4.47824 0.263426,4.47824 0.263425,4.47824 0.263426,4.47825 0.263426,4.47824 0.263426,4.47824 0.263426,4.47824 c 0,0.87809 -0.08781,1.73422 -0.255194,2.56017 -0.167385,0.82595 -0.414347,1.62172 -0.732653,2.37906 -0.318307,0.75735 -0.707957,1.47629 -1.160721,2.14857 -0.452763,0.67229 -0.968639,1.29792 -1.539395,1.86868 -0.570756,0.57075 -1.196393,1.08663 -1.868677,1.53939 -0.672285,0.45277 -1.391219,0.84242 -2.148568,1.16072 -0.75735,0.31831 -1.553115,0.56527 -2.379065,0.73266 -0.82595,0.16738 -1.682085,0.25519 -2.560171,0.25519 l -4.683127,0 -4.683127,0 -4.683127,0 -4.683128,0 -4.683127,0 -4.683127,0 -4.683127,0 -4.683127,0 c -0.878086,0 -1.734221,-0.0878 -2.560171,-0.25519 -0.82595,-0.16739 -1.621715,-0.41435 -2.379065,-0.73266 -0.757349,-0.3183 -1.4762827,-0.70795 -2.1485676,-1.16072 C 8.2785415,195.41702 7.652905,194.90114 7.0821489,194.33039 6.5113927,193.75963 5.995517,193.134 5.5427537,192.46171 5.0899904,191.78943 4.7003396,191.07049 4.3820333,190.31314 4.063727,189.5558 3.8167652,188.76003 3.64938,187.93408 3.4819948,187.10813 3.3941862,186.252 3.3941862,185.37391 l 0,-5.20266 0,-5.20266 0,-5.20267 0,-5.20266 0,-5.20266 0,-5.20266 0,-5.20266 0,-5.20266 0,-5.20267 0,-5.20266 0,-5.20266 0,-5.20266 0,-5.20266 0,-5.20266 0,-5.20267 0,-5.20266 0,-5.202659 0,-5.202662 0,-5.202662 0,-5.202661 0,-5.202662 0,-5.202662 0,-5.202662 0,-5.202661 0,-5.202662 0,-5.202662 0,-5.202661 0,-5.202662 0,-5.202662 0,-5.202662 0,-5.202661 0,-5.202662 c 0,-0.219522 0.00549,-0.437671 0.016335,-0.65432 0.010847,-0.216649 0.027054,-0.431797 0.048492,-0.645316 0.021438,-0.213519 0.048106,-0.425409 0.079877,-0.635541 C 3.570661,16.743426 3.6075337,16.535052 3.64938,16.328564 3.8167652,15.502614 4.063727,14.706849 4.3820333,13.949499 4.7003396,13.19215 5.0899904,12.473217 5.5427537,11.800932 5.995517,11.128647 6.5113927,10.50301 7.0821489,9.9322544 7.652905,9.3614983 8.2785415,8.8456226 8.9508264,8.3928593 9.6231113,7.9400961 10.342045,7.5504453 11.099394,7.232139 11.856744,6.9138328 12.652509,6.666871 13.478459,6.4994858 14.304409,6.3321006 15.160544,6.244292 16.03863,6.244292 l 7.05396,0 7.053961,0 7.05396,0 7.05396,0 7.053961,0 7.05396,0 7.053961,0 7.05396,0 c 1.317129,0 2.612307,0.1134195 3.875928,0.3315691 1.263621,0.2181495 2.495686,0.5410292 3.686591,0.9599495 1.190904,0.4189204 2.340648,0.9338814 3.439628,1.5361938 1.09898,0.6023123 2.147196,1.2919756 3.135043,2.0603016 0.987847,0.768325 1.915326,1.615313 2.772832,2.532273 0.857506,0.91696 1.64504,1.903892 2.352997,2.952108 0.707957,1.048215 1.336338,2.157714 1.875537,3.319806 0.5392,1.162093 0.989219,2.376779 1.340454,3.635369 l 1.375668,5.385596 1.375669,5.385597 1.375668,5.385596 1.375672,5.385597 1.37566,5.385596 1.37567,5.385596 1.37567,5.385597 1.37567,5.385596 c 0.0878,0.351235 0.19757,0.665882 0.32517,0.947601 0.12759,0.28172 0.27303,0.530511 0.43218,0.750032 0.15915,0.219522 0.33203,0.409774 0.5145,0.574415 0.18248,0.164641 0.37456,0.303672 0.57213,0.42075 0.19757,0.117078 0.40063,0.212204 0.60506,0.289037 0.20443,0.07683 0.41023,0.135371 0.61329,0.179276 0.20306,0.0439 0.40337,0.07317 0.59683,0.09147 0.19345,0.01829 0.38004,0.02561 0.55566,0.02561 0.17562,0 0.36221,-0.0073 0.55566,-0.02561 0.19346,-0.01829 0.39377,-0.04756 0.59683,-0.09147 0.20306,-0.04391 0.40886,-0.102444 0.61329,-0.179276 0.20443,-0.07683 0.40748,-0.171959 0.60505,-0.289037 0.19757,-0.117078 0.38965,-0.256109 0.57213,-0.42075 0.18248,-0.164641 0.35535,-0.354893 0.5145,-0.574415 0.15915,-0.219521 0.30459,-0.468312 0.43218,-0.750032 0.1276,-0.281719 0.23736,-0.596366 0.32517,-0.947601 l 1.37567,-5.356327 1.37567,-5.356326 1.37567,-5.356327 1.37566,-5.356327 1.37567,-5.356327 1.37567,-5.356326 1.37567,-5.356327 1.37567,-5.356327 c 0.32196,-1.28786 0.75003,-2.528157 1.27323,-3.712659 0.52319,-1.184502 1.14151,-2.313209 1.84398,-3.377888 0.70247,-1.06468 1.48909,-2.065333 2.34888,-2.993726 0.85979,-0.928393 1.79276,-1.784528 2.78792,-2.560171 0.99517,-0.775642 2.05253,-1.4707941 3.16111,-2.0772225 1.10859,-0.6064284 2.26839,-1.1241335 3.46845,-1.5448832 1.20005,-0.4207497 2.44034,-0.744544 3.70991,-0.9631509 1.26957,-0.2186069 2.5684,-0.3320264 3.88553,-0.3320264 l 7.05396,0 7.05396,0 7.05396,0 7.05396,0 7.05396,0 7.05396,0 7.05396,0 7.05396,0 c 0.87809,0 1.73422,0.087809 2.56017,0.2551938 0.82595,0.1673852 1.62172,0.414347 2.37907,0.7326532 0.75735,0.3183063 1.47628,0.7079571 2.14857,1.1607203 0.67228,0.4527633 1.29792,0.968639 1.86868,1.5393951 0.57075,0.5707556 1.08663,1.1963926 1.53939,1.8686776 0.45277,0.672285 0.84242,1.391218 1.16072,2.148567 0.31831,0.75735 0.56527,1.553115 0.73266,2.379065 0.16738,0.82595 0.25519,1.682085 0.25519,2.560171 l 0,5.202662 0,5.202661 0,5.202662 0,5.202662 0,5.202662 0,5.202661 0,5.202662 0,5.202662 0,5.202661 0,5.202662 0,5.202662 0,5.202662 0,5.202661 0,5.202662 0,5.202662 0,5.202659 0,5.20266 0,5.20267 0,5.20266 0,5.20266 0,5.20266 0,5.20266 0,5.20266 0,5.20267 0,5.20266 0,5.20266 0,5.20266 0,5.20266 0,5.20266 0,5.20267 0,5.20266 0,5.20266 c 0,0.21952 -0.005,0.43767 -0.0163,0.65432 -0.0108,0.21665 -0.0271,0.4318 -0.0485,0.64532 -0.0214,0.21352 -0.0481,0.4254 -0.0799,0.63554 -0.0318,0.21013 -0.0687,0.4185 -0.11049,0.62499 -0.16739,0.82595 -0.41435,1.62172 -0.73266,2.37906 -0.3183,0.75735 -0.70795,1.47629 -1.16072,2.14857 -0.45276,0.67229 -0.96864,1.29792 -1.53939,1.86868 -0.57076,0.57075 -1.1964,1.08663 -1.86868,1.53939 -0.67229,0.45277 -1.39122,0.84242 -2.14857,1.16072 -0.75735,0.31831 -1.55312,0.56527 -2.37907,0.73266 -0.82595,0.16738 -1.68208,0.25519 -2.56017,0.25519 l -4.68313,0 -4.68312,0 -4.68313,0 -4.68313,0 -4.68312,0 -4.68313,0 -4.68312,0 z"
       id="path4234"
       inkscape:connector-curvature="0"
       style="fill:none;stroke:#e5b60c;stroke-width:0.99921268;stroke-miterlimit:4;stroke-dasharray:none;stroke-opacity:1"
       sodipodi:nodetypes="sssssssscccccccccssssssssssssssscccccccccsssssssscccccccsssssssscccccccccssssssssssssssscccccccccsssssssscccccccssssssssscccccccccccccccccccccccccccccccsssssssssssscccccccsssssssscccccccccssssssssssssssscccccccccsssssssscccccccssssssssscccccccccccccccccccccccccccccccsssssssssssscccccccs" /></g></svg>