G04 #@! TF.GenerationSoftware,KiCad,Pcbnew,6.0.0-rc1-unknown-5b3202d~66~ubuntu16.04.1*
G04 #@! TF.CreationDate,2018-12-07T08:51:36-07:00
G04 #@! TF.ProjectId,MakerCozumel,4d616b65-7243-46f7-9a75-6d656c2e6b69,rev?*
G04 #@! TF.SameCoordinates,Original*
G04 #@! TF.FileFunction,Legend,Bot*
G04 #@! TF.FilePolarity,Positive*
%FSLAX46Y46*%
G04 Gerber Fmt 4.6, Leading zero omitted, Abs format (unit mm)*
G04 Created by KiCad (PCBNEW 6.0.0-rc1-unknown-5b3202d~66~ubuntu16.04.1) date Fri 07 Dec 2018 08:51:36 AM MST*
%MOMM*%
%LPD*%
G04 APERTURE LIST*
%ADD10C,0.500000*%
%ADD11C,0.150000*%
%ADD12C,0.100000*%
G04 APERTURE END LIST*
D10*
X145252295Y-118737961D02*
X145252295Y-116737961D01*
X144776104Y-116737961D01*
X144490390Y-116833200D01*
X144299914Y-117023676D01*
X144204676Y-117214152D01*
X144109438Y-117595104D01*
X144109438Y-117880819D01*
X144204676Y-118261771D01*
X144299914Y-118452247D01*
X144490390Y-118642723D01*
X144776104Y-118737961D01*
X145252295Y-118737961D01*
X142490390Y-118642723D02*
X142680866Y-118737961D01*
X143061819Y-118737961D01*
X143252295Y-118642723D01*
X143347533Y-118452247D01*
X143347533Y-117690342D01*
X143252295Y-117499866D01*
X143061819Y-117404628D01*
X142680866Y-117404628D01*
X142490390Y-117499866D01*
X142395152Y-117690342D01*
X142395152Y-117880819D01*
X143347533Y-118071295D01*
X141633247Y-118642723D02*
X141442771Y-118737961D01*
X141061819Y-118737961D01*
X140871342Y-118642723D01*
X140776104Y-118452247D01*
X140776104Y-118357009D01*
X140871342Y-118166533D01*
X141061819Y-118071295D01*
X141347533Y-118071295D01*
X141538009Y-117976057D01*
X141633247Y-117785580D01*
X141633247Y-117690342D01*
X141538009Y-117499866D01*
X141347533Y-117404628D01*
X141061819Y-117404628D01*
X140871342Y-117499866D01*
X139918961Y-118737961D02*
X139918961Y-117404628D01*
X139918961Y-116737961D02*
X140014200Y-116833200D01*
X139918961Y-116928438D01*
X139823723Y-116833200D01*
X139918961Y-116737961D01*
X139918961Y-116928438D01*
X138109438Y-117404628D02*
X138109438Y-119023676D01*
X138204676Y-119214152D01*
X138299914Y-119309390D01*
X138490390Y-119404628D01*
X138776104Y-119404628D01*
X138966580Y-119309390D01*
X138109438Y-118642723D02*
X138299914Y-118737961D01*
X138680866Y-118737961D01*
X138871342Y-118642723D01*
X138966580Y-118547485D01*
X139061819Y-118357009D01*
X139061819Y-117785580D01*
X138966580Y-117595104D01*
X138871342Y-117499866D01*
X138680866Y-117404628D01*
X138299914Y-117404628D01*
X138109438Y-117499866D01*
X137157057Y-117404628D02*
X137157057Y-118737961D01*
X137157057Y-117595104D02*
X137061819Y-117499866D01*
X136871342Y-117404628D01*
X136585628Y-117404628D01*
X136395152Y-117499866D01*
X136299914Y-117690342D01*
X136299914Y-118737961D01*
X134585628Y-118642723D02*
X134776104Y-118737961D01*
X135157057Y-118737961D01*
X135347533Y-118642723D01*
X135442771Y-118452247D01*
X135442771Y-117690342D01*
X135347533Y-117499866D01*
X135157057Y-117404628D01*
X134776104Y-117404628D01*
X134585628Y-117499866D01*
X134490390Y-117690342D01*
X134490390Y-117880819D01*
X135442771Y-118071295D01*
X132776104Y-118737961D02*
X132776104Y-116737961D01*
X132776104Y-118642723D02*
X132966580Y-118737961D01*
X133347533Y-118737961D01*
X133538009Y-118642723D01*
X133633247Y-118547485D01*
X133728485Y-118357009D01*
X133728485Y-117785580D01*
X133633247Y-117595104D01*
X133538009Y-117499866D01*
X133347533Y-117404628D01*
X132966580Y-117404628D01*
X132776104Y-117499866D01*
X140204676Y-122237961D02*
X140204676Y-120237961D01*
X140204676Y-120999866D02*
X140014200Y-120904628D01*
X139633247Y-120904628D01*
X139442771Y-120999866D01*
X139347533Y-121095104D01*
X139252295Y-121285580D01*
X139252295Y-121857009D01*
X139347533Y-122047485D01*
X139442771Y-122142723D01*
X139633247Y-122237961D01*
X140014200Y-122237961D01*
X140204676Y-122142723D01*
X138585628Y-120904628D02*
X138109438Y-122237961D01*
X137633247Y-120904628D02*
X138109438Y-122237961D01*
X138299914Y-122714152D01*
X138395152Y-122809390D01*
X138585628Y-122904628D01*
D11*
G04 #@! TO.C,SW1*
X167840000Y-90670000D02*
X164940000Y-90670000D01*
X164940000Y-90670000D02*
X164940000Y-97420000D01*
X164940000Y-97420000D02*
X167790000Y-97420000D01*
X167790000Y-97420000D02*
X167840000Y-90670000D01*
D12*
G04 #@! TO.C,svg2mod*
G36*
X149605548Y-102221496D02*
G01*
X149399702Y-109070239D01*
X149399702Y-108949476D01*
X149399702Y-108828713D01*
X149399702Y-108707950D01*
X149399702Y-108587187D01*
X149399702Y-108466424D01*
X149399702Y-108345661D01*
X149399702Y-108224898D01*
X149399702Y-108104136D01*
X149399702Y-107983373D01*
X149399702Y-107862610D01*
X149399702Y-107741847D01*
X149399702Y-107621084D01*
X149399702Y-107500321D01*
X149399702Y-107379558D01*
X149399702Y-107258795D01*
X149399702Y-107138033D01*
X149399702Y-107017270D01*
X149399702Y-106896507D01*
X149399702Y-106775744D01*
X149399702Y-106654981D01*
X149399702Y-106534218D01*
X149399702Y-106413455D01*
X149399702Y-106292692D01*
X149399702Y-106171929D01*
X149399702Y-106051167D01*
X149399702Y-105930404D01*
X149399702Y-105809669D01*
X149399702Y-105688906D01*
X149399702Y-105568143D01*
X149399702Y-105447380D01*
X149399702Y-105326617D01*
X149399702Y-105205855D01*
X149399702Y-105085092D01*
X149399702Y-104964329D01*
X149399702Y-104843566D01*
X149399702Y-104722803D01*
X149399702Y-104602040D01*
X149399702Y-104481277D01*
X149399702Y-104360514D01*
X149399702Y-104239752D01*
X149399702Y-104118989D01*
X149399702Y-103998226D01*
X149399702Y-103877463D01*
X149399702Y-103756700D01*
X149399702Y-103635937D01*
X149399702Y-103515174D01*
X149399702Y-103394411D01*
X149399702Y-103273648D01*
X149398235Y-103244495D01*
X149393911Y-103216188D01*
X149386881Y-103188812D01*
X149377285Y-103162566D01*
X149365268Y-103137730D01*
X149350974Y-103114306D01*
X149334543Y-103092292D01*
X149316119Y-103071972D01*
X149295864Y-103053628D01*
X149273885Y-103037259D01*
X149250333Y-103022866D01*
X149225365Y-103010730D01*
X149199130Y-103001135D01*
X149171757Y-102994079D01*
X149143391Y-102989846D01*
X149114177Y-102987024D01*
X149042106Y-102987024D01*
X148970034Y-102987024D01*
X148897963Y-102987024D01*
X148825892Y-102987024D01*
X148753820Y-102987024D01*
X148681749Y-102987024D01*
X148609677Y-102987024D01*
X148537606Y-102987024D01*
X148465535Y-102987024D01*
X148393463Y-102987024D01*
X148321392Y-102987024D01*
X148249320Y-102987024D01*
X148177249Y-102987024D01*
X148105178Y-102987024D01*
X148033106Y-102987024D01*
X147961035Y-102987024D01*
X147942953Y-102987024D01*
X147925190Y-102989846D01*
X147907774Y-102992668D01*
X147890728Y-102996055D01*
X147874054Y-103000288D01*
X147857832Y-103005650D01*
X147842070Y-103012141D01*
X147826776Y-103019479D01*
X147812024Y-103027664D01*
X147797744Y-103036695D01*
X147783994Y-103046572D01*
X147770834Y-103057297D01*
X147758247Y-103069150D01*
X147746343Y-103081850D01*
X147735116Y-103095397D01*
X147724561Y-103109790D01*
X147668406Y-103192453D01*
X147612251Y-103275144D01*
X147556096Y-103357807D01*
X147499941Y-103440498D01*
X147443785Y-103523189D01*
X147387631Y-103605852D01*
X147331475Y-103688543D01*
X147275320Y-103771234D01*
X147219165Y-103853926D01*
X147163010Y-103936588D01*
X147106855Y-104019280D01*
X147050700Y-104101971D01*
X146994545Y-104184662D01*
X146938390Y-104267325D01*
X146882235Y-104350016D01*
X146826080Y-104432707D01*
X146769925Y-104515370D01*
X146713770Y-104598061D01*
X146657615Y-104680724D01*
X146601460Y-104763415D01*
X146545305Y-104846106D01*
X146489150Y-104928769D01*
X146432995Y-105011460D01*
X146376840Y-105094151D01*
X146320684Y-105176842D01*
X146264530Y-105259505D01*
X146208374Y-105342196D01*
X146152219Y-105424887D01*
X146096064Y-105507578D01*
X146039909Y-105590241D01*
X145983754Y-105672932D01*
X145927599Y-105755623D01*
X145878669Y-105799029D01*
X145829879Y-105836254D01*
X145781362Y-105867637D01*
X145733252Y-105893602D01*
X145685675Y-105914204D01*
X145638774Y-105930009D01*
X145592678Y-105941580D01*
X145547518Y-105948917D01*
X145503419Y-105952586D01*
X145460527Y-105952727D01*
X145418971Y-105949905D01*
X145378881Y-105944261D01*
X145340367Y-105936359D01*
X145303606Y-105926199D01*
X145268719Y-105914345D01*
X145235824Y-105901363D01*
X145186957Y-105879350D01*
X145140599Y-105854796D01*
X145096839Y-105827985D01*
X145055765Y-105799142D01*
X145017467Y-105768831D01*
X144982033Y-105737477D01*
X144949553Y-105705473D01*
X144920114Y-105673271D01*
X144893811Y-105641295D01*
X144870723Y-105609912D01*
X144850939Y-105579601D01*
X144834553Y-105550758D01*
X144821661Y-105523947D01*
X144812339Y-105499394D01*
X144806678Y-105477381D01*
X144804759Y-105458472D01*
X144805154Y-105328000D01*
X144805549Y-105197529D01*
X144805916Y-105067086D01*
X144806311Y-104936615D01*
X144806706Y-104806143D01*
X144807101Y-104675672D01*
X144807496Y-104545201D01*
X144807892Y-104414729D01*
X144808287Y-104284258D01*
X144808654Y-104153787D01*
X144809049Y-104023344D01*
X144809444Y-103892872D01*
X144809839Y-103762401D01*
X144810234Y-103631930D01*
X144810629Y-103501486D01*
X144811024Y-103371015D01*
X144788734Y-103260045D01*
X144727838Y-103169480D01*
X144637289Y-103108436D01*
X144526045Y-103086140D01*
X144410841Y-103086140D01*
X144295637Y-103086140D01*
X144180433Y-103086140D01*
X144065229Y-103086140D01*
X144055860Y-103058764D01*
X144045242Y-103031953D01*
X144032353Y-103006271D01*
X144016171Y-102982564D01*
X143969949Y-102931652D01*
X143914594Y-102889996D01*
X143852425Y-102859713D01*
X143785763Y-102843062D01*
X143768640Y-102839958D01*
X143751504Y-102837135D01*
X143734409Y-102837135D01*
X143717411Y-102837051D01*
X143717467Y-102810155D01*
X143667090Y-102815517D01*
X143617846Y-102828782D01*
X143570181Y-102849666D01*
X143524542Y-102877324D01*
X143473652Y-102922762D01*
X143431975Y-102977259D01*
X143401717Y-103040956D01*
X143385083Y-103113798D01*
X143379179Y-103182660D01*
X143388018Y-103250986D01*
X143410548Y-103315897D01*
X143445714Y-103374543D01*
X143492022Y-103425428D01*
X143547567Y-103467084D01*
X143609926Y-103497366D01*
X143676674Y-103514017D01*
X143690263Y-103517404D01*
X143703832Y-103520226D01*
X143717463Y-103520226D01*
X143731241Y-103520311D01*
X143785408Y-103515795D01*
X143838608Y-103502813D01*
X143889664Y-103481928D01*
X143937396Y-103453622D01*
X143972469Y-103420573D01*
X144004232Y-103384646D01*
X144031514Y-103345305D01*
X144053149Y-103302040D01*
X144169869Y-103302040D01*
X144286589Y-103302040D01*
X144403309Y-103302040D01*
X144432489Y-103302040D01*
X144461669Y-103302040D01*
X144490849Y-103302040D01*
X144520029Y-103302040D01*
X144524553Y-103302096D01*
X144528905Y-103302096D01*
X144533068Y-103302096D01*
X144537021Y-103304919D01*
X144540704Y-103307741D01*
X144544207Y-103310563D01*
X144547475Y-103313385D01*
X144550461Y-103316208D01*
X144553086Y-103319312D01*
X144555456Y-103322699D01*
X144557545Y-103326368D01*
X144559294Y-103330036D01*
X144560649Y-103333988D01*
X144561637Y-103338221D01*
X144562258Y-103342454D01*
X144562465Y-103346970D01*
X144562070Y-103477441D01*
X144561674Y-103607884D01*
X144561279Y-103738356D01*
X144560884Y-103868827D01*
X144560489Y-103999298D01*
X144560094Y-104129741D01*
X144559727Y-104260213D01*
X144559332Y-104390684D01*
X144558937Y-104521155D01*
X144558542Y-104651627D01*
X144558147Y-104782098D01*
X144557752Y-104912569D01*
X144557385Y-105043041D01*
X144556990Y-105173484D01*
X144556594Y-105303955D01*
X144556199Y-105434426D01*
X144559278Y-105478481D01*
X144568293Y-105523891D01*
X144582912Y-105570316D01*
X144602805Y-105617363D01*
X144627644Y-105664691D01*
X144657098Y-105711935D01*
X144690836Y-105758756D01*
X144728528Y-105804787D01*
X144769850Y-105849688D01*
X144814459Y-105893122D01*
X144862027Y-105934693D01*
X144912230Y-105974063D01*
X144964743Y-106010893D01*
X145019222Y-106044788D01*
X145075340Y-106075466D01*
X145132771Y-106102559D01*
X145196549Y-106127113D01*
X145260372Y-106146586D01*
X145324133Y-106160979D01*
X145387723Y-106170010D01*
X145451031Y-106173961D01*
X145513953Y-106173961D01*
X145576378Y-106168035D01*
X145638197Y-106157028D01*
X145699303Y-106141224D01*
X145759587Y-106120621D01*
X145818939Y-106094939D01*
X145877253Y-106064657D01*
X145934420Y-106029633D01*
X145990330Y-105989953D01*
X146044875Y-105945615D01*
X146097948Y-105896650D01*
X146099077Y-105896650D01*
X146100206Y-105896650D01*
X146101335Y-105896650D01*
X146102464Y-105896650D01*
X146103593Y-105896650D01*
X146104722Y-105896650D01*
X146105851Y-105896650D01*
X146106980Y-105896650D01*
X146108108Y-105896650D01*
X146109237Y-105896650D01*
X146110366Y-105896650D01*
X146111495Y-105896650D01*
X146112624Y-105896650D01*
X146113753Y-105896650D01*
X146114882Y-105896650D01*
X146116011Y-105896650D01*
X146172538Y-105813761D01*
X146229066Y-105730844D01*
X146285594Y-105647956D01*
X146342122Y-105565067D01*
X146398639Y-105482178D01*
X146455155Y-105399290D01*
X146511672Y-105316401D01*
X146568189Y-105233512D01*
X146624706Y-105150624D01*
X146681223Y-105067735D01*
X146737739Y-104984846D01*
X146794256Y-104901958D01*
X146850773Y-104819069D01*
X146907290Y-104736180D01*
X146963807Y-104653292D01*
X147020323Y-104570403D01*
X147076840Y-104487514D01*
X147133357Y-104404626D01*
X147189874Y-104321737D01*
X147246391Y-104238848D01*
X147302907Y-104155960D01*
X147359424Y-104073071D01*
X147415941Y-103990182D01*
X147472458Y-103907294D01*
X147528975Y-103824405D01*
X147585491Y-103741516D01*
X147642008Y-103658628D01*
X147698525Y-103575739D01*
X147755042Y-103492850D01*
X147811559Y-103409962D01*
X147868075Y-103327073D01*
X147924592Y-103244184D01*
X147925918Y-103241362D01*
X147927499Y-103238540D01*
X147929277Y-103235718D01*
X147931252Y-103232896D01*
X147933538Y-103230073D01*
X147935824Y-103230073D01*
X147938167Y-103230073D01*
X147940622Y-103230073D01*
X147943481Y-103230073D01*
X147946049Y-103230073D01*
X147948533Y-103230073D01*
X147951073Y-103230073D01*
X147953556Y-103230073D01*
X147956040Y-103230073D01*
X147958524Y-103230073D01*
X147961007Y-103230073D01*
X148033078Y-103230073D01*
X148105150Y-103230073D01*
X148177221Y-103230073D01*
X148249293Y-103230073D01*
X148321364Y-103230073D01*
X148393436Y-103230073D01*
X148465507Y-103230073D01*
X148537578Y-103230073D01*
X148609650Y-103230073D01*
X148681721Y-103230073D01*
X148753793Y-103230073D01*
X148825864Y-103230073D01*
X148897935Y-103230073D01*
X148970007Y-103230073D01*
X149042078Y-103230073D01*
X149114150Y-103230073D01*
X149118617Y-103230130D01*
X149122927Y-103230130D01*
X149127061Y-103230130D01*
X149131001Y-103232952D01*
X149134676Y-103235774D01*
X149138178Y-103238596D01*
X149141455Y-103241419D01*
X149144455Y-103244241D01*
X149147164Y-103247063D01*
X149149563Y-103250168D01*
X149151651Y-103253554D01*
X149153401Y-103257223D01*
X149154784Y-103261174D01*
X149155800Y-103265125D01*
X149156421Y-103269359D01*
X149156631Y-103273592D01*
X149156631Y-103391815D01*
X149156631Y-103510038D01*
X149156631Y-103628261D01*
X149156631Y-103746484D01*
X149156631Y-103864706D01*
X149156631Y-103982929D01*
X149156631Y-104101152D01*
X149156631Y-104219375D01*
X149156631Y-104337598D01*
X149156631Y-104455821D01*
X149156631Y-104574044D01*
X149156631Y-104692267D01*
X149156631Y-104810489D01*
X149156631Y-104928712D01*
X149156631Y-105046935D01*
X149156631Y-105165158D01*
X149156631Y-105283381D01*
X149156631Y-105401604D01*
X149156631Y-105519827D01*
X149156631Y-105638050D01*
X149156631Y-105756273D01*
X149156631Y-105874495D01*
X149156631Y-105992747D01*
X149156631Y-106110969D01*
X149156631Y-106229192D01*
X149156631Y-106347415D01*
X149156631Y-106465638D01*
X149156631Y-106583861D01*
X149156631Y-106702084D01*
X149156631Y-106820307D01*
X149156631Y-106938530D01*
X149156631Y-107056753D01*
X149156631Y-107174975D01*
X149156631Y-107293198D01*
X149156631Y-107411421D01*
X149156631Y-107529644D01*
X149156631Y-107647867D01*
X149156631Y-107766090D01*
X149156631Y-107884313D01*
X149156631Y-108002536D01*
X149156631Y-108120758D01*
X149156631Y-108238981D01*
X149156631Y-108357232D01*
X149156631Y-108475455D01*
X149156631Y-108593678D01*
X149156631Y-108711901D01*
X149156631Y-108830124D01*
X149156631Y-108948347D01*
X149109571Y-108948347D01*
X149062511Y-108948347D01*
X149015451Y-108948347D01*
X148968391Y-108948347D01*
X148921331Y-108948347D01*
X148874271Y-108948347D01*
X148827211Y-108948347D01*
X148780151Y-108948347D01*
X148733091Y-108948347D01*
X148686031Y-108948347D01*
X148638971Y-108948347D01*
X148591911Y-108948347D01*
X148544851Y-108948347D01*
X148497791Y-108948347D01*
X148450731Y-108948347D01*
X148403671Y-108948347D01*
X148403671Y-108926051D01*
X148403671Y-108903756D01*
X148403671Y-108881460D01*
X148403671Y-108859165D01*
X148403671Y-108769587D01*
X148403671Y-108680010D01*
X148403671Y-108590461D01*
X148394177Y-108543245D01*
X148368294Y-108504694D01*
X148329921Y-108478729D01*
X148282953Y-108469134D01*
X148235813Y-108478729D01*
X148197061Y-108504694D01*
X148170800Y-108543245D01*
X148161134Y-108590461D01*
X148161134Y-108710208D01*
X148161134Y-108829955D01*
X148161134Y-108859898D01*
X148161134Y-108889814D01*
X148161134Y-108919758D01*
X148161134Y-108949702D01*
X148161134Y-108979645D01*
X148161134Y-109009561D01*
X148161134Y-109039505D01*
X148161134Y-109069448D01*
X148161277Y-109075093D01*
X148161700Y-109080737D01*
X148162406Y-109086382D01*
X148163394Y-109092026D01*
X148164664Y-109097671D01*
X148166216Y-109103315D01*
X148168050Y-109108960D01*
X148170195Y-109114604D01*
X148172622Y-109119966D01*
X148175332Y-109125328D01*
X148178318Y-109130408D01*
X148181586Y-109135488D01*
X148185136Y-109140568D01*
X148188971Y-109145366D01*
X148193089Y-109150164D01*
X148197489Y-109154680D01*
X148202103Y-109159195D01*
X148206859Y-109163428D01*
X148211744Y-109167380D01*
X148216751Y-109171048D01*
X148221870Y-109174435D01*
X148227091Y-109177540D01*
X148232405Y-109180362D01*
X148237804Y-109183184D01*
X148243322Y-109186006D01*
X148248856Y-109188828D01*
X148254430Y-109191651D01*
X148260060Y-109191651D01*
X148265900Y-109191651D01*
X148271592Y-109191651D01*
X148277234Y-109191651D01*
X148282920Y-109191876D01*
X148345104Y-109191876D01*
X148407288Y-109191876D01*
X148469472Y-109191876D01*
X148531656Y-109191876D01*
X148593840Y-109191876D01*
X148656024Y-109191876D01*
X148718208Y-109191876D01*
X148780392Y-109191876D01*
X148842576Y-109191876D01*
X148904760Y-109191876D01*
X148966944Y-109191876D01*
X149029128Y-109191876D01*
X149091312Y-109191876D01*
X149153496Y-109191876D01*
X149215680Y-109191876D01*
X149277864Y-109191876D01*
X149290211Y-109191876D01*
X149302226Y-109189054D01*
X149313845Y-109185950D01*
X149325004Y-109181716D01*
X149335638Y-109176636D01*
X149345685Y-109170710D01*
X149355080Y-109163654D01*
X149363758Y-109155752D01*
X149371655Y-109147003D01*
X149378708Y-109137690D01*
X149384852Y-109127812D01*
X149390022Y-109117088D01*
X149394128Y-109106081D01*
X149397162Y-109094510D01*
X149399053Y-109082656D01*
X149399702Y-109070239D01*
X149605548Y-102221496D01*
X149802315Y-102260894D01*
X149962582Y-102368562D01*
X150070423Y-102528638D01*
X150109910Y-102725319D01*
X150109910Y-103279152D01*
X150109910Y-103832985D01*
X150109910Y-104386818D01*
X150109910Y-104940650D01*
X150109910Y-105494483D01*
X150109910Y-106048316D01*
X150109910Y-106602121D01*
X150109910Y-107155954D01*
X150109910Y-107709815D01*
X150109910Y-108263648D01*
X150109910Y-108817480D01*
X150109910Y-109371313D01*
X150070423Y-109567768D01*
X149962582Y-109727675D01*
X149802315Y-109835202D01*
X149605548Y-109874572D01*
X149168710Y-109874572D01*
X148731872Y-109874572D01*
X148295034Y-109874572D01*
X147858196Y-109874572D01*
X148155782Y-106672930D01*
X148155782Y-106756412D01*
X148155782Y-106839921D01*
X148155782Y-106923431D01*
X148155782Y-107006940D01*
X148165276Y-107054015D01*
X148191159Y-107092567D01*
X148229532Y-107118531D01*
X148276500Y-107128127D01*
X148323782Y-107118531D01*
X148362518Y-107092567D01*
X148388700Y-107054015D01*
X148398318Y-107006940D01*
X148398318Y-106923431D01*
X148398318Y-106839921D01*
X148398318Y-106756412D01*
X148398318Y-106672930D01*
X148388700Y-106625856D01*
X148362518Y-106587304D01*
X148323782Y-106561340D01*
X148276500Y-106551744D01*
X148229532Y-106561340D01*
X148191159Y-106587304D01*
X148165276Y-106625856D01*
X148155782Y-106672930D01*
X147858196Y-109874572D01*
X148155782Y-107437414D01*
X148155782Y-107628704D01*
X148155782Y-107819966D01*
X148155782Y-108011228D01*
X148155782Y-108202518D01*
X148165276Y-108249565D01*
X148191159Y-108288116D01*
X148229532Y-108314081D01*
X148276500Y-108323676D01*
X148323782Y-108314081D01*
X148362518Y-108288116D01*
X148388700Y-108249565D01*
X148398318Y-108202518D01*
X148398318Y-108011228D01*
X148398318Y-107819966D01*
X148398318Y-107628704D01*
X148398318Y-107437414D01*
X148388700Y-107390367D01*
X148362518Y-107351816D01*
X148323782Y-107325851D01*
X148276500Y-107316256D01*
X148229532Y-107325851D01*
X148191159Y-107351816D01*
X148165276Y-107390367D01*
X148155782Y-107437414D01*
X147858196Y-109874572D01*
X147661658Y-109835202D01*
X147501564Y-109727675D01*
X147393833Y-109567768D01*
X147354385Y-109371313D01*
X147354385Y-108900849D01*
X147354385Y-108430384D01*
X147354385Y-107959920D01*
X147354385Y-107489456D01*
X147333724Y-107404168D01*
X146717094Y-106735189D01*
X146723413Y-106724746D01*
X146728736Y-106714022D01*
X146733051Y-106703015D01*
X146736348Y-106691726D01*
X146738634Y-106680155D01*
X146739875Y-106668584D01*
X146740058Y-106657013D01*
X146739183Y-106645724D01*
X146737235Y-106634435D01*
X146734213Y-106623429D01*
X146730104Y-106612704D01*
X146724897Y-106602262D01*
X146718592Y-106592384D01*
X146711150Y-106582789D01*
X146702573Y-106573757D01*
X146692859Y-106565291D01*
X146687663Y-106561904D01*
X146682366Y-106558800D01*
X146676978Y-106555977D01*
X146671509Y-106553155D01*
X146665966Y-106550333D01*
X146660361Y-106547511D01*
X146654705Y-106544689D01*
X146649007Y-106541866D01*
X146643171Y-106541866D01*
X146637425Y-106541866D01*
X146631713Y-106541866D01*
X146625972Y-106541866D01*
X146620203Y-106541725D01*
X146614446Y-106541669D01*
X146608711Y-106541725D01*
X146603011Y-106541866D01*
X146602990Y-106541951D01*
X146597337Y-106541951D01*
X146591738Y-106541951D01*
X146586201Y-106544773D01*
X146580731Y-106547595D01*
X146575231Y-106550418D01*
X146569933Y-106553240D01*
X146564771Y-106556062D01*
X146559683Y-106558884D01*
X146554716Y-106561989D01*
X146549802Y-106565093D01*
X146544988Y-106568480D01*
X146540308Y-106572431D01*
X146535779Y-106576664D01*
X146531390Y-106580898D01*
X146527148Y-106585413D01*
X146523062Y-106590211D01*
X146419089Y-106726440D01*
X146315116Y-106862640D01*
X146211143Y-106998869D01*
X146107170Y-107135097D01*
X146003197Y-107271298D01*
X145899224Y-107407526D01*
X145795251Y-107543727D01*
X145691278Y-107679956D01*
X145587305Y-107816184D01*
X145483332Y-107952385D01*
X145379359Y-108088613D01*
X145275386Y-108224842D01*
X145171413Y-108361071D01*
X145067440Y-108497271D01*
X144963467Y-108633500D01*
X144859494Y-108769728D01*
X144817050Y-108769728D01*
X144774607Y-108769728D01*
X144732163Y-108769728D01*
X144689720Y-108769728D01*
X144647276Y-108769728D01*
X144604833Y-108769728D01*
X144562389Y-108769728D01*
X144519946Y-108769728D01*
X144477502Y-108769728D01*
X144435059Y-108769728D01*
X144392615Y-108769728D01*
X144350171Y-108769728D01*
X144307728Y-108769728D01*
X144265284Y-108769728D01*
X144222841Y-108769728D01*
X144180397Y-108769728D01*
X144173531Y-108739361D01*
X144164457Y-108709813D01*
X144153253Y-108681195D01*
X144139986Y-108653538D01*
X144067761Y-108555578D01*
X143968345Y-108482680D01*
X143846360Y-108441702D01*
X143768283Y-108436904D01*
X143690868Y-108448475D01*
X143616923Y-108475004D01*
X143549256Y-108514600D01*
X143491035Y-108566359D01*
X143443652Y-108629238D01*
X143406489Y-108700104D01*
X143378930Y-108775881D01*
X143374071Y-108853069D01*
X143385661Y-108928986D01*
X143412077Y-109002618D01*
X143451694Y-109073004D01*
X143503457Y-109134331D01*
X143566032Y-109182112D01*
X143636619Y-109216232D01*
X143712419Y-109236552D01*
X143729739Y-109239939D01*
X143746043Y-109242761D01*
X143762347Y-109242761D01*
X143779667Y-109242846D01*
X143843018Y-109237484D01*
X143904716Y-109221961D01*
X143963007Y-109197126D01*
X144016138Y-109164247D01*
X144054723Y-109131368D01*
X144088762Y-109095526D01*
X144118321Y-109056128D01*
X144143470Y-109012665D01*
X144192046Y-109012665D01*
X144240622Y-109012665D01*
X144289198Y-109012665D01*
X144337774Y-109012665D01*
X144386349Y-109012665D01*
X144434925Y-109012665D01*
X144483501Y-109012665D01*
X144532077Y-109012665D01*
X144580653Y-109012665D01*
X144629229Y-109012665D01*
X144677805Y-109012665D01*
X144726380Y-109012665D01*
X144774956Y-109012665D01*
X144823532Y-109012665D01*
X144872108Y-109012665D01*
X144920684Y-109012665D01*
X144927497Y-109012609D01*
X144934293Y-109012609D01*
X144941055Y-109012609D01*
X144947766Y-109009787D01*
X144954333Y-109006964D01*
X144960895Y-109004142D01*
X144967383Y-109001320D01*
X144973733Y-108998498D01*
X144979917Y-108995111D01*
X144985939Y-108991442D01*
X144991784Y-108987491D01*
X144997431Y-108983258D01*
X145002864Y-108978742D01*
X145008066Y-108973662D01*
X145013016Y-108968300D01*
X145017698Y-108962656D01*
X145123910Y-108823435D01*
X145230122Y-108684215D01*
X145336335Y-108544995D01*
X145442547Y-108405775D01*
X145548759Y-108266554D01*
X145654971Y-108127334D01*
X145761184Y-107988142D01*
X145867396Y-107848922D01*
X145973608Y-107709702D01*
X146079820Y-107570482D01*
X146186033Y-107431261D01*
X146292245Y-107292041D01*
X146398458Y-107152821D01*
X146504670Y-107013601D01*
X146610882Y-106874409D01*
X146717094Y-106735189D01*
X147333724Y-107404168D01*
X147284635Y-107352352D01*
X147226462Y-107326670D01*
X147178547Y-107319614D01*
X147139780Y-107324130D01*
X147104887Y-107337677D01*
X147073338Y-107360537D01*
X147044602Y-107392484D01*
X146689619Y-107911462D01*
X146334636Y-108430413D01*
X145979654Y-108949391D01*
X145624671Y-109468370D01*
X145473566Y-109635784D01*
X145289949Y-109761683D01*
X145082421Y-109840988D01*
X144859584Y-109868645D01*
X144859584Y-109871468D01*
X144859584Y-109874290D01*
X144462158Y-109874290D01*
X144064732Y-109874290D01*
X143667306Y-109874290D01*
X143269880Y-109874290D01*
X143073342Y-109834920D01*
X142913247Y-109727365D01*
X142805517Y-109567486D01*
X142766069Y-109371031D01*
X142766069Y-108817706D01*
X142766069Y-108264353D01*
X142766069Y-107711028D01*
X142766069Y-107157703D01*
X142766069Y-106604379D01*
X142766069Y-106051054D01*
X142766069Y-105497729D01*
X142766069Y-104944404D01*
X142766069Y-104391079D01*
X142766069Y-103837754D01*
X142766069Y-103284401D01*
X142766069Y-102731076D01*
X142805517Y-102534678D01*
X142913247Y-102374573D01*
X143073342Y-102266764D01*
X143269880Y-102227281D01*
X143708371Y-102227281D01*
X144146863Y-102227281D01*
X144585355Y-102227281D01*
X145023847Y-102227281D01*
X145220298Y-102266764D01*
X145380203Y-102374573D01*
X145487744Y-102534678D01*
X145527106Y-102731076D01*
X145527106Y-103207467D01*
X145527106Y-103683858D01*
X145527106Y-104160250D01*
X145527106Y-104636641D01*
X145547807Y-104722069D01*
X145597006Y-104773885D01*
X145655353Y-104799567D01*
X145703496Y-104806341D01*
X145742225Y-104801825D01*
X145777006Y-104788279D01*
X145808382Y-104765701D01*
X145836890Y-104733979D01*
X146195042Y-104207691D01*
X146553194Y-103681008D01*
X146911346Y-103154325D01*
X147269498Y-102627642D01*
X147418001Y-102456841D01*
X147601823Y-102329107D01*
X147810755Y-102249097D01*
X148034585Y-102221439D01*
X148427326Y-102221439D01*
X148820067Y-102221439D01*
X149212808Y-102221439D01*
X149605548Y-102221439D01*
X149605548Y-102221496D01*
X149605548Y-102221496D01*
G37*
G36*
X142086421Y-102221496D02*
G01*
X138723795Y-105134678D01*
X138711798Y-105137500D01*
X138700204Y-105140605D01*
X138689079Y-105144838D01*
X138678490Y-105149918D01*
X138668488Y-105155845D01*
X138659141Y-105162900D01*
X138650516Y-105170803D01*
X138642671Y-105179551D01*
X138635671Y-105188865D01*
X138629575Y-105198743D01*
X138624439Y-105209467D01*
X138620364Y-105220474D01*
X138617361Y-105232045D01*
X138615498Y-105244180D01*
X138614849Y-105256598D01*
X138614849Y-105381199D01*
X138614849Y-105505829D01*
X138614849Y-105630430D01*
X138614849Y-105755031D01*
X138614849Y-105879632D01*
X138614849Y-106004261D01*
X138614849Y-106128862D01*
X138614849Y-106253463D01*
X138614849Y-106378065D01*
X138614849Y-106502694D01*
X138614849Y-106627295D01*
X138614849Y-106751896D01*
X138614849Y-106876497D01*
X138614849Y-107001127D01*
X138614849Y-107125728D01*
X138614849Y-107250329D01*
X138614849Y-107374930D01*
X138614849Y-107499559D01*
X138614849Y-107624160D01*
X138614849Y-107748761D01*
X138614849Y-107873391D01*
X138614849Y-107997992D01*
X138614849Y-108122621D01*
X138614849Y-108247222D01*
X138614849Y-108371823D01*
X138614849Y-108496453D01*
X138614849Y-108621054D01*
X138614849Y-108745655D01*
X138614849Y-108870256D01*
X138614849Y-108994885D01*
X138614849Y-109119486D01*
X138614849Y-109244088D01*
X138615470Y-109256505D01*
X138617304Y-109268641D01*
X138620304Y-109280212D01*
X138624394Y-109291219D01*
X138629499Y-109301943D01*
X138635598Y-109311821D01*
X138642614Y-109321134D01*
X138650471Y-109329601D01*
X138659121Y-109337503D01*
X138668463Y-109344559D01*
X138678448Y-109350768D01*
X138689031Y-109355848D01*
X138700151Y-109360081D01*
X138711744Y-109363185D01*
X138723745Y-109366008D01*
X138736089Y-109366008D01*
X138748484Y-109366008D01*
X138760524Y-109363185D01*
X138772146Y-109360081D01*
X138783285Y-109355848D01*
X138793885Y-109350768D01*
X138803884Y-109344841D01*
X138813220Y-109337785D01*
X138821834Y-109329883D01*
X138829665Y-109321134D01*
X138836650Y-109311821D01*
X138842727Y-109301943D01*
X138847829Y-109291219D01*
X138851879Y-109280212D01*
X138854873Y-109268641D01*
X138856736Y-109256505D01*
X138857385Y-109244088D01*
X138857385Y-109119486D01*
X138857385Y-108994885D01*
X138857385Y-108870256D01*
X138857385Y-108745655D01*
X138857385Y-108621054D01*
X138857385Y-108496453D01*
X138857385Y-108371823D01*
X138857385Y-108247222D01*
X138857385Y-108122621D01*
X138857385Y-107997992D01*
X138857385Y-107873391D01*
X138857385Y-107748761D01*
X138857385Y-107624160D01*
X138857385Y-107499559D01*
X138857385Y-107374930D01*
X138857385Y-107250329D01*
X138857385Y-107125728D01*
X138857385Y-107001127D01*
X138857385Y-106876497D01*
X138857385Y-106751896D01*
X138857385Y-106627295D01*
X138857385Y-106502694D01*
X138857385Y-106378065D01*
X138857385Y-106253463D01*
X138857385Y-106128862D01*
X138857385Y-106004261D01*
X138857385Y-105879632D01*
X138857385Y-105755031D01*
X138857385Y-105630430D01*
X138857385Y-105505829D01*
X138857385Y-105381199D01*
X138857385Y-105256598D01*
X138856764Y-105244180D01*
X138854930Y-105232045D01*
X138851938Y-105220474D01*
X138847852Y-105209185D01*
X138842758Y-105198743D01*
X138836681Y-105188583D01*
X138829694Y-105179269D01*
X138821859Y-105170520D01*
X138813220Y-105162618D01*
X138803887Y-105155563D01*
X138793902Y-105149636D01*
X138783313Y-105144556D01*
X138772132Y-105140605D01*
X138760515Y-105137500D01*
X138748501Y-105134678D01*
X138736117Y-105134678D01*
X138736134Y-105134678D01*
X138723795Y-105134678D01*
X142086421Y-102221496D01*
X139227046Y-105486891D01*
X139215065Y-105489714D01*
X139203500Y-105492818D01*
X139192411Y-105497051D01*
X139181856Y-105502131D01*
X139171899Y-105508058D01*
X139162606Y-105515114D01*
X139154037Y-105523016D01*
X139146245Y-105531765D01*
X139139289Y-105541078D01*
X139133238Y-105550956D01*
X139128158Y-105561398D01*
X139124099Y-105572405D01*
X139121125Y-105583976D01*
X139119290Y-105596111D01*
X139118669Y-105608529D01*
X139118669Y-105722152D01*
X139118669Y-105835775D01*
X139118669Y-105949369D01*
X139118669Y-106062992D01*
X139118669Y-106176614D01*
X139118669Y-106290237D01*
X139118669Y-106403860D01*
X139118669Y-106517482D01*
X139118669Y-106631105D01*
X139118669Y-106744728D01*
X139118669Y-106858322D01*
X139118669Y-106971945D01*
X139118669Y-107085567D01*
X139118669Y-107199190D01*
X139118669Y-107312813D01*
X139118669Y-107426435D01*
X139118669Y-107540058D01*
X139118669Y-107653681D01*
X139118669Y-107767275D01*
X139118669Y-107880898D01*
X139118669Y-107994520D01*
X139118669Y-108108143D01*
X139118669Y-108221766D01*
X139118669Y-108335388D01*
X139118669Y-108449011D01*
X139118669Y-108562634D01*
X139118669Y-108676228D01*
X139118669Y-108789851D01*
X139118669Y-108903474D01*
X139118669Y-109017096D01*
X139118669Y-109130719D01*
X139118669Y-109244342D01*
X139119290Y-109256759D01*
X139121125Y-109268895D01*
X139124099Y-109280466D01*
X139128152Y-109291473D01*
X139133215Y-109302197D01*
X139139266Y-109312075D01*
X139146231Y-109321388D01*
X139154029Y-109329855D01*
X139162625Y-109337757D01*
X139171916Y-109344813D01*
X139181856Y-109351022D01*
X139192400Y-109356102D01*
X139203491Y-109360335D01*
X139215057Y-109363439D01*
X139227034Y-109366262D01*
X139239367Y-109366262D01*
X139251768Y-109366262D01*
X139263825Y-109363439D01*
X139275472Y-109360335D01*
X139286648Y-109356102D01*
X139297291Y-109351022D01*
X139307335Y-109345095D01*
X139316719Y-109338039D01*
X139325386Y-109330137D01*
X139333263Y-109321388D01*
X139340293Y-109312075D01*
X139346417Y-109302197D01*
X139351576Y-109291473D01*
X139355671Y-109280466D01*
X139358691Y-109268895D01*
X139360554Y-109256759D01*
X139361203Y-109244342D01*
X139361203Y-109130719D01*
X139361203Y-109017096D01*
X139361203Y-108903474D01*
X139361203Y-108789851D01*
X139361203Y-108676228D01*
X139361203Y-108562634D01*
X139361203Y-108449011D01*
X139361203Y-108335388D01*
X139361203Y-108221766D01*
X139361203Y-108108143D01*
X139361203Y-107994520D01*
X139361203Y-107880898D01*
X139361203Y-107767275D01*
X139361203Y-107653681D01*
X139361203Y-107540058D01*
X139361203Y-107426435D01*
X139361203Y-107312813D01*
X139361203Y-107199190D01*
X139361203Y-107085567D01*
X139361203Y-106971945D01*
X139361203Y-106858322D01*
X139361203Y-106744728D01*
X139361203Y-106631105D01*
X139361203Y-106517482D01*
X139361203Y-106403860D01*
X139361203Y-106290237D01*
X139361203Y-106176614D01*
X139361203Y-106062992D01*
X139361203Y-105949369D01*
X139361203Y-105835775D01*
X139361203Y-105722152D01*
X139361203Y-105608529D01*
X139360582Y-105596111D01*
X139358719Y-105583976D01*
X139355699Y-105572405D01*
X139351587Y-105561398D01*
X139346451Y-105550956D01*
X139340330Y-105541078D01*
X139333288Y-105531765D01*
X139325394Y-105523016D01*
X139316722Y-105515114D01*
X139307335Y-105508058D01*
X139297293Y-105502131D01*
X139286656Y-105497051D01*
X139275480Y-105492818D01*
X139263833Y-105489714D01*
X139251777Y-105486891D01*
X139239376Y-105486891D01*
X139239379Y-105486891D01*
X139227046Y-105486891D01*
X142086421Y-102221496D01*
X142282873Y-102260894D01*
X142442778Y-102368562D01*
X142550319Y-102528638D01*
X142589681Y-102725319D01*
X142589681Y-103087862D01*
X142589681Y-103450432D01*
X142589681Y-103813003D01*
X142589681Y-104175546D01*
X142550319Y-104372086D01*
X142442778Y-104532190D01*
X142282873Y-104639914D01*
X142086421Y-104679369D01*
X141669151Y-104679369D01*
X141251881Y-104679369D01*
X140834611Y-104679369D01*
X140417340Y-104679369D01*
X139743162Y-106433606D01*
X139730829Y-106433606D01*
X139718849Y-106436428D01*
X139707283Y-106439533D01*
X139696195Y-106443766D01*
X139685640Y-106448846D01*
X139675683Y-106454773D01*
X139666389Y-106461828D01*
X139657821Y-106469730D01*
X139650029Y-106478479D01*
X139643072Y-106487793D01*
X139637021Y-106497670D01*
X139631941Y-106508395D01*
X139627911Y-106519401D01*
X139624934Y-106530973D01*
X139623099Y-106543108D01*
X139622478Y-106555526D01*
X139622478Y-106723589D01*
X139622478Y-106891653D01*
X139622478Y-107059688D01*
X139622478Y-107227751D01*
X139622478Y-107395814D01*
X139622478Y-107563849D01*
X139622478Y-107731913D01*
X139622478Y-107899948D01*
X139622478Y-108068011D01*
X139622478Y-108236046D01*
X139622478Y-108404110D01*
X139622478Y-108572145D01*
X139622478Y-108740208D01*
X139622478Y-108908271D01*
X139622478Y-109076306D01*
X139622478Y-109244370D01*
X139623099Y-109256788D01*
X139624934Y-109268923D01*
X139627908Y-109280494D01*
X139631961Y-109291783D01*
X139637058Y-109302508D01*
X139643106Y-109312668D01*
X139650051Y-109321981D01*
X139657841Y-109330730D01*
X139666395Y-109338632D01*
X139675691Y-109345688D01*
X139685657Y-109351896D01*
X139696215Y-109356976D01*
X139707306Y-109361210D01*
X139718871Y-109364314D01*
X139730849Y-109367136D01*
X139743182Y-109367136D01*
X139755583Y-109367136D01*
X139767639Y-109364314D01*
X139779287Y-109361210D01*
X139790463Y-109356976D01*
X139801105Y-109351896D01*
X139811150Y-109345688D01*
X139820533Y-109338632D01*
X139829200Y-109330730D01*
X139837077Y-109321981D01*
X139844107Y-109312668D01*
X139850232Y-109302508D01*
X139855391Y-109291783D01*
X139859542Y-109280494D01*
X139862556Y-109268923D01*
X139864391Y-109256788D01*
X139865012Y-109244370D01*
X139865012Y-109076306D01*
X139865012Y-108908271D01*
X139865012Y-108740208D01*
X139865012Y-108572145D01*
X139865012Y-108404110D01*
X139865012Y-108236046D01*
X139865012Y-108068011D01*
X139865012Y-107899948D01*
X139865012Y-107731913D01*
X139865012Y-107563849D01*
X139865012Y-107395814D01*
X139865012Y-107227751D01*
X139865012Y-107059688D01*
X139865012Y-106891653D01*
X139865012Y-106723589D01*
X139865012Y-106555526D01*
X139864391Y-106543108D01*
X139862528Y-106530973D01*
X139859511Y-106519401D01*
X139855388Y-106508395D01*
X139850251Y-106497953D01*
X139844130Y-106487793D01*
X139837091Y-106478479D01*
X139829198Y-106469730D01*
X139820505Y-106461828D01*
X139811121Y-106454773D01*
X139801091Y-106448846D01*
X139790460Y-106443766D01*
X139779241Y-106439815D01*
X139767600Y-106436710D01*
X139755569Y-106433888D01*
X139743182Y-106433888D01*
X139743162Y-106433606D01*
X140417340Y-104679369D01*
X140417340Y-105265093D01*
X140417340Y-105850845D01*
X140417340Y-106436569D01*
X140417340Y-107022321D01*
X140417340Y-107608045D01*
X140417340Y-108193769D01*
X140417340Y-108779522D01*
X140417340Y-109365246D01*
X140377846Y-109561700D01*
X138219921Y-109365725D01*
X138232263Y-109365725D01*
X138244602Y-109365725D01*
X138256599Y-109362903D01*
X138268193Y-109359799D01*
X138279318Y-109355565D01*
X138289907Y-109350485D01*
X138299909Y-109344559D01*
X138309256Y-109337503D01*
X138317881Y-109329601D01*
X138325727Y-109320852D01*
X138332726Y-109311539D01*
X138338822Y-109301661D01*
X138343958Y-109290936D01*
X138348033Y-109279930D01*
X138351036Y-109268359D01*
X138352899Y-109256223D01*
X138353520Y-109243805D01*
X138353520Y-109139863D01*
X138353520Y-109035920D01*
X138353520Y-108931978D01*
X138353520Y-108828036D01*
X138353520Y-108724093D01*
X138353520Y-108620179D01*
X138353520Y-108516236D01*
X138353520Y-108412294D01*
X138353520Y-108308352D01*
X138353520Y-108204409D01*
X138353520Y-108100467D01*
X138353520Y-107996524D01*
X138353520Y-107892582D01*
X138353520Y-107788668D01*
X138353520Y-107684725D01*
X138353520Y-107580783D01*
X138353520Y-107476840D01*
X138353520Y-107372926D01*
X138353520Y-107268984D01*
X138353520Y-107165041D01*
X138353520Y-107061099D01*
X138353520Y-106957156D01*
X138353520Y-106853214D01*
X138353520Y-106749271D01*
X138353520Y-106645329D01*
X138353520Y-106541415D01*
X138353520Y-106437472D01*
X138353520Y-106333530D01*
X138353520Y-106229587D01*
X138353520Y-106125645D01*
X138353520Y-106021703D01*
X138353520Y-105917760D01*
X138352899Y-105905342D01*
X138351064Y-105893489D01*
X138348064Y-105881918D01*
X138343975Y-105870911D01*
X138338867Y-105860187D01*
X138332768Y-105850309D01*
X138325755Y-105840996D01*
X138317898Y-105832529D01*
X138309248Y-105824627D01*
X138299906Y-105817571D01*
X138289921Y-105811362D01*
X138279338Y-105806282D01*
X138268176Y-105802331D01*
X138256588Y-105799227D01*
X138244610Y-105796405D01*
X138232283Y-105796405D01*
X138232305Y-105796122D01*
X138219967Y-105796122D01*
X138207969Y-105798945D01*
X138196376Y-105802049D01*
X138185250Y-105806282D01*
X138174661Y-105811362D01*
X138164660Y-105817289D01*
X138155312Y-105824345D01*
X138146688Y-105832247D01*
X138138847Y-105840996D01*
X138131846Y-105850309D01*
X138125747Y-105860187D01*
X138120610Y-105870911D01*
X138116535Y-105881918D01*
X138113532Y-105893489D01*
X138111669Y-105905625D01*
X138111020Y-105918042D01*
X138111020Y-106021985D01*
X138111020Y-106125927D01*
X138111020Y-106229870D01*
X138111020Y-106333812D01*
X138111020Y-106437755D01*
X138111020Y-106541697D01*
X138111020Y-106645611D01*
X138111020Y-106749554D01*
X138111020Y-106853496D01*
X138111020Y-106957439D01*
X138111020Y-107061381D01*
X138111020Y-107165323D01*
X138111020Y-107269266D01*
X138111020Y-107373208D01*
X138111020Y-107477122D01*
X138111020Y-107581065D01*
X138111020Y-107685007D01*
X138111020Y-107788950D01*
X138111020Y-107892864D01*
X138111020Y-107996806D01*
X138111020Y-108100749D01*
X138111020Y-108204691D01*
X138111020Y-108308634D01*
X138111020Y-108412576D01*
X138111020Y-108516519D01*
X138111020Y-108620461D01*
X138111020Y-108724375D01*
X138111020Y-108828318D01*
X138111020Y-108932260D01*
X138111020Y-109036203D01*
X138111020Y-109140145D01*
X138111020Y-109244088D01*
X138111641Y-109256505D01*
X138113476Y-109268641D01*
X138116476Y-109280212D01*
X138120565Y-109291219D01*
X138125671Y-109301943D01*
X138131769Y-109311821D01*
X138138785Y-109321134D01*
X138146642Y-109329601D01*
X138155298Y-109337503D01*
X138164640Y-109344559D01*
X138174625Y-109350485D01*
X138185208Y-109355565D01*
X138196328Y-109359799D01*
X138207921Y-109362903D01*
X138219921Y-109365725D01*
X140377846Y-109561700D01*
X140270037Y-109721608D01*
X140109927Y-109829162D01*
X139913531Y-109868504D01*
X139444724Y-109868504D01*
X138975913Y-109868504D01*
X138507105Y-109868504D01*
X138038297Y-109868504D01*
X137841899Y-109829162D01*
X137681789Y-109721608D01*
X137573980Y-109561700D01*
X137534486Y-109365246D01*
X137534486Y-108779522D01*
X137534486Y-108193769D01*
X137534486Y-107608045D01*
X137534486Y-107022321D01*
X137534486Y-106436569D01*
X137534486Y-105850845D01*
X137534486Y-105265093D01*
X137534486Y-104679369D01*
X137117217Y-104679369D01*
X136699946Y-104679369D01*
X136282678Y-104679369D01*
X135865406Y-104679369D01*
X135668867Y-104639914D01*
X135508773Y-104532190D01*
X135401043Y-104372086D01*
X135361594Y-104175546D01*
X135361594Y-103813003D01*
X135361594Y-103450432D01*
X135361594Y-103087862D01*
X135361594Y-102725319D01*
X135401043Y-102528638D01*
X135508773Y-102368562D01*
X135668867Y-102260894D01*
X135865406Y-102221496D01*
X136383823Y-102221496D01*
X136902240Y-102221496D01*
X137420660Y-102221496D01*
X137939076Y-102221496D01*
X138457490Y-102221496D01*
X138975904Y-102221496D01*
X139494321Y-102221496D01*
X140012735Y-102221496D01*
X140531158Y-102221496D01*
X141049577Y-102221496D01*
X141568000Y-102221496D01*
X142086421Y-102221496D01*
X142086421Y-102221496D01*
G37*
G36*
X156652284Y-102221496D02*
G01*
X154910449Y-102764943D01*
X154892294Y-102764943D01*
X154874181Y-102764661D01*
X154856138Y-102764661D01*
X154838130Y-102764661D01*
X154820319Y-102767483D01*
X154802691Y-102770587D01*
X154785230Y-102774538D01*
X154767958Y-102779336D01*
X154750920Y-102784698D01*
X154734148Y-102790907D01*
X154717666Y-102797681D01*
X154701461Y-102805301D01*
X154685651Y-102813767D01*
X154670236Y-102822798D01*
X154655216Y-102832676D01*
X154640808Y-102844247D01*
X154627112Y-102856383D01*
X154614127Y-102869083D01*
X154601856Y-102882347D01*
X154590307Y-102895894D01*
X154579459Y-102910005D01*
X154569319Y-102924398D01*
X154559892Y-102939074D01*
X154551191Y-102954032D01*
X154543199Y-102969272D01*
X154535918Y-102984794D01*
X154529350Y-103000316D01*
X154523500Y-103016121D01*
X154518366Y-103031925D01*
X154513947Y-103047730D01*
X154510244Y-103063816D01*
X154506459Y-103101182D01*
X154506366Y-103138041D01*
X154509823Y-103174165D01*
X154516686Y-103209386D01*
X154526818Y-103243451D01*
X154540074Y-103276188D01*
X154556316Y-103307346D01*
X154575400Y-103336725D01*
X154597179Y-103364101D01*
X154621524Y-103389218D01*
X154648289Y-103412078D01*
X154677329Y-103432116D01*
X154708524Y-103449332D01*
X154741688Y-103463725D01*
X154776695Y-103474732D01*
X154813417Y-103482070D01*
X154817891Y-103484892D01*
X154822231Y-103484892D01*
X154826450Y-103484892D01*
X154830557Y-103484892D01*
X154834528Y-103484892D01*
X154838434Y-103484892D01*
X154842263Y-103484892D01*
X154846008Y-103484892D01*
X154849587Y-103484892D01*
X154853166Y-103484892D01*
X154856744Y-103484892D01*
X154860323Y-103484892D01*
X154863788Y-103484948D01*
X154867226Y-103485005D01*
X154870646Y-103485033D01*
X154874056Y-103485033D01*
X154887752Y-103484976D01*
X154901558Y-103484976D01*
X154915441Y-103484976D01*
X154929360Y-103482154D01*
X154943223Y-103479332D01*
X154957119Y-103476510D01*
X154970974Y-103473688D01*
X154984709Y-103470019D01*
X154998281Y-103465785D01*
X155011676Y-103460988D01*
X155024855Y-103455343D01*
X155037784Y-103449134D01*
X155050380Y-103442361D01*
X155062704Y-103435023D01*
X155074690Y-103426839D01*
X155086273Y-103418090D01*
X155100739Y-103407648D01*
X155114492Y-103396359D01*
X155127531Y-103384505D01*
X155139853Y-103372088D01*
X155151480Y-103358823D01*
X155162377Y-103344994D01*
X155172554Y-103330601D01*
X155182022Y-103315925D01*
X155190782Y-103300685D01*
X155198840Y-103284881D01*
X155206192Y-103268512D01*
X155212835Y-103251861D01*
X155218784Y-103234928D01*
X155224014Y-103217430D01*
X155228530Y-103199650D01*
X155232348Y-103181588D01*
X155236127Y-103144278D01*
X155236203Y-103107448D01*
X155232720Y-103071323D01*
X155225820Y-103036074D01*
X155215649Y-103001981D01*
X155202345Y-102969215D01*
X155186052Y-102937973D01*
X155166917Y-102908538D01*
X155145082Y-102881162D01*
X155120689Y-102855762D01*
X155093881Y-102832902D01*
X155064801Y-102812582D01*
X155033582Y-102795084D01*
X155000389Y-102780691D01*
X154965359Y-102769684D01*
X154928627Y-102762064D01*
X154928621Y-102767765D01*
X154910449Y-102764943D01*
X156652284Y-102221496D01*
X155972078Y-102913646D01*
X155960538Y-102916468D01*
X155949294Y-102920137D01*
X155938414Y-102924652D01*
X155928105Y-102930297D01*
X155918413Y-102937070D01*
X155909334Y-102944972D01*
X155901166Y-102953721D01*
X155893809Y-102963317D01*
X155880443Y-102984766D01*
X155872047Y-103007908D01*
X155868465Y-103031615D01*
X155869594Y-103055321D01*
X155875244Y-103078181D01*
X155885314Y-103099348D01*
X155899609Y-103117975D01*
X155918063Y-103133497D01*
X155989377Y-103185877D01*
X156060690Y-103238230D01*
X156132004Y-103290610D01*
X156203317Y-103342962D01*
X156274631Y-103395314D01*
X156345944Y-103447667D01*
X156417258Y-103500047D01*
X156488571Y-103552399D01*
X156497659Y-103558608D01*
X156506755Y-103563688D01*
X156515853Y-103567922D01*
X156524952Y-103571308D01*
X156534164Y-103574130D01*
X156543150Y-103576953D01*
X156552243Y-103576953D01*
X156561336Y-103576953D01*
X156574945Y-103576953D01*
X156588418Y-103574130D01*
X156601547Y-103569615D01*
X156614386Y-103564253D01*
X156626589Y-103557197D01*
X156638081Y-103548730D01*
X156648664Y-103539135D01*
X156658350Y-103528410D01*
X156671739Y-103506962D01*
X156680197Y-103484102D01*
X156683846Y-103460395D01*
X156682858Y-103436688D01*
X156677307Y-103413828D01*
X156667331Y-103392662D01*
X156653095Y-103374035D01*
X156634669Y-103358513D01*
X156563287Y-103306160D01*
X156491904Y-103253780D01*
X156420522Y-103201428D01*
X156349140Y-103149047D01*
X156277757Y-103096695D01*
X156206375Y-103044315D01*
X156134993Y-102991962D01*
X156063610Y-102939582D01*
X156053080Y-102932244D01*
X156042116Y-102926318D01*
X156030762Y-102921520D01*
X156019234Y-102917851D01*
X156007400Y-102915029D01*
X155995665Y-102915029D01*
X155983849Y-102914803D01*
X155972108Y-102915029D01*
X155972078Y-102913646D01*
X156652284Y-102221496D01*
X155375395Y-103445719D01*
X155345644Y-103451646D01*
X155316891Y-103460395D01*
X155289315Y-103471966D01*
X155263091Y-103485795D01*
X155238397Y-103502164D01*
X155215393Y-103520508D01*
X155194294Y-103541110D01*
X155175264Y-103563688D01*
X155158468Y-103587959D01*
X155144084Y-103613924D01*
X155132292Y-103641299D01*
X155123270Y-103670142D01*
X155117193Y-103700284D01*
X155114193Y-103730905D01*
X155114211Y-103761187D01*
X155117137Y-103790962D01*
X155122869Y-103820002D01*
X155131302Y-103848225D01*
X155142326Y-103875318D01*
X155155833Y-103901000D01*
X155171722Y-103925271D01*
X155189880Y-103948131D01*
X155210214Y-103969016D01*
X155232614Y-103987925D01*
X155256973Y-104004576D01*
X155283155Y-104018969D01*
X155311111Y-104030822D01*
X155340720Y-104039854D01*
X155371856Y-104046062D01*
X155375141Y-104048885D01*
X155378316Y-104048885D01*
X155381398Y-104048885D01*
X155384404Y-104048885D01*
X155387333Y-104049167D01*
X155390237Y-104049449D01*
X155393119Y-104049449D01*
X155395983Y-104049449D01*
X155398893Y-104049449D01*
X155401803Y-104049449D01*
X155404712Y-104049449D01*
X155407622Y-104049449D01*
X155410665Y-104049506D01*
X155413792Y-104049562D01*
X155417017Y-104049562D01*
X155420359Y-104049562D01*
X155448505Y-104049562D01*
X155475959Y-104045893D01*
X155502610Y-104039966D01*
X155528340Y-104032064D01*
X155553034Y-104021904D01*
X155576580Y-104009769D01*
X155598862Y-103995658D01*
X155619763Y-103979853D01*
X155639157Y-103962355D01*
X155656957Y-103943164D01*
X155673038Y-103922280D01*
X155687276Y-103899702D01*
X155699561Y-103875713D01*
X155709772Y-103850313D01*
X155717798Y-103823784D01*
X155723528Y-103795844D01*
X155726516Y-103764094D01*
X155726359Y-103732824D01*
X155723189Y-103702203D01*
X155717144Y-103672400D01*
X155708353Y-103643585D01*
X155696951Y-103615928D01*
X155683074Y-103589681D01*
X155666855Y-103564845D01*
X155648423Y-103541703D01*
X155627923Y-103520536D01*
X155605483Y-103501345D01*
X155581237Y-103484412D01*
X155555312Y-103470019D01*
X155527855Y-103458165D01*
X155498995Y-103449134D01*
X155468864Y-103442925D01*
X155468870Y-103445240D01*
X155437185Y-103442417D01*
X155405968Y-103442615D01*
X155375395Y-103445719D01*
X156652284Y-102221496D01*
X156848822Y-102260894D01*
X156683862Y-103972826D01*
X156682875Y-103949119D01*
X156677320Y-103926259D01*
X156667347Y-103905092D01*
X156653109Y-103886466D01*
X156634688Y-103870944D01*
X156563306Y-103818591D01*
X156491923Y-103766211D01*
X156420541Y-103713859D01*
X156349159Y-103661478D01*
X156277776Y-103609126D01*
X156206394Y-103556746D01*
X156135012Y-103504393D01*
X156063629Y-103452013D01*
X156053099Y-103444675D01*
X156042135Y-103438466D01*
X156030824Y-103433668D01*
X156019252Y-103430000D01*
X156007419Y-103427177D01*
X155995684Y-103427177D01*
X155983907Y-103427177D01*
X155972130Y-103427177D01*
X155972113Y-103426895D01*
X155960573Y-103429717D01*
X155949327Y-103433386D01*
X155938447Y-103437902D01*
X155928138Y-103443546D01*
X155918350Y-103450320D01*
X155909367Y-103457940D01*
X155901149Y-103466688D01*
X155893842Y-103476566D01*
X155880476Y-103498015D01*
X155872080Y-103520875D01*
X155868518Y-103544582D01*
X155869619Y-103568288D01*
X155875277Y-103591148D01*
X155885339Y-103612315D01*
X155899636Y-103630942D01*
X155918085Y-103646464D01*
X155989398Y-103698760D01*
X156060712Y-103751056D01*
X156132025Y-103803351D01*
X156203339Y-103855647D01*
X156274653Y-103907943D01*
X156345966Y-103960239D01*
X156417279Y-104012534D01*
X156488593Y-104064830D01*
X156497680Y-104071039D01*
X156506776Y-104076401D01*
X156515875Y-104080635D01*
X156524974Y-104083739D01*
X156534217Y-104086561D01*
X156543172Y-104089384D01*
X156552262Y-104089384D01*
X156561355Y-104089384D01*
X156574964Y-104089384D01*
X156588437Y-104086561D01*
X156601566Y-104082046D01*
X156614405Y-104076966D01*
X156626608Y-104069910D01*
X156638100Y-104061726D01*
X156648734Y-104052130D01*
X156658369Y-104041124D01*
X156671758Y-104019675D01*
X156680216Y-103996532D01*
X156683862Y-103972826D01*
X156848822Y-102260894D01*
X156683892Y-104479923D01*
X156682904Y-104456216D01*
X156677353Y-104433356D01*
X156667376Y-104412189D01*
X156653138Y-104393563D01*
X156634717Y-104378040D01*
X156563335Y-104325688D01*
X156491953Y-104273308D01*
X156420570Y-104220956D01*
X156349188Y-104168575D01*
X156277806Y-104116223D01*
X156206423Y-104063842D01*
X156135041Y-104011490D01*
X156063658Y-103959110D01*
X156053129Y-103951772D01*
X156042164Y-103945845D01*
X156030853Y-103941048D01*
X156019282Y-103937379D01*
X156007448Y-103934556D01*
X155995713Y-103934556D01*
X155983936Y-103934556D01*
X155972159Y-103934556D01*
X155972137Y-103933456D01*
X155960594Y-103936278D01*
X155949351Y-103939947D01*
X155938471Y-103944462D01*
X155928161Y-103950107D01*
X155918470Y-103956880D01*
X155909391Y-103964500D01*
X155901223Y-103973249D01*
X155893866Y-103982845D01*
X155880500Y-104004294D01*
X155872103Y-104027436D01*
X155868545Y-104051142D01*
X155869645Y-104074849D01*
X155875301Y-104097709D01*
X155885365Y-104118876D01*
X155899668Y-104137502D01*
X155918111Y-104153025D01*
X155989425Y-104205405D01*
X156060738Y-104257757D01*
X156132052Y-104310110D01*
X156203365Y-104362462D01*
X156274679Y-104414842D01*
X156345992Y-104467194D01*
X156417306Y-104519575D01*
X156488619Y-104571927D01*
X156497707Y-104578136D01*
X156506803Y-104583216D01*
X156515902Y-104587449D01*
X156525001Y-104590836D01*
X156534212Y-104593658D01*
X156543198Y-104596480D01*
X156552291Y-104596480D01*
X156561385Y-104596480D01*
X156574993Y-104596480D01*
X156588467Y-104593376D01*
X156601596Y-104588860D01*
X156614434Y-104583780D01*
X156626637Y-104576725D01*
X156638129Y-104568540D01*
X156648763Y-104558945D01*
X156658399Y-104548220D01*
X156671787Y-104526772D01*
X156680245Y-104503629D01*
X156683892Y-104479923D01*
X156848822Y-102260894D01*
X156683919Y-104991225D01*
X156682932Y-104967518D01*
X156677377Y-104944658D01*
X156667404Y-104923491D01*
X156653160Y-104904865D01*
X156634742Y-104889342D01*
X156563360Y-104836990D01*
X156491977Y-104784610D01*
X156420595Y-104732257D01*
X156349213Y-104679877D01*
X156277830Y-104627525D01*
X156206448Y-104575144D01*
X156135066Y-104522792D01*
X156063683Y-104470412D01*
X156053154Y-104463074D01*
X156042189Y-104457147D01*
X156030878Y-104452350D01*
X156019307Y-104448681D01*
X156007473Y-104445858D01*
X155995738Y-104445858D01*
X155983922Y-104445633D01*
X155972181Y-104445858D01*
X155972159Y-104444447D01*
X155960616Y-104447270D01*
X155949373Y-104450938D01*
X155938493Y-104455454D01*
X155928183Y-104461098D01*
X155918492Y-104467872D01*
X155909413Y-104475492D01*
X155901245Y-104484241D01*
X155893888Y-104493836D01*
X155880522Y-104515285D01*
X155872125Y-104538427D01*
X155868569Y-104562134D01*
X155869670Y-104585841D01*
X155875326Y-104608701D01*
X155885390Y-104629867D01*
X155899727Y-104648776D01*
X155918139Y-104664298D01*
X155989453Y-104716594D01*
X156060766Y-104768890D01*
X156132080Y-104821186D01*
X156203393Y-104873481D01*
X156274707Y-104925777D01*
X156346020Y-104978073D01*
X156417334Y-105030369D01*
X156488647Y-105082665D01*
X156497735Y-105088873D01*
X156506831Y-105094236D01*
X156515929Y-105098469D01*
X156525028Y-105101573D01*
X156534271Y-105104396D01*
X156543226Y-105107218D01*
X156552319Y-105107218D01*
X156561412Y-105107218D01*
X156575021Y-105107218D01*
X156588494Y-105104396D01*
X156601623Y-105099880D01*
X156614462Y-105094800D01*
X156626665Y-105087745D01*
X156638157Y-105079560D01*
X156648791Y-105069965D01*
X156658426Y-105059240D01*
X156671815Y-105037791D01*
X156680273Y-105014931D01*
X156683919Y-104991225D01*
X156848822Y-102260894D01*
X156683941Y-105502498D01*
X156682954Y-105478792D01*
X156677402Y-105455932D01*
X156667426Y-105434765D01*
X156653190Y-105416138D01*
X156634764Y-105400616D01*
X156563382Y-105348179D01*
X156491999Y-105295742D01*
X156420617Y-105243305D01*
X156349235Y-105190869D01*
X156277852Y-105138432D01*
X156206470Y-105085995D01*
X156135088Y-105033558D01*
X156063705Y-104981121D01*
X156053176Y-104973783D01*
X156042211Y-104967857D01*
X156030900Y-104963059D01*
X156019329Y-104959672D01*
X156007495Y-104956850D01*
X155995760Y-104956850D01*
X155983938Y-104956765D01*
X155972203Y-104956850D01*
X155972181Y-104955721D01*
X155960641Y-104958543D01*
X155949397Y-104962212D01*
X155938518Y-104966728D01*
X155928208Y-104972372D01*
X155918517Y-104979145D01*
X155909438Y-104986765D01*
X155901270Y-104995514D01*
X155893912Y-105005110D01*
X155880546Y-105026559D01*
X155872150Y-105049701D01*
X155868591Y-105073408D01*
X155869692Y-105097114D01*
X155875351Y-105119974D01*
X155885412Y-105141141D01*
X155899721Y-105159768D01*
X155918161Y-105175290D01*
X155989475Y-105227670D01*
X156060788Y-105280023D01*
X156132102Y-105332403D01*
X156203415Y-105384755D01*
X156274729Y-105437136D01*
X156346042Y-105489488D01*
X156417356Y-105541868D01*
X156488669Y-105594221D01*
X156497757Y-105600429D01*
X156506853Y-105605509D01*
X156515951Y-105609743D01*
X156525050Y-105613129D01*
X156534262Y-105615952D01*
X156543248Y-105618774D01*
X156552341Y-105618774D01*
X156561434Y-105618774D01*
X156575043Y-105618774D01*
X156588516Y-105615669D01*
X156601645Y-105611154D01*
X156614484Y-105606074D01*
X156626687Y-105599018D01*
X156638179Y-105590834D01*
X156648813Y-105581238D01*
X156658448Y-105570514D01*
X156671837Y-105549065D01*
X156680295Y-105526205D01*
X156683941Y-105502498D01*
X156848822Y-102260894D01*
X156683955Y-106013208D01*
X156682967Y-105989501D01*
X156677413Y-105966641D01*
X156667439Y-105945474D01*
X156653201Y-105926848D01*
X156634780Y-105911325D01*
X156563398Y-105858973D01*
X156492016Y-105806593D01*
X156420634Y-105754241D01*
X156349251Y-105701860D01*
X156277869Y-105649508D01*
X156206486Y-105597127D01*
X156135104Y-105544775D01*
X156063722Y-105492395D01*
X156053192Y-105485057D01*
X156042228Y-105479130D01*
X156030916Y-105474333D01*
X156019345Y-105470664D01*
X156007511Y-105467841D01*
X155995777Y-105467841D01*
X155983960Y-105467616D01*
X155972220Y-105467841D01*
X155972203Y-105466713D01*
X155960663Y-105469535D01*
X155949419Y-105473204D01*
X155938540Y-105477719D01*
X155928230Y-105483364D01*
X155918539Y-105490137D01*
X155909460Y-105497757D01*
X155901292Y-105506506D01*
X155893934Y-105516101D01*
X155880568Y-105537550D01*
X155872172Y-105560410D01*
X155868611Y-105584117D01*
X155869711Y-105607824D01*
X155875370Y-105630684D01*
X155885431Y-105651850D01*
X155899729Y-105670477D01*
X155918177Y-105685999D01*
X155989491Y-105738380D01*
X156060804Y-105790732D01*
X156132118Y-105843112D01*
X156203431Y-105895465D01*
X156274745Y-105947845D01*
X156346058Y-106000197D01*
X156417372Y-106052578D01*
X156488685Y-106104930D01*
X156497773Y-106111139D01*
X156506869Y-106116219D01*
X156515968Y-106120452D01*
X156525067Y-106123839D01*
X156534278Y-106126661D01*
X156543264Y-106129483D01*
X156552357Y-106129483D01*
X156561451Y-106129483D01*
X156575059Y-106129483D01*
X156588533Y-106126379D01*
X156601662Y-106121863D01*
X156614500Y-106116783D01*
X156626703Y-106109728D01*
X156638195Y-106101543D01*
X156648830Y-106091948D01*
X156658465Y-106081223D01*
X156671853Y-106059774D01*
X156680311Y-106036914D01*
X156683955Y-106013208D01*
X156848822Y-102260894D01*
X156683994Y-106524481D01*
X156683006Y-106501057D01*
X156677452Y-106478479D01*
X156667478Y-106457595D01*
X156653234Y-106438968D01*
X156634817Y-106423446D01*
X156563434Y-106371094D01*
X156492052Y-106318713D01*
X156420670Y-106266361D01*
X156349287Y-106213981D01*
X156277905Y-106161628D01*
X156206522Y-106109248D01*
X156135140Y-106056896D01*
X156063758Y-106004515D01*
X156053228Y-105997177D01*
X156042264Y-105990969D01*
X156030952Y-105986171D01*
X156019381Y-105982502D01*
X156007548Y-105979680D01*
X155995813Y-105979680D01*
X155984036Y-105979680D01*
X155972258Y-105979680D01*
X155972220Y-105977704D01*
X155960679Y-105980526D01*
X155949436Y-105984195D01*
X155938556Y-105988711D01*
X155928246Y-105994355D01*
X155918555Y-106001129D01*
X155909476Y-106009031D01*
X155901308Y-106017780D01*
X155893951Y-106027375D01*
X155880585Y-106048824D01*
X155872189Y-106071966D01*
X155868610Y-106095673D01*
X155869739Y-106119380D01*
X155875395Y-106142240D01*
X155885459Y-106163406D01*
X155899753Y-106182033D01*
X155918208Y-106197555D01*
X155989521Y-106249851D01*
X156060835Y-106302147D01*
X156132148Y-106354443D01*
X156203462Y-106406738D01*
X156274776Y-106459034D01*
X156346089Y-106511330D01*
X156417403Y-106563626D01*
X156488716Y-106615921D01*
X156497803Y-106622130D01*
X156506899Y-106627210D01*
X156515998Y-106631444D01*
X156525097Y-106634830D01*
X156534309Y-106637653D01*
X156543295Y-106640475D01*
X156552388Y-106640475D01*
X156561481Y-106640475D01*
X156575090Y-106640475D01*
X156588563Y-106637653D01*
X156601692Y-106633137D01*
X156614530Y-106628057D01*
X156626734Y-106621001D01*
X156638226Y-106612535D01*
X156648809Y-106602939D01*
X156658495Y-106592215D01*
X156671884Y-106570766D01*
X156680342Y-106547906D01*
X156683994Y-106524481D01*
X156848822Y-102260894D01*
X156684016Y-107035727D01*
X156683028Y-107012303D01*
X156677471Y-106989725D01*
X156667500Y-106968840D01*
X156653248Y-106950214D01*
X156634841Y-106934691D01*
X156563459Y-106882255D01*
X156492077Y-106829818D01*
X156420695Y-106777381D01*
X156349312Y-106724944D01*
X156277930Y-106672535D01*
X156206547Y-106620098D01*
X156135165Y-106567661D01*
X156063783Y-106515225D01*
X156053253Y-106507887D01*
X156042289Y-106501960D01*
X156030977Y-106497162D01*
X156019406Y-106493776D01*
X156007572Y-106490953D01*
X155995838Y-106490953D01*
X155984015Y-106490869D01*
X155972280Y-106490953D01*
X155972258Y-106489542D01*
X155960718Y-106492365D01*
X155949475Y-106496033D01*
X155938595Y-106500549D01*
X155928285Y-106506193D01*
X155918594Y-106512967D01*
X155909515Y-106520587D01*
X155901347Y-106529336D01*
X155893990Y-106538931D01*
X155880624Y-106560380D01*
X155872228Y-106583240D01*
X155868666Y-106606947D01*
X155869767Y-106630653D01*
X155875425Y-106653513D01*
X155885486Y-106674680D01*
X155899784Y-106693307D01*
X155918233Y-106708829D01*
X155989546Y-106761209D01*
X156060860Y-106813562D01*
X156132173Y-106865914D01*
X156203487Y-106918266D01*
X156274800Y-106970647D01*
X156346114Y-107022999D01*
X156417427Y-107075379D01*
X156488741Y-107127731D01*
X156497828Y-107133940D01*
X156506924Y-107139020D01*
X156516023Y-107142971D01*
X156525122Y-107146358D01*
X156534334Y-107149180D01*
X156543320Y-107152003D01*
X156552413Y-107152003D01*
X156561506Y-107152003D01*
X156575115Y-107152003D01*
X156588588Y-107148898D01*
X156601717Y-107144383D01*
X156614555Y-107139303D01*
X156626759Y-107132247D01*
X156638251Y-107124063D01*
X156648885Y-107114467D01*
X156658520Y-107103743D01*
X156671909Y-107082294D01*
X156680367Y-107059434D01*
X156684016Y-107035727D01*
X156848822Y-102260894D01*
X156684046Y-107546775D01*
X156683059Y-107523068D01*
X156677507Y-107500208D01*
X156667531Y-107479042D01*
X156653295Y-107460415D01*
X156634869Y-107444893D01*
X156563487Y-107392512D01*
X156492104Y-107340160D01*
X156420722Y-107287808D01*
X156349340Y-107235427D01*
X156277957Y-107183047D01*
X156206575Y-107130695D01*
X156135193Y-107078314D01*
X156063810Y-107025962D01*
X156053281Y-107018624D01*
X156042316Y-107012415D01*
X156031005Y-107007618D01*
X156019434Y-107003949D01*
X156007600Y-107001127D01*
X155995865Y-107001127D01*
X155984088Y-107001127D01*
X155972311Y-107001127D01*
X155972280Y-107000280D01*
X155960740Y-107003102D01*
X155949497Y-107006771D01*
X155938617Y-107011287D01*
X155928307Y-107016931D01*
X155918616Y-107023704D01*
X155909537Y-107031324D01*
X155901369Y-107040073D01*
X155894012Y-107049669D01*
X155880646Y-107071400D01*
X155872250Y-107094260D01*
X155868668Y-107117967D01*
X155869797Y-107141673D01*
X155875453Y-107164533D01*
X155885517Y-107185700D01*
X155899811Y-107204327D01*
X155918266Y-107219849D01*
X155989580Y-107272229D01*
X156060893Y-107324581D01*
X156132207Y-107376962D01*
X156203520Y-107429314D01*
X156274834Y-107481694D01*
X156346147Y-107534047D01*
X156417461Y-107586427D01*
X156488774Y-107638779D01*
X156497862Y-107644988D01*
X156506958Y-107650350D01*
X156516011Y-107654584D01*
X156525155Y-107657688D01*
X156534398Y-107660510D01*
X156543353Y-107663333D01*
X156552446Y-107663333D01*
X156561539Y-107663333D01*
X156575148Y-107663333D01*
X156588621Y-107660510D01*
X156601750Y-107655995D01*
X156614589Y-107650915D01*
X156626792Y-107643859D01*
X156638284Y-107635393D01*
X156648867Y-107625797D01*
X156658553Y-107614790D01*
X156671942Y-107593342D01*
X156680400Y-107570482D01*
X156684046Y-107546775D01*
X156848822Y-102260894D01*
X156684066Y-108060024D01*
X156683078Y-108036318D01*
X156677524Y-108013740D01*
X156667550Y-107992573D01*
X156653300Y-107973946D01*
X156634888Y-107958424D01*
X156563506Y-107905987D01*
X156492124Y-107853550D01*
X156420741Y-107801114D01*
X156349359Y-107748677D01*
X156277977Y-107696240D01*
X156206594Y-107643803D01*
X156135212Y-107591394D01*
X156063829Y-107538957D01*
X156053300Y-107531620D01*
X156042335Y-107525693D01*
X156030982Y-107520895D01*
X156019453Y-107517226D01*
X156007619Y-107514404D01*
X155995884Y-107514404D01*
X155984068Y-107514178D01*
X155972327Y-107514404D01*
X155972311Y-107510989D01*
X155960771Y-107513811D01*
X155949527Y-107517480D01*
X155938648Y-107521996D01*
X155928338Y-107527640D01*
X155918550Y-107534414D01*
X155909567Y-107542034D01*
X155901295Y-107550782D01*
X155894042Y-107560660D01*
X155880676Y-107582109D01*
X155872280Y-107604969D01*
X155868718Y-107628676D01*
X155869819Y-107652382D01*
X155875478Y-107675242D01*
X155885539Y-107696409D01*
X155899836Y-107715036D01*
X155918285Y-107730558D01*
X155989599Y-107782910D01*
X156060912Y-107835291D01*
X156132226Y-107887671D01*
X156203539Y-107940023D01*
X156274853Y-107992404D01*
X156346166Y-108044756D01*
X156417480Y-108097136D01*
X156488793Y-108149489D01*
X156497881Y-108155698D01*
X156506977Y-108160778D01*
X156516076Y-108165011D01*
X156525174Y-108168398D01*
X156534386Y-108171220D01*
X156543372Y-108174042D01*
X156552446Y-108176864D01*
X156561556Y-108176864D01*
X156575164Y-108176864D01*
X156588638Y-108173760D01*
X156601767Y-108169244D01*
X156614605Y-108163882D01*
X156626808Y-108156826D01*
X156638300Y-108148360D01*
X156648884Y-108138764D01*
X156658570Y-108128040D01*
X156671958Y-108106591D01*
X156680416Y-108083731D01*
X156684066Y-108060024D01*
X156848822Y-102260894D01*
X156684296Y-108573753D01*
X156683083Y-108550047D01*
X156677320Y-108527187D01*
X156667174Y-108506020D01*
X156652814Y-108487393D01*
X156634340Y-108471871D01*
X156563027Y-108419491D01*
X156491713Y-108367138D01*
X156420400Y-108314758D01*
X156349086Y-108262406D01*
X156277773Y-108210025D01*
X156206459Y-108157673D01*
X156135146Y-108105293D01*
X156063833Y-108052940D01*
X156053351Y-108046732D01*
X156042409Y-108041652D01*
X156031100Y-108037700D01*
X156019518Y-108034878D01*
X156007620Y-108032056D01*
X155995910Y-108032056D01*
X155984071Y-108032056D01*
X155972333Y-108034878D01*
X155972327Y-108029234D01*
X155960793Y-108032056D01*
X155949563Y-108035725D01*
X155938703Y-108039676D01*
X155928414Y-108044756D01*
X155918685Y-108050683D01*
X155909651Y-108057456D01*
X155901411Y-108065358D01*
X155894056Y-108073825D01*
X155880690Y-108095274D01*
X155872294Y-108118416D01*
X155868715Y-108142123D01*
X155869844Y-108165829D01*
X155875497Y-108188689D01*
X155885564Y-108209856D01*
X155899858Y-108228483D01*
X155918313Y-108244005D01*
X155989626Y-108296301D01*
X156060940Y-108348596D01*
X156132253Y-108400892D01*
X156203567Y-108453188D01*
X156274881Y-108505484D01*
X156346194Y-108557780D01*
X156417507Y-108610075D01*
X156488821Y-108662371D01*
X156497908Y-108668580D01*
X156507004Y-108673942D01*
X156516103Y-108678176D01*
X156525202Y-108681562D01*
X156534414Y-108684384D01*
X156543400Y-108687207D01*
X156552473Y-108690029D01*
X156561583Y-108690029D01*
X156575299Y-108690029D01*
X156588846Y-108687207D01*
X156602029Y-108682691D01*
X156614909Y-108677611D01*
X156627155Y-108670556D01*
X156638701Y-108662089D01*
X156649360Y-108652493D01*
X156659150Y-108641769D01*
X156672491Y-108620320D01*
X156680825Y-108597460D01*
X156684296Y-108573753D01*
X156848822Y-102260894D01*
X156684291Y-109089289D01*
X156683077Y-109065582D01*
X156677314Y-109042722D01*
X156667169Y-109021555D01*
X156652809Y-109002929D01*
X156634335Y-108987406D01*
X156563022Y-108935054D01*
X156491708Y-108882702D01*
X156420395Y-108830350D01*
X156349081Y-108777969D01*
X156277768Y-108725589D01*
X156206454Y-108673237D01*
X156135141Y-108620856D01*
X156063827Y-108568504D01*
X156053345Y-108562295D01*
X156042404Y-108557215D01*
X156031058Y-108553264D01*
X156019513Y-108550160D01*
X156007637Y-108547337D01*
X155995905Y-108547337D01*
X155984066Y-108547422D01*
X155972328Y-108547337D01*
X155972333Y-108544205D01*
X155960799Y-108547027D01*
X155949569Y-108550696D01*
X155938709Y-108554929D01*
X155928419Y-108560009D01*
X155918691Y-108566218D01*
X155909657Y-108572991D01*
X155901416Y-108580611D01*
X155894062Y-108589360D01*
X155880696Y-108610809D01*
X155872300Y-108633951D01*
X155868741Y-108657658D01*
X155869841Y-108681365D01*
X155875497Y-108704225D01*
X155885561Y-108725391D01*
X155899859Y-108744018D01*
X155918307Y-108759540D01*
X155989621Y-108811921D01*
X156060934Y-108864273D01*
X156132248Y-108916625D01*
X156203562Y-108969006D01*
X156274875Y-109021358D01*
X156346189Y-109073738D01*
X156417502Y-109126119D01*
X156488815Y-109178471D01*
X156497903Y-109184680D01*
X156506999Y-109190042D01*
X156516098Y-109194275D01*
X156525197Y-109197662D01*
X156534408Y-109200484D01*
X156543394Y-109203306D01*
X156552468Y-109206129D01*
X156561578Y-109206129D01*
X156575294Y-109206129D01*
X156588841Y-109203024D01*
X156602023Y-109198509D01*
X156614904Y-109193146D01*
X156627149Y-109186091D01*
X156638695Y-109177624D01*
X156649355Y-109168029D01*
X156659145Y-109157304D01*
X156672486Y-109135855D01*
X156680820Y-109112995D01*
X156684291Y-109089289D01*
X156848822Y-102260894D01*
X157008916Y-102368562D01*
X157116647Y-102528638D01*
X157156095Y-102725319D01*
X157156095Y-103278644D01*
X157156095Y-103831969D01*
X157156095Y-104385294D01*
X157156095Y-104938618D01*
X157156095Y-105491943D01*
X157156095Y-106045268D01*
X157156095Y-106598593D01*
X157156095Y-107151918D01*
X157156095Y-107705243D01*
X157156095Y-108258596D01*
X157156095Y-108811921D01*
X157156095Y-109365246D01*
X157116647Y-109561700D01*
X157008916Y-109721608D01*
X156848822Y-109829162D01*
X156652284Y-109868504D01*
X155957409Y-109868504D01*
X155262533Y-109868504D01*
X154567657Y-109868504D01*
X153872781Y-109868504D01*
X153177906Y-109868504D01*
X152483030Y-109868504D01*
X151788154Y-109868504D01*
X151093278Y-109868504D01*
X150896512Y-109829162D01*
X150736245Y-109721608D01*
X150628403Y-109561700D01*
X150588916Y-109365246D01*
X150588916Y-109037557D01*
X150588916Y-108709869D01*
X150588916Y-108382153D01*
X150588916Y-108054464D01*
X150628403Y-107857925D01*
X150736245Y-107697820D01*
X150896512Y-107590096D01*
X151093278Y-107550641D01*
X151490015Y-107550641D01*
X151886752Y-107550641D01*
X152283490Y-107550641D01*
X152680227Y-107550641D01*
X153076964Y-107550641D01*
X153473702Y-107550641D01*
X153870438Y-107550641D01*
X154267176Y-107550641D01*
X154267176Y-107398778D01*
X154267176Y-107246942D01*
X154267176Y-107095078D01*
X154267176Y-106943215D01*
X153564652Y-106943215D01*
X152862128Y-106943215D01*
X152159604Y-106943215D01*
X151457080Y-106943215D01*
X151260486Y-106903760D01*
X151100598Y-106796036D01*
X150993135Y-106635931D01*
X150953821Y-106439391D01*
X150953821Y-106151101D01*
X150953821Y-105862840D01*
X150953821Y-105574550D01*
X150953821Y-105286260D01*
X150993135Y-105089720D01*
X151100598Y-104929615D01*
X151260486Y-104821891D01*
X151457080Y-104782437D01*
X152117161Y-104782437D01*
X152777241Y-104782437D01*
X153437321Y-104782437D01*
X154097402Y-104782437D01*
X154195928Y-104750771D01*
X154257438Y-104669717D01*
X154258624Y-104560300D01*
X154176213Y-104443460D01*
X153803729Y-104443460D01*
X153431245Y-104443460D01*
X153058761Y-104443460D01*
X152686278Y-104443460D01*
X152313794Y-104443460D01*
X151941310Y-104443460D01*
X151568827Y-104443460D01*
X151196343Y-104443460D01*
X150999805Y-104403920D01*
X150839711Y-104295998D01*
X150731980Y-104135724D01*
X150692532Y-103939100D01*
X150692532Y-103634131D01*
X150692532Y-103329162D01*
X150692532Y-103024220D01*
X150692532Y-102719251D01*
X150731980Y-102522570D01*
X150839711Y-102362494D01*
X150999805Y-102254826D01*
X151196343Y-102215428D01*
X151878334Y-102215428D01*
X152560325Y-102215428D01*
X153242316Y-102215428D01*
X153924307Y-102215428D01*
X154606298Y-102215428D01*
X155288289Y-102215428D01*
X155970280Y-102215428D01*
X156652271Y-102215428D01*
X156652284Y-102221496D01*
X156652284Y-102221496D01*
G37*
G36*
X165682844Y-102221496D02*
G01*
X165879468Y-102260894D01*
X164832359Y-102957588D01*
X164751916Y-102957588D01*
X164671473Y-102957588D01*
X164591030Y-102957588D01*
X164510587Y-102957588D01*
X164430144Y-102957588D01*
X164349701Y-102957588D01*
X164269258Y-102957588D01*
X164188815Y-102957588D01*
X164108372Y-102957588D01*
X164027929Y-102957588D01*
X163947486Y-102957588D01*
X163867043Y-102957588D01*
X163786600Y-102957588D01*
X163706157Y-102957588D01*
X163625714Y-102957588D01*
X163586155Y-102960410D01*
X163547310Y-102964926D01*
X163509310Y-102972263D01*
X163472287Y-102982423D01*
X163436339Y-102995406D01*
X163401670Y-103010928D01*
X163368388Y-103028990D01*
X163336604Y-103049310D01*
X163306450Y-103071888D01*
X163278058Y-103096723D01*
X163251564Y-103123534D01*
X163227103Y-103152462D01*
X163204807Y-103183224D01*
X163184807Y-103215765D01*
X163167234Y-103249942D01*
X163152220Y-103285671D01*
X163150027Y-103292444D01*
X163147987Y-103299218D01*
X163146096Y-103305991D01*
X163144355Y-103313047D01*
X163142763Y-103320102D01*
X163141318Y-103327158D01*
X163140017Y-103334496D01*
X163138860Y-103341833D01*
X163137844Y-103349453D01*
X163136972Y-103357073D01*
X163136238Y-103364976D01*
X163135640Y-103372878D01*
X163135177Y-103381062D01*
X163134852Y-103389529D01*
X163134660Y-103398278D01*
X163134596Y-103407309D01*
X163133840Y-103455456D01*
X163133081Y-103503575D01*
X163132322Y-103551722D01*
X163131562Y-103599841D01*
X163130803Y-103647960D01*
X163130044Y-103696107D01*
X163129285Y-103744226D01*
X163128526Y-103792345D01*
X163127766Y-103840464D01*
X163127010Y-103888611D01*
X163126251Y-103936730D01*
X163125492Y-103984848D01*
X163124733Y-104032967D01*
X163123973Y-104081114D01*
X163123214Y-104129233D01*
X163122455Y-104177352D01*
X163121882Y-104197672D01*
X163122435Y-104217992D01*
X163124092Y-104238030D01*
X163126832Y-104257786D01*
X163130633Y-104277259D01*
X163135486Y-104296450D01*
X163141370Y-104315359D01*
X163148265Y-104333986D01*
X163156172Y-104352330D01*
X163165033Y-104370110D01*
X163174842Y-104387608D01*
X163185595Y-104404541D01*
X163197292Y-104421192D01*
X163209874Y-104437279D01*
X163223333Y-104452801D01*
X163237663Y-104467759D01*
X163252726Y-104482152D01*
X163268318Y-104495699D01*
X163284423Y-104508399D01*
X163301024Y-104520252D01*
X163318074Y-104530977D01*
X163335586Y-104540854D01*
X163353518Y-104549886D01*
X163371828Y-104558070D01*
X163390460Y-104565408D01*
X163409447Y-104571617D01*
X163428745Y-104576979D01*
X163448310Y-104581212D01*
X163468111Y-104584599D01*
X163488128Y-104587421D01*
X163508336Y-104590243D01*
X163528705Y-104590243D01*
X163620137Y-104590243D01*
X163711570Y-104590243D01*
X163803003Y-104590243D01*
X163894436Y-104590243D01*
X163985869Y-104590243D01*
X164077302Y-104590243D01*
X164168734Y-104590243D01*
X164260167Y-104590243D01*
X164351600Y-104590243D01*
X164443033Y-104590243D01*
X164534466Y-104590243D01*
X164625899Y-104590243D01*
X164717332Y-104590243D01*
X164808764Y-104590243D01*
X164900197Y-104590243D01*
X164991630Y-104590243D01*
X165033109Y-104587421D01*
X165073260Y-104581494D01*
X165111899Y-104572181D01*
X165148838Y-104559481D01*
X165183921Y-104543394D01*
X165216901Y-104523921D01*
X165247610Y-104501626D01*
X165275881Y-104476508D01*
X165301532Y-104448850D01*
X165324367Y-104418652D01*
X165344199Y-104386197D01*
X165360843Y-104351596D01*
X165374113Y-104315048D01*
X165383822Y-104276723D01*
X165389783Y-104236760D01*
X165391813Y-104195358D01*
X165393328Y-104149807D01*
X165394844Y-104104257D01*
X165396359Y-104058706D01*
X165397875Y-104013155D01*
X165399390Y-103967605D01*
X165400906Y-103922082D01*
X165402421Y-103876532D01*
X165403937Y-103830981D01*
X165405452Y-103785430D01*
X165406968Y-103739908D01*
X165408483Y-103694357D01*
X165409999Y-103648806D01*
X165411515Y-103603256D01*
X165413030Y-103557733D01*
X165414546Y-103512183D01*
X165416061Y-103466632D01*
X165413479Y-103413885D01*
X165405893Y-103362831D01*
X165393551Y-103313668D01*
X165376700Y-103266678D01*
X165355589Y-103222058D01*
X165330463Y-103180092D01*
X165301571Y-103140976D01*
X165269159Y-103104992D01*
X165233469Y-103072339D01*
X165194759Y-103043242D01*
X165153273Y-103017842D01*
X165109255Y-102996676D01*
X165062959Y-102979742D01*
X165014616Y-102967324D01*
X164964480Y-102959704D01*
X164912803Y-102956882D01*
X164912802Y-102957588D01*
X164832359Y-102957588D01*
X165879468Y-102260894D01*
X165414103Y-105011347D01*
X165415974Y-104999211D01*
X165416618Y-104986794D01*
X165415986Y-104974376D01*
X165414129Y-104962240D01*
X165411112Y-104950669D01*
X165406999Y-104939380D01*
X165401832Y-104928656D01*
X165395713Y-104918496D01*
X165388690Y-104909183D01*
X165380817Y-104900434D01*
X165372170Y-104892531D01*
X165362782Y-104885476D01*
X165352728Y-104879267D01*
X165342080Y-104874187D01*
X165330904Y-104869954D01*
X165319257Y-104866849D01*
X165307201Y-104864027D01*
X165294799Y-104864027D01*
X165242762Y-104864027D01*
X165190725Y-104864027D01*
X165138688Y-104864027D01*
X165086651Y-104864027D01*
X165031283Y-104864027D01*
X164974831Y-104864027D01*
X164917420Y-104864027D01*
X164859175Y-104864027D01*
X164800220Y-104864027D01*
X164740681Y-104864027D01*
X164680680Y-104864027D01*
X164620343Y-104864027D01*
X164559797Y-104864027D01*
X164499162Y-104864027D01*
X164438564Y-104864027D01*
X164378128Y-104864027D01*
X164244814Y-104860923D01*
X164117949Y-104858100D01*
X163997576Y-104855278D01*
X163883737Y-104852456D01*
X163776476Y-104849634D01*
X163675836Y-104849634D01*
X163581860Y-104849634D01*
X163494591Y-104849380D01*
X163414073Y-104849380D01*
X163340349Y-104849380D01*
X163273461Y-104852202D01*
X163213453Y-104855024D01*
X163160348Y-104857846D01*
X163114231Y-104861515D01*
X163075134Y-104866313D01*
X163043084Y-104871957D01*
X162981436Y-104888044D01*
X162925940Y-104908929D01*
X162876204Y-104934046D01*
X162831837Y-104963059D01*
X162792448Y-104995571D01*
X162757644Y-105031131D01*
X162727034Y-105069372D01*
X162700226Y-105109871D01*
X162676829Y-105152204D01*
X162656451Y-105195977D01*
X162638701Y-105240794D01*
X162623186Y-105286203D01*
X162609513Y-105331867D01*
X162597295Y-105377305D01*
X162586140Y-105422178D01*
X162575654Y-105466035D01*
X162563132Y-105521040D01*
X162550204Y-105574409D01*
X162536169Y-105625829D01*
X162520322Y-105675049D01*
X162501961Y-105721841D01*
X162480382Y-105765896D01*
X162454883Y-105807016D01*
X162424760Y-105844919D01*
X162389316Y-105879321D01*
X162347835Y-105909971D01*
X162299618Y-105936500D01*
X162243966Y-105958795D01*
X162180187Y-105976575D01*
X162107553Y-105989557D01*
X162025368Y-105997460D01*
X161932937Y-106000282D01*
X161820318Y-105995484D01*
X161718505Y-105980809D01*
X161626502Y-105955973D01*
X161543314Y-105920949D01*
X161467945Y-105875314D01*
X161399399Y-105818813D01*
X161336681Y-105751193D01*
X161278795Y-105672170D01*
X161224746Y-105581492D01*
X161173538Y-105478876D01*
X161124175Y-105364040D01*
X161075662Y-105236786D01*
X161027003Y-105096804D01*
X160977202Y-104943811D01*
X160925265Y-104777554D01*
X160870194Y-104597779D01*
X160853012Y-104540459D01*
X160835509Y-104482265D01*
X160817650Y-104423196D01*
X160799398Y-104363224D01*
X160780715Y-104302320D01*
X160761572Y-104240485D01*
X160741930Y-104177691D01*
X160721751Y-104113937D01*
X160700996Y-104049167D01*
X160679637Y-103983409D01*
X160657635Y-103916579D01*
X160634953Y-103848733D01*
X160611560Y-103779814D01*
X160587410Y-103709823D01*
X160562473Y-103638703D01*
X160536715Y-103566454D01*
X160552310Y-103554601D01*
X160567149Y-103541901D01*
X160581196Y-103528636D01*
X160594418Y-103514525D01*
X160606804Y-103499567D01*
X160618271Y-103484045D01*
X160628798Y-103467958D01*
X160638368Y-103451025D01*
X160646962Y-103433527D01*
X160654508Y-103415747D01*
X160660983Y-103397403D01*
X160666356Y-103378494D01*
X160670598Y-103359303D01*
X160673671Y-103339547D01*
X160675534Y-103319510D01*
X160676155Y-103299190D01*
X160674405Y-103265436D01*
X160669288Y-103232557D01*
X160660974Y-103200750D01*
X160649643Y-103170186D01*
X160635470Y-103141032D01*
X160618632Y-103113374D01*
X160599309Y-103087692D01*
X160577673Y-103063986D01*
X160553910Y-103042254D01*
X160528186Y-103022781D01*
X160500678Y-103005848D01*
X160471570Y-102991737D01*
X160441022Y-102980448D01*
X160409245Y-102972263D01*
X160376406Y-102967183D01*
X160342668Y-102964361D01*
X160342677Y-102962527D01*
X160307927Y-102965349D01*
X160274298Y-102970429D01*
X160241926Y-102978896D01*
X160210943Y-102990184D01*
X160181443Y-103004296D01*
X160153650Y-103021229D01*
X160127668Y-103040984D01*
X160103606Y-103062998D01*
X160081590Y-103087269D01*
X160061772Y-103113516D01*
X160044286Y-103141456D01*
X160029263Y-103171174D01*
X160016839Y-103202444D01*
X160007151Y-103235040D01*
X160000329Y-103268851D01*
X159996511Y-103303649D01*
X159998063Y-103336189D01*
X160002601Y-103367770D01*
X160009990Y-103398221D01*
X160020085Y-103427460D01*
X160032740Y-103455400D01*
X160047819Y-103481646D01*
X160065176Y-103506482D01*
X160084666Y-103529624D01*
X160106152Y-103550791D01*
X160129480Y-103569982D01*
X160154510Y-103587197D01*
X160181104Y-103602155D01*
X160209115Y-103614855D01*
X160238406Y-103625015D01*
X160268831Y-103632635D01*
X160300245Y-103637433D01*
X160326069Y-103709795D01*
X160351186Y-103781169D01*
X160375618Y-103851555D01*
X160399384Y-103920925D01*
X160422507Y-103989308D01*
X160445000Y-104056702D01*
X160466886Y-104123081D01*
X160488186Y-104188472D01*
X160508918Y-104252875D01*
X160529102Y-104316290D01*
X160548756Y-104378690D01*
X160567902Y-104440129D01*
X160586557Y-104500553D01*
X160604743Y-104559989D01*
X160622481Y-104618466D01*
X160639787Y-104675926D01*
X160696384Y-104860584D01*
X160750858Y-105034405D01*
X160804355Y-105197275D01*
X160858024Y-105349026D01*
X160913006Y-105489488D01*
X160970459Y-105618520D01*
X161031525Y-105735981D01*
X161097350Y-105841729D01*
X161169080Y-105935597D01*
X161247864Y-106017413D01*
X161334849Y-106087065D01*
X161431182Y-106144385D01*
X161538015Y-106189230D01*
X161656485Y-106221459D01*
X161787742Y-106240933D01*
X161932938Y-106247424D01*
X162059015Y-106242626D01*
X162171581Y-106228797D01*
X162271489Y-106206784D01*
X162359593Y-106177292D01*
X162436754Y-106141083D01*
X162503808Y-106098975D01*
X162561612Y-106051703D01*
X162611026Y-106000113D01*
X162652898Y-105944995D01*
X162688091Y-105887083D01*
X162717453Y-105827195D01*
X162741834Y-105766122D01*
X162762086Y-105704626D01*
X162779065Y-105643468D01*
X162793623Y-105583468D01*
X162806614Y-105525387D01*
X162816722Y-105481191D01*
X162826653Y-105439647D01*
X162836665Y-105400701D01*
X162847017Y-105364351D01*
X162857966Y-105330540D01*
X162869777Y-105299185D01*
X162882708Y-105270286D01*
X162897016Y-105243757D01*
X162912953Y-105219486D01*
X162930792Y-105197755D01*
X162950788Y-105177999D01*
X162973196Y-105160501D01*
X162998275Y-105145261D01*
X163026287Y-105132279D01*
X163057490Y-105121273D01*
X163092144Y-105112241D01*
X163123610Y-105107161D01*
X163165243Y-105102928D01*
X163216252Y-105099541D01*
X163275846Y-105096719D01*
X163343230Y-105093897D01*
X163417621Y-105093897D01*
X163498225Y-105093897D01*
X163584249Y-105094038D01*
X163674899Y-105094038D01*
X163769389Y-105094038D01*
X163866925Y-105094038D01*
X163966717Y-105094038D01*
X164067981Y-105096860D01*
X164169910Y-105099683D01*
X164271717Y-105102505D01*
X164372617Y-105105327D01*
X164433051Y-105108149D01*
X164493652Y-105108149D01*
X164554303Y-105108149D01*
X164614889Y-105108149D01*
X164675290Y-105108149D01*
X164735401Y-105108149D01*
X164795102Y-105108149D01*
X164854275Y-105108149D01*
X164912801Y-105108149D01*
X164970571Y-105108149D01*
X165027470Y-105108149D01*
X165083378Y-105108431D01*
X165136233Y-105108431D01*
X165189089Y-105108431D01*
X165241944Y-105108431D01*
X165294800Y-105108431D01*
X165307202Y-105108431D01*
X165319258Y-105105609D01*
X165330906Y-105102505D01*
X165342082Y-105098271D01*
X165352724Y-105093191D01*
X165362769Y-105087265D01*
X165372155Y-105080209D01*
X165380818Y-105072307D01*
X165388697Y-105063840D01*
X165395729Y-105054527D01*
X165401851Y-105044649D01*
X165407000Y-105033925D01*
X165411084Y-105022918D01*
X165414103Y-105011347D01*
X165879468Y-102260894D01*
X166039751Y-102368562D01*
X166147672Y-102528638D01*
X166187206Y-102725319D01*
X166187206Y-103278644D01*
X166187206Y-103831969D01*
X166187206Y-104385294D01*
X166187206Y-104938618D01*
X166187206Y-105491943D01*
X166187206Y-106045268D01*
X166187206Y-106598593D01*
X166187206Y-107151918D01*
X166187206Y-107705243D01*
X166187206Y-108258596D01*
X166187206Y-108811921D01*
X166187206Y-109365246D01*
X166147672Y-109561700D01*
X166039751Y-109721608D01*
X165879468Y-109829162D01*
X165682844Y-109868504D01*
X165309809Y-109868504D01*
X164936774Y-109868504D01*
X164563739Y-109868504D01*
X164190704Y-109868504D01*
X163994166Y-109829162D01*
X163834072Y-109721608D01*
X163726341Y-109561700D01*
X163686893Y-109365246D01*
X163708116Y-109007106D01*
X163729339Y-108648937D01*
X163750563Y-108290797D01*
X163771783Y-107932629D01*
X163750184Y-107839411D01*
X163699487Y-107788442D01*
X163640841Y-107767275D01*
X163595395Y-107763042D01*
X163517815Y-107778564D01*
X163471021Y-107815225D01*
X163447001Y-107857586D01*
X163437747Y-107890268D01*
X158424254Y-103607461D01*
X158450879Y-103627499D01*
X158479339Y-103644996D01*
X158509449Y-103659672D01*
X158541035Y-103671525D01*
X158573893Y-103680274D01*
X158607846Y-103685636D01*
X158642714Y-103688459D01*
X158677653Y-103685636D01*
X158711687Y-103680274D01*
X158744629Y-103671525D01*
X158776294Y-103659672D01*
X158806495Y-103644996D01*
X158835046Y-103627499D01*
X158861761Y-103607461D01*
X158886456Y-103584883D01*
X158908940Y-103560330D01*
X158929032Y-103533801D01*
X158946544Y-103505296D01*
X158961287Y-103475155D01*
X158973084Y-103443546D01*
X158981737Y-103410639D01*
X158987062Y-103376688D01*
X158988868Y-103341805D01*
X158987062Y-103306922D01*
X158981734Y-103272943D01*
X158973081Y-103240008D01*
X158961290Y-103208370D01*
X158946541Y-103178173D01*
X158929032Y-103149612D01*
X158908943Y-103122801D01*
X158886459Y-103098247D01*
X158861758Y-103075670D01*
X158835043Y-103055632D01*
X158806495Y-103038134D01*
X158776296Y-103023458D01*
X158744631Y-103011605D01*
X158711689Y-103002856D01*
X158677656Y-102997494D01*
X158642717Y-102994672D01*
X158642720Y-102994672D01*
X158606851Y-102997494D01*
X158572153Y-103002856D01*
X158538783Y-103011605D01*
X158506900Y-103023458D01*
X158476661Y-103038134D01*
X158448224Y-103055632D01*
X158421745Y-103075670D01*
X158397387Y-103098247D01*
X158375309Y-103122801D01*
X158355655Y-103149612D01*
X158338589Y-103178173D01*
X158324274Y-103208370D01*
X158312873Y-103240008D01*
X158304530Y-103272943D01*
X158299405Y-103306922D01*
X158297655Y-103341805D01*
X158299461Y-103376688D01*
X158304764Y-103410639D01*
X158313378Y-103443546D01*
X158325118Y-103475155D01*
X158339797Y-103505296D01*
X158357235Y-103533801D01*
X158377248Y-103560330D01*
X158399650Y-103584883D01*
X158424254Y-103607461D01*
X163437747Y-107890268D01*
X163339217Y-108290854D01*
X163240688Y-108691440D01*
X159202650Y-103560330D01*
X159225104Y-103584883D01*
X159249759Y-103607461D01*
X159276431Y-103627499D01*
X159304938Y-103644996D01*
X159335090Y-103659672D01*
X159366711Y-103671525D01*
X159399597Y-103680274D01*
X159433567Y-103685636D01*
X159468441Y-103688459D01*
X159503374Y-103685636D01*
X159537390Y-103680274D01*
X159570305Y-103671525D01*
X159601934Y-103659672D01*
X159632094Y-103644996D01*
X159660598Y-103627499D01*
X159687263Y-103607461D01*
X159711903Y-103584883D01*
X159734337Y-103560330D01*
X159754378Y-103533801D01*
X159771842Y-103505296D01*
X159786546Y-103475155D01*
X159798306Y-103443546D01*
X159806930Y-103410639D01*
X159812239Y-103376688D01*
X159814045Y-103341805D01*
X159812239Y-103306922D01*
X159806928Y-103272943D01*
X159798303Y-103240008D01*
X159786546Y-103208370D01*
X159771839Y-103178173D01*
X159754375Y-103149612D01*
X159734337Y-103122801D01*
X159711903Y-103098247D01*
X159687257Y-103075670D01*
X159660593Y-103055632D01*
X159632091Y-103038134D01*
X159601934Y-103023458D01*
X159570305Y-103011605D01*
X159537390Y-103002856D01*
X159503373Y-102997494D01*
X159468441Y-102994672D01*
X159433564Y-102997494D01*
X159399589Y-103002856D01*
X159366702Y-103011605D01*
X159335090Y-103023458D01*
X159304938Y-103038134D01*
X159276431Y-103055632D01*
X159249759Y-103075670D01*
X159225104Y-103098247D01*
X159202659Y-103122801D01*
X159182595Y-103149612D01*
X159165106Y-103178173D01*
X159150380Y-103208370D01*
X159138608Y-103240008D01*
X159129967Y-103272943D01*
X159124644Y-103306922D01*
X159122838Y-103341805D01*
X159124644Y-103376688D01*
X159129967Y-103410639D01*
X159138608Y-103443546D01*
X159150383Y-103475155D01*
X159165100Y-103505296D01*
X159182587Y-103533801D01*
X159202650Y-103560330D01*
X163240688Y-108691440D01*
X163142158Y-109092054D01*
X163043628Y-109492641D01*
X162940552Y-109722849D01*
X162788533Y-109833029D01*
X162577337Y-109866980D01*
X162296731Y-109869802D01*
X162032699Y-109869802D01*
X161768667Y-109869802D01*
X161504635Y-109869802D01*
X161240603Y-109869802D01*
X161075155Y-109842709D01*
X160931802Y-109766086D01*
X160821444Y-109647383D01*
X160754982Y-109493967D01*
X160667063Y-109093381D01*
X160579145Y-108692766D01*
X160491226Y-108292180D01*
X160403307Y-107891594D01*
X160393824Y-107858913D01*
X160369632Y-107816551D01*
X160322727Y-107779890D01*
X160245109Y-107764368D01*
X160199607Y-107768602D01*
X160141166Y-107789768D01*
X160090737Y-107840738D01*
X160069271Y-107933956D01*
X160096695Y-108292124D01*
X160124118Y-108650264D01*
X160151542Y-109008432D01*
X160178965Y-109366572D01*
X160139431Y-109563027D01*
X160031511Y-109722934D01*
X159871227Y-109830489D01*
X159674603Y-109869831D01*
X159302946Y-109869831D01*
X158931290Y-109869831D01*
X158559633Y-109869831D01*
X158187976Y-109869831D01*
X157991438Y-109830489D01*
X157831344Y-109722934D01*
X157723613Y-109563027D01*
X157684165Y-109366572D01*
X157684165Y-108813247D01*
X157684165Y-108259922D01*
X157684165Y-107706597D01*
X157684165Y-107153273D01*
X157684165Y-106599948D01*
X157684165Y-106046623D01*
X157684165Y-105493298D01*
X157684165Y-104939973D01*
X157684165Y-104386620D01*
X157684165Y-103833295D01*
X157684165Y-103279970D01*
X157684165Y-102726645D01*
X157723613Y-102529965D01*
X157831344Y-102369888D01*
X157991438Y-102262220D01*
X158187976Y-102222822D01*
X158749389Y-102222822D01*
X159310801Y-102222822D01*
X159872214Y-102222822D01*
X160433627Y-102222822D01*
X160738770Y-102274751D01*
X161003492Y-102419475D01*
X161207902Y-102640483D01*
X161332108Y-102921209D01*
X161441248Y-103349086D01*
X161550389Y-103776992D01*
X161659529Y-104204869D01*
X161768670Y-104632746D01*
X161797695Y-104698532D01*
X161841590Y-104736999D01*
X161890091Y-104755061D01*
X161932932Y-104759577D01*
X161974466Y-104755061D01*
X162021200Y-104736999D01*
X162064589Y-104698532D01*
X162096092Y-104632746D01*
X162207024Y-104203204D01*
X162317956Y-103773662D01*
X162428888Y-103344148D01*
X162539820Y-102914605D01*
X162663702Y-102635036D01*
X162867273Y-102416286D01*
X163130085Y-102273763D01*
X163431686Y-102222822D01*
X163994477Y-102222822D01*
X164557268Y-102222822D01*
X165120059Y-102222822D01*
X165682850Y-102222822D01*
X165682844Y-102221496D01*
X165682844Y-102221496D01*
G37*
G36*
X136737067Y-112142935D02*
G01*
X136737067Y-112570843D01*
X136737067Y-112998751D01*
X136737067Y-113426658D01*
X136737067Y-113854566D01*
X136556550Y-113854566D01*
X136376033Y-113854566D01*
X136195516Y-113854566D01*
X136014999Y-113854566D01*
X136014999Y-113930356D01*
X136014999Y-114006147D01*
X136014999Y-114081937D01*
X136014999Y-114157727D01*
X136271306Y-114157727D01*
X136527613Y-114157727D01*
X136783921Y-114157727D01*
X137040228Y-114157727D01*
X137040228Y-113654029D01*
X137040228Y-113150331D01*
X137040228Y-112646633D01*
X137040228Y-112142935D01*
X136964438Y-112142935D01*
X136888647Y-112142935D01*
X136812857Y-112142935D01*
X136737067Y-112142935D01*
X136737067Y-112142935D01*
G37*
G36*
X137380432Y-112142935D02*
G01*
X137380432Y-112218810D01*
X137380432Y-112294684D01*
X137380432Y-112370558D01*
X137380432Y-112446433D01*
X137560949Y-112446433D01*
X137741466Y-112446433D01*
X137921983Y-112446433D01*
X138102500Y-112446433D01*
X138102500Y-112582956D01*
X138102500Y-112719479D01*
X138102500Y-112856003D01*
X138102500Y-112992526D01*
X137962865Y-112992526D01*
X137823229Y-112992526D01*
X137683593Y-112992526D01*
X137543957Y-112992526D01*
X137543957Y-113068485D01*
X137543957Y-113144443D01*
X137543957Y-113220401D01*
X137543957Y-113296360D01*
X137683593Y-113296360D01*
X137823229Y-113296360D01*
X137962865Y-113296360D01*
X138102500Y-113296360D01*
X138102500Y-113434313D01*
X138102500Y-113572267D01*
X138102500Y-113710220D01*
X138102500Y-113848173D01*
X137921983Y-113848173D01*
X137741466Y-113848173D01*
X137560949Y-113848173D01*
X137380432Y-113848173D01*
X137380432Y-113924132D01*
X137380432Y-114000090D01*
X137380432Y-114076049D01*
X137380432Y-114152007D01*
X137636824Y-114152007D01*
X137893215Y-114152007D01*
X138149606Y-114152007D01*
X138405998Y-114152007D01*
X138405998Y-113648225D01*
X138405998Y-113144443D01*
X138405998Y-112640661D01*
X138405998Y-112136879D01*
X138149606Y-112136879D01*
X137893215Y-112136879D01*
X137636824Y-112136879D01*
X137380432Y-112136879D01*
X137380432Y-112138393D01*
X137380432Y-112139907D01*
X137380432Y-112141421D01*
X137380432Y-112142935D01*
X137380432Y-112142935D01*
G37*
G36*
X138842940Y-112142935D02*
G01*
X138842940Y-112646633D01*
X138842940Y-113150331D01*
X138842940Y-113654029D01*
X138842940Y-114157727D01*
X138918815Y-114157727D01*
X138994689Y-114157727D01*
X139070563Y-114157727D01*
X139146438Y-114157727D01*
X139146438Y-113837658D01*
X139146438Y-113517590D01*
X139146438Y-113197521D01*
X139146438Y-112877453D01*
X139286073Y-113197521D01*
X139425709Y-113517590D01*
X139565345Y-113837658D01*
X139704980Y-114157727D01*
X139791453Y-114157727D01*
X139877927Y-114157727D01*
X139964400Y-114157727D01*
X140050873Y-114157727D01*
X140188910Y-113839088D01*
X140326948Y-113520450D01*
X140464985Y-113201811D01*
X140603023Y-112883173D01*
X140603023Y-113201811D01*
X140603023Y-113520450D01*
X140603023Y-113839088D01*
X140603023Y-114157727D01*
X140678897Y-114157727D01*
X140754771Y-114157727D01*
X140830646Y-114157727D01*
X140906520Y-114157727D01*
X140906520Y-113654029D01*
X140906520Y-113150331D01*
X140906520Y-112646633D01*
X140906520Y-112142935D01*
X140826103Y-112142935D01*
X140745687Y-112142935D01*
X140665270Y-112142935D01*
X140584853Y-112142935D01*
X140407280Y-112554188D01*
X140229708Y-112965440D01*
X140052135Y-113376692D01*
X139874562Y-113787945D01*
X139695559Y-113376692D01*
X139516556Y-112965440D01*
X139337553Y-112554188D01*
X139158551Y-112142935D01*
X139079648Y-112142935D01*
X139000745Y-112142935D01*
X138921843Y-112142935D01*
X138842940Y-112142935D01*
X138842940Y-112142935D01*
G37*
G36*
X142593754Y-113963664D02*
G01*
X142685837Y-113853259D01*
X142752275Y-113731498D01*
X142792530Y-113598382D01*
X142806068Y-113453909D01*
X142806068Y-113124672D01*
X142806068Y-112795435D01*
X142806068Y-112466197D01*
X142806068Y-112136960D01*
X142728679Y-112136960D01*
X142651291Y-112136960D01*
X142573903Y-112136960D01*
X142496514Y-112136960D01*
X142496514Y-112466197D01*
X142496514Y-112795435D01*
X142496514Y-113124672D01*
X142496514Y-113453909D01*
X142488660Y-113537007D01*
X142465475Y-113613229D01*
X142427527Y-113682637D01*
X142375384Y-113745294D01*
X142312675Y-113797489D01*
X142243151Y-113835552D01*
X142166814Y-113858853D01*
X142083664Y-113866760D01*
X142000760Y-113858853D01*
X141924639Y-113835552D01*
X141855268Y-113797489D01*
X141792616Y-113745294D01*
X141740421Y-113682637D01*
X141702357Y-113613229D01*
X141679057Y-113537007D01*
X141671149Y-113453909D01*
X141671149Y-113124672D01*
X141671149Y-112795435D01*
X141671149Y-112466197D01*
X141671149Y-112136960D01*
X141593761Y-112136960D01*
X141516373Y-112136960D01*
X141438984Y-112136960D01*
X141361596Y-112136960D01*
X141361596Y-112466197D01*
X141361596Y-112795435D01*
X141361596Y-113124672D01*
X141361596Y-113453909D01*
X141375186Y-113597530D01*
X141415557Y-113729227D01*
X141482110Y-113850704D01*
X141574246Y-113963664D01*
X141684645Y-114055799D01*
X141806369Y-114122352D01*
X141939386Y-114162724D01*
X142083664Y-114176314D01*
X142228331Y-114162724D01*
X142361547Y-114122352D01*
X142483344Y-114055799D01*
X142593754Y-113963664D01*
X142593754Y-113963664D01*
G37*
G36*
X143146106Y-112142935D02*
G01*
X143335792Y-112570843D01*
X143525478Y-112998751D01*
X143715163Y-113426658D01*
X143904849Y-113854566D01*
X143751586Y-113854566D01*
X143598324Y-113854566D01*
X143445061Y-113854566D01*
X143291798Y-113854566D01*
X143291798Y-113930356D01*
X143291798Y-114006147D01*
X143291798Y-114081937D01*
X143291798Y-114157727D01*
X143563331Y-114157727D01*
X143834863Y-114157727D01*
X144106396Y-114157727D01*
X144377928Y-114157727D01*
X144188326Y-113729903D01*
X143998725Y-113302080D01*
X143809123Y-112874256D01*
X143619521Y-112446433D01*
X143769672Y-112446433D01*
X143919822Y-112446433D01*
X144069973Y-112446433D01*
X144220123Y-112446433D01*
X144220123Y-112370558D01*
X144220123Y-112294684D01*
X144220123Y-112218810D01*
X144220123Y-112142935D01*
X143951619Y-112142935D01*
X143683114Y-112142935D01*
X143414610Y-112142935D01*
X143146106Y-112142935D01*
X143146106Y-112142935D01*
G37*
G36*
X145944004Y-112640775D02*
G01*
X146465871Y-113144473D01*
X146446602Y-112938479D01*
X146389197Y-112748446D01*
X146294254Y-112574312D01*
X146162374Y-112416012D01*
X146004216Y-112284184D01*
X145830066Y-112189357D01*
X145639954Y-112132067D01*
X145433913Y-112112852D01*
X145228066Y-112132067D01*
X145038054Y-112189357D01*
X144863940Y-112284184D01*
X144705788Y-112416012D01*
X144573907Y-112574312D01*
X144478964Y-112748446D01*
X144421559Y-112938479D01*
X144402291Y-113144473D01*
X144421559Y-113350462D01*
X144478964Y-113540458D01*
X144573907Y-113714493D01*
X144705788Y-113872598D01*
X144863940Y-114004621D01*
X145038054Y-114099548D01*
X145228066Y-114156874D01*
X145433913Y-114176095D01*
X145639954Y-114156874D01*
X145830066Y-114099548D01*
X146004216Y-114004621D01*
X146162374Y-113872598D01*
X146294255Y-113714493D01*
X146389197Y-113540458D01*
X146446603Y-113350462D01*
X146465871Y-113144473D01*
X145944004Y-112640775D01*
X146036086Y-112751038D01*
X146102524Y-112872815D01*
X146142779Y-113006010D01*
X146156317Y-113150530D01*
X146142779Y-113295002D01*
X146102524Y-113428119D01*
X146036086Y-113549879D01*
X145944004Y-113660284D01*
X145833594Y-113752367D01*
X145711796Y-113818804D01*
X145578580Y-113859060D01*
X145433913Y-113872598D01*
X145289635Y-113859060D01*
X145156618Y-113818804D01*
X145034894Y-113752367D01*
X144924495Y-113660284D01*
X144832359Y-113549879D01*
X144765806Y-113428119D01*
X144725435Y-113295002D01*
X144711845Y-113150530D01*
X144725435Y-113006010D01*
X144765806Y-112872815D01*
X144832359Y-112751038D01*
X144924495Y-112640775D01*
X145034894Y-112548640D01*
X145156618Y-112482087D01*
X145289635Y-112441716D01*
X145433913Y-112428125D01*
X145578580Y-112440817D01*
X145711796Y-112479690D01*
X145833594Y-112545943D01*
X145944004Y-112640775D01*
X145944004Y-112640775D01*
G37*
G36*
X147048707Y-113866749D02*
G01*
X146958837Y-113861113D01*
X146871807Y-113844626D01*
X146788183Y-113817918D01*
X146708534Y-113781621D01*
X146708534Y-113865066D01*
X146708534Y-113948511D01*
X146708534Y-114031956D01*
X146708534Y-114115401D01*
X146791590Y-114140389D01*
X146876349Y-114159605D01*
X146962244Y-114171944D01*
X147048707Y-114176303D01*
X147254648Y-114157034D01*
X147444566Y-114099629D01*
X147618584Y-114004686D01*
X147776831Y-113872805D01*
X147908854Y-113714653D01*
X148003781Y-113540540D01*
X148061108Y-113350528D01*
X148080328Y-113144681D01*
X148061108Y-112938634D01*
X148003781Y-112748486D01*
X147908854Y-112574235D01*
X147776831Y-112415884D01*
X147618584Y-112284197D01*
X147444566Y-112189354D01*
X147254648Y-112131986D01*
X147048707Y-112112723D01*
X146962244Y-112116224D01*
X146876349Y-112127107D01*
X146791590Y-112145939D01*
X146708534Y-112173288D01*
X146708534Y-112256732D01*
X146708534Y-112340177D01*
X146708534Y-112423622D01*
X146708534Y-112507067D01*
X146788183Y-112468268D01*
X146871807Y-112441960D01*
X146958837Y-112427008D01*
X147048707Y-112422276D01*
X147193179Y-112435814D01*
X147326296Y-112476070D01*
X147448056Y-112542507D01*
X147558461Y-112634590D01*
X147650544Y-112745000D01*
X147716981Y-112866797D01*
X147757237Y-113000014D01*
X147770775Y-113144681D01*
X147757237Y-113288959D01*
X147716981Y-113421975D01*
X147650544Y-113543699D01*
X147558461Y-113654099D01*
X147444650Y-113748931D01*
X147321753Y-113815184D01*
X147189772Y-113854057D01*
X147048707Y-113866749D01*
X147048707Y-113866749D01*
G37*
G36*
X149136209Y-112142935D02*
G01*
X149136209Y-112218810D01*
X149136209Y-112294684D01*
X149136209Y-112370558D01*
X149136209Y-112446433D01*
X149316810Y-112446433D01*
X149497411Y-112446433D01*
X149678012Y-112446433D01*
X149858613Y-112446433D01*
X149858613Y-112582956D01*
X149858613Y-112719479D01*
X149858613Y-112856003D01*
X149858613Y-112992526D01*
X149718977Y-112992526D01*
X149579342Y-112992526D01*
X149439706Y-112992526D01*
X149300070Y-112992526D01*
X149300070Y-113068485D01*
X149300070Y-113144443D01*
X149300070Y-113220401D01*
X149300070Y-113296360D01*
X149439706Y-113296360D01*
X149579342Y-113296360D01*
X149718977Y-113296360D01*
X149858613Y-113296360D01*
X149858613Y-113434313D01*
X149858613Y-113572267D01*
X149858613Y-113710220D01*
X149858613Y-113848173D01*
X149678012Y-113848173D01*
X149497411Y-113848173D01*
X149316810Y-113848173D01*
X149136209Y-113848173D01*
X149136209Y-113924132D01*
X149136209Y-114000090D01*
X149136209Y-114076049D01*
X149136209Y-114152007D01*
X149392684Y-114152007D01*
X149649160Y-114152007D01*
X149905635Y-114152007D01*
X150162110Y-114152007D01*
X150162110Y-113648225D01*
X150162110Y-113144443D01*
X150162110Y-112640661D01*
X150162110Y-112136879D01*
X149905635Y-112136879D01*
X149649160Y-112136879D01*
X149392684Y-112136879D01*
X149136209Y-112136879D01*
X149136209Y-112138393D01*
X149136209Y-112139907D01*
X149136209Y-112141421D01*
X149136209Y-112142935D01*
X149136209Y-112142935D01*
G37*
G36*
X150854063Y-113866749D02*
G01*
X150764194Y-113861113D01*
X150677164Y-113844626D01*
X150593540Y-113817918D01*
X150513891Y-113781621D01*
X150513891Y-113865066D01*
X150513891Y-113948511D01*
X150513891Y-114031956D01*
X150513891Y-114115401D01*
X150596947Y-114140389D01*
X150681706Y-114159605D01*
X150767601Y-114171944D01*
X150854063Y-114176303D01*
X151060052Y-114157034D01*
X151250048Y-114099629D01*
X151424083Y-114004686D01*
X151582188Y-113872805D01*
X151714211Y-113714653D01*
X151809138Y-113540540D01*
X151866464Y-113350528D01*
X151885685Y-113144681D01*
X151866464Y-112938634D01*
X151809138Y-112748486D01*
X151714211Y-112574235D01*
X151582188Y-112415884D01*
X151424083Y-112284197D01*
X151250048Y-112189354D01*
X151060052Y-112131986D01*
X150854063Y-112112723D01*
X150767601Y-112116224D01*
X150681706Y-112127107D01*
X150596947Y-112145939D01*
X150513891Y-112173288D01*
X150513891Y-112256732D01*
X150513891Y-112340177D01*
X150513891Y-112423622D01*
X150513891Y-112507067D01*
X150593540Y-112468268D01*
X150677164Y-112441960D01*
X150764194Y-112427008D01*
X150854063Y-112422276D01*
X150998536Y-112435814D01*
X151131652Y-112476070D01*
X151253413Y-112542507D01*
X151363818Y-112634590D01*
X151455901Y-112745000D01*
X151522338Y-112866797D01*
X151562594Y-113000014D01*
X151576131Y-113144681D01*
X151562594Y-113288959D01*
X151522338Y-113421975D01*
X151455901Y-113543699D01*
X151363818Y-113654099D01*
X151253413Y-113748931D01*
X151131652Y-113815184D01*
X150998536Y-113854057D01*
X150854063Y-113866749D01*
X150854063Y-113866749D01*
G37*
G36*
X153032920Y-113381073D02*
G01*
X152231781Y-113654203D01*
X152231781Y-114157985D01*
X152309169Y-114157985D01*
X152386558Y-114157985D01*
X152463946Y-114157985D01*
X152541335Y-114157985D01*
X152541335Y-114041146D01*
X152541335Y-113924306D01*
X152541335Y-113807466D01*
X152541335Y-113690626D01*
X152712767Y-113690626D01*
X152884199Y-113690626D01*
X153055632Y-113690626D01*
X153227064Y-113690626D01*
X153301424Y-113807466D01*
X153375784Y-113924306D01*
X153450144Y-114041146D01*
X153524505Y-114157985D01*
X153615520Y-114157985D01*
X153706536Y-114157985D01*
X153797551Y-114157985D01*
X153888567Y-114157985D01*
X153569928Y-113654203D01*
X153251290Y-113150421D01*
X152932651Y-112646639D01*
X152614013Y-112142857D01*
X152518455Y-112142857D01*
X152422897Y-112142857D01*
X152327339Y-112142857D01*
X152231781Y-112142857D01*
X152231781Y-112646639D01*
X152231781Y-113150421D01*
X152231781Y-113654203D01*
X153032920Y-113381073D01*
X152910023Y-113381073D01*
X152787127Y-113381073D01*
X152664231Y-113381073D01*
X152541335Y-113381073D01*
X152541335Y-113186844D01*
X152541335Y-112992616D01*
X152541335Y-112798388D01*
X152541335Y-112604160D01*
X152664231Y-112798388D01*
X152787127Y-112992616D01*
X152910023Y-113186844D01*
X153032920Y-113381073D01*
X153032920Y-113381073D01*
G37*
G36*
X154471134Y-112998577D02*
G01*
X154471134Y-114157721D01*
X154547008Y-114157721D01*
X154622882Y-114157721D01*
X154698757Y-114157721D01*
X154774631Y-114157721D01*
X154774631Y-113654023D01*
X154774631Y-113150325D01*
X154774631Y-112646628D01*
X154774631Y-112142930D01*
X154588058Y-112142930D01*
X154401484Y-112142930D01*
X154214911Y-112142930D01*
X154028337Y-112142930D01*
X153913485Y-112153250D01*
X153806014Y-112184610D01*
X153706492Y-112237610D01*
X153615487Y-112312848D01*
X153540248Y-112402996D01*
X153487249Y-112501062D01*
X153455889Y-112608149D01*
X153445568Y-112725362D01*
X153455889Y-112840214D01*
X153487249Y-112947685D01*
X153540248Y-113047207D01*
X153615487Y-113138212D01*
X153705593Y-113213451D01*
X153803616Y-113266450D01*
X153910788Y-113297810D01*
X154028337Y-113308131D01*
X154137522Y-113308131D01*
X154246707Y-113308131D01*
X154355892Y-113308131D01*
X154465077Y-113308131D01*
X154466591Y-113520528D01*
X154468105Y-113732926D01*
X154469620Y-113945324D01*
X154471134Y-114157721D01*
X154471134Y-112998577D01*
X154361865Y-112998577D01*
X154252595Y-112998577D01*
X154143326Y-112998577D01*
X154034057Y-112998577D01*
X153978219Y-112993987D01*
X153928027Y-112979776D01*
X153882314Y-112955282D01*
X153839913Y-112919842D01*
X153804615Y-112877578D01*
X153780105Y-112831813D01*
X153765816Y-112781442D01*
X153761179Y-112725362D01*
X153765816Y-112668672D01*
X153780105Y-112617060D01*
X153804615Y-112571063D01*
X153839913Y-112531218D01*
X153883165Y-112495920D01*
X153930298Y-112471410D01*
X153980774Y-112457120D01*
X154034057Y-112452483D01*
X154143326Y-112452483D01*
X154252595Y-112452483D01*
X154361865Y-112452483D01*
X154471134Y-112452483D01*
X154471134Y-112589007D01*
X154471134Y-112725530D01*
X154471134Y-112862053D01*
X154471134Y-112998577D01*
X154471134Y-112998577D01*
G37*
G36*
X155830815Y-114176205D02*
G01*
X155928628Y-114165791D01*
X156022561Y-114144114D01*
X156113151Y-114111145D01*
X156200933Y-114066852D01*
X156288668Y-114006797D01*
X156361010Y-113936427D01*
X156418588Y-113856910D01*
X156462035Y-113769411D01*
X156390703Y-113743587D01*
X156319371Y-113717763D01*
X156248039Y-113691939D01*
X156176708Y-113666115D01*
X156153990Y-113709609D01*
X156122157Y-113749097D01*
X156081176Y-113785115D01*
X156031015Y-113818200D01*
X155980666Y-113838498D01*
X155929275Y-113854412D01*
X155875676Y-113865847D01*
X155818702Y-113872708D01*
X155735557Y-113870484D01*
X155659256Y-113855169D01*
X155589833Y-113827426D01*
X155527317Y-113787917D01*
X155483829Y-113745706D01*
X155452957Y-113701318D01*
X155433442Y-113654722D01*
X155424021Y-113605886D01*
X155445755Y-113514792D01*
X155520420Y-113432814D01*
X155648584Y-113359983D01*
X155830815Y-113296332D01*
X156111889Y-113189234D01*
X156309403Y-113051003D01*
X156423830Y-112882173D01*
X156455642Y-112683281D01*
X156435528Y-112542074D01*
X156384563Y-112419193D01*
X156303946Y-112314545D01*
X156194877Y-112228035D01*
X156094693Y-112177827D01*
X155985423Y-112144590D01*
X155867070Y-112127252D01*
X155739631Y-112124738D01*
X155587351Y-112145279D01*
X155449803Y-112189131D01*
X155328216Y-112256893D01*
X155223820Y-112349165D01*
X155279927Y-112400813D01*
X155336033Y-112452462D01*
X155392140Y-112504110D01*
X155448247Y-112555759D01*
X155508591Y-112503327D01*
X155579723Y-112464617D01*
X155661075Y-112439597D01*
X155752080Y-112428236D01*
X155817997Y-112427100D01*
X155879435Y-112432778D01*
X155936330Y-112445270D01*
X155988620Y-112464575D01*
X156055856Y-112503101D01*
X156103819Y-112554749D01*
X156133550Y-112619015D01*
X156146089Y-112695394D01*
X156124549Y-112786341D01*
X156049984Y-112867541D01*
X155921857Y-112938458D01*
X155739631Y-112998555D01*
X155566627Y-113055582D01*
X155421035Y-113126204D01*
X155302760Y-113210390D01*
X155211707Y-113308109D01*
X155164906Y-113379472D01*
X155133562Y-113456072D01*
X155116980Y-113536079D01*
X155114467Y-113617663D01*
X155131653Y-113732610D01*
X155173728Y-113839482D01*
X155240849Y-113937142D01*
X155333173Y-114024457D01*
X155433310Y-114091604D01*
X155543258Y-114138941D01*
X155663489Y-114166973D01*
X155794476Y-114176205D01*
X155803561Y-114176205D01*
X155812645Y-114176205D01*
X155821730Y-114176205D01*
X155830815Y-114176205D01*
X155830815Y-114176205D01*
G37*
G36*
X158137158Y-112998577D02*
G01*
X157445036Y-114157721D01*
X157488315Y-114157721D01*
X157531593Y-114157721D01*
X157574872Y-114157721D01*
X157618150Y-114157721D01*
X157661429Y-114157721D01*
X157704708Y-114157721D01*
X157747986Y-114157721D01*
X157791265Y-114157721D01*
X157846615Y-114051522D01*
X157901964Y-113945324D01*
X157957314Y-113839125D01*
X158012663Y-113732926D01*
X158068013Y-113626727D01*
X158123362Y-113520528D01*
X158178712Y-113414329D01*
X158234062Y-113308131D01*
X158277298Y-113308131D01*
X158320535Y-113308131D01*
X158363771Y-113308131D01*
X158407008Y-113308131D01*
X158450245Y-113308131D01*
X158493481Y-113308131D01*
X158536718Y-113308131D01*
X158579954Y-113308131D01*
X158579954Y-113414329D01*
X158579954Y-113520528D01*
X158579954Y-113626727D01*
X158579954Y-113732926D01*
X158579954Y-113839125D01*
X158579954Y-113945324D01*
X158579954Y-114051522D01*
X158579954Y-114157721D01*
X158617892Y-114157721D01*
X158655829Y-114157721D01*
X158693766Y-114157721D01*
X158731703Y-114157721D01*
X158769640Y-114157721D01*
X158807577Y-114157721D01*
X158845514Y-114157721D01*
X158883452Y-114157721D01*
X158883452Y-113905872D01*
X158883452Y-113654023D01*
X158883452Y-113402174D01*
X158883452Y-113150325D01*
X158883452Y-112898476D01*
X158883452Y-112646628D01*
X158883452Y-112394779D01*
X158883452Y-112142930D01*
X158790165Y-112142930D01*
X158696878Y-112142930D01*
X158603591Y-112142930D01*
X158510305Y-112142930D01*
X158417018Y-112142930D01*
X158323731Y-112142930D01*
X158230445Y-112142930D01*
X158137158Y-112142930D01*
X158078748Y-112145497D01*
X158022163Y-112153250D01*
X157967464Y-112166262D01*
X157914708Y-112184610D01*
X157863955Y-112208367D01*
X157815265Y-112237609D01*
X157768696Y-112272411D01*
X157724307Y-112312848D01*
X157683967Y-112357001D01*
X157649211Y-112402996D01*
X157619975Y-112450970D01*
X157596196Y-112501062D01*
X157577811Y-112553408D01*
X157564757Y-112608149D01*
X157556971Y-112665421D01*
X157554389Y-112725362D01*
X157555823Y-112768345D01*
X157560168Y-112810689D01*
X157567502Y-112852323D01*
X157577900Y-112893177D01*
X157591437Y-112933179D01*
X157608188Y-112972258D01*
X157628227Y-113010344D01*
X157651629Y-113047365D01*
X157677478Y-113082419D01*
X157705055Y-113114749D01*
X157734350Y-113144500D01*
X157765356Y-113171818D01*
X157798067Y-113196849D01*
X157832472Y-113219738D01*
X157868565Y-113240633D01*
X157906338Y-113259679D01*
X157848676Y-113371934D01*
X157791013Y-113484189D01*
X157733350Y-113596445D01*
X157675687Y-113708700D01*
X157618024Y-113820955D01*
X157560362Y-113933211D01*
X157502699Y-114045466D01*
X157445036Y-114157721D01*
X158137158Y-112998577D01*
X158108349Y-112997443D01*
X158081130Y-112993987D01*
X158055354Y-112988126D01*
X158030875Y-112979776D01*
X158007547Y-112968856D01*
X157985225Y-112955282D01*
X157963763Y-112938972D01*
X157943014Y-112919842D01*
X157923870Y-112899079D01*
X157907521Y-112877578D01*
X157893893Y-112855202D01*
X157882911Y-112831813D01*
X157874500Y-112807272D01*
X157868585Y-112781442D01*
X157865091Y-112754185D01*
X157863943Y-112725362D01*
X157865091Y-112696415D01*
X157868585Y-112668672D01*
X157874500Y-112642198D01*
X157882911Y-112617060D01*
X157893893Y-112593326D01*
X157907521Y-112571063D01*
X157923870Y-112550338D01*
X157943014Y-112531218D01*
X157964011Y-112512185D01*
X157986077Y-112495920D01*
X158009144Y-112482352D01*
X158033146Y-112471410D01*
X158058015Y-112463023D01*
X158083685Y-112457120D01*
X158110088Y-112453631D01*
X158137158Y-112452483D01*
X158191750Y-112452483D01*
X158246343Y-112452483D01*
X158300935Y-112452483D01*
X158355528Y-112452483D01*
X158410120Y-112452483D01*
X158464713Y-112452483D01*
X158519305Y-112452483D01*
X158573898Y-112452483D01*
X158573898Y-112521544D01*
X158573898Y-112590605D01*
X158573898Y-112659666D01*
X158573898Y-112728727D01*
X158573898Y-112797787D01*
X158573898Y-112866848D01*
X158573898Y-112935909D01*
X158573898Y-113004970D01*
X158519305Y-113004970D01*
X158464713Y-113004970D01*
X158410120Y-113004970D01*
X158355528Y-113004970D01*
X158300935Y-113004970D01*
X158246343Y-113004970D01*
X158191750Y-113004970D01*
X158137158Y-113004970D01*
X158137158Y-113004171D01*
X158137158Y-113003371D01*
X158137158Y-113002572D01*
X158137158Y-113001773D01*
X158137158Y-113000974D01*
X158137158Y-113000175D01*
X158137158Y-112999376D01*
X158137158Y-112998577D01*
X158137158Y-112998577D01*
G37*
G36*
X159205050Y-112142935D02*
G01*
X159205050Y-112180873D01*
X159205050Y-112218810D01*
X159205050Y-112256747D01*
X159205050Y-112294684D01*
X159205050Y-112332621D01*
X159205050Y-112370558D01*
X159205050Y-112408496D01*
X159205050Y-112446433D01*
X159295308Y-112446433D01*
X159385567Y-112446433D01*
X159475825Y-112446433D01*
X159566084Y-112446433D01*
X159656342Y-112446433D01*
X159746601Y-112446433D01*
X159836859Y-112446433D01*
X159927118Y-112446433D01*
X159927118Y-112514694D01*
X159927118Y-112582956D01*
X159927118Y-112651218D01*
X159927118Y-112719479D01*
X159927118Y-112787741D01*
X159927118Y-112856003D01*
X159927118Y-112924264D01*
X159927118Y-112992526D01*
X159857342Y-112992526D01*
X159787566Y-112992526D01*
X159717791Y-112992526D01*
X159648015Y-112992526D01*
X159578239Y-112992526D01*
X159508463Y-112992526D01*
X159438687Y-112992526D01*
X159368912Y-112992526D01*
X159368912Y-113030505D01*
X159368912Y-113068485D01*
X159368912Y-113106464D01*
X159368912Y-113144443D01*
X159368912Y-113182422D01*
X159368912Y-113220401D01*
X159368912Y-113258381D01*
X159368912Y-113296360D01*
X159438687Y-113296360D01*
X159508463Y-113296360D01*
X159578239Y-113296360D01*
X159648015Y-113296360D01*
X159717791Y-113296360D01*
X159787566Y-113296360D01*
X159857342Y-113296360D01*
X159927118Y-113296360D01*
X159927118Y-113365337D01*
X159927118Y-113434313D01*
X159927118Y-113503290D01*
X159927118Y-113572267D01*
X159927118Y-113641243D01*
X159927118Y-113710220D01*
X159927118Y-113779197D01*
X159927118Y-113848173D01*
X159836859Y-113848173D01*
X159746601Y-113848173D01*
X159656342Y-113848173D01*
X159566084Y-113848173D01*
X159475825Y-113848173D01*
X159385567Y-113848173D01*
X159295308Y-113848173D01*
X159205050Y-113848173D01*
X159205050Y-113886152D01*
X159205050Y-113924132D01*
X159205050Y-113962111D01*
X159205050Y-114000090D01*
X159205050Y-114038069D01*
X159205050Y-114076049D01*
X159205050Y-114114028D01*
X159205050Y-114152007D01*
X159333288Y-114152007D01*
X159461525Y-114152007D01*
X159589763Y-114152007D01*
X159718001Y-114152007D01*
X159846239Y-114152007D01*
X159974476Y-114152007D01*
X160102714Y-114152007D01*
X160230952Y-114152007D01*
X160230952Y-113900116D01*
X160230952Y-113648225D01*
X160230952Y-113396334D01*
X160230952Y-113144443D01*
X160230952Y-112892552D01*
X160230952Y-112640661D01*
X160230952Y-112388770D01*
X160230952Y-112136879D01*
X160102714Y-112136879D01*
X159974476Y-112136879D01*
X159846239Y-112136879D01*
X159718001Y-112136879D01*
X159589763Y-112136879D01*
X159461525Y-112136879D01*
X159333288Y-112136879D01*
X159205050Y-112136879D01*
X159205050Y-112137636D01*
X159205050Y-112138393D01*
X159205050Y-112139150D01*
X159205050Y-112139907D01*
X159205050Y-112140664D01*
X159205050Y-112141421D01*
X159205050Y-112142178D01*
X159205050Y-112142935D01*
X159205050Y-112142935D01*
G37*
G36*
X160601239Y-112142935D02*
G01*
X160702097Y-112268145D01*
X160802954Y-112393354D01*
X160903811Y-112518564D01*
X161004669Y-112643773D01*
X161105526Y-112768983D01*
X161206383Y-112894192D01*
X161307241Y-113019402D01*
X161408098Y-113144611D01*
X161304212Y-113271251D01*
X161200327Y-113397890D01*
X161096441Y-113524530D01*
X160992556Y-113651169D01*
X160888670Y-113777809D01*
X160784785Y-113904448D01*
X160680899Y-114031088D01*
X160577013Y-114157727D01*
X160626306Y-114157727D01*
X160675600Y-114157727D01*
X160724893Y-114157727D01*
X160774186Y-114157727D01*
X160823479Y-114157727D01*
X160872772Y-114157727D01*
X160922065Y-114157727D01*
X160971358Y-114157727D01*
X161050261Y-114061412D01*
X161129163Y-113965097D01*
X161208066Y-113868782D01*
X161286968Y-113772467D01*
X161365871Y-113676152D01*
X161444773Y-113579837D01*
X161523676Y-113483522D01*
X161602579Y-113387207D01*
X161614734Y-113401591D01*
X161626889Y-113415975D01*
X161639044Y-113430360D01*
X161651199Y-113444744D01*
X161663354Y-113459128D01*
X161675509Y-113473512D01*
X161687664Y-113487896D01*
X161699819Y-113502280D01*
X161699819Y-113583496D01*
X161699819Y-113664712D01*
X161699819Y-113745928D01*
X161699819Y-113827144D01*
X161699819Y-113908360D01*
X161699819Y-113989575D01*
X161699819Y-114070791D01*
X161699819Y-114152007D01*
X161737714Y-114152007D01*
X161775609Y-114152007D01*
X161813504Y-114152007D01*
X161851399Y-114152007D01*
X161889294Y-114152007D01*
X161927190Y-114152007D01*
X161965085Y-114152007D01*
X162002980Y-114152007D01*
X162002980Y-113900116D01*
X162002980Y-113648225D01*
X162002980Y-113396334D01*
X162002980Y-113144443D01*
X162002980Y-112892552D01*
X162002980Y-112640661D01*
X162002980Y-112388770D01*
X162002980Y-112136879D01*
X161965085Y-112136879D01*
X161927190Y-112136879D01*
X161889294Y-112136879D01*
X161851399Y-112136879D01*
X161813504Y-112136879D01*
X161775609Y-112136879D01*
X161737714Y-112136879D01*
X161699819Y-112136879D01*
X161699819Y-112246106D01*
X161699819Y-112355333D01*
X161699819Y-112464560D01*
X161699819Y-112573787D01*
X161699819Y-112683014D01*
X161699819Y-112792241D01*
X161699819Y-112901468D01*
X161699819Y-113010696D01*
X161611790Y-112901468D01*
X161523760Y-112792241D01*
X161435731Y-112683014D01*
X161347701Y-112573787D01*
X161259672Y-112464560D01*
X161171643Y-112355333D01*
X161083613Y-112246106D01*
X160995584Y-112136879D01*
X160946291Y-112136879D01*
X160896998Y-112136879D01*
X160847705Y-112136879D01*
X160798412Y-112136879D01*
X160749119Y-112136879D01*
X160699826Y-112136879D01*
X160650532Y-112136879D01*
X160601239Y-112136879D01*
X160601239Y-112137636D01*
X160601239Y-112138393D01*
X160601239Y-112139150D01*
X160601239Y-112139907D01*
X160601239Y-112140664D01*
X160601239Y-112141421D01*
X160601239Y-112142178D01*
X160601239Y-112142935D01*
X160601239Y-112142935D01*
G37*
G36*
X163253241Y-113381073D02*
G01*
X162452103Y-113402312D01*
X162452103Y-113654203D01*
X162452103Y-113906094D01*
X162452103Y-114157985D01*
X162490797Y-114157985D01*
X162529491Y-114157985D01*
X162568185Y-114157985D01*
X162606880Y-114157985D01*
X162645574Y-114157985D01*
X162684268Y-114157985D01*
X162722962Y-114157985D01*
X162761657Y-114157985D01*
X162761657Y-114099565D01*
X162761657Y-114041146D01*
X162761657Y-113982726D01*
X162761657Y-113924306D01*
X162761657Y-113865886D01*
X162761657Y-113807466D01*
X162761657Y-113749046D01*
X162761657Y-113690626D01*
X162847373Y-113690626D01*
X162933089Y-113690626D01*
X163018805Y-113690626D01*
X163104521Y-113690626D01*
X163190237Y-113690626D01*
X163275953Y-113690626D01*
X163361669Y-113690626D01*
X163447386Y-113690626D01*
X163484608Y-113749046D01*
X163521830Y-113807466D01*
X163559052Y-113865886D01*
X163596274Y-113924306D01*
X163633496Y-113982726D01*
X163670719Y-114041146D01*
X163707941Y-114099565D01*
X163745163Y-114157985D01*
X163790671Y-114157985D01*
X163836178Y-114157985D01*
X163881686Y-114157985D01*
X163927194Y-114157985D01*
X163972702Y-114157985D01*
X164018209Y-114157985D01*
X164063717Y-114157985D01*
X164109225Y-114157985D01*
X163949906Y-113906094D01*
X163790586Y-113654203D01*
X163631267Y-113402312D01*
X163471948Y-113150421D01*
X163312629Y-112898530D01*
X163153309Y-112646639D01*
X162993990Y-112394748D01*
X162834671Y-112142857D01*
X162786850Y-112142857D01*
X162739029Y-112142857D01*
X162691208Y-112142857D01*
X162643387Y-112142857D01*
X162595566Y-112142857D01*
X162547745Y-112142857D01*
X162499924Y-112142857D01*
X162452103Y-112142857D01*
X162452103Y-112394748D01*
X162452103Y-112646639D01*
X162452103Y-112898530D01*
X162452103Y-113150421D01*
X162452103Y-113402312D01*
X163253241Y-113381073D01*
X163191793Y-113381073D01*
X163130345Y-113381073D01*
X163068897Y-113381073D01*
X163007449Y-113381073D01*
X162946001Y-113381073D01*
X162884553Y-113381073D01*
X162823105Y-113381073D01*
X162761657Y-113381073D01*
X162761657Y-113283958D01*
X162761657Y-113186844D01*
X162761657Y-113089730D01*
X162761657Y-112992616D01*
X162761657Y-112895502D01*
X162761657Y-112798388D01*
X162761657Y-112701274D01*
X162761657Y-112604160D01*
X162823105Y-112701274D01*
X162884553Y-112798388D01*
X162946001Y-112895502D01*
X163007449Y-112992616D01*
X163068897Y-113089730D01*
X163130345Y-113186844D01*
X163191793Y-113283958D01*
X163253241Y-113381073D01*
X163253241Y-113381073D01*
G37*
G36*
X164376349Y-112142935D02*
G01*
X164376349Y-112394784D01*
X164376349Y-112646633D01*
X164376349Y-112898482D01*
X164376349Y-113150331D01*
X164376349Y-113402180D01*
X164376349Y-113654029D01*
X164376349Y-113905878D01*
X164376349Y-114157727D01*
X164414244Y-114157727D01*
X164452139Y-114157727D01*
X164490034Y-114157727D01*
X164527929Y-114157727D01*
X164565824Y-114157727D01*
X164603719Y-114157727D01*
X164641615Y-114157727D01*
X164679510Y-114157727D01*
X164679510Y-113997693D01*
X164679510Y-113837658D01*
X164679510Y-113677624D01*
X164679510Y-113517590D01*
X164679510Y-113357556D01*
X164679510Y-113197521D01*
X164679510Y-113037487D01*
X164679510Y-112877453D01*
X164749328Y-113037487D01*
X164819145Y-113197521D01*
X164888963Y-113357556D01*
X164958781Y-113517590D01*
X165028599Y-113677624D01*
X165098417Y-113837658D01*
X165168235Y-113997693D01*
X165238052Y-114157727D01*
X165281289Y-114157727D01*
X165324526Y-114157727D01*
X165367762Y-114157727D01*
X165410999Y-114157727D01*
X165454235Y-114157727D01*
X165497472Y-114157727D01*
X165540709Y-114157727D01*
X165583945Y-114157727D01*
X165652964Y-113998408D01*
X165721983Y-113839088D01*
X165791001Y-113679769D01*
X165860020Y-113520450D01*
X165929039Y-113361131D01*
X165998057Y-113201811D01*
X166067076Y-113042492D01*
X166136095Y-112883173D01*
X166136095Y-113042492D01*
X166136095Y-113201811D01*
X166136095Y-113361131D01*
X166136095Y-113520450D01*
X166136095Y-113679769D01*
X166136095Y-113839088D01*
X166136095Y-113998408D01*
X166136095Y-114157727D01*
X166174074Y-114157727D01*
X166212053Y-114157727D01*
X166250033Y-114157727D01*
X166288012Y-114157727D01*
X166325991Y-114157727D01*
X166363970Y-114157727D01*
X166401949Y-114157727D01*
X166439929Y-114157727D01*
X166439929Y-113905878D01*
X166439929Y-113654029D01*
X166439929Y-113402180D01*
X166439929Y-113150331D01*
X166439929Y-112898482D01*
X166439929Y-112646633D01*
X166439929Y-112394784D01*
X166439929Y-112142935D01*
X166399720Y-112142935D01*
X166359512Y-112142935D01*
X166319304Y-112142935D01*
X166279095Y-112142935D01*
X166238887Y-112142935D01*
X166198679Y-112142935D01*
X166158470Y-112142935D01*
X166118262Y-112142935D01*
X166029476Y-112348562D01*
X165940689Y-112554188D01*
X165851903Y-112759814D01*
X165763116Y-112965440D01*
X165674330Y-113171066D01*
X165585543Y-113376692D01*
X165496757Y-113582319D01*
X165407971Y-113787945D01*
X165318427Y-113582319D01*
X165228884Y-113376692D01*
X165139340Y-113171066D01*
X165049797Y-112965440D01*
X164960253Y-112759814D01*
X164870710Y-112554188D01*
X164781166Y-112348562D01*
X164691623Y-112142935D01*
X164652213Y-112142935D01*
X164612804Y-112142935D01*
X164573395Y-112142935D01*
X164533986Y-112142935D01*
X164494577Y-112142935D01*
X164455167Y-112142935D01*
X164415758Y-112142935D01*
X164376349Y-112142935D01*
X164376349Y-112142935D01*
G37*
G04 #@! TD*
M02*
