G04 #@! TF.GenerationSoftware,KiCad,Pcbnew,6.0.0-rc1-unknown-5b3202d~66~ubuntu16.04.1*
G04 #@! TF.CreationDate,2018-12-07T08:51:36-07:00
G04 #@! TF.ProjectId,MakerCozumel,4d616b65-7243-46f7-9a75-6d656c2e6b69,rev?*
G04 #@! TF.SameCoordinates,Original*
G04 #@! TF.FileFunction,Other,Fab,Bot*
%FSLAX46Y46*%
G04 Gerber Fmt 4.6, Leading zero omitted, Abs format (unit mm)*
G04 Created by KiCad (PCBNEW 6.0.0-rc1-unknown-5b3202d~66~ubuntu16.04.1) date Fri 07 Dec 2018 08:51:36 AM MST*
%MOMM*%
%LPD*%
G04 APERTURE LIST*
%ADD10C,0.150000*%
G04 APERTURE END LIST*
D10*
G04 #@! TO.C,BT1*
X129166229Y-100253800D02*
G75*
G03X129166229Y-100253800I-9151229J0D01*
G01*
X130915000Y-116177600D02*
X130915000Y-84177600D01*
X109118400Y-116177600D02*
X109118400Y-84177600D01*
X109115000Y-84177600D02*
X130915000Y-84177600D01*
X109115000Y-116177600D02*
X130915000Y-116177600D01*
G04 #@! TD*
G04 #@! TO.C,BT1*
X132643571Y-99417285D02*
X132691190Y-99560142D01*
X132738809Y-99607761D01*
X132834047Y-99655380D01*
X132976904Y-99655380D01*
X133072142Y-99607761D01*
X133119761Y-99560142D01*
X133167380Y-99464904D01*
X133167380Y-99083952D01*
X132167380Y-99083952D01*
X132167380Y-99417285D01*
X132215000Y-99512523D01*
X132262619Y-99560142D01*
X132357857Y-99607761D01*
X132453095Y-99607761D01*
X132548333Y-99560142D01*
X132595952Y-99512523D01*
X132643571Y-99417285D01*
X132643571Y-99083952D01*
X132167380Y-99941095D02*
X132167380Y-100512523D01*
X133167380Y-100226809D02*
X132167380Y-100226809D01*
X133167380Y-101369666D02*
X133167380Y-100798238D01*
X133167380Y-101083952D02*
X132167380Y-101083952D01*
X132310238Y-100988714D01*
X132405476Y-100893476D01*
X132453095Y-100798238D01*
X107573771Y-96272838D02*
X107621390Y-96415695D01*
X107669009Y-96463314D01*
X107764247Y-96510933D01*
X107907104Y-96510933D01*
X108002342Y-96463314D01*
X108049961Y-96415695D01*
X108097580Y-96320457D01*
X108097580Y-95939504D01*
X107097580Y-95939504D01*
X107097580Y-96272838D01*
X107145200Y-96368076D01*
X107192819Y-96415695D01*
X107288057Y-96463314D01*
X107383295Y-96463314D01*
X107478533Y-96415695D01*
X107526152Y-96368076D01*
X107573771Y-96272838D01*
X107573771Y-95939504D01*
X108097580Y-97368076D02*
X107573771Y-97368076D01*
X107478533Y-97320457D01*
X107430914Y-97225219D01*
X107430914Y-97034742D01*
X107478533Y-96939504D01*
X108049961Y-97368076D02*
X108097580Y-97272838D01*
X108097580Y-97034742D01*
X108049961Y-96939504D01*
X107954723Y-96891885D01*
X107859485Y-96891885D01*
X107764247Y-96939504D01*
X107716628Y-97034742D01*
X107716628Y-97272838D01*
X107669009Y-97368076D01*
X107430914Y-97701409D02*
X107430914Y-98082361D01*
X107097580Y-97844266D02*
X107954723Y-97844266D01*
X108049961Y-97891885D01*
X108097580Y-97987123D01*
X108097580Y-98082361D01*
X107430914Y-98272838D02*
X107430914Y-98653790D01*
X107097580Y-98415695D02*
X107954723Y-98415695D01*
X108049961Y-98463314D01*
X108097580Y-98558552D01*
X108097580Y-98653790D01*
X108049961Y-99368076D02*
X108097580Y-99272838D01*
X108097580Y-99082361D01*
X108049961Y-98987123D01*
X107954723Y-98939504D01*
X107573771Y-98939504D01*
X107478533Y-98987123D01*
X107430914Y-99082361D01*
X107430914Y-99272838D01*
X107478533Y-99368076D01*
X107573771Y-99415695D01*
X107669009Y-99415695D01*
X107764247Y-98939504D01*
X108097580Y-99844266D02*
X107430914Y-99844266D01*
X107621390Y-99844266D02*
X107526152Y-99891885D01*
X107478533Y-99939504D01*
X107430914Y-100034742D01*
X107430914Y-100129980D01*
X107430914Y-100368076D02*
X108097580Y-100606171D01*
X107430914Y-100844266D02*
X108097580Y-100606171D01*
X108335676Y-100510933D01*
X108383295Y-100463314D01*
X108430914Y-100368076D01*
X108192819Y-100987123D02*
X108192819Y-101749028D01*
X108002342Y-102558552D02*
X108049961Y-102510933D01*
X108097580Y-102368076D01*
X108097580Y-102272838D01*
X108049961Y-102129980D01*
X107954723Y-102034742D01*
X107859485Y-101987123D01*
X107669009Y-101939504D01*
X107526152Y-101939504D01*
X107335676Y-101987123D01*
X107240438Y-102034742D01*
X107145200Y-102129980D01*
X107097580Y-102272838D01*
X107097580Y-102368076D01*
X107145200Y-102510933D01*
X107192819Y-102558552D01*
X108049961Y-103368076D02*
X108097580Y-103272838D01*
X108097580Y-103082361D01*
X108049961Y-102987123D01*
X107954723Y-102939504D01*
X107573771Y-102939504D01*
X107478533Y-102987123D01*
X107430914Y-103082361D01*
X107430914Y-103272838D01*
X107478533Y-103368076D01*
X107573771Y-103415695D01*
X107669009Y-103415695D01*
X107764247Y-102939504D01*
X108097580Y-103987123D02*
X108049961Y-103891885D01*
X107954723Y-103844266D01*
X107097580Y-103844266D01*
X108097580Y-104510933D02*
X108049961Y-104415695D01*
X107954723Y-104368076D01*
X107097580Y-104368076D01*
G04 #@! TO.C,REF\002A\002A*
X139763333Y-106497380D02*
X140096666Y-106021190D01*
X140334761Y-106497380D02*
X140334761Y-105497380D01*
X139953809Y-105497380D01*
X139858571Y-105545000D01*
X139810952Y-105592619D01*
X139763333Y-105687857D01*
X139763333Y-105830714D01*
X139810952Y-105925952D01*
X139858571Y-105973571D01*
X139953809Y-106021190D01*
X140334761Y-106021190D01*
X139334761Y-105973571D02*
X139001428Y-105973571D01*
X138858571Y-106497380D02*
X139334761Y-106497380D01*
X139334761Y-105497380D01*
X138858571Y-105497380D01*
X138096666Y-105973571D02*
X138430000Y-105973571D01*
X138430000Y-106497380D02*
X138430000Y-105497380D01*
X137953809Y-105497380D01*
X137430000Y-105497380D02*
X137430000Y-105735476D01*
X137668095Y-105640238D02*
X137430000Y-105735476D01*
X137191904Y-105640238D01*
X137572857Y-105925952D02*
X137430000Y-105735476D01*
X137287142Y-105925952D01*
X136668095Y-105497380D02*
X136668095Y-105735476D01*
X136906190Y-105640238D02*
X136668095Y-105735476D01*
X136430000Y-105640238D01*
X136810952Y-105925952D02*
X136668095Y-105735476D01*
X136525238Y-105925952D01*
X142525238Y-90952580D02*
X142525238Y-89952580D01*
X142144285Y-89952580D01*
X142049047Y-90000200D01*
X142001428Y-90047819D01*
X141953809Y-90143057D01*
X141953809Y-90285914D01*
X142001428Y-90381152D01*
X142049047Y-90428771D01*
X142144285Y-90476390D01*
X142525238Y-90476390D01*
X141525238Y-90952580D02*
X141525238Y-90285914D01*
X141525238Y-89952580D02*
X141572857Y-90000200D01*
X141525238Y-90047819D01*
X141477619Y-90000200D01*
X141525238Y-89952580D01*
X141525238Y-90047819D01*
X141049047Y-90285914D02*
X141049047Y-90952580D01*
X141049047Y-90381152D02*
X141001428Y-90333533D01*
X140906190Y-90285914D01*
X140763333Y-90285914D01*
X140668095Y-90333533D01*
X140620476Y-90428771D01*
X140620476Y-90952580D01*
X140191904Y-90047819D02*
X140144285Y-90000200D01*
X140049047Y-89952580D01*
X139810952Y-89952580D01*
X139715714Y-90000200D01*
X139668095Y-90047819D01*
X139620476Y-90143057D01*
X139620476Y-90238295D01*
X139668095Y-90381152D01*
X140239523Y-90952580D01*
X139620476Y-90952580D01*
X139430000Y-91047819D02*
X138668095Y-91047819D01*
X138096666Y-90428771D02*
X137953809Y-90476390D01*
X137906190Y-90524009D01*
X137858571Y-90619247D01*
X137858571Y-90762104D01*
X137906190Y-90857342D01*
X137953809Y-90904961D01*
X138049047Y-90952580D01*
X138430000Y-90952580D01*
X138430000Y-89952580D01*
X138096666Y-89952580D01*
X138001428Y-90000200D01*
X137953809Y-90047819D01*
X137906190Y-90143057D01*
X137906190Y-90238295D01*
X137953809Y-90333533D01*
X138001428Y-90381152D01*
X138096666Y-90428771D01*
X138430000Y-90428771D01*
X137001428Y-90952580D02*
X137001428Y-90428771D01*
X137049047Y-90333533D01*
X137144285Y-90285914D01*
X137334761Y-90285914D01*
X137430000Y-90333533D01*
X137001428Y-90904961D02*
X137096666Y-90952580D01*
X137334761Y-90952580D01*
X137430000Y-90904961D01*
X137477619Y-90809723D01*
X137477619Y-90714485D01*
X137430000Y-90619247D01*
X137334761Y-90571628D01*
X137096666Y-90571628D01*
X137001428Y-90524009D01*
X136096666Y-90952580D02*
X136096666Y-89952580D01*
X136096666Y-90904961D02*
X136191904Y-90952580D01*
X136382380Y-90952580D01*
X136477619Y-90904961D01*
X136525238Y-90857342D01*
X136572857Y-90762104D01*
X136572857Y-90476390D01*
X136525238Y-90381152D01*
X136477619Y-90333533D01*
X136382380Y-90285914D01*
X136191904Y-90285914D01*
X136096666Y-90333533D01*
X135191904Y-90285914D02*
X135191904Y-91095438D01*
X135239523Y-91190676D01*
X135287142Y-91238295D01*
X135382380Y-91285914D01*
X135525238Y-91285914D01*
X135620476Y-91238295D01*
X135191904Y-90904961D02*
X135287142Y-90952580D01*
X135477619Y-90952580D01*
X135572857Y-90904961D01*
X135620476Y-90857342D01*
X135668095Y-90762104D01*
X135668095Y-90476390D01*
X135620476Y-90381152D01*
X135572857Y-90333533D01*
X135477619Y-90285914D01*
X135287142Y-90285914D01*
X135191904Y-90333533D01*
X134334761Y-90904961D02*
X134430000Y-90952580D01*
X134620476Y-90952580D01*
X134715714Y-90904961D01*
X134763333Y-90809723D01*
X134763333Y-90428771D01*
X134715714Y-90333533D01*
X134620476Y-90285914D01*
X134430000Y-90285914D01*
X134334761Y-90333533D01*
X134287142Y-90428771D01*
X134287142Y-90524009D01*
X134763333Y-90619247D01*
G04 #@! TD*
M02*
