G04 #@! TF.GenerationSoftware,KiCad,Pcbnew,6.0.0-rc1-unknown-5b3202d~66~ubuntu16.04.1*
G04 #@! TF.CreationDate,2018-12-07T08:51:36-07:00
G04 #@! TF.ProjectId,MakerCozumel,4d616b65-7243-46f7-9a75-6d656c2e6b69,rev?*
G04 #@! TF.SameCoordinates,Original*
G04 #@! TF.FileFunction,Profile,NP*
%FSLAX46Y46*%
G04 Gerber Fmt 4.6, Leading zero omitted, Abs format (unit mm)*
G04 Created by KiCad (PCBNEW 6.0.0-rc1-unknown-5b3202d~66~ubuntu16.04.1) date Fri 07 Dec 2018 08:51:36 AM MST*
%MOMM*%
%LPD*%
G04 APERTURE LIST*
G04 #@! TA.AperFunction,NonConductor*
%ADD10C,0.264375*%
G04 #@! TD*
G04 APERTURE END LIST*
D10*
G04 #@! TO.C,svg2mod*
X155744042Y-131801845D02*
X154422359Y-131801845D01*
X157065723Y-131801845D02*
X155744042Y-131801845D01*
X158387406Y-131801845D02*
X157065723Y-131801845D01*
X159709087Y-131801845D02*
X158387406Y-131801845D01*
X161030770Y-131801845D02*
X159709087Y-131801845D01*
X162352453Y-131801845D02*
X161030770Y-131801845D01*
X163674134Y-131801845D02*
X162352453Y-131801845D01*
X164995817Y-131801845D02*
X163674134Y-131801845D01*
X165718354Y-131729824D02*
X164995817Y-131801845D01*
X166389780Y-131523051D02*
X165718354Y-131729824D01*
X166996154Y-131195470D02*
X166389780Y-131523051D01*
X167523537Y-130761020D02*
X166996154Y-131195470D01*
X167957987Y-130233637D02*
X167523537Y-130761020D01*
X168285568Y-129627263D02*
X167957987Y-130233637D01*
X168492341Y-128955840D02*
X168285568Y-129627263D01*
X168523524Y-128779454D02*
X168492341Y-128955840D01*
X168546074Y-128600090D02*
X168523524Y-128779454D01*
X168559761Y-128417966D02*
X168546074Y-128600090D01*
X168564362Y-128233303D02*
X168559761Y-128417966D01*
X168564362Y-126764997D02*
X168564362Y-128233303D01*
X168564362Y-125296690D02*
X168564362Y-126764997D01*
X168564362Y-123828381D02*
X168564362Y-125296690D01*
X168564362Y-122360075D02*
X168564362Y-123828381D01*
X168564362Y-120891769D02*
X168564362Y-122360075D01*
X168564362Y-119423463D02*
X168564362Y-120891769D01*
X168564362Y-117955157D02*
X168564362Y-119423463D01*
X168564362Y-116486850D02*
X168564362Y-117955157D01*
X168564362Y-115018541D02*
X168564362Y-116486850D01*
X168564362Y-113550235D02*
X168564362Y-115018541D01*
X168564362Y-112081929D02*
X168564362Y-113550235D01*
X168564362Y-110613623D02*
X168564362Y-112081929D01*
X168564362Y-109145316D02*
X168564362Y-110613623D01*
X168564362Y-107677010D02*
X168564362Y-109145316D01*
X168564362Y-106208701D02*
X168564362Y-107677010D01*
X168564362Y-104740395D02*
X168564362Y-106208701D01*
X168564362Y-103272089D02*
X168564362Y-104740395D01*
X168564362Y-101803782D02*
X168564362Y-103272089D01*
X168564362Y-100335476D02*
X168564362Y-101803782D01*
X168564362Y-98867169D02*
X168564362Y-100335476D01*
X168564362Y-97398862D02*
X168564362Y-98867169D01*
X168564362Y-95930556D02*
X168564362Y-97398862D01*
X168564362Y-94462249D02*
X168564362Y-95930556D01*
X168564362Y-92993942D02*
X168564362Y-94462249D01*
X168564362Y-91525636D02*
X168564362Y-92993942D01*
X168564362Y-90057329D02*
X168564362Y-91525636D01*
X168564362Y-88589022D02*
X168564362Y-90057329D01*
X168564362Y-87120716D02*
X168564362Y-88589022D01*
X168564362Y-85652409D02*
X168564362Y-87120716D01*
X168564362Y-84184102D02*
X168564362Y-85652409D01*
X168564362Y-82715796D02*
X168564362Y-84184102D01*
X168564362Y-81247489D02*
X168564362Y-82715796D01*
X168492341Y-80524952D02*
X168564362Y-81247489D01*
X168285568Y-79853527D02*
X168492341Y-80524952D01*
X167957987Y-79247153D02*
X168285568Y-79853527D01*
X167523537Y-78719771D02*
X167957987Y-79247153D01*
X166996154Y-78285320D02*
X167523537Y-78719771D01*
X166389780Y-77957738D02*
X166996154Y-78285320D01*
X165718354Y-77750967D02*
X166389780Y-77957738D01*
X164995817Y-77678946D02*
X165718354Y-77750967D01*
X163005033Y-77678946D02*
X164995817Y-77678946D01*
X161014249Y-77678946D02*
X163005033Y-77678946D01*
X159023464Y-77678946D02*
X161014249Y-77678946D01*
X157032680Y-77678946D02*
X159023464Y-77678946D01*
X155041896Y-77678946D02*
X157032680Y-77678946D01*
X153051112Y-77678946D02*
X155041896Y-77678946D01*
X151060328Y-77678946D02*
X153051112Y-77678946D01*
X149069544Y-77678946D02*
X151060328Y-77678946D01*
X147972961Y-77772651D02*
X149069544Y-77678946D01*
X146925942Y-78044474D02*
X147972961Y-77772651D01*
X145947068Y-78480474D02*
X146925942Y-78044474D01*
X145054933Y-79066713D02*
X145947068Y-78480474D01*
X144268120Y-79789250D02*
X145054933Y-79066713D01*
X143605214Y-80634146D02*
X144268120Y-79789250D01*
X143084801Y-81587461D02*
X143605214Y-80634146D01*
X142725468Y-82635256D02*
X143084801Y-81587461D01*
X142337223Y-84146930D02*
X142725468Y-82635256D01*
X141948978Y-85658604D02*
X142337223Y-84146930D01*
X141560734Y-87170279D02*
X141948978Y-85658604D01*
X141172489Y-88681953D02*
X141560734Y-87170279D01*
X140784247Y-90193627D02*
X141172489Y-88681953D01*
X140396003Y-91705302D02*
X140784247Y-90193627D01*
X140007758Y-93216976D02*
X140396003Y-91705302D01*
X139619514Y-94728650D02*
X140007758Y-93216976D01*
X139527743Y-94996085D02*
X139619514Y-94728650D01*
X139405773Y-95207760D02*
X139527743Y-94996085D01*
X139260569Y-95369873D02*
X139405773Y-95207760D01*
X139099101Y-95488618D02*
X139260569Y-95369873D01*
X138928343Y-95570191D02*
X139099101Y-95488618D01*
X138755259Y-95620786D02*
X138928343Y-95570191D01*
X138586820Y-95646601D02*
X138755259Y-95620786D01*
X138430001Y-95653829D02*
X138586820Y-95646601D01*
X138273181Y-95646601D02*
X138430001Y-95653829D01*
X138104742Y-95620786D02*
X138273181Y-95646601D01*
X137931658Y-95570191D02*
X138104742Y-95620786D01*
X137760897Y-95488618D02*
X137931658Y-95570191D01*
X137599429Y-95369873D02*
X137760897Y-95488618D01*
X137454226Y-95207760D02*
X137599429Y-95369873D01*
X137332255Y-94996085D02*
X137454226Y-95207760D01*
X137240485Y-94728650D02*
X137332255Y-94996085D01*
X136852240Y-93208716D02*
X137240485Y-94728650D01*
X136463995Y-91688781D02*
X136852240Y-93208716D01*
X136075751Y-90168846D02*
X136463995Y-91688781D01*
X135687509Y-88648911D02*
X136075751Y-90168846D01*
X135299264Y-87128976D02*
X135687509Y-88648911D01*
X134911020Y-85609041D02*
X135299264Y-87128976D01*
X134522775Y-84089106D02*
X134911020Y-85609041D01*
X134134531Y-82569171D02*
X134522775Y-84089106D01*
X133756226Y-81543189D02*
X134134531Y-82569171D01*
X133226907Y-80606266D02*
X133756226Y-81543189D01*
X132562839Y-79773116D02*
X133226907Y-80606266D01*
X131780285Y-79058452D02*
X132562839Y-79773116D01*
X130895506Y-78476989D02*
X131780285Y-79058452D01*
X129924766Y-78043441D02*
X130895506Y-78476989D01*
X128884329Y-77772522D02*
X129924766Y-78043441D01*
X127790456Y-77678946D02*
X128884329Y-77772522D01*
X125799671Y-77678946D02*
X127790456Y-77678946D01*
X123808887Y-77678946D02*
X125799671Y-77678946D01*
X121818103Y-77678946D02*
X123808887Y-77678946D01*
X119827318Y-77678946D02*
X121818103Y-77678946D01*
X117836534Y-77678946D02*
X119827318Y-77678946D01*
X115845750Y-77678946D02*
X117836534Y-77678946D01*
X113854966Y-77678946D02*
X115845750Y-77678946D01*
X111864181Y-77678946D02*
X113854966Y-77678946D01*
X111141644Y-77750967D02*
X111864181Y-77678946D01*
X110470219Y-77957738D02*
X111141644Y-77750967D01*
X109863846Y-78285320D02*
X110470219Y-77957738D01*
X109336463Y-78719771D02*
X109863846Y-78285320D01*
X108902012Y-79247153D02*
X109336463Y-78719771D01*
X108574431Y-79853527D02*
X108902012Y-79247153D01*
X108367660Y-80524952D02*
X108574431Y-79853527D01*
X108336477Y-80701339D02*
X108367660Y-80524952D01*
X108313934Y-80880703D02*
X108336477Y-80701339D01*
X108300249Y-81062825D02*
X108313934Y-80880703D01*
X108295638Y-81247489D02*
X108300249Y-81062825D01*
X108295638Y-82715796D02*
X108295638Y-81247489D01*
X108295638Y-84184102D02*
X108295638Y-82715796D01*
X108295638Y-85652409D02*
X108295638Y-84184102D01*
X108295638Y-87120716D02*
X108295638Y-85652409D01*
X108295638Y-88589022D02*
X108295638Y-87120716D01*
X108295638Y-90057329D02*
X108295638Y-88589022D01*
X108295638Y-91525636D02*
X108295638Y-90057329D01*
X108295638Y-92993942D02*
X108295638Y-91525636D01*
X108295638Y-94462249D02*
X108295638Y-92993942D01*
X108295638Y-95930556D02*
X108295638Y-94462249D01*
X108295638Y-97398862D02*
X108295638Y-95930556D01*
X108295638Y-98867169D02*
X108295638Y-97398862D01*
X108295638Y-100335476D02*
X108295638Y-98867169D01*
X108295638Y-101803782D02*
X108295638Y-100335476D01*
X108295638Y-103272089D02*
X108295638Y-101803782D01*
X108295638Y-104740395D02*
X108295638Y-103272089D01*
X108295638Y-106208701D02*
X108295638Y-104740395D01*
X108295638Y-107677010D02*
X108295638Y-106208701D01*
X108295638Y-109145316D02*
X108295638Y-107677010D01*
X108295638Y-110613623D02*
X108295638Y-109145316D01*
X108295638Y-112081929D02*
X108295638Y-110613623D01*
X108295638Y-113550235D02*
X108295638Y-112081929D01*
X108295638Y-115018541D02*
X108295638Y-113550235D01*
X108295638Y-116486850D02*
X108295638Y-115018541D01*
X108295638Y-117955157D02*
X108295638Y-116486850D01*
X108295638Y-119423463D02*
X108295638Y-117955157D01*
X108295638Y-120891769D02*
X108295638Y-119423463D01*
X108295638Y-122360075D02*
X108295638Y-120891769D01*
X108295638Y-123828381D02*
X108295638Y-122360075D01*
X108295638Y-125296690D02*
X108295638Y-123828381D01*
X108295638Y-126764997D02*
X108295638Y-125296690D01*
X108295638Y-128233303D02*
X108295638Y-126764997D01*
X108367660Y-128955840D02*
X108295638Y-128233303D01*
X108574431Y-129627263D02*
X108367660Y-128955840D01*
X108902012Y-130233637D02*
X108574431Y-129627263D01*
X109336463Y-130761020D02*
X108902012Y-130233637D01*
X109863846Y-131195459D02*
X109336463Y-130761020D01*
X110470219Y-131523040D02*
X109863846Y-131195459D01*
X111141644Y-131729813D02*
X110470219Y-131523040D01*
X111864181Y-131801833D02*
X111141644Y-131729813D01*
X113185864Y-131801833D02*
X111864181Y-131801833D01*
X114507546Y-131801833D02*
X113185864Y-131801833D01*
X115829229Y-131801833D02*
X114507546Y-131801833D01*
X117150911Y-131801833D02*
X115829229Y-131801833D01*
X118472594Y-131801833D02*
X117150911Y-131801833D01*
X119794276Y-131801833D02*
X118472594Y-131801833D01*
X121115959Y-131801833D02*
X119794276Y-131801833D01*
X122437641Y-131801833D02*
X121115959Y-131801833D01*
X123160178Y-131729813D02*
X122437641Y-131801833D01*
X123831603Y-131523040D02*
X123160178Y-131729813D01*
X124437977Y-131195459D02*
X123831603Y-131523040D01*
X124965359Y-130761009D02*
X124437977Y-131195459D01*
X125399810Y-130233626D02*
X124965359Y-130761009D01*
X125727392Y-129627252D02*
X125399810Y-130233626D01*
X125934163Y-128955828D02*
X125727392Y-129627252D01*
X126006184Y-128233291D02*
X125934163Y-128955828D01*
X125931839Y-126969433D02*
X126006184Y-128233291D01*
X125857495Y-125705574D02*
X125931839Y-126969433D01*
X125783150Y-124441715D02*
X125857495Y-125705574D01*
X125708805Y-123177853D02*
X125783150Y-124441715D01*
X125634461Y-121913995D02*
X125708805Y-123177853D01*
X125560116Y-120650136D02*
X125634461Y-121913995D01*
X125485772Y-119386277D02*
X125560116Y-120650136D01*
X125411427Y-118122418D02*
X125485772Y-119386277D01*
X125451826Y-117748759D02*
X125411427Y-118122418D01*
X125561149Y-117462611D02*
X125451826Y-117748759D01*
X125721584Y-117252353D02*
X125561149Y-117462611D01*
X125915318Y-117106376D02*
X125721584Y-117252353D01*
X126124542Y-117013056D02*
X125915318Y-117106376D01*
X126331442Y-116960783D02*
X126124542Y-117013056D01*
X126518207Y-116937951D02*
X126331442Y-116960783D01*
X126667025Y-116932928D02*
X126518207Y-116937951D01*
X126978215Y-116964551D02*
X126667025Y-116932928D01*
X127223578Y-117049607D02*
X126978215Y-116964551D01*
X127411633Y-117173387D02*
X127223578Y-117049607D01*
X127550901Y-117321173D02*
X127411633Y-117173387D01*
X127649898Y-117478252D02*
X127550901Y-117321173D01*
X127717144Y-117629910D02*
X127649898Y-117478252D01*
X127761156Y-117761431D02*
X127717144Y-117629910D01*
X127790456Y-117858106D02*
X127761156Y-117761431D01*
X128137397Y-119278914D02*
X127790456Y-117858106D01*
X128484339Y-120699722D02*
X128137397Y-119278914D01*
X128831281Y-122120531D02*
X128484339Y-120699722D01*
X129178222Y-123541339D02*
X128831281Y-122120531D01*
X129525164Y-124962150D02*
X129178222Y-123541339D01*
X129872105Y-126382958D02*
X129525164Y-124962150D01*
X130219047Y-127803766D02*
X129872105Y-126382958D01*
X130565989Y-129224574D02*
X130219047Y-127803766D01*
X130896151Y-130154011D02*
X130565989Y-129224574D01*
X131299109Y-130836408D02*
X130896151Y-130154011D01*
X131785705Y-131309708D02*
X131299109Y-130836408D01*
X132366781Y-131611861D02*
X131785705Y-131309708D01*
X133053178Y-131780816D02*
X132366781Y-131611861D01*
X133855739Y-131854516D02*
X133053178Y-131780816D01*
X134785306Y-131870913D02*
X133855739Y-131854516D01*
X135852719Y-131867949D02*
X134785306Y-131870913D01*
X136786158Y-131867949D02*
X135852719Y-131867949D01*
X137719596Y-131867949D02*
X136786158Y-131867949D01*
X138653035Y-131867949D02*
X137719596Y-131867949D01*
X139586471Y-131867949D02*
X138653035Y-131867949D01*
X140519910Y-131867949D02*
X139586471Y-131867949D01*
X141453348Y-131867949D02*
X140519910Y-131867949D01*
X142386787Y-131867949D02*
X141453348Y-131867949D01*
X143320226Y-131867949D02*
X142386787Y-131867949D01*
X143925953Y-131819419D02*
X143320226Y-131867949D01*
X144498382Y-131677957D02*
X143925953Y-131819419D01*
X145028991Y-131449761D02*
X144498382Y-131677957D01*
X145509262Y-131141024D02*
X145028991Y-131449761D01*
X145930677Y-130757944D02*
X145509262Y-131141024D01*
X146284719Y-130306713D02*
X145930677Y-130757944D01*
X146562866Y-129793529D02*
X146284719Y-130306713D01*
X146756600Y-129224586D02*
X146562866Y-129793529D01*
X147070499Y-127803777D02*
X146756600Y-129224586D01*
X147384398Y-126382969D02*
X147070499Y-127803777D01*
X147698299Y-124962161D02*
X147384398Y-126382969D01*
X148012198Y-123541350D02*
X147698299Y-124962161D01*
X148326097Y-122120542D02*
X148012198Y-123541350D01*
X148639996Y-120699734D02*
X148326097Y-122120542D01*
X148953897Y-119278925D02*
X148639996Y-120699734D01*
X149267796Y-117858117D02*
X148953897Y-119278925D01*
X149297096Y-117742471D02*
X149267796Y-117858117D01*
X149341109Y-117602040D02*
X149297096Y-117742471D01*
X149408354Y-117449222D02*
X149341109Y-117602040D01*
X149507352Y-117296402D02*
X149408354Y-117449222D01*
X149646617Y-117155974D02*
X149507352Y-117296402D01*
X149834673Y-117040325D02*
X149646617Y-117155974D01*
X150080037Y-116961850D02*
X149834673Y-117040325D01*
X150391227Y-116932939D02*
X150080037Y-116961850D01*
X150540045Y-116937963D02*
X150391227Y-116932939D01*
X150726809Y-116960795D02*
X150540045Y-116937963D01*
X150933709Y-117013068D02*
X150726809Y-116960795D01*
X151142934Y-117106387D02*
X150933709Y-117013068D01*
X151336668Y-117252364D02*
X151142934Y-117106387D01*
X151497103Y-117462622D02*
X151336668Y-117252364D01*
X151606425Y-117748770D02*
X151497103Y-117462622D01*
X151646825Y-118122430D02*
X151606425Y-117748770D01*
X151547697Y-119386288D02*
X151646825Y-118122430D01*
X151448572Y-120650147D02*
X151547697Y-119386288D01*
X151349445Y-121914006D02*
X151448572Y-120650147D01*
X151250320Y-123177865D02*
X151349445Y-121914006D01*
X151151192Y-124441726D02*
X151250320Y-123177865D01*
X151052067Y-125705585D02*
X151151192Y-124441726D01*
X150952942Y-126969444D02*
X151052067Y-125705585D01*
X150853814Y-128233303D02*
X150952942Y-126969444D01*
X150925835Y-128955840D02*
X150853814Y-128233303D01*
X151132608Y-129627263D02*
X150925835Y-128955840D01*
X151460189Y-130233637D02*
X151132608Y-129627263D01*
X151894641Y-130761020D02*
X151460189Y-130233637D01*
X152422024Y-131195470D02*
X151894641Y-130761020D01*
X153028396Y-131523051D02*
X152422024Y-131195470D01*
X153699822Y-131729824D02*
X153028396Y-131523051D01*
X154422359Y-131801845D02*
X153699822Y-131729824D01*
G04 #@! TD*
M02*
