G04 #@! TF.GenerationSoftware,KiCad,Pcbnew,6.0.0-rc1-unknown-5b3202d~66~ubuntu16.04.1*
G04 #@! TF.CreationDate,2018-12-07T08:51:36-07:00
G04 #@! TF.ProjectId,MakerCozumel,4d616b65-7243-46f7-9a75-6d656c2e6b69,rev?*
G04 #@! TF.SameCoordinates,Original*
G04 #@! TF.FileFunction,Copper,L2,Bot*
G04 #@! TF.FilePolarity,Positive*
%FSLAX46Y46*%
G04 Gerber Fmt 4.6, Leading zero omitted, Abs format (unit mm)*
G04 Created by KiCad (PCBNEW 6.0.0-rc1-unknown-5b3202d~66~ubuntu16.04.1) date Fri 07 Dec 2018 08:51:36 AM MST*
%MOMM*%
%LPD*%
G04 APERTURE LIST*
G04 #@! TA.AperFunction,EtchedComponent*
%ADD10C,0.100000*%
G04 #@! TD*
G04 #@! TA.AperFunction,SMDPad,CuDef*
%ADD11R,4.000000X4.000000*%
G04 #@! TD*
G04 #@! TA.AperFunction,SMDPad,CuDef*
%ADD12R,5.500000X5.500000*%
G04 #@! TD*
G04 #@! TA.AperFunction,ComponentPad*
%ADD13R,1.800000X1.800000*%
G04 #@! TD*
G04 #@! TA.AperFunction,ComponentPad*
%ADD14C,1.800000*%
G04 #@! TD*
G04 #@! TA.AperFunction,WasherPad*
%ADD15C,0.900000*%
G04 #@! TD*
G04 #@! TA.AperFunction,SMDPad,CuDef*
%ADD16R,2.800000X1.000000*%
G04 #@! TD*
G04 #@! TA.AperFunction,SMDPad,CuDef*
%ADD17R,1.000000X0.700000*%
G04 #@! TD*
G04 #@! TA.AperFunction,BGAPad,CuDef*
%ADD18C,4.000000*%
G04 #@! TD*
G04 #@! TA.AperFunction,Conductor*
%ADD19C,1.270000*%
G04 #@! TD*
G04 #@! TA.AperFunction,Conductor*
%ADD20C,0.254000*%
G04 #@! TD*
G04 APERTURE END LIST*
D10*
G04 #@! TO.C,svg2mod*
G36*
X131042127Y-125450380D02*
G01*
X131890797Y-124942327D01*
X131732201Y-124930580D01*
X131570669Y-124904146D01*
X131614725Y-124722055D01*
X131664651Y-124531153D01*
X131682274Y-124560522D01*
X131796815Y-124698558D01*
X131887860Y-124842470D01*
X131923105Y-124895337D01*
X131955409Y-124948205D01*
X131923105Y-124945282D01*
X131890795Y-124942359D01*
X131890797Y-124942327D01*
X131042127Y-125450380D01*
X131094994Y-125553174D01*
X131174293Y-125644219D01*
X131274149Y-125708832D01*
X131391628Y-125738201D01*
X131444495Y-125717644D01*
X131470929Y-125700021D01*
X131488551Y-125691210D01*
X131500297Y-125682399D01*
X131535542Y-125667711D01*
X131523796Y-125629531D01*
X131526719Y-125594286D01*
X131561964Y-125556106D01*
X131579586Y-125538484D01*
X131594274Y-125520861D01*
X131644200Y-125465059D01*
X131564903Y-125444501D01*
X131467983Y-125391634D01*
X131447425Y-125282966D01*
X131547282Y-125280044D01*
X131626579Y-125300601D01*
X131735247Y-125327035D01*
X131852726Y-125335846D01*
X131896782Y-125335846D01*
X131940838Y-125330000D01*
X131970207Y-125324155D01*
X131981953Y-125288910D01*
X131993699Y-125277163D01*
X132026009Y-125238983D01*
X132031855Y-125174370D01*
X132049478Y-125121503D01*
X132075911Y-125194927D01*
X132087658Y-125224296D01*
X132117026Y-125230142D01*
X132125838Y-125244829D01*
X132128760Y-125259516D01*
X132143448Y-125309443D01*
X132155194Y-125321189D01*
X132166940Y-125330000D01*
X132181628Y-125382868D01*
X132199250Y-125432794D01*
X132225684Y-125509155D01*
X132231530Y-125579641D01*
X132243276Y-125611951D01*
X132275586Y-125641320D01*
X132310831Y-125658943D01*
X132328453Y-125670689D01*
X132343141Y-125676535D01*
X132351952Y-125708838D01*
X132387197Y-125714684D01*
X132434188Y-125723495D01*
X132463557Y-125726418D01*
X132492926Y-125723495D01*
X132542852Y-125682380D01*
X132583967Y-125650070D01*
X132613336Y-125597203D01*
X132619182Y-125564899D01*
X132625027Y-125535530D01*
X132633839Y-125517908D01*
X132672019Y-125482663D01*
X132639709Y-125456229D01*
X132636786Y-125406303D01*
X132513434Y-125118481D01*
X132375397Y-124836533D01*
X132331340Y-124742551D01*
X132284349Y-124648568D01*
X132287272Y-124628011D01*
X132281426Y-124601577D01*
X132228559Y-124513468D01*
X132187444Y-124431233D01*
X132140452Y-124334313D01*
X132075839Y-124237394D01*
X132028848Y-124216836D01*
X132008291Y-124210991D01*
X131981857Y-124205145D01*
X131937801Y-124210991D01*
X131793890Y-124105260D01*
X131667601Y-123937853D01*
X131638232Y-123896738D01*
X131600052Y-123920231D01*
X131558937Y-123937853D01*
X131503134Y-123952541D01*
X131403278Y-123978974D01*
X131326917Y-124023031D01*
X131306359Y-124093517D01*
X131297548Y-124140509D01*
X131282861Y-124240365D01*
X131271115Y-124351969D01*
X131247616Y-124451826D01*
X131227058Y-124548745D01*
X131197690Y-124686783D01*
X131159510Y-124810135D01*
X131130141Y-124813058D01*
X131100772Y-124804246D01*
X131062592Y-124798401D01*
X131030288Y-124795478D01*
X131018542Y-124824847D01*
X130989173Y-124854215D01*
X130933371Y-124871838D01*
X130901061Y-124898272D01*
X130877568Y-124915894D01*
X130833512Y-124933516D01*
X130857005Y-124977573D01*
X130942176Y-125080366D01*
X131062592Y-125159664D01*
X131059669Y-125194909D01*
X131050858Y-125227213D01*
X131036170Y-125330006D01*
X131036170Y-125438674D01*
X131042016Y-125450420D01*
X131042127Y-125450380D01*
X131042127Y-125450380D01*
G37*
G36*
X132743120Y-125168432D02*
G01*
X132928149Y-125365208D01*
X133180727Y-125479750D01*
X133471486Y-125559047D01*
X133762245Y-125650093D01*
X133835669Y-125653016D01*
X133894407Y-125661827D01*
X133947274Y-125670638D01*
X134006011Y-125676484D01*
X134020699Y-125682330D01*
X134029510Y-125694076D01*
X134120556Y-125702887D01*
X134185169Y-125702887D01*
X134258593Y-125711699D01*
X134323206Y-125720510D01*
X134669767Y-125564851D01*
X134807804Y-125159551D01*
X134813650Y-125141928D01*
X134825396Y-125133117D01*
X134819551Y-125083191D01*
X134816628Y-125030323D01*
X134643347Y-124730754D01*
X134411328Y-124484049D01*
X134376083Y-124448804D01*
X134349649Y-124413559D01*
X134317345Y-124384190D01*
X134273289Y-124363633D01*
X134126441Y-124234407D01*
X133947287Y-124122802D01*
X133762258Y-124014135D01*
X133591915Y-123890782D01*
X133544924Y-123899593D01*
X133512620Y-123899593D01*
X133456817Y-123961269D01*
X133383394Y-123999449D01*
X133312907Y-124043505D01*
X133262981Y-124113992D01*
X133280603Y-124128680D01*
X133271792Y-124155113D01*
X133268869Y-124181547D01*
X133289426Y-124193293D01*
X133271804Y-124210916D01*
X133254181Y-124225603D01*
X133262993Y-124249096D01*
X133262993Y-124278465D01*
X133395156Y-124351888D01*
X133544940Y-124428250D01*
X133706473Y-124513421D01*
X133868006Y-124616214D01*
X134029538Y-124748378D01*
X134188134Y-124898163D01*
X134332045Y-125062632D01*
X134446586Y-125227102D01*
X134434840Y-125250594D01*
X134420152Y-125271152D01*
X134246872Y-125271152D01*
X134082403Y-125279963D01*
X134070656Y-125262341D01*
X134055975Y-125244718D01*
X133744657Y-125191851D01*
X133450961Y-125112553D01*
X133495018Y-125097865D01*
X133530262Y-125083184D01*
X133530262Y-125059691D01*
X133500894Y-125036193D01*
X133568444Y-124977455D01*
X133597812Y-124883472D01*
X133580190Y-124848227D01*
X133597812Y-124815917D01*
X133612494Y-124815917D01*
X133618340Y-124824728D01*
X133621262Y-124836475D01*
X133635950Y-124833552D01*
X133624204Y-124789496D01*
X133606581Y-124748381D01*
X133403931Y-124613281D01*
X133324633Y-124666148D01*
X133227714Y-124721951D01*
X133121983Y-124777753D01*
X133019189Y-124830620D01*
X132945766Y-124877612D01*
X132884089Y-124939288D01*
X132825352Y-124998025D01*
X132751927Y-125047952D01*
X132749005Y-125109628D01*
X132743159Y-125168366D01*
X132743120Y-125168432D01*
X132743120Y-125168432D01*
G37*
G36*
X135098150Y-125450380D02*
G01*
X135946831Y-124942327D01*
X135788235Y-124930580D01*
X135626702Y-124904146D01*
X135670758Y-124722055D01*
X135720685Y-124531153D01*
X135738307Y-124560522D01*
X135852848Y-124698558D01*
X135943894Y-124842470D01*
X135979139Y-124895337D01*
X136011449Y-124948205D01*
X135979139Y-124945282D01*
X135946835Y-124942359D01*
X135946831Y-124942327D01*
X135098150Y-125450380D01*
X135151017Y-125553174D01*
X135230315Y-125644219D01*
X135330172Y-125708832D01*
X135447650Y-125738201D01*
X135500517Y-125717644D01*
X135526951Y-125700021D01*
X135544574Y-125691210D01*
X135556320Y-125682399D01*
X135591565Y-125667711D01*
X135579819Y-125629531D01*
X135582741Y-125594286D01*
X135617986Y-125556106D01*
X135635609Y-125538484D01*
X135650296Y-125520861D01*
X135700223Y-125465059D01*
X135620925Y-125444501D01*
X135524005Y-125391634D01*
X135503448Y-125282966D01*
X135603304Y-125280044D01*
X135682603Y-125300601D01*
X135791270Y-125327035D01*
X135908748Y-125335846D01*
X135952804Y-125335846D01*
X135996861Y-125330000D01*
X136026229Y-125324155D01*
X136037976Y-125288910D01*
X136049722Y-125277163D01*
X136082032Y-125238983D01*
X136087878Y-125174370D01*
X136105500Y-125121503D01*
X136131934Y-125194927D01*
X136143680Y-125224296D01*
X136173049Y-125230142D01*
X136181860Y-125244829D01*
X136184783Y-125259516D01*
X136199470Y-125309443D01*
X136211217Y-125321189D01*
X136222963Y-125330000D01*
X136237650Y-125382868D01*
X136255273Y-125432794D01*
X136281707Y-125509155D01*
X136287552Y-125579641D01*
X136299299Y-125611951D01*
X136331602Y-125641320D01*
X136366847Y-125658943D01*
X136384470Y-125670689D01*
X136399157Y-125676535D01*
X136407968Y-125708838D01*
X136443213Y-125714684D01*
X136490205Y-125723495D01*
X136519573Y-125726418D01*
X136548942Y-125723495D01*
X136598868Y-125682380D01*
X136639984Y-125650070D01*
X136669352Y-125597203D01*
X136675198Y-125564899D01*
X136681044Y-125535530D01*
X136689855Y-125517908D01*
X136728035Y-125482663D01*
X136695731Y-125456229D01*
X136692808Y-125406303D01*
X136569456Y-125118481D01*
X136431419Y-124836533D01*
X136387363Y-124742551D01*
X136340372Y-124648568D01*
X136343294Y-124628011D01*
X136337449Y-124601577D01*
X136284581Y-124513468D01*
X136243466Y-124431233D01*
X136196475Y-124334313D01*
X136131862Y-124237394D01*
X136084871Y-124216836D01*
X136064313Y-124210991D01*
X136037879Y-124205145D01*
X135993823Y-124210991D01*
X135849912Y-124105260D01*
X135723623Y-123937853D01*
X135694254Y-123896738D01*
X135656074Y-123920231D01*
X135614959Y-123937853D01*
X135559156Y-123952541D01*
X135459300Y-123978974D01*
X135382939Y-124023031D01*
X135362381Y-124093517D01*
X135353570Y-124140509D01*
X135338883Y-124240365D01*
X135327136Y-124351969D01*
X135303644Y-124451826D01*
X135283086Y-124548745D01*
X135253718Y-124686783D01*
X135215538Y-124810135D01*
X135186169Y-124813058D01*
X135156800Y-124804246D01*
X135118620Y-124798401D01*
X135086310Y-124795478D01*
X135074564Y-124824847D01*
X135045195Y-124854215D01*
X134989393Y-124871838D01*
X134957089Y-124898272D01*
X134933590Y-124915894D01*
X134889534Y-124933516D01*
X134913033Y-124977573D01*
X134998204Y-125080366D01*
X135118619Y-125159664D01*
X135115697Y-125194909D01*
X135106885Y-125227213D01*
X135092204Y-125330006D01*
X135092204Y-125438674D01*
X135098050Y-125450420D01*
X135098150Y-125450380D01*
X135098150Y-125450380D01*
G37*
G36*
X137747286Y-125162558D02*
G01*
X137785466Y-125194868D01*
X137808958Y-125244794D01*
X137829516Y-125294721D01*
X137858885Y-125315278D01*
X137876507Y-125356393D01*
X137900006Y-125394573D01*
X137917628Y-125435688D01*
X137911783Y-125485615D01*
X137941151Y-125535541D01*
X137955839Y-125597217D01*
X137979331Y-125647143D01*
X138043944Y-125664766D01*
X138046867Y-125679453D01*
X138038056Y-125700011D01*
X138087982Y-125702934D01*
X138126162Y-125717615D01*
X138220145Y-125655939D01*
X138284758Y-125559019D01*
X138334684Y-125447415D01*
X138375799Y-125350496D01*
X138372876Y-125288819D01*
X138393434Y-125235952D01*
X138357044Y-125158948D01*
X138319826Y-125080661D01*
X138281786Y-125001087D01*
X138242918Y-124920229D01*
X138203222Y-124838086D01*
X138162704Y-124754658D01*
X138121357Y-124669945D01*
X138079183Y-124583947D01*
X138036874Y-124497445D01*
X137995114Y-124411217D01*
X137953901Y-124325265D01*
X137913243Y-124239589D01*
X137873132Y-124154188D01*
X137833576Y-124069062D01*
X137794568Y-123984211D01*
X137756114Y-123899636D01*
X137623951Y-123961312D01*
X137503535Y-124037673D01*
X137409553Y-124140467D01*
X137359627Y-124266755D01*
X137374314Y-124281443D01*
X137386060Y-124284366D01*
X137374314Y-124304923D01*
X137374314Y-124316670D01*
X137374314Y-124334292D01*
X137365503Y-124360726D01*
X137383125Y-124363649D01*
X137400748Y-124363649D01*
X137394902Y-124416516D01*
X137406648Y-124454696D01*
X137421336Y-124489941D01*
X137418413Y-124536932D01*
X137433100Y-124542778D01*
X137438946Y-124551589D01*
X137447757Y-124560400D01*
X137459504Y-124560400D01*
X137453658Y-124689627D01*
X137459504Y-124821790D01*
X137456581Y-124959827D01*
X137436023Y-125106675D01*
X137268617Y-124948078D01*
X137165823Y-124730744D01*
X137104147Y-124472292D01*
X137060091Y-124190344D01*
X137018976Y-124125731D01*
X136992542Y-124046432D01*
X136969049Y-123961261D01*
X136939681Y-123881963D01*
X136866256Y-123911332D01*
X136807519Y-123958323D01*
X136751716Y-124005314D01*
X136678293Y-124031748D01*
X136613680Y-124128667D01*
X136575500Y-124228524D01*
X136598992Y-124281392D01*
X136613680Y-124340129D01*
X136637172Y-124395932D01*
X136678287Y-124437047D01*
X136701780Y-124578021D01*
X136728213Y-124701373D01*
X136748771Y-124830599D01*
X136754617Y-124974510D01*
X136804543Y-125118421D01*
X136845658Y-125256458D01*
X136919082Y-125347504D01*
X136974885Y-125453234D01*
X136989572Y-125459080D01*
X137010130Y-125450269D01*
X137010130Y-125467891D01*
X137018941Y-125479637D01*
X137024787Y-125491384D01*
X137018941Y-125514882D01*
X137092365Y-125564809D01*
X137162852Y-125623546D01*
X137250961Y-125658791D01*
X137383124Y-125638233D01*
X137597522Y-125435584D01*
X137747307Y-125162446D01*
X137747286Y-125162558D01*
X137747286Y-125162558D01*
G37*
G36*
X138613688Y-124927602D02*
G01*
X138648933Y-124971658D01*
X138678302Y-125021584D01*
X138710606Y-125083261D01*
X138754662Y-125136128D01*
X138784031Y-125206615D01*
X138831022Y-125262417D01*
X138969059Y-125517932D01*
X138986681Y-125570800D01*
X139013115Y-125617791D01*
X139024861Y-125638349D01*
X139033672Y-125653036D01*
X139039518Y-125682405D01*
X139071828Y-125723520D01*
X139104132Y-125755824D01*
X139124689Y-125779316D01*
X139168746Y-125796939D01*
X139430135Y-125567856D01*
X139427212Y-125538487D01*
X139418401Y-125509119D01*
X139406655Y-125473874D01*
X139380221Y-125391639D01*
X139330295Y-125318215D01*
X139303861Y-125253602D01*
X139233374Y-125115565D01*
X139168761Y-125003961D01*
X139130581Y-124939348D01*
X139201068Y-124854176D01*
X139268618Y-124713202D01*
X139309733Y-124592786D01*
X139318545Y-124528173D01*
X139330291Y-124472371D01*
X139344978Y-124407758D01*
X139350824Y-124340208D01*
X139368447Y-124299093D01*
X139362601Y-124269724D01*
X139359678Y-124216857D01*
X139374365Y-124146370D01*
X139389053Y-124081757D01*
X139391976Y-124011270D01*
X139374353Y-123946657D01*
X139318551Y-123890854D01*
X139268624Y-123887931D01*
X139218698Y-123917300D01*
X139168772Y-123943734D01*
X139107096Y-123973102D01*
X139045420Y-124011282D01*
X139024862Y-124052398D01*
X138986682Y-124084701D01*
X138986682Y-124117011D01*
X138983760Y-124149315D01*
X138972013Y-124196306D01*
X138960267Y-124231551D01*
X138951456Y-124310849D01*
X138933833Y-124378399D01*
X138916211Y-124445949D01*
X138913288Y-124522310D01*
X138883919Y-124501752D01*
X138872173Y-124492941D01*
X138860427Y-124484130D01*
X138687146Y-124249174D01*
X138692992Y-124219805D01*
X138631316Y-124161067D01*
X138587260Y-124117011D01*
X138549080Y-124072955D01*
X138516770Y-124049456D01*
X138249507Y-123867365D01*
X138208392Y-123861519D01*
X138196646Y-123899699D01*
X138149654Y-123958437D01*
X138070356Y-124008363D01*
X138043923Y-124025986D01*
X138029235Y-124070042D01*
X138032158Y-124096476D01*
X138020412Y-124125844D01*
X138079149Y-124228638D01*
X138143762Y-124287376D01*
X138193689Y-124331432D01*
X138225992Y-124378423D01*
X138246550Y-124401922D01*
X138325848Y-124495904D01*
X138334659Y-124531149D01*
X138369904Y-124531149D01*
X138384592Y-124542895D01*
X138413960Y-124592822D01*
X138443329Y-124631002D01*
X138458017Y-124645689D01*
X138466828Y-124669182D01*
X138475639Y-124692674D01*
X138522630Y-124751412D01*
X138543188Y-124792527D01*
X138566680Y-124839518D01*
X138598984Y-124883574D01*
X138613672Y-124927631D01*
X138613688Y-124927602D01*
X138613688Y-124927602D01*
G37*
G36*
X139483027Y-124043577D02*
G01*
X139483027Y-124075887D01*
X139485950Y-124093510D01*
X139485950Y-124114067D01*
X139480104Y-124143436D01*
X139624015Y-124281473D01*
X139797296Y-124334340D01*
X139991135Y-124366650D01*
X140184974Y-124443011D01*
X140255461Y-124443011D01*
X140343570Y-124451822D01*
X140387626Y-124478256D01*
X140440494Y-124492943D01*
X140431682Y-124548745D01*
X140422871Y-124592802D01*
X140196725Y-124589879D01*
X139950021Y-124575191D01*
X139952943Y-124595749D01*
X139955866Y-124610436D01*
X139914751Y-124648616D01*
X139873636Y-124689731D01*
X139832521Y-124724976D01*
X139779654Y-124733788D01*
X139764966Y-124786655D01*
X139770812Y-124842457D01*
X139864794Y-124910007D01*
X139964651Y-124968745D01*
X140073319Y-125012801D01*
X140199608Y-125024547D01*
X140223101Y-125024547D01*
X140240723Y-125015736D01*
X140308274Y-125024547D01*
X140372886Y-125033359D01*
X140452184Y-125021612D01*
X140531482Y-125009866D01*
X140616654Y-125142029D01*
X140684204Y-125291814D01*
X140519734Y-125303560D01*
X140393445Y-125294749D01*
X140273030Y-125280068D01*
X140117371Y-125274222D01*
X139979334Y-125233107D01*
X139829550Y-125197862D01*
X139788434Y-125230166D01*
X139756125Y-125271281D01*
X139720880Y-125303591D01*
X139676823Y-125315337D01*
X139662136Y-125344706D01*
X139653325Y-125374075D01*
X139644514Y-125400508D01*
X139618080Y-125406354D01*
X139720874Y-125556139D01*
X139850100Y-125632500D01*
X140014569Y-125673615D01*
X140211345Y-125708860D01*
X140255401Y-125705938D01*
X140296517Y-125700092D01*
X140458049Y-125726525D01*
X140648951Y-125735337D01*
X140833980Y-125708903D01*
X140977891Y-125632542D01*
X141010201Y-125585551D01*
X141048381Y-125541495D01*
X141060127Y-125456324D01*
X141077749Y-125359404D01*
X141092431Y-125256610D01*
X141086585Y-125165564D01*
X141051340Y-125086267D01*
X141030783Y-125009906D01*
X141013160Y-124995224D01*
X140989667Y-124983478D01*
X140951487Y-124883621D01*
X140910372Y-124792576D01*
X140866316Y-124704467D01*
X140822260Y-124601674D01*
X140883936Y-124519439D01*
X140910370Y-124428393D01*
X140925057Y-124334410D01*
X140945615Y-124234554D01*
X140875127Y-124164067D01*
X140781145Y-124117076D01*
X140672478Y-124087707D01*
X140549126Y-124061273D01*
X140340601Y-124002536D01*
X140158510Y-123970232D01*
X139970545Y-123943798D01*
X139750273Y-123908553D01*
X139700346Y-123934987D01*
X139673913Y-123920300D01*
X139659225Y-123902677D01*
X139585802Y-123987849D01*
X139483008Y-124043651D01*
X139483027Y-124043577D01*
X139483027Y-124043577D01*
G37*
G36*
X142276075Y-125391641D02*
G01*
X142111602Y-124748475D01*
X141897204Y-124692673D01*
X141685743Y-124604564D01*
X141750356Y-124457716D01*
X141856087Y-124384292D01*
X141856089Y-124384293D01*
X141929513Y-124469464D01*
X142005874Y-124548762D01*
X142070487Y-124636871D01*
X142111602Y-124748475D01*
X142276075Y-125391641D01*
X142334812Y-125570796D01*
X142408237Y-125694147D01*
X142461104Y-125702959D01*
X142493414Y-125729392D01*
X142531594Y-125729392D01*
X142552152Y-125714705D01*
X142575650Y-125700017D01*
X142613830Y-125694172D01*
X142628518Y-125650116D01*
X142666698Y-125635428D01*
X142663775Y-125597248D01*
X142672586Y-125567879D01*
X142678432Y-125541446D01*
X142675509Y-125506201D01*
X142699001Y-125485643D01*
X142719559Y-125444528D01*
X142701937Y-125344672D01*
X142681379Y-125256563D01*
X142657886Y-125174328D01*
X142666698Y-125089156D01*
X142649075Y-125086233D01*
X142640264Y-125050988D01*
X142637341Y-125006932D01*
X142640264Y-124968752D01*
X142593273Y-124813094D01*
X142558028Y-124651561D01*
X142522783Y-124495902D01*
X142475792Y-124354928D01*
X142405305Y-124363739D01*
X142355378Y-124396043D01*
X142220278Y-124255069D01*
X142099863Y-124090599D01*
X141964763Y-123949626D01*
X141773861Y-123876202D01*
X141644635Y-123967248D01*
X141524219Y-124084726D01*
X141486039Y-124111159D01*
X141444924Y-124137593D01*
X141444924Y-124172838D01*
X141389122Y-124249199D01*
X141348007Y-124340245D01*
X141312762Y-124437164D01*
X141271647Y-124528210D01*
X141277492Y-124554644D01*
X141274569Y-124575201D01*
X141265758Y-124598700D01*
X141265758Y-124631004D01*
X141350930Y-124839527D01*
X141530084Y-124971691D01*
X141756230Y-125056862D01*
X141973565Y-125133223D01*
X141964754Y-125144970D01*
X141955942Y-125159657D01*
X141844338Y-125230144D01*
X141767978Y-125274200D01*
X141688679Y-125306510D01*
X141568264Y-125335879D01*
X141450786Y-125365248D01*
X141371488Y-125382870D01*
X141301001Y-125394616D01*
X141195270Y-125403428D01*
X141151214Y-125468041D01*
X141124780Y-125541465D01*
X141121857Y-125611952D01*
X141142415Y-125664819D01*
X141130669Y-125673631D01*
X141107170Y-125673631D01*
X141136539Y-125702999D01*
X141160031Y-125738244D01*
X141186465Y-125767613D01*
X141227580Y-125785236D01*
X141456663Y-125788158D01*
X141806161Y-125676554D01*
X141979441Y-125606067D01*
X142093982Y-125544391D01*
X142182091Y-125476841D01*
X142276074Y-125391669D01*
X142276075Y-125391641D01*
X142276075Y-125391641D01*
G37*
G36*
X144102863Y-124375453D02*
G01*
X144038249Y-124269723D01*
X143938393Y-124196299D01*
X143823851Y-124143432D01*
X143712247Y-124108187D01*
X143462606Y-124014204D01*
X143189468Y-123931969D01*
X142901647Y-123887913D01*
X142593266Y-123923158D01*
X142566832Y-123978960D01*
X142531587Y-124031828D01*
X142496342Y-124084695D01*
X142478720Y-124134622D01*
X142431729Y-124193359D01*
X142425883Y-124272657D01*
X142484620Y-124316713D01*
X142543358Y-124349017D01*
X142763630Y-124331395D01*
X142963343Y-124346082D01*
X143027956Y-124319648D01*
X143104317Y-124331395D01*
X143183615Y-124354887D01*
X143257038Y-124360733D01*
X143330463Y-124393037D01*
X143421508Y-124404783D01*
X143415663Y-124425341D01*
X143412740Y-124442963D01*
X143368684Y-124472332D01*
X143309946Y-124489954D01*
X143254144Y-124513447D01*
X143221840Y-124554562D01*
X143145479Y-124575120D01*
X143092611Y-124625046D01*
X143063242Y-124689659D01*
X143051496Y-124748396D01*
X143030939Y-124768954D01*
X143004505Y-124780700D01*
X142960449Y-124859998D01*
X142904646Y-124945170D01*
X142895835Y-125077333D01*
X142916392Y-125191875D01*
X143039745Y-125385713D01*
X143215962Y-125538435D01*
X143424486Y-125650039D01*
X143641821Y-125729338D01*
X143665320Y-125729338D01*
X143671165Y-125714650D01*
X143724033Y-125741084D01*
X143782770Y-125744007D01*
X143850320Y-125741084D01*
X143911997Y-125744007D01*
X143950177Y-125702892D01*
X143973669Y-125655900D01*
X143988357Y-125641213D01*
X143997168Y-125626526D01*
X143982480Y-125594222D01*
X143991292Y-125585411D01*
X144003038Y-125579565D01*
X144005961Y-125564883D01*
X143997150Y-125512016D01*
X144002995Y-125447403D01*
X144000072Y-125385727D01*
X143956016Y-125338735D01*
X143768051Y-125332890D01*
X143597708Y-125277087D01*
X143447923Y-125200727D01*
X143304012Y-125127303D01*
X143280513Y-125083247D01*
X143245268Y-125050937D01*
X143212958Y-125018633D01*
X143192401Y-124974577D01*
X143204147Y-124951078D01*
X143215894Y-124927585D01*
X143248197Y-124918774D01*
X143374487Y-124865907D01*
X143494902Y-124815981D01*
X143556578Y-124824792D01*
X143627065Y-124807169D01*
X143820904Y-124786612D01*
X143997122Y-124733744D01*
X144011809Y-124707311D01*
X144044113Y-124701465D01*
X144079358Y-124657409D01*
X144111662Y-124607482D01*
X144102850Y-124548745D01*
X144120473Y-124498819D01*
X144102850Y-124437142D01*
X144102850Y-124375466D01*
X144102863Y-124375453D01*
X144102863Y-124375453D01*
G37*
G36*
X143944267Y-125168432D02*
G01*
X144025768Y-125280771D01*
X144129295Y-125365208D01*
X144249711Y-125427619D01*
X144381874Y-125479749D01*
X144523582Y-125521601D01*
X144672632Y-125559044D01*
X144820214Y-125599429D01*
X144963391Y-125650092D01*
X145002302Y-125650823D01*
X145036810Y-125653015D01*
X145066179Y-125656668D01*
X145095547Y-125661844D01*
X145121981Y-125665498D01*
X145148415Y-125670674D01*
X145176316Y-125673597D01*
X145207152Y-125676519D01*
X145216700Y-125676519D01*
X145221815Y-125682365D01*
X145225469Y-125688211D01*
X145230645Y-125694118D01*
X145278373Y-125700724D01*
X145300587Y-125702369D01*
X145321699Y-125702919D01*
X145337853Y-125702919D01*
X145354008Y-125702919D01*
X145370163Y-125702919D01*
X145386318Y-125702919D01*
X145404123Y-125703470D01*
X145422294Y-125705114D01*
X145440836Y-125707854D01*
X145459743Y-125711690D01*
X145477000Y-125716622D01*
X145493521Y-125719728D01*
X145509304Y-125721007D01*
X145524357Y-125720457D01*
X145628619Y-125706324D01*
X145721133Y-125675670D01*
X145801899Y-125628496D01*
X145870918Y-125564800D01*
X145925801Y-125484401D01*
X145967099Y-125390051D01*
X145994817Y-125281750D01*
X146008951Y-125159499D01*
X146008220Y-125152893D01*
X146008951Y-125147778D01*
X146011143Y-125144124D01*
X146014796Y-125141932D01*
X146017719Y-125140288D01*
X146020642Y-125138278D01*
X146023565Y-125135903D01*
X146026488Y-125133163D01*
X146026123Y-125119030D01*
X146025027Y-125105999D01*
X146023200Y-125094070D01*
X146020642Y-125083243D01*
X146017171Y-125072227D01*
X146015527Y-125059744D01*
X146015715Y-125045794D01*
X146017725Y-125030376D01*
X145978260Y-124951078D01*
X145936225Y-124874717D01*
X145891621Y-124801293D01*
X145844447Y-124730806D01*
X145793602Y-124662522D01*
X145737982Y-124598643D01*
X145677588Y-124539169D01*
X145612424Y-124484103D01*
X145602511Y-124475292D01*
X145593334Y-124466481D01*
X145584888Y-124457669D01*
X145577179Y-124448858D01*
X145570018Y-124440047D01*
X145563223Y-124431236D01*
X145556798Y-124422424D01*
X145550770Y-124413613D01*
X145543244Y-124405167D01*
X145535352Y-124397458D01*
X145518466Y-124384244D01*
X145498639Y-124371761D01*
X145474410Y-124363687D01*
X145406860Y-124296137D01*
X145327562Y-124234461D01*
X145240188Y-124177191D01*
X145148408Y-124122856D01*
X145055159Y-124067790D01*
X144963379Y-124014192D01*
X144873802Y-123955454D01*
X144793036Y-123890841D01*
X144765135Y-123900389D01*
X144746045Y-123899659D01*
X144730626Y-123896736D01*
X144713741Y-123899659D01*
X144689511Y-123937108D01*
X144657938Y-123961337D01*
X144620489Y-123979690D01*
X144584513Y-123999517D01*
X144547801Y-124019344D01*
X144514023Y-124043573D01*
X144485385Y-124074410D01*
X144464097Y-124114057D01*
X144477317Y-124117711D01*
X144481701Y-124128726D01*
X144478048Y-124141210D01*
X144472872Y-124155160D01*
X144469218Y-124167643D01*
X144469949Y-124181594D01*
X144475064Y-124190405D01*
X144490482Y-124193328D01*
X144484636Y-124205074D01*
X144472878Y-124210920D01*
X144459664Y-124214574D01*
X144455280Y-124225589D01*
X144457472Y-124238803D01*
X144464079Y-124249082D01*
X144467002Y-124260828D01*
X144464079Y-124278451D01*
X144526488Y-124315894D01*
X144596242Y-124351869D01*
X144668931Y-124388582D01*
X144746026Y-124428229D01*
X144824590Y-124468614D01*
X144907559Y-124513401D01*
X144989060Y-124561129D01*
X145069092Y-124616194D01*
X145149124Y-124678604D01*
X145230624Y-124748357D01*
X145311391Y-124821047D01*
X145350673Y-124859045D01*
X145389219Y-124898144D01*
X145426851Y-124938157D01*
X145463380Y-124978907D01*
X145498808Y-125020393D01*
X145533134Y-125062611D01*
X145565626Y-125103726D01*
X145595549Y-125144841D01*
X145622896Y-125185956D01*
X145647674Y-125227071D01*
X145644751Y-125234049D01*
X145641828Y-125240291D01*
X145638905Y-125245771D01*
X145635982Y-125250521D01*
X145631780Y-125253992D01*
X145627944Y-125258559D01*
X145624473Y-125264222D01*
X145621368Y-125271023D01*
X145575296Y-125273216D01*
X145531057Y-125273946D01*
X145488657Y-125273216D01*
X145448090Y-125271023D01*
X145406975Y-125268283D01*
X145365860Y-125268834D01*
X145324745Y-125272670D01*
X145283630Y-125279831D01*
X145279611Y-125276543D01*
X145276323Y-125272524D01*
X145273765Y-125267774D01*
X145271938Y-125262233D01*
X145269929Y-125256753D01*
X145266823Y-125252003D01*
X145262622Y-125247984D01*
X145257263Y-125244696D01*
X145095730Y-125222665D01*
X144945945Y-125191822D01*
X144800566Y-125152905D01*
X144652250Y-125112521D01*
X144675011Y-125104440D01*
X144696306Y-125097834D01*
X144713928Y-125089759D01*
X144731551Y-125083152D01*
X144738894Y-125069938D01*
X144731551Y-125059666D01*
X144715396Y-125047919D01*
X144702182Y-125036167D01*
X144739625Y-125009739D01*
X144769731Y-124977430D01*
X144788821Y-124936308D01*
X144799100Y-124883441D01*
X144785886Y-124867286D01*
X144781501Y-124848196D01*
X144785886Y-124829837D01*
X144799100Y-124815886D01*
X144808648Y-124814425D01*
X144813763Y-124815886D01*
X144816685Y-124819540D01*
X144819608Y-124824716D01*
X144820339Y-124830561D01*
X144822531Y-124836468D01*
X144827646Y-124837199D01*
X144837200Y-124833545D01*
X144832816Y-124809316D01*
X144825466Y-124789489D01*
X144815187Y-124770399D01*
X144807844Y-124748374D01*
X144706519Y-124680824D01*
X144605194Y-124613274D01*
X144569212Y-124638234D01*
X144525893Y-124666141D01*
X144478165Y-124693306D01*
X144428969Y-124721944D01*
X144376102Y-124749108D01*
X144323240Y-124777746D01*
X144269642Y-124804180D01*
X144220447Y-124830614D01*
X144181536Y-124851171D01*
X144147028Y-124877605D01*
X144115455Y-124907711D01*
X144085349Y-124939284D01*
X144055980Y-124968652D01*
X144026612Y-124998021D01*
X143992103Y-125025186D01*
X143953193Y-125047947D01*
X143955385Y-125082456D01*
X143950270Y-125109620D01*
X143944424Y-125136048D01*
X143944445Y-125168358D01*
X143944426Y-125168391D01*
X143944267Y-125168432D01*
X143944267Y-125168432D01*
G37*
G04 #@! TD*
D11*
G04 #@! TO.P,BT1,2*
G04 #@! TO.N,GND*
X120015000Y-100177600D03*
D12*
G04 #@! TO.P,BT1,1*
G04 #@! TO.N,Net-(BT1-Pad1)*
X120015000Y-87377600D03*
X120015000Y-112977600D03*
G04 #@! TD*
D13*
G04 #@! TO.P,D1,1*
G04 #@! TO.N,GND*
X148818600Y-86055200D03*
D14*
G04 #@! TO.P,D1,2*
G04 #@! TO.N,Net-(D1-Pad2)*
X151358600Y-86055200D03*
G04 #@! TD*
G04 #@! TO.P,D2,2*
G04 #@! TO.N,Net-(D1-Pad2)*
X157403800Y-86080600D03*
D13*
G04 #@! TO.P,D2,1*
G04 #@! TO.N,GND*
X154863800Y-86080600D03*
G04 #@! TD*
G04 #@! TO.P,D3,1*
G04 #@! TO.N,GND*
X160934400Y-86080600D03*
D14*
G04 #@! TO.P,D3,2*
G04 #@! TO.N,Net-(D1-Pad2)*
X163474400Y-86080600D03*
G04 #@! TD*
D15*
G04 #@! TO.P,SW1,*
G04 #@! TO.N,*
X166290000Y-95420000D03*
X166240000Y-92420000D03*
D16*
G04 #@! TO.P,SW1,NC*
G04 #@! TO.N,N/C*
X166340000Y-98020000D03*
D17*
G04 #@! TO.P,SW1,2*
G04 #@! TO.N,Net-(BT1-Pad1)*
X164440000Y-94670000D03*
G04 #@! TO.P,SW1,3*
G04 #@! TO.N,N/C*
X164440000Y-96170000D03*
G04 #@! TO.P,SW1,1*
G04 #@! TO.N,Net-(D1-Pad2)*
X164440000Y-91670000D03*
D16*
G04 #@! TO.P,SW1,NC*
G04 #@! TO.N,N/C*
X166340000Y-90070000D03*
G04 #@! TD*
D18*
G04 #@! TO.P,REF\002A\002A,1*
G04 #@! TO.N,N/C*
X138430000Y-98425000D03*
G04 #@! TD*
D19*
G04 #@! TO.N,Net-(BT1-Pad1)*
X154250000Y-94670000D02*
X164440000Y-94670000D01*
X113157000Y-107701200D02*
X113157000Y-91287600D01*
X113157000Y-91287600D02*
X117067000Y-87377600D01*
X118433400Y-112977600D02*
X113157000Y-107701200D01*
X122453400Y-112977600D02*
X118433400Y-112977600D01*
X117067000Y-87377600D02*
X122937600Y-87377600D01*
X122937600Y-87377600D02*
X128905000Y-93345000D01*
X128905000Y-93345000D02*
X128905000Y-104775000D01*
X128905000Y-104775000D02*
X133985000Y-109855000D01*
X133985000Y-109855000D02*
X144780000Y-109855000D01*
X148590000Y-100330000D02*
X154250000Y-94670000D01*
X148590000Y-106045000D02*
X148590000Y-100330000D01*
X144780000Y-109855000D02*
X148590000Y-106045000D01*
G04 #@! TO.N,Net-(D1-Pad2)*
X163474400Y-90704400D02*
X163474400Y-86080600D01*
X164440000Y-91670000D02*
X163474400Y-90704400D01*
X163474400Y-86080600D02*
X163474400Y-82423000D01*
X163474400Y-82423000D02*
X162864800Y-81813400D01*
X162864800Y-81813400D02*
X158648400Y-81813400D01*
X157403800Y-84807808D02*
X157429200Y-84782408D01*
X157403800Y-86080600D02*
X157403800Y-84807808D01*
X157429200Y-83032600D02*
X158648400Y-81813400D01*
X157429200Y-84782408D02*
X157429200Y-83032600D01*
X151358600Y-84782408D02*
X151384000Y-84757008D01*
X151358600Y-86055200D02*
X151358600Y-84782408D01*
X151384000Y-84757008D02*
X151384000Y-82397600D01*
X151968200Y-81813400D02*
X158648400Y-81813400D01*
X151384000Y-82397600D02*
X151968200Y-81813400D01*
G04 #@! TD*
D20*
G04 #@! TO.N,GND*
G36*
X128776488Y-78400615D02*
G01*
X129713848Y-78644694D01*
X130589676Y-79035854D01*
X131389355Y-79561390D01*
X132097560Y-80208156D01*
X132698876Y-80962577D01*
X133178161Y-81810938D01*
X133527401Y-82758094D01*
X133903099Y-84228912D01*
X134311253Y-85826791D01*
X134697856Y-87340299D01*
X135087742Y-88866661D01*
X135473116Y-90375365D01*
X135833272Y-91785341D01*
X136231664Y-93344999D01*
X136616125Y-94850123D01*
X136619565Y-94875597D01*
X136631565Y-94910569D01*
X136640718Y-94946400D01*
X136651819Y-94969591D01*
X136731204Y-95200936D01*
X136750835Y-95258929D01*
X136751500Y-95260083D01*
X136751932Y-95261342D01*
X136782700Y-95314228D01*
X136842834Y-95418587D01*
X136843360Y-95422286D01*
X136905840Y-95527932D01*
X136935256Y-95578981D01*
X136937646Y-95581711D01*
X136939496Y-95584839D01*
X136978853Y-95628780D01*
X137045380Y-95704769D01*
X137045450Y-95704963D01*
X137047822Y-95707559D01*
X137059654Y-95721074D01*
X137060597Y-95721540D01*
X137128484Y-95795836D01*
X137168152Y-95840124D01*
X137170697Y-95842035D01*
X137172840Y-95844380D01*
X137220633Y-95879527D01*
X137319175Y-95953514D01*
X137322346Y-95954328D01*
X137382653Y-95998678D01*
X137389576Y-96003854D01*
X136937392Y-96191155D01*
X136196155Y-96932392D01*
X135795000Y-97900866D01*
X135795000Y-98949134D01*
X136196155Y-99917608D01*
X136937392Y-100658845D01*
X137905866Y-101060000D01*
X138954134Y-101060000D01*
X139922608Y-100658845D01*
X140663845Y-99917608D01*
X141065000Y-98949134D01*
X141065000Y-97900866D01*
X140663845Y-96932392D01*
X139922608Y-96191155D01*
X139470423Y-96003854D01*
X139477339Y-95998683D01*
X139537652Y-95954329D01*
X139540821Y-95953515D01*
X139639279Y-95879591D01*
X139687158Y-95844381D01*
X139689305Y-95842031D01*
X139691844Y-95840125D01*
X139731430Y-95795929D01*
X139799404Y-95721538D01*
X139800347Y-95721072D01*
X139812185Y-95707550D01*
X139814548Y-95704964D01*
X139814618Y-95704771D01*
X139881176Y-95628745D01*
X139920502Y-95584840D01*
X139922351Y-95581713D01*
X139924745Y-95578979D01*
X139954187Y-95527884D01*
X140016638Y-95422288D01*
X140017165Y-95418588D01*
X140077335Y-95314165D01*
X140108065Y-95261344D01*
X140108497Y-95260084D01*
X140109164Y-95258927D01*
X140128798Y-95200925D01*
X140208047Y-94969980D01*
X140218995Y-94947185D01*
X140228294Y-94910977D01*
X140240434Y-94875600D01*
X140243819Y-94850529D01*
X140638354Y-93314363D01*
X140638354Y-93314362D01*
X141026599Y-91802688D01*
X141026599Y-91802687D01*
X141383727Y-90412165D01*
X141383729Y-90412162D01*
X141803086Y-88779338D01*
X141803086Y-88779335D01*
X142191330Y-87267665D01*
X142191330Y-87267664D01*
X142429338Y-86340950D01*
X147283600Y-86340950D01*
X147283600Y-87081510D01*
X147380273Y-87314899D01*
X147558902Y-87493527D01*
X147792291Y-87590200D01*
X148532850Y-87590200D01*
X148691600Y-87431450D01*
X148691600Y-86182200D01*
X147442350Y-86182200D01*
X147283600Y-86340950D01*
X142429338Y-86340950D01*
X142569594Y-85794850D01*
X142766316Y-85028890D01*
X147283600Y-85028890D01*
X147283600Y-85769450D01*
X147442350Y-85928200D01*
X148691600Y-85928200D01*
X148691600Y-84678950D01*
X148532850Y-84520200D01*
X147792291Y-84520200D01*
X147558902Y-84616873D01*
X147380273Y-84795501D01*
X147283600Y-85028890D01*
X142766316Y-85028890D01*
X142951757Y-84306856D01*
X143334266Y-82817514D01*
X143667981Y-81844423D01*
X144137325Y-80984660D01*
X144735751Y-80221945D01*
X145446591Y-79569175D01*
X146252623Y-79039517D01*
X147136338Y-78645902D01*
X148080540Y-78400772D01*
X149096621Y-78313946D01*
X164964254Y-78313946D01*
X165592165Y-78376535D01*
X166143052Y-78546185D01*
X166640040Y-78814675D01*
X167072435Y-79170876D01*
X167428634Y-79603268D01*
X167697124Y-80100263D01*
X167866773Y-80651141D01*
X167929362Y-81279053D01*
X167929363Y-82653251D01*
X167929362Y-82653256D01*
X167929363Y-84121557D01*
X167929362Y-84121562D01*
X167929363Y-85589864D01*
X167929362Y-85589869D01*
X167929363Y-87058171D01*
X167929362Y-87058176D01*
X167929363Y-88526477D01*
X167929362Y-88526482D01*
X167929362Y-88960226D01*
X167740000Y-88922560D01*
X164940000Y-88922560D01*
X164744400Y-88961467D01*
X164744400Y-86981417D01*
X164775710Y-86950107D01*
X165009400Y-86385930D01*
X165009400Y-85775270D01*
X164775710Y-85211093D01*
X164744400Y-85179783D01*
X164744400Y-82548076D01*
X164769279Y-82423000D01*
X164744400Y-82297924D01*
X164744400Y-82297920D01*
X164670713Y-81927471D01*
X164390018Y-81507382D01*
X164283979Y-81436529D01*
X163851271Y-81003821D01*
X163780418Y-80897782D01*
X163360329Y-80617087D01*
X162989880Y-80543400D01*
X162989875Y-80543400D01*
X162864800Y-80518521D01*
X162739725Y-80543400D01*
X158773474Y-80543400D01*
X158648399Y-80518521D01*
X158523324Y-80543400D01*
X152093276Y-80543400D01*
X151968200Y-80518521D01*
X151843124Y-80543400D01*
X151843120Y-80543400D01*
X151472671Y-80617087D01*
X151052582Y-80897782D01*
X150981729Y-81003821D01*
X150574419Y-81411131D01*
X150468383Y-81481982D01*
X150397532Y-81588018D01*
X150397530Y-81588020D01*
X150187688Y-81902071D01*
X150089121Y-82397600D01*
X150114001Y-82522680D01*
X150114000Y-84529633D01*
X150093603Y-84632178D01*
X150078298Y-84616873D01*
X149844909Y-84520200D01*
X149104350Y-84520200D01*
X148945600Y-84678950D01*
X148945600Y-85928200D01*
X148965600Y-85928200D01*
X148965600Y-86182200D01*
X148945600Y-86182200D01*
X148945600Y-87431450D01*
X149104350Y-87590200D01*
X149844909Y-87590200D01*
X150078298Y-87493527D01*
X150256927Y-87314899D01*
X150312739Y-87180156D01*
X150489093Y-87356510D01*
X151053270Y-87590200D01*
X151663930Y-87590200D01*
X152228107Y-87356510D01*
X152659910Y-86924707D01*
X152891189Y-86366350D01*
X153328800Y-86366350D01*
X153328800Y-87106910D01*
X153425473Y-87340299D01*
X153604102Y-87518927D01*
X153837491Y-87615600D01*
X154578050Y-87615600D01*
X154736800Y-87456850D01*
X154736800Y-86207600D01*
X153487550Y-86207600D01*
X153328800Y-86366350D01*
X152891189Y-86366350D01*
X152893600Y-86360530D01*
X152893600Y-85749870D01*
X152659910Y-85185693D01*
X152628600Y-85154383D01*
X152628600Y-85054290D01*
X153328800Y-85054290D01*
X153328800Y-85794850D01*
X153487550Y-85953600D01*
X154736800Y-85953600D01*
X154736800Y-84704350D01*
X154578050Y-84545600D01*
X153837491Y-84545600D01*
X153604102Y-84642273D01*
X153425473Y-84820901D01*
X153328800Y-85054290D01*
X152628600Y-85054290D01*
X152628600Y-85009782D01*
X152654000Y-84882088D01*
X152654000Y-84882084D01*
X152678879Y-84757009D01*
X152654000Y-84631934D01*
X152654000Y-83083400D01*
X156144426Y-83083400D01*
X156159200Y-83157675D01*
X156159200Y-84555034D01*
X156138803Y-84657578D01*
X156123498Y-84642273D01*
X155890109Y-84545600D01*
X155149550Y-84545600D01*
X154990800Y-84704350D01*
X154990800Y-85953600D01*
X155010800Y-85953600D01*
X155010800Y-86207600D01*
X154990800Y-86207600D01*
X154990800Y-87456850D01*
X155149550Y-87615600D01*
X155890109Y-87615600D01*
X156123498Y-87518927D01*
X156302127Y-87340299D01*
X156357939Y-87205556D01*
X156534293Y-87381910D01*
X157098470Y-87615600D01*
X157709130Y-87615600D01*
X158273307Y-87381910D01*
X158705110Y-86950107D01*
X158938800Y-86385930D01*
X158938800Y-86366350D01*
X159399400Y-86366350D01*
X159399400Y-87106910D01*
X159496073Y-87340299D01*
X159674702Y-87518927D01*
X159908091Y-87615600D01*
X160648650Y-87615600D01*
X160807400Y-87456850D01*
X160807400Y-86207600D01*
X159558150Y-86207600D01*
X159399400Y-86366350D01*
X158938800Y-86366350D01*
X158938800Y-85775270D01*
X158705110Y-85211093D01*
X158673800Y-85179783D01*
X158673800Y-85054290D01*
X159399400Y-85054290D01*
X159399400Y-85794850D01*
X159558150Y-85953600D01*
X160807400Y-85953600D01*
X160807400Y-84704350D01*
X160648650Y-84545600D01*
X159908091Y-84545600D01*
X159674702Y-84642273D01*
X159496073Y-84820901D01*
X159399400Y-85054290D01*
X158673800Y-85054290D01*
X158673800Y-85035182D01*
X158699200Y-84907488D01*
X158699200Y-84907484D01*
X158724079Y-84782409D01*
X158699200Y-84657334D01*
X158699200Y-83558650D01*
X159174451Y-83083400D01*
X162204401Y-83083400D01*
X162204400Y-84652575D01*
X162194098Y-84642273D01*
X161960709Y-84545600D01*
X161220150Y-84545600D01*
X161061400Y-84704350D01*
X161061400Y-85953600D01*
X161081400Y-85953600D01*
X161081400Y-86207600D01*
X161061400Y-86207600D01*
X161061400Y-87456850D01*
X161220150Y-87615600D01*
X161960709Y-87615600D01*
X162194098Y-87518927D01*
X162204401Y-87508624D01*
X162204400Y-90579325D01*
X162179521Y-90704400D01*
X162204400Y-90829475D01*
X162204400Y-90829479D01*
X162278087Y-91199928D01*
X162558782Y-91620018D01*
X162664821Y-91690871D01*
X163630419Y-92656470D01*
X163944471Y-92866313D01*
X164440000Y-92964879D01*
X164935529Y-92866313D01*
X165182202Y-92701491D01*
X165320182Y-93034603D01*
X165625397Y-93339818D01*
X166024180Y-93505000D01*
X166455820Y-93505000D01*
X166854603Y-93339818D01*
X167159818Y-93034603D01*
X167325000Y-92635820D01*
X167325000Y-92204180D01*
X167159818Y-91805397D01*
X166854603Y-91500182D01*
X166455820Y-91335000D01*
X166024180Y-91335000D01*
X165695338Y-91471211D01*
X165644860Y-91217440D01*
X167740000Y-91217440D01*
X167929363Y-91179774D01*
X167929363Y-91463091D01*
X167929362Y-91463096D01*
X167929363Y-92931397D01*
X167929362Y-92931402D01*
X167929363Y-94399704D01*
X167929362Y-94399709D01*
X167929363Y-95868011D01*
X167929362Y-95868016D01*
X167929363Y-96910226D01*
X167740000Y-96872560D01*
X165468135Y-96872560D01*
X165538157Y-96767765D01*
X165587440Y-96520000D01*
X165587440Y-96251861D01*
X165675397Y-96339818D01*
X166074180Y-96505000D01*
X166505820Y-96505000D01*
X166904603Y-96339818D01*
X167209818Y-96034603D01*
X167375000Y-95635820D01*
X167375000Y-95204180D01*
X167209818Y-94805397D01*
X166904603Y-94500182D01*
X166505820Y-94335000D01*
X166074180Y-94335000D01*
X165699144Y-94490345D01*
X165636313Y-94174471D01*
X165355618Y-93754382D01*
X164935529Y-93473687D01*
X164565080Y-93400000D01*
X154375076Y-93400000D01*
X154250000Y-93375121D01*
X154124924Y-93400000D01*
X154124920Y-93400000D01*
X153754471Y-93473687D01*
X153334382Y-93754382D01*
X153263531Y-93860418D01*
X147780419Y-99343531D01*
X147674383Y-99414382D01*
X147603532Y-99520418D01*
X147603530Y-99520420D01*
X147393688Y-99834471D01*
X147295121Y-100330000D01*
X147320001Y-100455080D01*
X147320000Y-105518949D01*
X144253950Y-108585000D01*
X134511051Y-108585000D01*
X130175000Y-104248950D01*
X130175000Y-93470074D01*
X130199879Y-93344999D01*
X130175000Y-93219924D01*
X130175000Y-93219920D01*
X130101313Y-92849471D01*
X129922914Y-92582479D01*
X129891470Y-92535419D01*
X129891469Y-92535418D01*
X129820618Y-92429382D01*
X129714582Y-92358531D01*
X123924071Y-86568021D01*
X123853218Y-86461982D01*
X123433129Y-86181287D01*
X123412440Y-86177172D01*
X123412440Y-84627600D01*
X123363157Y-84379835D01*
X123222809Y-84169791D01*
X123012765Y-84029443D01*
X122765000Y-83980160D01*
X117265000Y-83980160D01*
X117017235Y-84029443D01*
X116807191Y-84169791D01*
X116666843Y-84379835D01*
X116617560Y-84627600D01*
X116617560Y-86172119D01*
X116571471Y-86181287D01*
X116532091Y-86207600D01*
X116265202Y-86385930D01*
X116151382Y-86461982D01*
X116080531Y-86568018D01*
X112347419Y-90301131D01*
X112241383Y-90371982D01*
X112170532Y-90478018D01*
X112170530Y-90478020D01*
X111960688Y-90792071D01*
X111862121Y-91287600D01*
X111887001Y-91412680D01*
X111887000Y-107576125D01*
X111862121Y-107701200D01*
X111887000Y-107826275D01*
X111887000Y-107826279D01*
X111960687Y-108196728D01*
X112241382Y-108616818D01*
X112347421Y-108687671D01*
X116617560Y-112957812D01*
X116617560Y-115727600D01*
X116666843Y-115975365D01*
X116807191Y-116185409D01*
X117017235Y-116325757D01*
X117265000Y-116375040D01*
X122765000Y-116375040D01*
X123012765Y-116325757D01*
X123222809Y-116185409D01*
X123363157Y-115975365D01*
X123412440Y-115727600D01*
X123412440Y-113828233D01*
X123649713Y-113473129D01*
X123748280Y-112977600D01*
X123649713Y-112482071D01*
X123412440Y-112126967D01*
X123412440Y-110227600D01*
X123363157Y-109979835D01*
X123222809Y-109769791D01*
X123012765Y-109629443D01*
X122765000Y-109580160D01*
X117265000Y-109580160D01*
X117017235Y-109629443D01*
X116935745Y-109683894D01*
X114427000Y-107175150D01*
X114427000Y-100463350D01*
X117380000Y-100463350D01*
X117380000Y-102303909D01*
X117476673Y-102537298D01*
X117655301Y-102715927D01*
X117888690Y-102812600D01*
X119729250Y-102812600D01*
X119888000Y-102653850D01*
X119888000Y-100304600D01*
X120142000Y-100304600D01*
X120142000Y-102653850D01*
X120300750Y-102812600D01*
X122141310Y-102812600D01*
X122374699Y-102715927D01*
X122553327Y-102537298D01*
X122650000Y-102303909D01*
X122650000Y-100463350D01*
X122491250Y-100304600D01*
X120142000Y-100304600D01*
X119888000Y-100304600D01*
X117538750Y-100304600D01*
X117380000Y-100463350D01*
X114427000Y-100463350D01*
X114427000Y-98051291D01*
X117380000Y-98051291D01*
X117380000Y-99891850D01*
X117538750Y-100050600D01*
X119888000Y-100050600D01*
X119888000Y-97701350D01*
X120142000Y-97701350D01*
X120142000Y-100050600D01*
X122491250Y-100050600D01*
X122650000Y-99891850D01*
X122650000Y-98051291D01*
X122553327Y-97817902D01*
X122374699Y-97639273D01*
X122141310Y-97542600D01*
X120300750Y-97542600D01*
X120142000Y-97701350D01*
X119888000Y-97701350D01*
X119729250Y-97542600D01*
X117888690Y-97542600D01*
X117655301Y-97639273D01*
X117476673Y-97817902D01*
X117380000Y-98051291D01*
X114427000Y-98051291D01*
X114427000Y-91813650D01*
X116617560Y-89623091D01*
X116617560Y-90127600D01*
X116666843Y-90375365D01*
X116807191Y-90585409D01*
X117017235Y-90725757D01*
X117265000Y-90775040D01*
X122765000Y-90775040D01*
X123012765Y-90725757D01*
X123222809Y-90585409D01*
X123363157Y-90375365D01*
X123412440Y-90127600D01*
X123412440Y-89648490D01*
X127635000Y-93871051D01*
X127635001Y-104649920D01*
X127610121Y-104775000D01*
X127708688Y-105270529D01*
X127918530Y-105584580D01*
X127918532Y-105584582D01*
X127989383Y-105690618D01*
X128095419Y-105761469D01*
X132998531Y-110664582D01*
X133069382Y-110770618D01*
X133175418Y-110841469D01*
X133175419Y-110841470D01*
X133489470Y-111051313D01*
X133571899Y-111067709D01*
X133859920Y-111125000D01*
X133859923Y-111125000D01*
X133985000Y-111149879D01*
X134110076Y-111125000D01*
X144654925Y-111125000D01*
X144780000Y-111149879D01*
X144905075Y-111125000D01*
X144905080Y-111125000D01*
X145275529Y-111051313D01*
X145695618Y-110770618D01*
X145766471Y-110664579D01*
X149399582Y-107031469D01*
X149505618Y-106960618D01*
X149608358Y-106806858D01*
X149786313Y-106540529D01*
X149803034Y-106456465D01*
X149860000Y-106170080D01*
X149860000Y-106170076D01*
X149884879Y-106045000D01*
X149860000Y-105919924D01*
X149860000Y-100856050D01*
X154776051Y-95940000D01*
X163292560Y-95940000D01*
X163292560Y-96520000D01*
X163341843Y-96767765D01*
X163482191Y-96977809D01*
X163692235Y-97118157D01*
X163940000Y-97167440D01*
X164411865Y-97167440D01*
X164341843Y-97272235D01*
X164292560Y-97520000D01*
X164292560Y-98520000D01*
X164341843Y-98767765D01*
X164482191Y-98977809D01*
X164692235Y-99118157D01*
X164940000Y-99167440D01*
X167740000Y-99167440D01*
X167929362Y-99129774D01*
X167929363Y-100272931D01*
X167929362Y-100272936D01*
X167929363Y-101741237D01*
X167929362Y-101741242D01*
X167929363Y-103209544D01*
X167929362Y-103209549D01*
X167929363Y-104677850D01*
X167929362Y-104677855D01*
X167929363Y-106146156D01*
X167929362Y-106146161D01*
X167929363Y-107614465D01*
X167929362Y-107614470D01*
X167929363Y-109082771D01*
X167929362Y-109082776D01*
X167929363Y-110551078D01*
X167929362Y-110551083D01*
X167929363Y-112019384D01*
X167929362Y-112019389D01*
X167929363Y-113487690D01*
X167929362Y-113487695D01*
X167929363Y-114955996D01*
X167929362Y-114956001D01*
X167929363Y-116424305D01*
X167929362Y-116424310D01*
X167929363Y-117892612D01*
X167929362Y-117892617D01*
X167929363Y-119360918D01*
X167929362Y-119360923D01*
X167929363Y-120829224D01*
X167929362Y-120829229D01*
X167929363Y-122297530D01*
X167929362Y-122297535D01*
X167929363Y-123765836D01*
X167929362Y-123765841D01*
X167929363Y-125234145D01*
X167929362Y-125234150D01*
X167929363Y-126702452D01*
X167929362Y-126702457D01*
X167929363Y-128225370D01*
X167925355Y-128386241D01*
X167914050Y-128536664D01*
X167895462Y-128684516D01*
X167873888Y-128806549D01*
X167697124Y-129380528D01*
X167428634Y-129877522D01*
X167072435Y-130309914D01*
X166640040Y-130666116D01*
X166143047Y-130934606D01*
X165592165Y-131104256D01*
X164964254Y-131166845D01*
X154453923Y-131166845D01*
X153826011Y-131104256D01*
X153275129Y-130934606D01*
X152778139Y-130666117D01*
X152345745Y-130309917D01*
X151989543Y-129877522D01*
X151721053Y-129380531D01*
X151551402Y-128829649D01*
X151491291Y-128226585D01*
X151590888Y-126956748D01*
X151590887Y-126956743D01*
X151680263Y-125817184D01*
X151779426Y-124552846D01*
X151888266Y-123165169D01*
X151888265Y-123165164D01*
X151984423Y-121939139D01*
X152086518Y-120637450D01*
X152086517Y-120637445D01*
X152176488Y-119490302D01*
X152279627Y-118175317D01*
X152284868Y-118116350D01*
X152284511Y-118113048D01*
X152284771Y-118109734D01*
X152277792Y-118050907D01*
X152249175Y-117786227D01*
X152253616Y-117766743D01*
X152235665Y-117661276D01*
X152231022Y-117618334D01*
X152225195Y-117599764D01*
X152221928Y-117580568D01*
X152206506Y-117540203D01*
X152174483Y-117438143D01*
X152161660Y-117422819D01*
X152124791Y-117326313D01*
X152122933Y-117296743D01*
X152080024Y-117209136D01*
X152067966Y-117177576D01*
X152052577Y-117153101D01*
X152039863Y-117127142D01*
X152019372Y-117100288D01*
X151967445Y-117017698D01*
X151943275Y-117000559D01*
X151902820Y-116947540D01*
X151894508Y-116923742D01*
X151826668Y-116847740D01*
X151803552Y-116817445D01*
X151785117Y-116801190D01*
X151768749Y-116782852D01*
X151738314Y-116759919D01*
X151661903Y-116692542D01*
X151638054Y-116684374D01*
X151618102Y-116669341D01*
X151612866Y-116661030D01*
X151517489Y-116593530D01*
X151475117Y-116561603D01*
X151466513Y-116557453D01*
X151458713Y-116551933D01*
X151410243Y-116530314D01*
X151305015Y-116479563D01*
X151295209Y-116479007D01*
X151199408Y-116436278D01*
X151149888Y-116412733D01*
X151142351Y-116410829D01*
X151135253Y-116407663D01*
X151081789Y-116395528D01*
X150904070Y-116350628D01*
X150865942Y-116338077D01*
X150843569Y-116335342D01*
X150821717Y-116329821D01*
X150781631Y-116327770D01*
X150651312Y-116311839D01*
X150623975Y-116305435D01*
X150589377Y-116304267D01*
X150555021Y-116300067D01*
X150527026Y-116302162D01*
X150434857Y-116299051D01*
X150394758Y-116294877D01*
X150372494Y-116296945D01*
X150350147Y-116296191D01*
X150310359Y-116302718D01*
X150140320Y-116318516D01*
X150133809Y-116316647D01*
X150014797Y-116330177D01*
X149959023Y-116335359D01*
X149952710Y-116337236D01*
X149946165Y-116337980D01*
X149892804Y-116355046D01*
X149778002Y-116389178D01*
X149772743Y-116393446D01*
X149747312Y-116401579D01*
X149732383Y-116401016D01*
X149627486Y-116439903D01*
X149581665Y-116454558D01*
X149568943Y-116461606D01*
X149555307Y-116466661D01*
X149514330Y-116491861D01*
X149416468Y-116546075D01*
X149408216Y-116556444D01*
X149396368Y-116558852D01*
X149302658Y-116622033D01*
X149260705Y-116647833D01*
X149250884Y-116656940D01*
X149239781Y-116664426D01*
X149205101Y-116699395D01*
X149122228Y-116776245D01*
X149117598Y-116786331D01*
X149054239Y-116851517D01*
X149012438Y-116893667D01*
X149010658Y-116896355D01*
X149008411Y-116898667D01*
X148976144Y-116948476D01*
X148908170Y-117051127D01*
X148907536Y-117054383D01*
X148881628Y-117094378D01*
X148852326Y-117136223D01*
X148847680Y-117146781D01*
X148841406Y-117156466D01*
X148822525Y-117203948D01*
X148770833Y-117321421D01*
X148753877Y-117352453D01*
X148745708Y-117378517D01*
X148734702Y-117403529D01*
X148727045Y-117438064D01*
X148704547Y-117509846D01*
X148696906Y-117525890D01*
X148685883Y-117569396D01*
X148672455Y-117612241D01*
X148670550Y-117629917D01*
X148665193Y-117651061D01*
X148661240Y-117660062D01*
X148649847Y-117711629D01*
X148636886Y-117762787D01*
X148636377Y-117772599D01*
X148332860Y-119146418D01*
X148033441Y-120501676D01*
X148033440Y-120501679D01*
X147719542Y-121922484D01*
X147719541Y-121922487D01*
X147405643Y-123343292D01*
X147405642Y-123343295D01*
X147079501Y-124819521D01*
X146777843Y-126184911D01*
X146777842Y-126184914D01*
X146463944Y-127605719D01*
X146463943Y-127605722D01*
X146144147Y-129053224D01*
X145979044Y-129538085D01*
X145752016Y-129956955D01*
X145464050Y-130323970D01*
X145121328Y-130635517D01*
X144729834Y-130887185D01*
X144295417Y-131074012D01*
X143823758Y-131190572D01*
X143294830Y-131232949D01*
X135914368Y-131232949D01*
X135913496Y-131232778D01*
X135851927Y-131232949D01*
X135790178Y-131232949D01*
X135789304Y-131233123D01*
X134790055Y-131235898D01*
X133890420Y-131220029D01*
X133158690Y-131152834D01*
X132592329Y-131013426D01*
X132161515Y-130789407D01*
X131802723Y-130440419D01*
X131474040Y-129883807D01*
X131175187Y-129042507D01*
X130821086Y-127592378D01*
X130821085Y-127592377D01*
X130474144Y-126171570D01*
X130474143Y-126171568D01*
X130169938Y-124925769D01*
X130198559Y-124925769D01*
X130204979Y-124960240D01*
X130201508Y-124995132D01*
X130227487Y-125081078D01*
X130243927Y-125169344D01*
X130263051Y-125198735D01*
X130273196Y-125232299D01*
X130296689Y-125276356D01*
X130337451Y-125326125D01*
X130368041Y-125382713D01*
X130401170Y-125422697D01*
X130401170Y-125438674D01*
X130405506Y-125460473D01*
X130402685Y-125482523D01*
X130414758Y-125526929D01*
X130413949Y-125543216D01*
X130432037Y-125593853D01*
X130439295Y-125630343D01*
X130444621Y-125665697D01*
X130447168Y-125669925D01*
X130449506Y-125681678D01*
X130461856Y-125700161D01*
X130467687Y-125721609D01*
X130473533Y-125733354D01*
X130476341Y-125736986D01*
X130477433Y-125740803D01*
X130530300Y-125843597D01*
X130578024Y-125903665D01*
X130616157Y-125970235D01*
X130695455Y-126061280D01*
X130765668Y-126115536D01*
X130829327Y-126177345D01*
X130929183Y-126241958D01*
X131025978Y-126280390D01*
X131120143Y-126324873D01*
X131237621Y-126354242D01*
X131308485Y-126357691D01*
X131377756Y-126373050D01*
X131431047Y-126363655D01*
X131485093Y-126366285D01*
X131551885Y-126342351D01*
X131562018Y-126340565D01*
X131567732Y-126340571D01*
X131572013Y-126338803D01*
X131621758Y-126330033D01*
X131674625Y-126309476D01*
X131714475Y-126284090D01*
X131718336Y-126282707D01*
X131722318Y-126279094D01*
X131728340Y-126275258D01*
X131754910Y-126267982D01*
X131772532Y-126259171D01*
X131778900Y-126254229D01*
X131779809Y-126253850D01*
X131783165Y-126251597D01*
X131796734Y-126245993D01*
X131823168Y-126228370D01*
X131834272Y-126217289D01*
X131840369Y-126213196D01*
X131869593Y-126199179D01*
X131881338Y-126190368D01*
X131884052Y-126187340D01*
X131926655Y-126164353D01*
X131934489Y-126171161D01*
X132016226Y-126247831D01*
X132027682Y-126252152D01*
X132036921Y-126260182D01*
X132143194Y-126295726D01*
X132248046Y-126335279D01*
X132276726Y-126340036D01*
X132317162Y-126347618D01*
X132344829Y-126347314D01*
X132371299Y-126355373D01*
X132400668Y-126358296D01*
X132431065Y-126355334D01*
X132431756Y-126355542D01*
X132464510Y-126352260D01*
X132526446Y-126358296D01*
X132555815Y-126355373D01*
X132614734Y-126337434D01*
X132647265Y-126334264D01*
X132647996Y-126333874D01*
X132678287Y-126330839D01*
X132733209Y-126301363D01*
X132792837Y-126283208D01*
X132841305Y-126243348D01*
X132896597Y-126213673D01*
X132940921Y-126177173D01*
X132976324Y-126149351D01*
X132977370Y-126148130D01*
X132978802Y-126147394D01*
X133023246Y-126094993D01*
X133292987Y-126168557D01*
X133572491Y-126256078D01*
X133655661Y-126265021D01*
X133736986Y-126284590D01*
X133775759Y-126286134D01*
X133795126Y-126289039D01*
X133842882Y-126296998D01*
X133864087Y-126296336D01*
X133869317Y-126297929D01*
X133939759Y-126322701D01*
X133954351Y-126321904D01*
X133968343Y-126326123D01*
X134059389Y-126334934D01*
X134090192Y-126331847D01*
X134120556Y-126337887D01*
X134147197Y-126337887D01*
X134177879Y-126341569D01*
X134237408Y-126349687D01*
X134289973Y-126346486D01*
X134341905Y-126355235D01*
X134412458Y-126339028D01*
X134484714Y-126334628D01*
X134532053Y-126311555D01*
X134583380Y-126299764D01*
X134876046Y-126168312D01*
X134885352Y-126177347D01*
X134985209Y-126241960D01*
X135082002Y-126280391D01*
X135176164Y-126324873D01*
X135293642Y-126354242D01*
X135364507Y-126357691D01*
X135433778Y-126373050D01*
X135487069Y-126363655D01*
X135541114Y-126366285D01*
X135607906Y-126342352D01*
X135618040Y-126340565D01*
X135623754Y-126340571D01*
X135628035Y-126338803D01*
X135677780Y-126330033D01*
X135730647Y-126309476D01*
X135770495Y-126284092D01*
X135774357Y-126282708D01*
X135778341Y-126279094D01*
X135784354Y-126275263D01*
X135810919Y-126267989D01*
X135828542Y-126259178D01*
X135834915Y-126254232D01*
X135835832Y-126253850D01*
X135839190Y-126251596D01*
X135852756Y-126245993D01*
X135879190Y-126228370D01*
X135890292Y-126217291D01*
X135896392Y-126213196D01*
X135925616Y-126199179D01*
X135937361Y-126190368D01*
X135940075Y-126187340D01*
X135982674Y-126164355D01*
X135990505Y-126171161D01*
X136072242Y-126247831D01*
X136083698Y-126252152D01*
X136092937Y-126260182D01*
X136199210Y-126295726D01*
X136304062Y-126335279D01*
X136332723Y-126340033D01*
X136373182Y-126347619D01*
X136400847Y-126347315D01*
X136427314Y-126355373D01*
X136456682Y-126358296D01*
X136487081Y-126355334D01*
X136487772Y-126355542D01*
X136520526Y-126352260D01*
X136582462Y-126358296D01*
X136611831Y-126355373D01*
X136670747Y-126337435D01*
X136703278Y-126334265D01*
X136704011Y-126333874D01*
X136734303Y-126330839D01*
X136789225Y-126301363D01*
X136848853Y-126283208D01*
X136897321Y-126243348D01*
X136942265Y-126219227D01*
X137015120Y-126248371D01*
X137059797Y-126256693D01*
X137101016Y-126275834D01*
X137180492Y-126279177D01*
X137258694Y-126293744D01*
X137303157Y-126284335D01*
X137348562Y-126286245D01*
X137480724Y-126265688D01*
X137543556Y-126242705D01*
X137609511Y-126231507D01*
X137658772Y-126200562D01*
X137663985Y-126198655D01*
X137673868Y-126205435D01*
X137761179Y-126271469D01*
X137775609Y-126275228D01*
X137787907Y-126283664D01*
X137879233Y-126302992D01*
X137898259Y-126310308D01*
X137933810Y-126316438D01*
X137957747Y-126322673D01*
X137997118Y-126339365D01*
X138070302Y-126339972D01*
X138142421Y-126352407D01*
X138193012Y-126340990D01*
X138244874Y-126341420D01*
X138312718Y-126313975D01*
X138384108Y-126297864D01*
X138426481Y-126267954D01*
X138474557Y-126248506D01*
X138568540Y-126186830D01*
X138570693Y-126184712D01*
X138573486Y-126183552D01*
X138607442Y-126149525D01*
X138622815Y-126172533D01*
X138640183Y-126189901D01*
X138646818Y-126197483D01*
X138650919Y-126200637D01*
X138655119Y-126204837D01*
X138664736Y-126211263D01*
X138666869Y-126212904D01*
X138681182Y-126233769D01*
X138764466Y-126287960D01*
X138843219Y-126348526D01*
X138867649Y-126355100D01*
X138888854Y-126368898D01*
X138932911Y-126386521D01*
X139030820Y-126404759D01*
X139127011Y-126430566D01*
X139151853Y-126427304D01*
X139176486Y-126431892D01*
X139273918Y-126411274D01*
X139372667Y-126398306D01*
X139394372Y-126385784D01*
X139418883Y-126380597D01*
X139501012Y-126324261D01*
X139587277Y-126274492D01*
X139644629Y-126224229D01*
X139696098Y-126248542D01*
X139860567Y-126289657D01*
X139882327Y-126290716D01*
X139902614Y-126298668D01*
X140099390Y-126333913D01*
X140176698Y-126332435D01*
X140253369Y-126342468D01*
X140279420Y-126340740D01*
X140355501Y-126353190D01*
X140392667Y-126351921D01*
X140428769Y-126360850D01*
X140619670Y-126369662D01*
X140678923Y-126360693D01*
X140738758Y-126363954D01*
X140911140Y-126339327D01*
X140912983Y-126340704D01*
X140925583Y-126343906D01*
X140936299Y-126351258D01*
X140977109Y-126368750D01*
X140977113Y-126368753D01*
X140977118Y-126368754D01*
X140977414Y-126368881D01*
X141098363Y-126394483D01*
X141219481Y-126420184D01*
X141219804Y-126420188D01*
X141219808Y-126420189D01*
X141219812Y-126420188D01*
X141448564Y-126423106D01*
X141548669Y-126404519D01*
X141649826Y-126393065D01*
X141999324Y-126281461D01*
X142021047Y-126269440D01*
X142045428Y-126264751D01*
X142098882Y-126243007D01*
X142163682Y-126267510D01*
X142212791Y-126290920D01*
X142250410Y-126316056D01*
X142281783Y-126322296D01*
X142310019Y-126337333D01*
X142402121Y-126346261D01*
X142427255Y-126355762D01*
X142446931Y-126355146D01*
X142493414Y-126364392D01*
X142531594Y-126364392D01*
X142550457Y-126360640D01*
X142556628Y-126361238D01*
X142573831Y-126355991D01*
X142602566Y-126350275D01*
X142674899Y-126348011D01*
X142722922Y-126326335D01*
X142774598Y-126316056D01*
X142825768Y-126281865D01*
X142897780Y-126262149D01*
X142918344Y-126246191D01*
X142942814Y-126237307D01*
X143015596Y-126170722D01*
X143030312Y-126159302D01*
X143124845Y-126209897D01*
X143168153Y-126223060D01*
X143206829Y-126246571D01*
X143424164Y-126325870D01*
X143533405Y-126342773D01*
X143641821Y-126364338D01*
X143641958Y-126364338D01*
X143679018Y-126374487D01*
X143685823Y-126373629D01*
X143692472Y-126375299D01*
X143751209Y-126378222D01*
X143780730Y-126373862D01*
X143810222Y-126378413D01*
X143849011Y-126376735D01*
X143881937Y-126378295D01*
X143908731Y-126374273D01*
X143935485Y-126378573D01*
X144030441Y-126356004D01*
X144126956Y-126341517D01*
X144150173Y-126327547D01*
X144176535Y-126321281D01*
X144255626Y-126264092D01*
X144339251Y-126213772D01*
X144355355Y-126191980D01*
X144377311Y-126176104D01*
X144404807Y-126146494D01*
X144511489Y-126173293D01*
X144630245Y-126205790D01*
X144751567Y-126248720D01*
X144852161Y-126263281D01*
X144951464Y-126284980D01*
X144975233Y-126285427D01*
X144985330Y-126287206D01*
X144995849Y-126286976D01*
X144999960Y-126288664D01*
X145005231Y-126289696D01*
X145008597Y-126290863D01*
X145017416Y-126292082D01*
X145026394Y-126293840D01*
X145030054Y-126293829D01*
X145035031Y-126294517D01*
X145047565Y-126293777D01*
X145053401Y-126293759D01*
X145082702Y-126306954D01*
X145098346Y-126307430D01*
X145143585Y-126323122D01*
X145191313Y-126329728D01*
X145211750Y-126328525D01*
X145231478Y-126333990D01*
X145253692Y-126335635D01*
X145269002Y-126333751D01*
X145284050Y-126337154D01*
X145305162Y-126337704D01*
X145313451Y-126336278D01*
X145321699Y-126337919D01*
X145352782Y-126337919D01*
X145359673Y-126340689D01*
X145376194Y-126343795D01*
X145409855Y-126343441D01*
X145442231Y-126352653D01*
X145458014Y-126353932D01*
X145495364Y-126349599D01*
X145532490Y-126355584D01*
X145547543Y-126355034D01*
X145578205Y-126347762D01*
X145609653Y-126349702D01*
X145713915Y-126335569D01*
X145769750Y-126316377D01*
X145828344Y-126309097D01*
X145920858Y-126278443D01*
X145978614Y-126245656D01*
X146041398Y-126223991D01*
X146122164Y-126176817D01*
X146173759Y-126131108D01*
X146232556Y-126095143D01*
X146301575Y-126031447D01*
X146343950Y-125973223D01*
X146395373Y-125922811D01*
X146450256Y-125842412D01*
X146473534Y-125787756D01*
X146507516Y-125739024D01*
X146548814Y-125644674D01*
X146559914Y-125594146D01*
X146582271Y-125547495D01*
X146609989Y-125439194D01*
X146612337Y-125395925D01*
X146625615Y-125354679D01*
X146630405Y-125313246D01*
X146631089Y-125312010D01*
X146634741Y-125279670D01*
X146645038Y-125253841D01*
X146644786Y-125234955D01*
X146655195Y-125201236D01*
X146653731Y-125185583D01*
X146661157Y-125153673D01*
X146658101Y-125135209D01*
X146661276Y-125116769D01*
X146660911Y-125102636D01*
X146656790Y-125084395D01*
X146658889Y-125065810D01*
X146657793Y-125052779D01*
X146651737Y-125031739D01*
X146652708Y-125009866D01*
X146650881Y-124997937D01*
X146650047Y-124995639D01*
X146651211Y-124986538D01*
X146641252Y-124949904D01*
X146641186Y-124948064D01*
X146638628Y-124937237D01*
X146636602Y-124932799D01*
X146634999Y-124926905D01*
X146630880Y-124865251D01*
X146606614Y-124816200D01*
X146605600Y-124810718D01*
X146601835Y-124804916D01*
X146586213Y-124747451D01*
X146546748Y-124668153D01*
X146538579Y-124657587D01*
X146534545Y-124644856D01*
X146492510Y-124568495D01*
X146483646Y-124557962D01*
X146478932Y-124545030D01*
X146434329Y-124471606D01*
X146424765Y-124461179D01*
X146419341Y-124448112D01*
X146372167Y-124377625D01*
X146360712Y-124366187D01*
X146353762Y-124351565D01*
X146302916Y-124283281D01*
X146284701Y-124266834D01*
X146272505Y-124245537D01*
X146216885Y-124181658D01*
X146197385Y-124166585D01*
X146183535Y-124146197D01*
X146123141Y-124086723D01*
X146102694Y-124073287D01*
X146087446Y-124054152D01*
X146036665Y-124011240D01*
X146024861Y-123991164D01*
X146017334Y-123982718D01*
X145999554Y-123969297D01*
X145986959Y-123950918D01*
X145979067Y-123943210D01*
X145949614Y-123924026D01*
X145926687Y-123897376D01*
X145909801Y-123884162D01*
X145880566Y-123869398D01*
X145856789Y-123846878D01*
X145836962Y-123834395D01*
X145836636Y-123834270D01*
X145822767Y-123825003D01*
X145796711Y-123794897D01*
X145717413Y-123733222D01*
X145694192Y-123721581D01*
X145675664Y-123703378D01*
X145588291Y-123646108D01*
X145574642Y-123640595D01*
X145563679Y-123630767D01*
X145471898Y-123576432D01*
X145471562Y-123576314D01*
X145471296Y-123576076D01*
X145378047Y-123521010D01*
X145376561Y-123520489D01*
X145375383Y-123519446D01*
X145297827Y-123474155D01*
X145247074Y-123440875D01*
X145189718Y-123394990D01*
X145127863Y-123362914D01*
X145072482Y-123320635D01*
X145018945Y-123306431D01*
X144969769Y-123280930D01*
X144900344Y-123274966D01*
X144833002Y-123257100D01*
X144778105Y-123264465D01*
X144722913Y-123259724D01*
X144682480Y-123272543D01*
X144622311Y-123271042D01*
X144605426Y-123273965D01*
X144602573Y-123275064D01*
X144601143Y-123275077D01*
X144592901Y-123278578D01*
X144580670Y-123278759D01*
X144478297Y-123322946D01*
X144374228Y-123363043D01*
X144364948Y-123371871D01*
X144353191Y-123376946D01*
X144300971Y-123430732D01*
X144280441Y-123442048D01*
X144246052Y-123460620D01*
X144214724Y-123486557D01*
X144177685Y-123503360D01*
X144143907Y-123527589D01*
X144101958Y-123572419D01*
X144089959Y-123566881D01*
X144050578Y-123557408D01*
X144015077Y-123537910D01*
X143919888Y-123507849D01*
X143686336Y-123419923D01*
X143664874Y-123416378D01*
X143645671Y-123406165D01*
X143372533Y-123323929D01*
X143327793Y-123319616D01*
X143285547Y-123304280D01*
X142997726Y-123260224D01*
X142913533Y-123263969D01*
X142829542Y-123257020D01*
X142521161Y-123292265D01*
X142451780Y-123314501D01*
X142379705Y-123325147D01*
X142334920Y-123351953D01*
X142285217Y-123367882D01*
X142255564Y-123393003D01*
X142220190Y-123368263D01*
X142205462Y-123365006D01*
X142192715Y-123356952D01*
X142001813Y-123283528D01*
X141940430Y-123272939D01*
X141882309Y-123250531D01*
X141819537Y-123252083D01*
X141757655Y-123241408D01*
X141696889Y-123255116D01*
X141634620Y-123256656D01*
X141577220Y-123282112D01*
X141515963Y-123295931D01*
X141465067Y-123331851D01*
X141408129Y-123357102D01*
X141278903Y-123448147D01*
X141243836Y-123484992D01*
X141201201Y-123512725D01*
X141130432Y-123581768D01*
X141065126Y-123549115D01*
X141003791Y-123532318D01*
X140946820Y-123504070D01*
X140838153Y-123474701D01*
X140821168Y-123473551D01*
X140805536Y-123466804D01*
X140701895Y-123444594D01*
X140512767Y-123391321D01*
X140481106Y-123388839D01*
X140451521Y-123377299D01*
X140269431Y-123344995D01*
X140257864Y-123345235D01*
X140246942Y-123341420D01*
X140064942Y-123315825D01*
X139850601Y-123281529D01*
X139770384Y-123284553D01*
X139762197Y-123283715D01*
X139716669Y-123270280D01*
X139664440Y-123275825D01*
X139612312Y-123269412D01*
X139542413Y-123288779D01*
X139504377Y-123292817D01*
X139457920Y-123283576D01*
X139439324Y-123278732D01*
X139427978Y-123273251D01*
X139415545Y-123272538D01*
X139355663Y-123256939D01*
X139305737Y-123254016D01*
X139243425Y-123262662D01*
X139180620Y-123259058D01*
X139121909Y-123279522D01*
X139060323Y-123288067D01*
X139006062Y-123319901D01*
X138946660Y-123340606D01*
X138908985Y-123362768D01*
X138883585Y-123376217D01*
X138834100Y-123399780D01*
X138805860Y-123420839D01*
X138772863Y-123433182D01*
X138755652Y-123443836D01*
X138607047Y-123342588D01*
X138588052Y-123334518D01*
X138572677Y-123320751D01*
X138474636Y-123286336D01*
X138379007Y-123245710D01*
X138358370Y-123245524D01*
X138338897Y-123238688D01*
X138297781Y-123232842D01*
X138223073Y-123236963D01*
X138148638Y-123229336D01*
X138100529Y-123243723D01*
X138050393Y-123246489D01*
X137982949Y-123278886D01*
X137926637Y-123295726D01*
X137853728Y-123284526D01*
X137734506Y-123265003D01*
X137731391Y-123265734D01*
X137728229Y-123265248D01*
X137610887Y-123293998D01*
X137493288Y-123321581D01*
X137490691Y-123323447D01*
X137487582Y-123324209D01*
X137355419Y-123385886D01*
X137337094Y-123399330D01*
X137298596Y-123372922D01*
X137204804Y-123304958D01*
X137196699Y-123303023D01*
X137189827Y-123298309D01*
X137076497Y-123274325D01*
X136963812Y-123247421D01*
X136955582Y-123248735D01*
X136947431Y-123247010D01*
X136833535Y-123268224D01*
X136719147Y-123286489D01*
X136712049Y-123290851D01*
X136703855Y-123292377D01*
X136630430Y-123321747D01*
X136552309Y-123372577D01*
X136469567Y-123415486D01*
X136410830Y-123462477D01*
X136405604Y-123468685D01*
X136398498Y-123472600D01*
X136396200Y-123474535D01*
X136324954Y-123504133D01*
X136291502Y-123537655D01*
X136250929Y-123562082D01*
X136243331Y-123572369D01*
X136235539Y-123562040D01*
X136210968Y-123527642D01*
X136136269Y-123457467D01*
X136066557Y-123382329D01*
X136046483Y-123373119D01*
X136030389Y-123358000D01*
X135934527Y-123321755D01*
X135841361Y-123279012D01*
X135819291Y-123278185D01*
X135798636Y-123270376D01*
X135696200Y-123273575D01*
X135593770Y-123269738D01*
X135573065Y-123277420D01*
X135550992Y-123278109D01*
X135457567Y-123320270D01*
X135435466Y-123328470D01*
X135397522Y-123338457D01*
X135397115Y-123338656D01*
X135396661Y-123338684D01*
X135296805Y-123365117D01*
X135221433Y-123402003D01*
X135141962Y-123428954D01*
X135065601Y-123473011D01*
X134977507Y-123550221D01*
X134887781Y-123625484D01*
X134884545Y-123631697D01*
X134879273Y-123636318D01*
X134827424Y-123741379D01*
X134773338Y-123845234D01*
X134752780Y-123915720D01*
X134752281Y-123921410D01*
X134744506Y-123914341D01*
X134687682Y-123880163D01*
X134673175Y-123867156D01*
X134668415Y-123865481D01*
X134545939Y-123757704D01*
X134500504Y-123731368D01*
X134462198Y-123695433D01*
X134283044Y-123583828D01*
X134275158Y-123580853D01*
X134268863Y-123575249D01*
X134110054Y-123481981D01*
X133964351Y-123376470D01*
X133956518Y-123372874D01*
X133950488Y-123366710D01*
X133844200Y-123321308D01*
X133739183Y-123273095D01*
X133730568Y-123272770D01*
X133722639Y-123269383D01*
X133607092Y-123268113D01*
X133552211Y-123266042D01*
X133544924Y-123264593D01*
X133513784Y-123264593D01*
X133491594Y-123263756D01*
X133485411Y-123266048D01*
X133480915Y-123265385D01*
X133475807Y-123266669D01*
X133474889Y-123266659D01*
X133427898Y-123275470D01*
X133406271Y-123284151D01*
X133375862Y-123291796D01*
X133269616Y-123312929D01*
X133256235Y-123321870D01*
X133240627Y-123325794D01*
X133153675Y-123390398D01*
X133063607Y-123450580D01*
X133059993Y-123455989D01*
X133046835Y-123460976D01*
X132976349Y-123505032D01*
X132975595Y-123505741D01*
X132974624Y-123506113D01*
X132885305Y-123590696D01*
X132795903Y-123674815D01*
X132795477Y-123675761D01*
X132794723Y-123676475D01*
X132744798Y-123746962D01*
X132704272Y-123837728D01*
X132656745Y-123925039D01*
X132654079Y-123950145D01*
X132651446Y-123956042D01*
X132604190Y-123885158D01*
X132564161Y-123845045D01*
X132533610Y-123797313D01*
X132477493Y-123758196D01*
X132429177Y-123709779D01*
X132376844Y-123688038D01*
X132330353Y-123655631D01*
X132283362Y-123635074D01*
X132241062Y-123625790D01*
X132219137Y-123614560D01*
X132179517Y-123562040D01*
X132154946Y-123527642D01*
X132080247Y-123457467D01*
X132010535Y-123382329D01*
X131990461Y-123373119D01*
X131974367Y-123358000D01*
X131878505Y-123321755D01*
X131785339Y-123279012D01*
X131763269Y-123278185D01*
X131742614Y-123270376D01*
X131640178Y-123273575D01*
X131537748Y-123269738D01*
X131517043Y-123277420D01*
X131494970Y-123278109D01*
X131401545Y-123320270D01*
X131379444Y-123328470D01*
X131341500Y-123338457D01*
X131341093Y-123338656D01*
X131340639Y-123338684D01*
X131240783Y-123365117D01*
X131165411Y-123402003D01*
X131085940Y-123428954D01*
X131009579Y-123473011D01*
X130921485Y-123550221D01*
X130831759Y-123625484D01*
X130828523Y-123631697D01*
X130823251Y-123636318D01*
X130771402Y-123741379D01*
X130717316Y-123845234D01*
X130696758Y-123915720D01*
X130694000Y-123947183D01*
X130682235Y-123976494D01*
X130673424Y-124023486D01*
X130673563Y-124036165D01*
X130669307Y-124048107D01*
X130654620Y-124147962D01*
X130655288Y-124161222D01*
X130651349Y-124173901D01*
X130643804Y-124245587D01*
X130629979Y-124304335D01*
X130623565Y-124307829D01*
X130602917Y-124333400D01*
X130575813Y-124351994D01*
X130571181Y-124359114D01*
X130557859Y-124366208D01*
X130534729Y-124373200D01*
X130465271Y-124430088D01*
X130390010Y-124479058D01*
X130370174Y-124507975D01*
X130343049Y-124530191D01*
X130300646Y-124609332D01*
X130249857Y-124683373D01*
X130242597Y-124717676D01*
X130226037Y-124748585D01*
X130217148Y-124837932D01*
X130198559Y-124925769D01*
X130169938Y-124925769D01*
X130156874Y-124872271D01*
X129780261Y-123329951D01*
X129780260Y-123329949D01*
X129433320Y-121909144D01*
X129086378Y-120488334D01*
X129086377Y-120488333D01*
X128739436Y-119067526D01*
X128739435Y-119067524D01*
X128418011Y-117751212D01*
X128416298Y-117733779D01*
X128403204Y-117690577D01*
X128392495Y-117646719D01*
X128385099Y-117630838D01*
X128384338Y-117628327D01*
X128383180Y-117619228D01*
X128366219Y-117568544D01*
X128350718Y-117517398D01*
X128346397Y-117509308D01*
X128329598Y-117459111D01*
X128322988Y-117429689D01*
X128309799Y-117399944D01*
X128299474Y-117369090D01*
X128284510Y-117342912D01*
X128237001Y-117235765D01*
X128220454Y-117192592D01*
X128211697Y-117178698D01*
X128205041Y-117163686D01*
X128178415Y-117125889D01*
X128088645Y-116983451D01*
X128055926Y-116931192D01*
X128055271Y-116930497D01*
X128054765Y-116929694D01*
X128012507Y-116885117D01*
X127952139Y-116821057D01*
X127947457Y-116809971D01*
X127865796Y-116729433D01*
X127830874Y-116692375D01*
X127821335Y-116685584D01*
X127812997Y-116677360D01*
X127770459Y-116649361D01*
X127677030Y-116582842D01*
X127665301Y-116580145D01*
X127663917Y-116579234D01*
X127653591Y-116565596D01*
X127558886Y-116510102D01*
X127520461Y-116484810D01*
X127505026Y-116478541D01*
X127490651Y-116470118D01*
X127447186Y-116455051D01*
X127345488Y-116413748D01*
X127328381Y-116413867D01*
X127294331Y-116402063D01*
X127285183Y-116394508D01*
X127175376Y-116360827D01*
X127127106Y-116344094D01*
X127115670Y-116342513D01*
X127104633Y-116339128D01*
X127053806Y-116333963D01*
X126940033Y-116318238D01*
X126928554Y-116321235D01*
X126750601Y-116303151D01*
X126708109Y-116296180D01*
X126688511Y-116296842D01*
X126669002Y-116294859D01*
X126626133Y-116298947D01*
X126531230Y-116302150D01*
X126503230Y-116300055D01*
X126468870Y-116304255D01*
X126434281Y-116305423D01*
X126406947Y-116311826D01*
X126276621Y-116327758D01*
X126236533Y-116329809D01*
X126214680Y-116335330D01*
X126192309Y-116338065D01*
X126154184Y-116350614D01*
X125976469Y-116395514D01*
X125922993Y-116407652D01*
X125915896Y-116410818D01*
X125908362Y-116412721D01*
X125858851Y-116436262D01*
X125763041Y-116478996D01*
X125753236Y-116479552D01*
X125647999Y-116530308D01*
X125599536Y-116551924D01*
X125591739Y-116557443D01*
X125583135Y-116561592D01*
X125540752Y-116593527D01*
X125445384Y-116661022D01*
X125440150Y-116669330D01*
X125420198Y-116684363D01*
X125396349Y-116692531D01*
X125319935Y-116759911D01*
X125289503Y-116782841D01*
X125273138Y-116801175D01*
X125254699Y-116817434D01*
X125231577Y-116847736D01*
X125163744Y-116923731D01*
X125155433Y-116947527D01*
X125114975Y-117000549D01*
X125090808Y-117017686D01*
X125038884Y-117100272D01*
X125018388Y-117127132D01*
X125005672Y-117153094D01*
X124990287Y-117177564D01*
X124978230Y-117209123D01*
X124935319Y-117296734D01*
X124933461Y-117326302D01*
X124896591Y-117422808D01*
X124883768Y-117438133D01*
X124851744Y-117540193D01*
X124836323Y-117580556D01*
X124833056Y-117599750D01*
X124827228Y-117618324D01*
X124822585Y-117661273D01*
X124804635Y-117766730D01*
X124809076Y-117786214D01*
X124781126Y-118044735D01*
X124773851Y-118097274D01*
X124774413Y-118106824D01*
X124773384Y-118116340D01*
X124778081Y-118169186D01*
X124848196Y-119361133D01*
X124922540Y-120624992D01*
X124996885Y-121888851D01*
X125071229Y-123152709D01*
X125152539Y-124534967D01*
X125220340Y-125687584D01*
X125294263Y-126944289D01*
X125369326Y-128220363D01*
X125308596Y-128829638D01*
X125138945Y-129380523D01*
X124870457Y-129877511D01*
X124514258Y-130309903D01*
X124081863Y-130666105D01*
X123584870Y-130934595D01*
X123033990Y-131104245D01*
X122406079Y-131166833D01*
X111895742Y-131166833D01*
X111267833Y-131104245D01*
X110716952Y-130934595D01*
X110219956Y-130666103D01*
X109787567Y-130309917D01*
X109431366Y-129877523D01*
X109162877Y-129380532D01*
X108993227Y-128829649D01*
X108930638Y-128201738D01*
X108930638Y-81255382D01*
X108934654Y-81094561D01*
X108945959Y-80944121D01*
X108964543Y-80796253D01*
X108986114Y-80674242D01*
X109162878Y-80100256D01*
X109431366Y-79603268D01*
X109787568Y-79170873D01*
X110219962Y-78814672D01*
X110716948Y-78546185D01*
X111267834Y-78376535D01*
X111895745Y-78313946D01*
X127763352Y-78313946D01*
X128776488Y-78400615D01*
X128776488Y-78400615D01*
G37*
X128776488Y-78400615D02*
X129713848Y-78644694D01*
X130589676Y-79035854D01*
X131389355Y-79561390D01*
X132097560Y-80208156D01*
X132698876Y-80962577D01*
X133178161Y-81810938D01*
X133527401Y-82758094D01*
X133903099Y-84228912D01*
X134311253Y-85826791D01*
X134697856Y-87340299D01*
X135087742Y-88866661D01*
X135473116Y-90375365D01*
X135833272Y-91785341D01*
X136231664Y-93344999D01*
X136616125Y-94850123D01*
X136619565Y-94875597D01*
X136631565Y-94910569D01*
X136640718Y-94946400D01*
X136651819Y-94969591D01*
X136731204Y-95200936D01*
X136750835Y-95258929D01*
X136751500Y-95260083D01*
X136751932Y-95261342D01*
X136782700Y-95314228D01*
X136842834Y-95418587D01*
X136843360Y-95422286D01*
X136905840Y-95527932D01*
X136935256Y-95578981D01*
X136937646Y-95581711D01*
X136939496Y-95584839D01*
X136978853Y-95628780D01*
X137045380Y-95704769D01*
X137045450Y-95704963D01*
X137047822Y-95707559D01*
X137059654Y-95721074D01*
X137060597Y-95721540D01*
X137128484Y-95795836D01*
X137168152Y-95840124D01*
X137170697Y-95842035D01*
X137172840Y-95844380D01*
X137220633Y-95879527D01*
X137319175Y-95953514D01*
X137322346Y-95954328D01*
X137382653Y-95998678D01*
X137389576Y-96003854D01*
X136937392Y-96191155D01*
X136196155Y-96932392D01*
X135795000Y-97900866D01*
X135795000Y-98949134D01*
X136196155Y-99917608D01*
X136937392Y-100658845D01*
X137905866Y-101060000D01*
X138954134Y-101060000D01*
X139922608Y-100658845D01*
X140663845Y-99917608D01*
X141065000Y-98949134D01*
X141065000Y-97900866D01*
X140663845Y-96932392D01*
X139922608Y-96191155D01*
X139470423Y-96003854D01*
X139477339Y-95998683D01*
X139537652Y-95954329D01*
X139540821Y-95953515D01*
X139639279Y-95879591D01*
X139687158Y-95844381D01*
X139689305Y-95842031D01*
X139691844Y-95840125D01*
X139731430Y-95795929D01*
X139799404Y-95721538D01*
X139800347Y-95721072D01*
X139812185Y-95707550D01*
X139814548Y-95704964D01*
X139814618Y-95704771D01*
X139881176Y-95628745D01*
X139920502Y-95584840D01*
X139922351Y-95581713D01*
X139924745Y-95578979D01*
X139954187Y-95527884D01*
X140016638Y-95422288D01*
X140017165Y-95418588D01*
X140077335Y-95314165D01*
X140108065Y-95261344D01*
X140108497Y-95260084D01*
X140109164Y-95258927D01*
X140128798Y-95200925D01*
X140208047Y-94969980D01*
X140218995Y-94947185D01*
X140228294Y-94910977D01*
X140240434Y-94875600D01*
X140243819Y-94850529D01*
X140638354Y-93314363D01*
X140638354Y-93314362D01*
X141026599Y-91802688D01*
X141026599Y-91802687D01*
X141383727Y-90412165D01*
X141383729Y-90412162D01*
X141803086Y-88779338D01*
X141803086Y-88779335D01*
X142191330Y-87267665D01*
X142191330Y-87267664D01*
X142429338Y-86340950D01*
X147283600Y-86340950D01*
X147283600Y-87081510D01*
X147380273Y-87314899D01*
X147558902Y-87493527D01*
X147792291Y-87590200D01*
X148532850Y-87590200D01*
X148691600Y-87431450D01*
X148691600Y-86182200D01*
X147442350Y-86182200D01*
X147283600Y-86340950D01*
X142429338Y-86340950D01*
X142569594Y-85794850D01*
X142766316Y-85028890D01*
X147283600Y-85028890D01*
X147283600Y-85769450D01*
X147442350Y-85928200D01*
X148691600Y-85928200D01*
X148691600Y-84678950D01*
X148532850Y-84520200D01*
X147792291Y-84520200D01*
X147558902Y-84616873D01*
X147380273Y-84795501D01*
X147283600Y-85028890D01*
X142766316Y-85028890D01*
X142951757Y-84306856D01*
X143334266Y-82817514D01*
X143667981Y-81844423D01*
X144137325Y-80984660D01*
X144735751Y-80221945D01*
X145446591Y-79569175D01*
X146252623Y-79039517D01*
X147136338Y-78645902D01*
X148080540Y-78400772D01*
X149096621Y-78313946D01*
X164964254Y-78313946D01*
X165592165Y-78376535D01*
X166143052Y-78546185D01*
X166640040Y-78814675D01*
X167072435Y-79170876D01*
X167428634Y-79603268D01*
X167697124Y-80100263D01*
X167866773Y-80651141D01*
X167929362Y-81279053D01*
X167929363Y-82653251D01*
X167929362Y-82653256D01*
X167929363Y-84121557D01*
X167929362Y-84121562D01*
X167929363Y-85589864D01*
X167929362Y-85589869D01*
X167929363Y-87058171D01*
X167929362Y-87058176D01*
X167929363Y-88526477D01*
X167929362Y-88526482D01*
X167929362Y-88960226D01*
X167740000Y-88922560D01*
X164940000Y-88922560D01*
X164744400Y-88961467D01*
X164744400Y-86981417D01*
X164775710Y-86950107D01*
X165009400Y-86385930D01*
X165009400Y-85775270D01*
X164775710Y-85211093D01*
X164744400Y-85179783D01*
X164744400Y-82548076D01*
X164769279Y-82423000D01*
X164744400Y-82297924D01*
X164744400Y-82297920D01*
X164670713Y-81927471D01*
X164390018Y-81507382D01*
X164283979Y-81436529D01*
X163851271Y-81003821D01*
X163780418Y-80897782D01*
X163360329Y-80617087D01*
X162989880Y-80543400D01*
X162989875Y-80543400D01*
X162864800Y-80518521D01*
X162739725Y-80543400D01*
X158773474Y-80543400D01*
X158648399Y-80518521D01*
X158523324Y-80543400D01*
X152093276Y-80543400D01*
X151968200Y-80518521D01*
X151843124Y-80543400D01*
X151843120Y-80543400D01*
X151472671Y-80617087D01*
X151052582Y-80897782D01*
X150981729Y-81003821D01*
X150574419Y-81411131D01*
X150468383Y-81481982D01*
X150397532Y-81588018D01*
X150397530Y-81588020D01*
X150187688Y-81902071D01*
X150089121Y-82397600D01*
X150114001Y-82522680D01*
X150114000Y-84529633D01*
X150093603Y-84632178D01*
X150078298Y-84616873D01*
X149844909Y-84520200D01*
X149104350Y-84520200D01*
X148945600Y-84678950D01*
X148945600Y-85928200D01*
X148965600Y-85928200D01*
X148965600Y-86182200D01*
X148945600Y-86182200D01*
X148945600Y-87431450D01*
X149104350Y-87590200D01*
X149844909Y-87590200D01*
X150078298Y-87493527D01*
X150256927Y-87314899D01*
X150312739Y-87180156D01*
X150489093Y-87356510D01*
X151053270Y-87590200D01*
X151663930Y-87590200D01*
X152228107Y-87356510D01*
X152659910Y-86924707D01*
X152891189Y-86366350D01*
X153328800Y-86366350D01*
X153328800Y-87106910D01*
X153425473Y-87340299D01*
X153604102Y-87518927D01*
X153837491Y-87615600D01*
X154578050Y-87615600D01*
X154736800Y-87456850D01*
X154736800Y-86207600D01*
X153487550Y-86207600D01*
X153328800Y-86366350D01*
X152891189Y-86366350D01*
X152893600Y-86360530D01*
X152893600Y-85749870D01*
X152659910Y-85185693D01*
X152628600Y-85154383D01*
X152628600Y-85054290D01*
X153328800Y-85054290D01*
X153328800Y-85794850D01*
X153487550Y-85953600D01*
X154736800Y-85953600D01*
X154736800Y-84704350D01*
X154578050Y-84545600D01*
X153837491Y-84545600D01*
X153604102Y-84642273D01*
X153425473Y-84820901D01*
X153328800Y-85054290D01*
X152628600Y-85054290D01*
X152628600Y-85009782D01*
X152654000Y-84882088D01*
X152654000Y-84882084D01*
X152678879Y-84757009D01*
X152654000Y-84631934D01*
X152654000Y-83083400D01*
X156144426Y-83083400D01*
X156159200Y-83157675D01*
X156159200Y-84555034D01*
X156138803Y-84657578D01*
X156123498Y-84642273D01*
X155890109Y-84545600D01*
X155149550Y-84545600D01*
X154990800Y-84704350D01*
X154990800Y-85953600D01*
X155010800Y-85953600D01*
X155010800Y-86207600D01*
X154990800Y-86207600D01*
X154990800Y-87456850D01*
X155149550Y-87615600D01*
X155890109Y-87615600D01*
X156123498Y-87518927D01*
X156302127Y-87340299D01*
X156357939Y-87205556D01*
X156534293Y-87381910D01*
X157098470Y-87615600D01*
X157709130Y-87615600D01*
X158273307Y-87381910D01*
X158705110Y-86950107D01*
X158938800Y-86385930D01*
X158938800Y-86366350D01*
X159399400Y-86366350D01*
X159399400Y-87106910D01*
X159496073Y-87340299D01*
X159674702Y-87518927D01*
X159908091Y-87615600D01*
X160648650Y-87615600D01*
X160807400Y-87456850D01*
X160807400Y-86207600D01*
X159558150Y-86207600D01*
X159399400Y-86366350D01*
X158938800Y-86366350D01*
X158938800Y-85775270D01*
X158705110Y-85211093D01*
X158673800Y-85179783D01*
X158673800Y-85054290D01*
X159399400Y-85054290D01*
X159399400Y-85794850D01*
X159558150Y-85953600D01*
X160807400Y-85953600D01*
X160807400Y-84704350D01*
X160648650Y-84545600D01*
X159908091Y-84545600D01*
X159674702Y-84642273D01*
X159496073Y-84820901D01*
X159399400Y-85054290D01*
X158673800Y-85054290D01*
X158673800Y-85035182D01*
X158699200Y-84907488D01*
X158699200Y-84907484D01*
X158724079Y-84782409D01*
X158699200Y-84657334D01*
X158699200Y-83558650D01*
X159174451Y-83083400D01*
X162204401Y-83083400D01*
X162204400Y-84652575D01*
X162194098Y-84642273D01*
X161960709Y-84545600D01*
X161220150Y-84545600D01*
X161061400Y-84704350D01*
X161061400Y-85953600D01*
X161081400Y-85953600D01*
X161081400Y-86207600D01*
X161061400Y-86207600D01*
X161061400Y-87456850D01*
X161220150Y-87615600D01*
X161960709Y-87615600D01*
X162194098Y-87518927D01*
X162204401Y-87508624D01*
X162204400Y-90579325D01*
X162179521Y-90704400D01*
X162204400Y-90829475D01*
X162204400Y-90829479D01*
X162278087Y-91199928D01*
X162558782Y-91620018D01*
X162664821Y-91690871D01*
X163630419Y-92656470D01*
X163944471Y-92866313D01*
X164440000Y-92964879D01*
X164935529Y-92866313D01*
X165182202Y-92701491D01*
X165320182Y-93034603D01*
X165625397Y-93339818D01*
X166024180Y-93505000D01*
X166455820Y-93505000D01*
X166854603Y-93339818D01*
X167159818Y-93034603D01*
X167325000Y-92635820D01*
X167325000Y-92204180D01*
X167159818Y-91805397D01*
X166854603Y-91500182D01*
X166455820Y-91335000D01*
X166024180Y-91335000D01*
X165695338Y-91471211D01*
X165644860Y-91217440D01*
X167740000Y-91217440D01*
X167929363Y-91179774D01*
X167929363Y-91463091D01*
X167929362Y-91463096D01*
X167929363Y-92931397D01*
X167929362Y-92931402D01*
X167929363Y-94399704D01*
X167929362Y-94399709D01*
X167929363Y-95868011D01*
X167929362Y-95868016D01*
X167929363Y-96910226D01*
X167740000Y-96872560D01*
X165468135Y-96872560D01*
X165538157Y-96767765D01*
X165587440Y-96520000D01*
X165587440Y-96251861D01*
X165675397Y-96339818D01*
X166074180Y-96505000D01*
X166505820Y-96505000D01*
X166904603Y-96339818D01*
X167209818Y-96034603D01*
X167375000Y-95635820D01*
X167375000Y-95204180D01*
X167209818Y-94805397D01*
X166904603Y-94500182D01*
X166505820Y-94335000D01*
X166074180Y-94335000D01*
X165699144Y-94490345D01*
X165636313Y-94174471D01*
X165355618Y-93754382D01*
X164935529Y-93473687D01*
X164565080Y-93400000D01*
X154375076Y-93400000D01*
X154250000Y-93375121D01*
X154124924Y-93400000D01*
X154124920Y-93400000D01*
X153754471Y-93473687D01*
X153334382Y-93754382D01*
X153263531Y-93860418D01*
X147780419Y-99343531D01*
X147674383Y-99414382D01*
X147603532Y-99520418D01*
X147603530Y-99520420D01*
X147393688Y-99834471D01*
X147295121Y-100330000D01*
X147320001Y-100455080D01*
X147320000Y-105518949D01*
X144253950Y-108585000D01*
X134511051Y-108585000D01*
X130175000Y-104248950D01*
X130175000Y-93470074D01*
X130199879Y-93344999D01*
X130175000Y-93219924D01*
X130175000Y-93219920D01*
X130101313Y-92849471D01*
X129922914Y-92582479D01*
X129891470Y-92535419D01*
X129891469Y-92535418D01*
X129820618Y-92429382D01*
X129714582Y-92358531D01*
X123924071Y-86568021D01*
X123853218Y-86461982D01*
X123433129Y-86181287D01*
X123412440Y-86177172D01*
X123412440Y-84627600D01*
X123363157Y-84379835D01*
X123222809Y-84169791D01*
X123012765Y-84029443D01*
X122765000Y-83980160D01*
X117265000Y-83980160D01*
X117017235Y-84029443D01*
X116807191Y-84169791D01*
X116666843Y-84379835D01*
X116617560Y-84627600D01*
X116617560Y-86172119D01*
X116571471Y-86181287D01*
X116532091Y-86207600D01*
X116265202Y-86385930D01*
X116151382Y-86461982D01*
X116080531Y-86568018D01*
X112347419Y-90301131D01*
X112241383Y-90371982D01*
X112170532Y-90478018D01*
X112170530Y-90478020D01*
X111960688Y-90792071D01*
X111862121Y-91287600D01*
X111887001Y-91412680D01*
X111887000Y-107576125D01*
X111862121Y-107701200D01*
X111887000Y-107826275D01*
X111887000Y-107826279D01*
X111960687Y-108196728D01*
X112241382Y-108616818D01*
X112347421Y-108687671D01*
X116617560Y-112957812D01*
X116617560Y-115727600D01*
X116666843Y-115975365D01*
X116807191Y-116185409D01*
X117017235Y-116325757D01*
X117265000Y-116375040D01*
X122765000Y-116375040D01*
X123012765Y-116325757D01*
X123222809Y-116185409D01*
X123363157Y-115975365D01*
X123412440Y-115727600D01*
X123412440Y-113828233D01*
X123649713Y-113473129D01*
X123748280Y-112977600D01*
X123649713Y-112482071D01*
X123412440Y-112126967D01*
X123412440Y-110227600D01*
X123363157Y-109979835D01*
X123222809Y-109769791D01*
X123012765Y-109629443D01*
X122765000Y-109580160D01*
X117265000Y-109580160D01*
X117017235Y-109629443D01*
X116935745Y-109683894D01*
X114427000Y-107175150D01*
X114427000Y-100463350D01*
X117380000Y-100463350D01*
X117380000Y-102303909D01*
X117476673Y-102537298D01*
X117655301Y-102715927D01*
X117888690Y-102812600D01*
X119729250Y-102812600D01*
X119888000Y-102653850D01*
X119888000Y-100304600D01*
X120142000Y-100304600D01*
X120142000Y-102653850D01*
X120300750Y-102812600D01*
X122141310Y-102812600D01*
X122374699Y-102715927D01*
X122553327Y-102537298D01*
X122650000Y-102303909D01*
X122650000Y-100463350D01*
X122491250Y-100304600D01*
X120142000Y-100304600D01*
X119888000Y-100304600D01*
X117538750Y-100304600D01*
X117380000Y-100463350D01*
X114427000Y-100463350D01*
X114427000Y-98051291D01*
X117380000Y-98051291D01*
X117380000Y-99891850D01*
X117538750Y-100050600D01*
X119888000Y-100050600D01*
X119888000Y-97701350D01*
X120142000Y-97701350D01*
X120142000Y-100050600D01*
X122491250Y-100050600D01*
X122650000Y-99891850D01*
X122650000Y-98051291D01*
X122553327Y-97817902D01*
X122374699Y-97639273D01*
X122141310Y-97542600D01*
X120300750Y-97542600D01*
X120142000Y-97701350D01*
X119888000Y-97701350D01*
X119729250Y-97542600D01*
X117888690Y-97542600D01*
X117655301Y-97639273D01*
X117476673Y-97817902D01*
X117380000Y-98051291D01*
X114427000Y-98051291D01*
X114427000Y-91813650D01*
X116617560Y-89623091D01*
X116617560Y-90127600D01*
X116666843Y-90375365D01*
X116807191Y-90585409D01*
X117017235Y-90725757D01*
X117265000Y-90775040D01*
X122765000Y-90775040D01*
X123012765Y-90725757D01*
X123222809Y-90585409D01*
X123363157Y-90375365D01*
X123412440Y-90127600D01*
X123412440Y-89648490D01*
X127635000Y-93871051D01*
X127635001Y-104649920D01*
X127610121Y-104775000D01*
X127708688Y-105270529D01*
X127918530Y-105584580D01*
X127918532Y-105584582D01*
X127989383Y-105690618D01*
X128095419Y-105761469D01*
X132998531Y-110664582D01*
X133069382Y-110770618D01*
X133175418Y-110841469D01*
X133175419Y-110841470D01*
X133489470Y-111051313D01*
X133571899Y-111067709D01*
X133859920Y-111125000D01*
X133859923Y-111125000D01*
X133985000Y-111149879D01*
X134110076Y-111125000D01*
X144654925Y-111125000D01*
X144780000Y-111149879D01*
X144905075Y-111125000D01*
X144905080Y-111125000D01*
X145275529Y-111051313D01*
X145695618Y-110770618D01*
X145766471Y-110664579D01*
X149399582Y-107031469D01*
X149505618Y-106960618D01*
X149608358Y-106806858D01*
X149786313Y-106540529D01*
X149803034Y-106456465D01*
X149860000Y-106170080D01*
X149860000Y-106170076D01*
X149884879Y-106045000D01*
X149860000Y-105919924D01*
X149860000Y-100856050D01*
X154776051Y-95940000D01*
X163292560Y-95940000D01*
X163292560Y-96520000D01*
X163341843Y-96767765D01*
X163482191Y-96977809D01*
X163692235Y-97118157D01*
X163940000Y-97167440D01*
X164411865Y-97167440D01*
X164341843Y-97272235D01*
X164292560Y-97520000D01*
X164292560Y-98520000D01*
X164341843Y-98767765D01*
X164482191Y-98977809D01*
X164692235Y-99118157D01*
X164940000Y-99167440D01*
X167740000Y-99167440D01*
X167929362Y-99129774D01*
X167929363Y-100272931D01*
X167929362Y-100272936D01*
X167929363Y-101741237D01*
X167929362Y-101741242D01*
X167929363Y-103209544D01*
X167929362Y-103209549D01*
X167929363Y-104677850D01*
X167929362Y-104677855D01*
X167929363Y-106146156D01*
X167929362Y-106146161D01*
X167929363Y-107614465D01*
X167929362Y-107614470D01*
X167929363Y-109082771D01*
X167929362Y-109082776D01*
X167929363Y-110551078D01*
X167929362Y-110551083D01*
X167929363Y-112019384D01*
X167929362Y-112019389D01*
X167929363Y-113487690D01*
X167929362Y-113487695D01*
X167929363Y-114955996D01*
X167929362Y-114956001D01*
X167929363Y-116424305D01*
X167929362Y-116424310D01*
X167929363Y-117892612D01*
X167929362Y-117892617D01*
X167929363Y-119360918D01*
X167929362Y-119360923D01*
X167929363Y-120829224D01*
X167929362Y-120829229D01*
X167929363Y-122297530D01*
X167929362Y-122297535D01*
X167929363Y-123765836D01*
X167929362Y-123765841D01*
X167929363Y-125234145D01*
X167929362Y-125234150D01*
X167929363Y-126702452D01*
X167929362Y-126702457D01*
X167929363Y-128225370D01*
X167925355Y-128386241D01*
X167914050Y-128536664D01*
X167895462Y-128684516D01*
X167873888Y-128806549D01*
X167697124Y-129380528D01*
X167428634Y-129877522D01*
X167072435Y-130309914D01*
X166640040Y-130666116D01*
X166143047Y-130934606D01*
X165592165Y-131104256D01*
X164964254Y-131166845D01*
X154453923Y-131166845D01*
X153826011Y-131104256D01*
X153275129Y-130934606D01*
X152778139Y-130666117D01*
X152345745Y-130309917D01*
X151989543Y-129877522D01*
X151721053Y-129380531D01*
X151551402Y-128829649D01*
X151491291Y-128226585D01*
X151590888Y-126956748D01*
X151590887Y-126956743D01*
X151680263Y-125817184D01*
X151779426Y-124552846D01*
X151888266Y-123165169D01*
X151888265Y-123165164D01*
X151984423Y-121939139D01*
X152086518Y-120637450D01*
X152086517Y-120637445D01*
X152176488Y-119490302D01*
X152279627Y-118175317D01*
X152284868Y-118116350D01*
X152284511Y-118113048D01*
X152284771Y-118109734D01*
X152277792Y-118050907D01*
X152249175Y-117786227D01*
X152253616Y-117766743D01*
X152235665Y-117661276D01*
X152231022Y-117618334D01*
X152225195Y-117599764D01*
X152221928Y-117580568D01*
X152206506Y-117540203D01*
X152174483Y-117438143D01*
X152161660Y-117422819D01*
X152124791Y-117326313D01*
X152122933Y-117296743D01*
X152080024Y-117209136D01*
X152067966Y-117177576D01*
X152052577Y-117153101D01*
X152039863Y-117127142D01*
X152019372Y-117100288D01*
X151967445Y-117017698D01*
X151943275Y-117000559D01*
X151902820Y-116947540D01*
X151894508Y-116923742D01*
X151826668Y-116847740D01*
X151803552Y-116817445D01*
X151785117Y-116801190D01*
X151768749Y-116782852D01*
X151738314Y-116759919D01*
X151661903Y-116692542D01*
X151638054Y-116684374D01*
X151618102Y-116669341D01*
X151612866Y-116661030D01*
X151517489Y-116593530D01*
X151475117Y-116561603D01*
X151466513Y-116557453D01*
X151458713Y-116551933D01*
X151410243Y-116530314D01*
X151305015Y-116479563D01*
X151295209Y-116479007D01*
X151199408Y-116436278D01*
X151149888Y-116412733D01*
X151142351Y-116410829D01*
X151135253Y-116407663D01*
X151081789Y-116395528D01*
X150904070Y-116350628D01*
X150865942Y-116338077D01*
X150843569Y-116335342D01*
X150821717Y-116329821D01*
X150781631Y-116327770D01*
X150651312Y-116311839D01*
X150623975Y-116305435D01*
X150589377Y-116304267D01*
X150555021Y-116300067D01*
X150527026Y-116302162D01*
X150434857Y-116299051D01*
X150394758Y-116294877D01*
X150372494Y-116296945D01*
X150350147Y-116296191D01*
X150310359Y-116302718D01*
X150140320Y-116318516D01*
X150133809Y-116316647D01*
X150014797Y-116330177D01*
X149959023Y-116335359D01*
X149952710Y-116337236D01*
X149946165Y-116337980D01*
X149892804Y-116355046D01*
X149778002Y-116389178D01*
X149772743Y-116393446D01*
X149747312Y-116401579D01*
X149732383Y-116401016D01*
X149627486Y-116439903D01*
X149581665Y-116454558D01*
X149568943Y-116461606D01*
X149555307Y-116466661D01*
X149514330Y-116491861D01*
X149416468Y-116546075D01*
X149408216Y-116556444D01*
X149396368Y-116558852D01*
X149302658Y-116622033D01*
X149260705Y-116647833D01*
X149250884Y-116656940D01*
X149239781Y-116664426D01*
X149205101Y-116699395D01*
X149122228Y-116776245D01*
X149117598Y-116786331D01*
X149054239Y-116851517D01*
X149012438Y-116893667D01*
X149010658Y-116896355D01*
X149008411Y-116898667D01*
X148976144Y-116948476D01*
X148908170Y-117051127D01*
X148907536Y-117054383D01*
X148881628Y-117094378D01*
X148852326Y-117136223D01*
X148847680Y-117146781D01*
X148841406Y-117156466D01*
X148822525Y-117203948D01*
X148770833Y-117321421D01*
X148753877Y-117352453D01*
X148745708Y-117378517D01*
X148734702Y-117403529D01*
X148727045Y-117438064D01*
X148704547Y-117509846D01*
X148696906Y-117525890D01*
X148685883Y-117569396D01*
X148672455Y-117612241D01*
X148670550Y-117629917D01*
X148665193Y-117651061D01*
X148661240Y-117660062D01*
X148649847Y-117711629D01*
X148636886Y-117762787D01*
X148636377Y-117772599D01*
X148332860Y-119146418D01*
X148033441Y-120501676D01*
X148033440Y-120501679D01*
X147719542Y-121922484D01*
X147719541Y-121922487D01*
X147405643Y-123343292D01*
X147405642Y-123343295D01*
X147079501Y-124819521D01*
X146777843Y-126184911D01*
X146777842Y-126184914D01*
X146463944Y-127605719D01*
X146463943Y-127605722D01*
X146144147Y-129053224D01*
X145979044Y-129538085D01*
X145752016Y-129956955D01*
X145464050Y-130323970D01*
X145121328Y-130635517D01*
X144729834Y-130887185D01*
X144295417Y-131074012D01*
X143823758Y-131190572D01*
X143294830Y-131232949D01*
X135914368Y-131232949D01*
X135913496Y-131232778D01*
X135851927Y-131232949D01*
X135790178Y-131232949D01*
X135789304Y-131233123D01*
X134790055Y-131235898D01*
X133890420Y-131220029D01*
X133158690Y-131152834D01*
X132592329Y-131013426D01*
X132161515Y-130789407D01*
X131802723Y-130440419D01*
X131474040Y-129883807D01*
X131175187Y-129042507D01*
X130821086Y-127592378D01*
X130821085Y-127592377D01*
X130474144Y-126171570D01*
X130474143Y-126171568D01*
X130169938Y-124925769D01*
X130198559Y-124925769D01*
X130204979Y-124960240D01*
X130201508Y-124995132D01*
X130227487Y-125081078D01*
X130243927Y-125169344D01*
X130263051Y-125198735D01*
X130273196Y-125232299D01*
X130296689Y-125276356D01*
X130337451Y-125326125D01*
X130368041Y-125382713D01*
X130401170Y-125422697D01*
X130401170Y-125438674D01*
X130405506Y-125460473D01*
X130402685Y-125482523D01*
X130414758Y-125526929D01*
X130413949Y-125543216D01*
X130432037Y-125593853D01*
X130439295Y-125630343D01*
X130444621Y-125665697D01*
X130447168Y-125669925D01*
X130449506Y-125681678D01*
X130461856Y-125700161D01*
X130467687Y-125721609D01*
X130473533Y-125733354D01*
X130476341Y-125736986D01*
X130477433Y-125740803D01*
X130530300Y-125843597D01*
X130578024Y-125903665D01*
X130616157Y-125970235D01*
X130695455Y-126061280D01*
X130765668Y-126115536D01*
X130829327Y-126177345D01*
X130929183Y-126241958D01*
X131025978Y-126280390D01*
X131120143Y-126324873D01*
X131237621Y-126354242D01*
X131308485Y-126357691D01*
X131377756Y-126373050D01*
X131431047Y-126363655D01*
X131485093Y-126366285D01*
X131551885Y-126342351D01*
X131562018Y-126340565D01*
X131567732Y-126340571D01*
X131572013Y-126338803D01*
X131621758Y-126330033D01*
X131674625Y-126309476D01*
X131714475Y-126284090D01*
X131718336Y-126282707D01*
X131722318Y-126279094D01*
X131728340Y-126275258D01*
X131754910Y-126267982D01*
X131772532Y-126259171D01*
X131778900Y-126254229D01*
X131779809Y-126253850D01*
X131783165Y-126251597D01*
X131796734Y-126245993D01*
X131823168Y-126228370D01*
X131834272Y-126217289D01*
X131840369Y-126213196D01*
X131869593Y-126199179D01*
X131881338Y-126190368D01*
X131884052Y-126187340D01*
X131926655Y-126164353D01*
X131934489Y-126171161D01*
X132016226Y-126247831D01*
X132027682Y-126252152D01*
X132036921Y-126260182D01*
X132143194Y-126295726D01*
X132248046Y-126335279D01*
X132276726Y-126340036D01*
X132317162Y-126347618D01*
X132344829Y-126347314D01*
X132371299Y-126355373D01*
X132400668Y-126358296D01*
X132431065Y-126355334D01*
X132431756Y-126355542D01*
X132464510Y-126352260D01*
X132526446Y-126358296D01*
X132555815Y-126355373D01*
X132614734Y-126337434D01*
X132647265Y-126334264D01*
X132647996Y-126333874D01*
X132678287Y-126330839D01*
X132733209Y-126301363D01*
X132792837Y-126283208D01*
X132841305Y-126243348D01*
X132896597Y-126213673D01*
X132940921Y-126177173D01*
X132976324Y-126149351D01*
X132977370Y-126148130D01*
X132978802Y-126147394D01*
X133023246Y-126094993D01*
X133292987Y-126168557D01*
X133572491Y-126256078D01*
X133655661Y-126265021D01*
X133736986Y-126284590D01*
X133775759Y-126286134D01*
X133795126Y-126289039D01*
X133842882Y-126296998D01*
X133864087Y-126296336D01*
X133869317Y-126297929D01*
X133939759Y-126322701D01*
X133954351Y-126321904D01*
X133968343Y-126326123D01*
X134059389Y-126334934D01*
X134090192Y-126331847D01*
X134120556Y-126337887D01*
X134147197Y-126337887D01*
X134177879Y-126341569D01*
X134237408Y-126349687D01*
X134289973Y-126346486D01*
X134341905Y-126355235D01*
X134412458Y-126339028D01*
X134484714Y-126334628D01*
X134532053Y-126311555D01*
X134583380Y-126299764D01*
X134876046Y-126168312D01*
X134885352Y-126177347D01*
X134985209Y-126241960D01*
X135082002Y-126280391D01*
X135176164Y-126324873D01*
X135293642Y-126354242D01*
X135364507Y-126357691D01*
X135433778Y-126373050D01*
X135487069Y-126363655D01*
X135541114Y-126366285D01*
X135607906Y-126342352D01*
X135618040Y-126340565D01*
X135623754Y-126340571D01*
X135628035Y-126338803D01*
X135677780Y-126330033D01*
X135730647Y-126309476D01*
X135770495Y-126284092D01*
X135774357Y-126282708D01*
X135778341Y-126279094D01*
X135784354Y-126275263D01*
X135810919Y-126267989D01*
X135828542Y-126259178D01*
X135834915Y-126254232D01*
X135835832Y-126253850D01*
X135839190Y-126251596D01*
X135852756Y-126245993D01*
X135879190Y-126228370D01*
X135890292Y-126217291D01*
X135896392Y-126213196D01*
X135925616Y-126199179D01*
X135937361Y-126190368D01*
X135940075Y-126187340D01*
X135982674Y-126164355D01*
X135990505Y-126171161D01*
X136072242Y-126247831D01*
X136083698Y-126252152D01*
X136092937Y-126260182D01*
X136199210Y-126295726D01*
X136304062Y-126335279D01*
X136332723Y-126340033D01*
X136373182Y-126347619D01*
X136400847Y-126347315D01*
X136427314Y-126355373D01*
X136456682Y-126358296D01*
X136487081Y-126355334D01*
X136487772Y-126355542D01*
X136520526Y-126352260D01*
X136582462Y-126358296D01*
X136611831Y-126355373D01*
X136670747Y-126337435D01*
X136703278Y-126334265D01*
X136704011Y-126333874D01*
X136734303Y-126330839D01*
X136789225Y-126301363D01*
X136848853Y-126283208D01*
X136897321Y-126243348D01*
X136942265Y-126219227D01*
X137015120Y-126248371D01*
X137059797Y-126256693D01*
X137101016Y-126275834D01*
X137180492Y-126279177D01*
X137258694Y-126293744D01*
X137303157Y-126284335D01*
X137348562Y-126286245D01*
X137480724Y-126265688D01*
X137543556Y-126242705D01*
X137609511Y-126231507D01*
X137658772Y-126200562D01*
X137663985Y-126198655D01*
X137673868Y-126205435D01*
X137761179Y-126271469D01*
X137775609Y-126275228D01*
X137787907Y-126283664D01*
X137879233Y-126302992D01*
X137898259Y-126310308D01*
X137933810Y-126316438D01*
X137957747Y-126322673D01*
X137997118Y-126339365D01*
X138070302Y-126339972D01*
X138142421Y-126352407D01*
X138193012Y-126340990D01*
X138244874Y-126341420D01*
X138312718Y-126313975D01*
X138384108Y-126297864D01*
X138426481Y-126267954D01*
X138474557Y-126248506D01*
X138568540Y-126186830D01*
X138570693Y-126184712D01*
X138573486Y-126183552D01*
X138607442Y-126149525D01*
X138622815Y-126172533D01*
X138640183Y-126189901D01*
X138646818Y-126197483D01*
X138650919Y-126200637D01*
X138655119Y-126204837D01*
X138664736Y-126211263D01*
X138666869Y-126212904D01*
X138681182Y-126233769D01*
X138764466Y-126287960D01*
X138843219Y-126348526D01*
X138867649Y-126355100D01*
X138888854Y-126368898D01*
X138932911Y-126386521D01*
X139030820Y-126404759D01*
X139127011Y-126430566D01*
X139151853Y-126427304D01*
X139176486Y-126431892D01*
X139273918Y-126411274D01*
X139372667Y-126398306D01*
X139394372Y-126385784D01*
X139418883Y-126380597D01*
X139501012Y-126324261D01*
X139587277Y-126274492D01*
X139644629Y-126224229D01*
X139696098Y-126248542D01*
X139860567Y-126289657D01*
X139882327Y-126290716D01*
X139902614Y-126298668D01*
X140099390Y-126333913D01*
X140176698Y-126332435D01*
X140253369Y-126342468D01*
X140279420Y-126340740D01*
X140355501Y-126353190D01*
X140392667Y-126351921D01*
X140428769Y-126360850D01*
X140619670Y-126369662D01*
X140678923Y-126360693D01*
X140738758Y-126363954D01*
X140911140Y-126339327D01*
X140912983Y-126340704D01*
X140925583Y-126343906D01*
X140936299Y-126351258D01*
X140977109Y-126368750D01*
X140977113Y-126368753D01*
X140977118Y-126368754D01*
X140977414Y-126368881D01*
X141098363Y-126394483D01*
X141219481Y-126420184D01*
X141219804Y-126420188D01*
X141219808Y-126420189D01*
X141219812Y-126420188D01*
X141448564Y-126423106D01*
X141548669Y-126404519D01*
X141649826Y-126393065D01*
X141999324Y-126281461D01*
X142021047Y-126269440D01*
X142045428Y-126264751D01*
X142098882Y-126243007D01*
X142163682Y-126267510D01*
X142212791Y-126290920D01*
X142250410Y-126316056D01*
X142281783Y-126322296D01*
X142310019Y-126337333D01*
X142402121Y-126346261D01*
X142427255Y-126355762D01*
X142446931Y-126355146D01*
X142493414Y-126364392D01*
X142531594Y-126364392D01*
X142550457Y-126360640D01*
X142556628Y-126361238D01*
X142573831Y-126355991D01*
X142602566Y-126350275D01*
X142674899Y-126348011D01*
X142722922Y-126326335D01*
X142774598Y-126316056D01*
X142825768Y-126281865D01*
X142897780Y-126262149D01*
X142918344Y-126246191D01*
X142942814Y-126237307D01*
X143015596Y-126170722D01*
X143030312Y-126159302D01*
X143124845Y-126209897D01*
X143168153Y-126223060D01*
X143206829Y-126246571D01*
X143424164Y-126325870D01*
X143533405Y-126342773D01*
X143641821Y-126364338D01*
X143641958Y-126364338D01*
X143679018Y-126374487D01*
X143685823Y-126373629D01*
X143692472Y-126375299D01*
X143751209Y-126378222D01*
X143780730Y-126373862D01*
X143810222Y-126378413D01*
X143849011Y-126376735D01*
X143881937Y-126378295D01*
X143908731Y-126374273D01*
X143935485Y-126378573D01*
X144030441Y-126356004D01*
X144126956Y-126341517D01*
X144150173Y-126327547D01*
X144176535Y-126321281D01*
X144255626Y-126264092D01*
X144339251Y-126213772D01*
X144355355Y-126191980D01*
X144377311Y-126176104D01*
X144404807Y-126146494D01*
X144511489Y-126173293D01*
X144630245Y-126205790D01*
X144751567Y-126248720D01*
X144852161Y-126263281D01*
X144951464Y-126284980D01*
X144975233Y-126285427D01*
X144985330Y-126287206D01*
X144995849Y-126286976D01*
X144999960Y-126288664D01*
X145005231Y-126289696D01*
X145008597Y-126290863D01*
X145017416Y-126292082D01*
X145026394Y-126293840D01*
X145030054Y-126293829D01*
X145035031Y-126294517D01*
X145047565Y-126293777D01*
X145053401Y-126293759D01*
X145082702Y-126306954D01*
X145098346Y-126307430D01*
X145143585Y-126323122D01*
X145191313Y-126329728D01*
X145211750Y-126328525D01*
X145231478Y-126333990D01*
X145253692Y-126335635D01*
X145269002Y-126333751D01*
X145284050Y-126337154D01*
X145305162Y-126337704D01*
X145313451Y-126336278D01*
X145321699Y-126337919D01*
X145352782Y-126337919D01*
X145359673Y-126340689D01*
X145376194Y-126343795D01*
X145409855Y-126343441D01*
X145442231Y-126352653D01*
X145458014Y-126353932D01*
X145495364Y-126349599D01*
X145532490Y-126355584D01*
X145547543Y-126355034D01*
X145578205Y-126347762D01*
X145609653Y-126349702D01*
X145713915Y-126335569D01*
X145769750Y-126316377D01*
X145828344Y-126309097D01*
X145920858Y-126278443D01*
X145978614Y-126245656D01*
X146041398Y-126223991D01*
X146122164Y-126176817D01*
X146173759Y-126131108D01*
X146232556Y-126095143D01*
X146301575Y-126031447D01*
X146343950Y-125973223D01*
X146395373Y-125922811D01*
X146450256Y-125842412D01*
X146473534Y-125787756D01*
X146507516Y-125739024D01*
X146548814Y-125644674D01*
X146559914Y-125594146D01*
X146582271Y-125547495D01*
X146609989Y-125439194D01*
X146612337Y-125395925D01*
X146625615Y-125354679D01*
X146630405Y-125313246D01*
X146631089Y-125312010D01*
X146634741Y-125279670D01*
X146645038Y-125253841D01*
X146644786Y-125234955D01*
X146655195Y-125201236D01*
X146653731Y-125185583D01*
X146661157Y-125153673D01*
X146658101Y-125135209D01*
X146661276Y-125116769D01*
X146660911Y-125102636D01*
X146656790Y-125084395D01*
X146658889Y-125065810D01*
X146657793Y-125052779D01*
X146651737Y-125031739D01*
X146652708Y-125009866D01*
X146650881Y-124997937D01*
X146650047Y-124995639D01*
X146651211Y-124986538D01*
X146641252Y-124949904D01*
X146641186Y-124948064D01*
X146638628Y-124937237D01*
X146636602Y-124932799D01*
X146634999Y-124926905D01*
X146630880Y-124865251D01*
X146606614Y-124816200D01*
X146605600Y-124810718D01*
X146601835Y-124804916D01*
X146586213Y-124747451D01*
X146546748Y-124668153D01*
X146538579Y-124657587D01*
X146534545Y-124644856D01*
X146492510Y-124568495D01*
X146483646Y-124557962D01*
X146478932Y-124545030D01*
X146434329Y-124471606D01*
X146424765Y-124461179D01*
X146419341Y-124448112D01*
X146372167Y-124377625D01*
X146360712Y-124366187D01*
X146353762Y-124351565D01*
X146302916Y-124283281D01*
X146284701Y-124266834D01*
X146272505Y-124245537D01*
X146216885Y-124181658D01*
X146197385Y-124166585D01*
X146183535Y-124146197D01*
X146123141Y-124086723D01*
X146102694Y-124073287D01*
X146087446Y-124054152D01*
X146036665Y-124011240D01*
X146024861Y-123991164D01*
X146017334Y-123982718D01*
X145999554Y-123969297D01*
X145986959Y-123950918D01*
X145979067Y-123943210D01*
X145949614Y-123924026D01*
X145926687Y-123897376D01*
X145909801Y-123884162D01*
X145880566Y-123869398D01*
X145856789Y-123846878D01*
X145836962Y-123834395D01*
X145836636Y-123834270D01*
X145822767Y-123825003D01*
X145796711Y-123794897D01*
X145717413Y-123733222D01*
X145694192Y-123721581D01*
X145675664Y-123703378D01*
X145588291Y-123646108D01*
X145574642Y-123640595D01*
X145563679Y-123630767D01*
X145471898Y-123576432D01*
X145471562Y-123576314D01*
X145471296Y-123576076D01*
X145378047Y-123521010D01*
X145376561Y-123520489D01*
X145375383Y-123519446D01*
X145297827Y-123474155D01*
X145247074Y-123440875D01*
X145189718Y-123394990D01*
X145127863Y-123362914D01*
X145072482Y-123320635D01*
X145018945Y-123306431D01*
X144969769Y-123280930D01*
X144900344Y-123274966D01*
X144833002Y-123257100D01*
X144778105Y-123264465D01*
X144722913Y-123259724D01*
X144682480Y-123272543D01*
X144622311Y-123271042D01*
X144605426Y-123273965D01*
X144602573Y-123275064D01*
X144601143Y-123275077D01*
X144592901Y-123278578D01*
X144580670Y-123278759D01*
X144478297Y-123322946D01*
X144374228Y-123363043D01*
X144364948Y-123371871D01*
X144353191Y-123376946D01*
X144300971Y-123430732D01*
X144280441Y-123442048D01*
X144246052Y-123460620D01*
X144214724Y-123486557D01*
X144177685Y-123503360D01*
X144143907Y-123527589D01*
X144101958Y-123572419D01*
X144089959Y-123566881D01*
X144050578Y-123557408D01*
X144015077Y-123537910D01*
X143919888Y-123507849D01*
X143686336Y-123419923D01*
X143664874Y-123416378D01*
X143645671Y-123406165D01*
X143372533Y-123323929D01*
X143327793Y-123319616D01*
X143285547Y-123304280D01*
X142997726Y-123260224D01*
X142913533Y-123263969D01*
X142829542Y-123257020D01*
X142521161Y-123292265D01*
X142451780Y-123314501D01*
X142379705Y-123325147D01*
X142334920Y-123351953D01*
X142285217Y-123367882D01*
X142255564Y-123393003D01*
X142220190Y-123368263D01*
X142205462Y-123365006D01*
X142192715Y-123356952D01*
X142001813Y-123283528D01*
X141940430Y-123272939D01*
X141882309Y-123250531D01*
X141819537Y-123252083D01*
X141757655Y-123241408D01*
X141696889Y-123255116D01*
X141634620Y-123256656D01*
X141577220Y-123282112D01*
X141515963Y-123295931D01*
X141465067Y-123331851D01*
X141408129Y-123357102D01*
X141278903Y-123448147D01*
X141243836Y-123484992D01*
X141201201Y-123512725D01*
X141130432Y-123581768D01*
X141065126Y-123549115D01*
X141003791Y-123532318D01*
X140946820Y-123504070D01*
X140838153Y-123474701D01*
X140821168Y-123473551D01*
X140805536Y-123466804D01*
X140701895Y-123444594D01*
X140512767Y-123391321D01*
X140481106Y-123388839D01*
X140451521Y-123377299D01*
X140269431Y-123344995D01*
X140257864Y-123345235D01*
X140246942Y-123341420D01*
X140064942Y-123315825D01*
X139850601Y-123281529D01*
X139770384Y-123284553D01*
X139762197Y-123283715D01*
X139716669Y-123270280D01*
X139664440Y-123275825D01*
X139612312Y-123269412D01*
X139542413Y-123288779D01*
X139504377Y-123292817D01*
X139457920Y-123283576D01*
X139439324Y-123278732D01*
X139427978Y-123273251D01*
X139415545Y-123272538D01*
X139355663Y-123256939D01*
X139305737Y-123254016D01*
X139243425Y-123262662D01*
X139180620Y-123259058D01*
X139121909Y-123279522D01*
X139060323Y-123288067D01*
X139006062Y-123319901D01*
X138946660Y-123340606D01*
X138908985Y-123362768D01*
X138883585Y-123376217D01*
X138834100Y-123399780D01*
X138805860Y-123420839D01*
X138772863Y-123433182D01*
X138755652Y-123443836D01*
X138607047Y-123342588D01*
X138588052Y-123334518D01*
X138572677Y-123320751D01*
X138474636Y-123286336D01*
X138379007Y-123245710D01*
X138358370Y-123245524D01*
X138338897Y-123238688D01*
X138297781Y-123232842D01*
X138223073Y-123236963D01*
X138148638Y-123229336D01*
X138100529Y-123243723D01*
X138050393Y-123246489D01*
X137982949Y-123278886D01*
X137926637Y-123295726D01*
X137853728Y-123284526D01*
X137734506Y-123265003D01*
X137731391Y-123265734D01*
X137728229Y-123265248D01*
X137610887Y-123293998D01*
X137493288Y-123321581D01*
X137490691Y-123323447D01*
X137487582Y-123324209D01*
X137355419Y-123385886D01*
X137337094Y-123399330D01*
X137298596Y-123372922D01*
X137204804Y-123304958D01*
X137196699Y-123303023D01*
X137189827Y-123298309D01*
X137076497Y-123274325D01*
X136963812Y-123247421D01*
X136955582Y-123248735D01*
X136947431Y-123247010D01*
X136833535Y-123268224D01*
X136719147Y-123286489D01*
X136712049Y-123290851D01*
X136703855Y-123292377D01*
X136630430Y-123321747D01*
X136552309Y-123372577D01*
X136469567Y-123415486D01*
X136410830Y-123462477D01*
X136405604Y-123468685D01*
X136398498Y-123472600D01*
X136396200Y-123474535D01*
X136324954Y-123504133D01*
X136291502Y-123537655D01*
X136250929Y-123562082D01*
X136243331Y-123572369D01*
X136235539Y-123562040D01*
X136210968Y-123527642D01*
X136136269Y-123457467D01*
X136066557Y-123382329D01*
X136046483Y-123373119D01*
X136030389Y-123358000D01*
X135934527Y-123321755D01*
X135841361Y-123279012D01*
X135819291Y-123278185D01*
X135798636Y-123270376D01*
X135696200Y-123273575D01*
X135593770Y-123269738D01*
X135573065Y-123277420D01*
X135550992Y-123278109D01*
X135457567Y-123320270D01*
X135435466Y-123328470D01*
X135397522Y-123338457D01*
X135397115Y-123338656D01*
X135396661Y-123338684D01*
X135296805Y-123365117D01*
X135221433Y-123402003D01*
X135141962Y-123428954D01*
X135065601Y-123473011D01*
X134977507Y-123550221D01*
X134887781Y-123625484D01*
X134884545Y-123631697D01*
X134879273Y-123636318D01*
X134827424Y-123741379D01*
X134773338Y-123845234D01*
X134752780Y-123915720D01*
X134752281Y-123921410D01*
X134744506Y-123914341D01*
X134687682Y-123880163D01*
X134673175Y-123867156D01*
X134668415Y-123865481D01*
X134545939Y-123757704D01*
X134500504Y-123731368D01*
X134462198Y-123695433D01*
X134283044Y-123583828D01*
X134275158Y-123580853D01*
X134268863Y-123575249D01*
X134110054Y-123481981D01*
X133964351Y-123376470D01*
X133956518Y-123372874D01*
X133950488Y-123366710D01*
X133844200Y-123321308D01*
X133739183Y-123273095D01*
X133730568Y-123272770D01*
X133722639Y-123269383D01*
X133607092Y-123268113D01*
X133552211Y-123266042D01*
X133544924Y-123264593D01*
X133513784Y-123264593D01*
X133491594Y-123263756D01*
X133485411Y-123266048D01*
X133480915Y-123265385D01*
X133475807Y-123266669D01*
X133474889Y-123266659D01*
X133427898Y-123275470D01*
X133406271Y-123284151D01*
X133375862Y-123291796D01*
X133269616Y-123312929D01*
X133256235Y-123321870D01*
X133240627Y-123325794D01*
X133153675Y-123390398D01*
X133063607Y-123450580D01*
X133059993Y-123455989D01*
X133046835Y-123460976D01*
X132976349Y-123505032D01*
X132975595Y-123505741D01*
X132974624Y-123506113D01*
X132885305Y-123590696D01*
X132795903Y-123674815D01*
X132795477Y-123675761D01*
X132794723Y-123676475D01*
X132744798Y-123746962D01*
X132704272Y-123837728D01*
X132656745Y-123925039D01*
X132654079Y-123950145D01*
X132651446Y-123956042D01*
X132604190Y-123885158D01*
X132564161Y-123845045D01*
X132533610Y-123797313D01*
X132477493Y-123758196D01*
X132429177Y-123709779D01*
X132376844Y-123688038D01*
X132330353Y-123655631D01*
X132283362Y-123635074D01*
X132241062Y-123625790D01*
X132219137Y-123614560D01*
X132179517Y-123562040D01*
X132154946Y-123527642D01*
X132080247Y-123457467D01*
X132010535Y-123382329D01*
X131990461Y-123373119D01*
X131974367Y-123358000D01*
X131878505Y-123321755D01*
X131785339Y-123279012D01*
X131763269Y-123278185D01*
X131742614Y-123270376D01*
X131640178Y-123273575D01*
X131537748Y-123269738D01*
X131517043Y-123277420D01*
X131494970Y-123278109D01*
X131401545Y-123320270D01*
X131379444Y-123328470D01*
X131341500Y-123338457D01*
X131341093Y-123338656D01*
X131340639Y-123338684D01*
X131240783Y-123365117D01*
X131165411Y-123402003D01*
X131085940Y-123428954D01*
X131009579Y-123473011D01*
X130921485Y-123550221D01*
X130831759Y-123625484D01*
X130828523Y-123631697D01*
X130823251Y-123636318D01*
X130771402Y-123741379D01*
X130717316Y-123845234D01*
X130696758Y-123915720D01*
X130694000Y-123947183D01*
X130682235Y-123976494D01*
X130673424Y-124023486D01*
X130673563Y-124036165D01*
X130669307Y-124048107D01*
X130654620Y-124147962D01*
X130655288Y-124161222D01*
X130651349Y-124173901D01*
X130643804Y-124245587D01*
X130629979Y-124304335D01*
X130623565Y-124307829D01*
X130602917Y-124333400D01*
X130575813Y-124351994D01*
X130571181Y-124359114D01*
X130557859Y-124366208D01*
X130534729Y-124373200D01*
X130465271Y-124430088D01*
X130390010Y-124479058D01*
X130370174Y-124507975D01*
X130343049Y-124530191D01*
X130300646Y-124609332D01*
X130249857Y-124683373D01*
X130242597Y-124717676D01*
X130226037Y-124748585D01*
X130217148Y-124837932D01*
X130198559Y-124925769D01*
X130169938Y-124925769D01*
X130156874Y-124872271D01*
X129780261Y-123329951D01*
X129780260Y-123329949D01*
X129433320Y-121909144D01*
X129086378Y-120488334D01*
X129086377Y-120488333D01*
X128739436Y-119067526D01*
X128739435Y-119067524D01*
X128418011Y-117751212D01*
X128416298Y-117733779D01*
X128403204Y-117690577D01*
X128392495Y-117646719D01*
X128385099Y-117630838D01*
X128384338Y-117628327D01*
X128383180Y-117619228D01*
X128366219Y-117568544D01*
X128350718Y-117517398D01*
X128346397Y-117509308D01*
X128329598Y-117459111D01*
X128322988Y-117429689D01*
X128309799Y-117399944D01*
X128299474Y-117369090D01*
X128284510Y-117342912D01*
X128237001Y-117235765D01*
X128220454Y-117192592D01*
X128211697Y-117178698D01*
X128205041Y-117163686D01*
X128178415Y-117125889D01*
X128088645Y-116983451D01*
X128055926Y-116931192D01*
X128055271Y-116930497D01*
X128054765Y-116929694D01*
X128012507Y-116885117D01*
X127952139Y-116821057D01*
X127947457Y-116809971D01*
X127865796Y-116729433D01*
X127830874Y-116692375D01*
X127821335Y-116685584D01*
X127812997Y-116677360D01*
X127770459Y-116649361D01*
X127677030Y-116582842D01*
X127665301Y-116580145D01*
X127663917Y-116579234D01*
X127653591Y-116565596D01*
X127558886Y-116510102D01*
X127520461Y-116484810D01*
X127505026Y-116478541D01*
X127490651Y-116470118D01*
X127447186Y-116455051D01*
X127345488Y-116413748D01*
X127328381Y-116413867D01*
X127294331Y-116402063D01*
X127285183Y-116394508D01*
X127175376Y-116360827D01*
X127127106Y-116344094D01*
X127115670Y-116342513D01*
X127104633Y-116339128D01*
X127053806Y-116333963D01*
X126940033Y-116318238D01*
X126928554Y-116321235D01*
X126750601Y-116303151D01*
X126708109Y-116296180D01*
X126688511Y-116296842D01*
X126669002Y-116294859D01*
X126626133Y-116298947D01*
X126531230Y-116302150D01*
X126503230Y-116300055D01*
X126468870Y-116304255D01*
X126434281Y-116305423D01*
X126406947Y-116311826D01*
X126276621Y-116327758D01*
X126236533Y-116329809D01*
X126214680Y-116335330D01*
X126192309Y-116338065D01*
X126154184Y-116350614D01*
X125976469Y-116395514D01*
X125922993Y-116407652D01*
X125915896Y-116410818D01*
X125908362Y-116412721D01*
X125858851Y-116436262D01*
X125763041Y-116478996D01*
X125753236Y-116479552D01*
X125647999Y-116530308D01*
X125599536Y-116551924D01*
X125591739Y-116557443D01*
X125583135Y-116561592D01*
X125540752Y-116593527D01*
X125445384Y-116661022D01*
X125440150Y-116669330D01*
X125420198Y-116684363D01*
X125396349Y-116692531D01*
X125319935Y-116759911D01*
X125289503Y-116782841D01*
X125273138Y-116801175D01*
X125254699Y-116817434D01*
X125231577Y-116847736D01*
X125163744Y-116923731D01*
X125155433Y-116947527D01*
X125114975Y-117000549D01*
X125090808Y-117017686D01*
X125038884Y-117100272D01*
X125018388Y-117127132D01*
X125005672Y-117153094D01*
X124990287Y-117177564D01*
X124978230Y-117209123D01*
X124935319Y-117296734D01*
X124933461Y-117326302D01*
X124896591Y-117422808D01*
X124883768Y-117438133D01*
X124851744Y-117540193D01*
X124836323Y-117580556D01*
X124833056Y-117599750D01*
X124827228Y-117618324D01*
X124822585Y-117661273D01*
X124804635Y-117766730D01*
X124809076Y-117786214D01*
X124781126Y-118044735D01*
X124773851Y-118097274D01*
X124774413Y-118106824D01*
X124773384Y-118116340D01*
X124778081Y-118169186D01*
X124848196Y-119361133D01*
X124922540Y-120624992D01*
X124996885Y-121888851D01*
X125071229Y-123152709D01*
X125152539Y-124534967D01*
X125220340Y-125687584D01*
X125294263Y-126944289D01*
X125369326Y-128220363D01*
X125308596Y-128829638D01*
X125138945Y-129380523D01*
X124870457Y-129877511D01*
X124514258Y-130309903D01*
X124081863Y-130666105D01*
X123584870Y-130934595D01*
X123033990Y-131104245D01*
X122406079Y-131166833D01*
X111895742Y-131166833D01*
X111267833Y-131104245D01*
X110716952Y-130934595D01*
X110219956Y-130666103D01*
X109787567Y-130309917D01*
X109431366Y-129877523D01*
X109162877Y-129380532D01*
X108993227Y-128829649D01*
X108930638Y-128201738D01*
X108930638Y-81255382D01*
X108934654Y-81094561D01*
X108945959Y-80944121D01*
X108964543Y-80796253D01*
X108986114Y-80674242D01*
X109162878Y-80100256D01*
X109431366Y-79603268D01*
X109787568Y-79170873D01*
X110219962Y-78814672D01*
X110716948Y-78546185D01*
X111267834Y-78376535D01*
X111895745Y-78313946D01*
X127763352Y-78313946D01*
X128776488Y-78400615D01*
G04 #@! TD*
M02*
