G04 #@! TF.GenerationSoftware,KiCad,Pcbnew,6.0.0-rc1-unknown-5b3202d~66~ubuntu16.04.1*
G04 #@! TF.CreationDate,2018-12-07T08:51:36-07:00
G04 #@! TF.ProjectId,MakerCozumel,4d616b65-7243-46f7-9a75-6d656c2e6b69,rev?*
G04 #@! TF.SameCoordinates,Original*
G04 #@! TF.FileFunction,Soldermask,Bot*
G04 #@! TF.FilePolarity,Negative*
%FSLAX46Y46*%
G04 Gerber Fmt 4.6, Leading zero omitted, Abs format (unit mm)*
G04 Created by KiCad (PCBNEW 6.0.0-rc1-unknown-5b3202d~66~ubuntu16.04.1) date Fri 07 Dec 2018 08:51:36 AM MST*
%MOMM*%
%LPD*%
G04 APERTURE LIST*
%ADD10C,0.100000*%
G04 APERTURE END LIST*
D10*
G04 #@! TO.C,svg2mod*
G36*
X131042127Y-125450380D02*
G01*
X131890797Y-124942327D01*
X131732201Y-124930580D01*
X131570669Y-124904146D01*
X131614725Y-124722055D01*
X131664651Y-124531153D01*
X131682274Y-124560522D01*
X131796815Y-124698558D01*
X131887860Y-124842470D01*
X131923105Y-124895337D01*
X131955409Y-124948205D01*
X131923105Y-124945282D01*
X131890795Y-124942359D01*
X131890797Y-124942327D01*
X131042127Y-125450380D01*
X131094994Y-125553174D01*
X131174293Y-125644219D01*
X131274149Y-125708832D01*
X131391628Y-125738201D01*
X131444495Y-125717644D01*
X131470929Y-125700021D01*
X131488551Y-125691210D01*
X131500297Y-125682399D01*
X131535542Y-125667711D01*
X131523796Y-125629531D01*
X131526719Y-125594286D01*
X131561964Y-125556106D01*
X131579586Y-125538484D01*
X131594274Y-125520861D01*
X131644200Y-125465059D01*
X131564903Y-125444501D01*
X131467983Y-125391634D01*
X131447425Y-125282966D01*
X131547282Y-125280044D01*
X131626579Y-125300601D01*
X131735247Y-125327035D01*
X131852726Y-125335846D01*
X131896782Y-125335846D01*
X131940838Y-125330000D01*
X131970207Y-125324155D01*
X131981953Y-125288910D01*
X131993699Y-125277163D01*
X132026009Y-125238983D01*
X132031855Y-125174370D01*
X132049478Y-125121503D01*
X132075911Y-125194927D01*
X132087658Y-125224296D01*
X132117026Y-125230142D01*
X132125838Y-125244829D01*
X132128760Y-125259516D01*
X132143448Y-125309443D01*
X132155194Y-125321189D01*
X132166940Y-125330000D01*
X132181628Y-125382868D01*
X132199250Y-125432794D01*
X132225684Y-125509155D01*
X132231530Y-125579641D01*
X132243276Y-125611951D01*
X132275586Y-125641320D01*
X132310831Y-125658943D01*
X132328453Y-125670689D01*
X132343141Y-125676535D01*
X132351952Y-125708838D01*
X132387197Y-125714684D01*
X132434188Y-125723495D01*
X132463557Y-125726418D01*
X132492926Y-125723495D01*
X132542852Y-125682380D01*
X132583967Y-125650070D01*
X132613336Y-125597203D01*
X132619182Y-125564899D01*
X132625027Y-125535530D01*
X132633839Y-125517908D01*
X132672019Y-125482663D01*
X132639709Y-125456229D01*
X132636786Y-125406303D01*
X132513434Y-125118481D01*
X132375397Y-124836533D01*
X132331340Y-124742551D01*
X132284349Y-124648568D01*
X132287272Y-124628011D01*
X132281426Y-124601577D01*
X132228559Y-124513468D01*
X132187444Y-124431233D01*
X132140452Y-124334313D01*
X132075839Y-124237394D01*
X132028848Y-124216836D01*
X132008291Y-124210991D01*
X131981857Y-124205145D01*
X131937801Y-124210991D01*
X131793890Y-124105260D01*
X131667601Y-123937853D01*
X131638232Y-123896738D01*
X131600052Y-123920231D01*
X131558937Y-123937853D01*
X131503134Y-123952541D01*
X131403278Y-123978974D01*
X131326917Y-124023031D01*
X131306359Y-124093517D01*
X131297548Y-124140509D01*
X131282861Y-124240365D01*
X131271115Y-124351969D01*
X131247616Y-124451826D01*
X131227058Y-124548745D01*
X131197690Y-124686783D01*
X131159510Y-124810135D01*
X131130141Y-124813058D01*
X131100772Y-124804246D01*
X131062592Y-124798401D01*
X131030288Y-124795478D01*
X131018542Y-124824847D01*
X130989173Y-124854215D01*
X130933371Y-124871838D01*
X130901061Y-124898272D01*
X130877568Y-124915894D01*
X130833512Y-124933516D01*
X130857005Y-124977573D01*
X130942176Y-125080366D01*
X131062592Y-125159664D01*
X131059669Y-125194909D01*
X131050858Y-125227213D01*
X131036170Y-125330006D01*
X131036170Y-125438674D01*
X131042016Y-125450420D01*
X131042127Y-125450380D01*
X131042127Y-125450380D01*
G37*
G36*
X132743120Y-125168432D02*
G01*
X132928149Y-125365208D01*
X133180727Y-125479750D01*
X133471486Y-125559047D01*
X133762245Y-125650093D01*
X133835669Y-125653016D01*
X133894407Y-125661827D01*
X133947274Y-125670638D01*
X134006011Y-125676484D01*
X134020699Y-125682330D01*
X134029510Y-125694076D01*
X134120556Y-125702887D01*
X134185169Y-125702887D01*
X134258593Y-125711699D01*
X134323206Y-125720510D01*
X134669767Y-125564851D01*
X134807804Y-125159551D01*
X134813650Y-125141928D01*
X134825396Y-125133117D01*
X134819551Y-125083191D01*
X134816628Y-125030323D01*
X134643347Y-124730754D01*
X134411328Y-124484049D01*
X134376083Y-124448804D01*
X134349649Y-124413559D01*
X134317345Y-124384190D01*
X134273289Y-124363633D01*
X134126441Y-124234407D01*
X133947287Y-124122802D01*
X133762258Y-124014135D01*
X133591915Y-123890782D01*
X133544924Y-123899593D01*
X133512620Y-123899593D01*
X133456817Y-123961269D01*
X133383394Y-123999449D01*
X133312907Y-124043505D01*
X133262981Y-124113992D01*
X133280603Y-124128680D01*
X133271792Y-124155113D01*
X133268869Y-124181547D01*
X133289426Y-124193293D01*
X133271804Y-124210916D01*
X133254181Y-124225603D01*
X133262993Y-124249096D01*
X133262993Y-124278465D01*
X133395156Y-124351888D01*
X133544940Y-124428250D01*
X133706473Y-124513421D01*
X133868006Y-124616214D01*
X134029538Y-124748378D01*
X134188134Y-124898163D01*
X134332045Y-125062632D01*
X134446586Y-125227102D01*
X134434840Y-125250594D01*
X134420152Y-125271152D01*
X134246872Y-125271152D01*
X134082403Y-125279963D01*
X134070656Y-125262341D01*
X134055975Y-125244718D01*
X133744657Y-125191851D01*
X133450961Y-125112553D01*
X133495018Y-125097865D01*
X133530262Y-125083184D01*
X133530262Y-125059691D01*
X133500894Y-125036193D01*
X133568444Y-124977455D01*
X133597812Y-124883472D01*
X133580190Y-124848227D01*
X133597812Y-124815917D01*
X133612494Y-124815917D01*
X133618340Y-124824728D01*
X133621262Y-124836475D01*
X133635950Y-124833552D01*
X133624204Y-124789496D01*
X133606581Y-124748381D01*
X133403931Y-124613281D01*
X133324633Y-124666148D01*
X133227714Y-124721951D01*
X133121983Y-124777753D01*
X133019189Y-124830620D01*
X132945766Y-124877612D01*
X132884089Y-124939288D01*
X132825352Y-124998025D01*
X132751927Y-125047952D01*
X132749005Y-125109628D01*
X132743159Y-125168366D01*
X132743120Y-125168432D01*
X132743120Y-125168432D01*
G37*
G36*
X135098150Y-125450380D02*
G01*
X135946831Y-124942327D01*
X135788235Y-124930580D01*
X135626702Y-124904146D01*
X135670758Y-124722055D01*
X135720685Y-124531153D01*
X135738307Y-124560522D01*
X135852848Y-124698558D01*
X135943894Y-124842470D01*
X135979139Y-124895337D01*
X136011449Y-124948205D01*
X135979139Y-124945282D01*
X135946835Y-124942359D01*
X135946831Y-124942327D01*
X135098150Y-125450380D01*
X135151017Y-125553174D01*
X135230315Y-125644219D01*
X135330172Y-125708832D01*
X135447650Y-125738201D01*
X135500517Y-125717644D01*
X135526951Y-125700021D01*
X135544574Y-125691210D01*
X135556320Y-125682399D01*
X135591565Y-125667711D01*
X135579819Y-125629531D01*
X135582741Y-125594286D01*
X135617986Y-125556106D01*
X135635609Y-125538484D01*
X135650296Y-125520861D01*
X135700223Y-125465059D01*
X135620925Y-125444501D01*
X135524005Y-125391634D01*
X135503448Y-125282966D01*
X135603304Y-125280044D01*
X135682603Y-125300601D01*
X135791270Y-125327035D01*
X135908748Y-125335846D01*
X135952804Y-125335846D01*
X135996861Y-125330000D01*
X136026229Y-125324155D01*
X136037976Y-125288910D01*
X136049722Y-125277163D01*
X136082032Y-125238983D01*
X136087878Y-125174370D01*
X136105500Y-125121503D01*
X136131934Y-125194927D01*
X136143680Y-125224296D01*
X136173049Y-125230142D01*
X136181860Y-125244829D01*
X136184783Y-125259516D01*
X136199470Y-125309443D01*
X136211217Y-125321189D01*
X136222963Y-125330000D01*
X136237650Y-125382868D01*
X136255273Y-125432794D01*
X136281707Y-125509155D01*
X136287552Y-125579641D01*
X136299299Y-125611951D01*
X136331602Y-125641320D01*
X136366847Y-125658943D01*
X136384470Y-125670689D01*
X136399157Y-125676535D01*
X136407968Y-125708838D01*
X136443213Y-125714684D01*
X136490205Y-125723495D01*
X136519573Y-125726418D01*
X136548942Y-125723495D01*
X136598868Y-125682380D01*
X136639984Y-125650070D01*
X136669352Y-125597203D01*
X136675198Y-125564899D01*
X136681044Y-125535530D01*
X136689855Y-125517908D01*
X136728035Y-125482663D01*
X136695731Y-125456229D01*
X136692808Y-125406303D01*
X136569456Y-125118481D01*
X136431419Y-124836533D01*
X136387363Y-124742551D01*
X136340372Y-124648568D01*
X136343294Y-124628011D01*
X136337449Y-124601577D01*
X136284581Y-124513468D01*
X136243466Y-124431233D01*
X136196475Y-124334313D01*
X136131862Y-124237394D01*
X136084871Y-124216836D01*
X136064313Y-124210991D01*
X136037879Y-124205145D01*
X135993823Y-124210991D01*
X135849912Y-124105260D01*
X135723623Y-123937853D01*
X135694254Y-123896738D01*
X135656074Y-123920231D01*
X135614959Y-123937853D01*
X135559156Y-123952541D01*
X135459300Y-123978974D01*
X135382939Y-124023031D01*
X135362381Y-124093517D01*
X135353570Y-124140509D01*
X135338883Y-124240365D01*
X135327136Y-124351969D01*
X135303644Y-124451826D01*
X135283086Y-124548745D01*
X135253718Y-124686783D01*
X135215538Y-124810135D01*
X135186169Y-124813058D01*
X135156800Y-124804246D01*
X135118620Y-124798401D01*
X135086310Y-124795478D01*
X135074564Y-124824847D01*
X135045195Y-124854215D01*
X134989393Y-124871838D01*
X134957089Y-124898272D01*
X134933590Y-124915894D01*
X134889534Y-124933516D01*
X134913033Y-124977573D01*
X134998204Y-125080366D01*
X135118619Y-125159664D01*
X135115697Y-125194909D01*
X135106885Y-125227213D01*
X135092204Y-125330006D01*
X135092204Y-125438674D01*
X135098050Y-125450420D01*
X135098150Y-125450380D01*
X135098150Y-125450380D01*
G37*
G36*
X137747286Y-125162558D02*
G01*
X137785466Y-125194868D01*
X137808958Y-125244794D01*
X137829516Y-125294721D01*
X137858885Y-125315278D01*
X137876507Y-125356393D01*
X137900006Y-125394573D01*
X137917628Y-125435688D01*
X137911783Y-125485615D01*
X137941151Y-125535541D01*
X137955839Y-125597217D01*
X137979331Y-125647143D01*
X138043944Y-125664766D01*
X138046867Y-125679453D01*
X138038056Y-125700011D01*
X138087982Y-125702934D01*
X138126162Y-125717615D01*
X138220145Y-125655939D01*
X138284758Y-125559019D01*
X138334684Y-125447415D01*
X138375799Y-125350496D01*
X138372876Y-125288819D01*
X138393434Y-125235952D01*
X138357044Y-125158948D01*
X138319826Y-125080661D01*
X138281786Y-125001087D01*
X138242918Y-124920229D01*
X138203222Y-124838086D01*
X138162704Y-124754658D01*
X138121357Y-124669945D01*
X138079183Y-124583947D01*
X138036874Y-124497445D01*
X137995114Y-124411217D01*
X137953901Y-124325265D01*
X137913243Y-124239589D01*
X137873132Y-124154188D01*
X137833576Y-124069062D01*
X137794568Y-123984211D01*
X137756114Y-123899636D01*
X137623951Y-123961312D01*
X137503535Y-124037673D01*
X137409553Y-124140467D01*
X137359627Y-124266755D01*
X137374314Y-124281443D01*
X137386060Y-124284366D01*
X137374314Y-124304923D01*
X137374314Y-124316670D01*
X137374314Y-124334292D01*
X137365503Y-124360726D01*
X137383125Y-124363649D01*
X137400748Y-124363649D01*
X137394902Y-124416516D01*
X137406648Y-124454696D01*
X137421336Y-124489941D01*
X137418413Y-124536932D01*
X137433100Y-124542778D01*
X137438946Y-124551589D01*
X137447757Y-124560400D01*
X137459504Y-124560400D01*
X137453658Y-124689627D01*
X137459504Y-124821790D01*
X137456581Y-124959827D01*
X137436023Y-125106675D01*
X137268617Y-124948078D01*
X137165823Y-124730744D01*
X137104147Y-124472292D01*
X137060091Y-124190344D01*
X137018976Y-124125731D01*
X136992542Y-124046432D01*
X136969049Y-123961261D01*
X136939681Y-123881963D01*
X136866256Y-123911332D01*
X136807519Y-123958323D01*
X136751716Y-124005314D01*
X136678293Y-124031748D01*
X136613680Y-124128667D01*
X136575500Y-124228524D01*
X136598992Y-124281392D01*
X136613680Y-124340129D01*
X136637172Y-124395932D01*
X136678287Y-124437047D01*
X136701780Y-124578021D01*
X136728213Y-124701373D01*
X136748771Y-124830599D01*
X136754617Y-124974510D01*
X136804543Y-125118421D01*
X136845658Y-125256458D01*
X136919082Y-125347504D01*
X136974885Y-125453234D01*
X136989572Y-125459080D01*
X137010130Y-125450269D01*
X137010130Y-125467891D01*
X137018941Y-125479637D01*
X137024787Y-125491384D01*
X137018941Y-125514882D01*
X137092365Y-125564809D01*
X137162852Y-125623546D01*
X137250961Y-125658791D01*
X137383124Y-125638233D01*
X137597522Y-125435584D01*
X137747307Y-125162446D01*
X137747286Y-125162558D01*
X137747286Y-125162558D01*
G37*
G36*
X138613688Y-124927602D02*
G01*
X138648933Y-124971658D01*
X138678302Y-125021584D01*
X138710606Y-125083261D01*
X138754662Y-125136128D01*
X138784031Y-125206615D01*
X138831022Y-125262417D01*
X138969059Y-125517932D01*
X138986681Y-125570800D01*
X139013115Y-125617791D01*
X139024861Y-125638349D01*
X139033672Y-125653036D01*
X139039518Y-125682405D01*
X139071828Y-125723520D01*
X139104132Y-125755824D01*
X139124689Y-125779316D01*
X139168746Y-125796939D01*
X139430135Y-125567856D01*
X139427212Y-125538487D01*
X139418401Y-125509119D01*
X139406655Y-125473874D01*
X139380221Y-125391639D01*
X139330295Y-125318215D01*
X139303861Y-125253602D01*
X139233374Y-125115565D01*
X139168761Y-125003961D01*
X139130581Y-124939348D01*
X139201068Y-124854176D01*
X139268618Y-124713202D01*
X139309733Y-124592786D01*
X139318545Y-124528173D01*
X139330291Y-124472371D01*
X139344978Y-124407758D01*
X139350824Y-124340208D01*
X139368447Y-124299093D01*
X139362601Y-124269724D01*
X139359678Y-124216857D01*
X139374365Y-124146370D01*
X139389053Y-124081757D01*
X139391976Y-124011270D01*
X139374353Y-123946657D01*
X139318551Y-123890854D01*
X139268624Y-123887931D01*
X139218698Y-123917300D01*
X139168772Y-123943734D01*
X139107096Y-123973102D01*
X139045420Y-124011282D01*
X139024862Y-124052398D01*
X138986682Y-124084701D01*
X138986682Y-124117011D01*
X138983760Y-124149315D01*
X138972013Y-124196306D01*
X138960267Y-124231551D01*
X138951456Y-124310849D01*
X138933833Y-124378399D01*
X138916211Y-124445949D01*
X138913288Y-124522310D01*
X138883919Y-124501752D01*
X138872173Y-124492941D01*
X138860427Y-124484130D01*
X138687146Y-124249174D01*
X138692992Y-124219805D01*
X138631316Y-124161067D01*
X138587260Y-124117011D01*
X138549080Y-124072955D01*
X138516770Y-124049456D01*
X138249507Y-123867365D01*
X138208392Y-123861519D01*
X138196646Y-123899699D01*
X138149654Y-123958437D01*
X138070356Y-124008363D01*
X138043923Y-124025986D01*
X138029235Y-124070042D01*
X138032158Y-124096476D01*
X138020412Y-124125844D01*
X138079149Y-124228638D01*
X138143762Y-124287376D01*
X138193689Y-124331432D01*
X138225992Y-124378423D01*
X138246550Y-124401922D01*
X138325848Y-124495904D01*
X138334659Y-124531149D01*
X138369904Y-124531149D01*
X138384592Y-124542895D01*
X138413960Y-124592822D01*
X138443329Y-124631002D01*
X138458017Y-124645689D01*
X138466828Y-124669182D01*
X138475639Y-124692674D01*
X138522630Y-124751412D01*
X138543188Y-124792527D01*
X138566680Y-124839518D01*
X138598984Y-124883574D01*
X138613672Y-124927631D01*
X138613688Y-124927602D01*
X138613688Y-124927602D01*
G37*
G36*
X139483027Y-124043577D02*
G01*
X139483027Y-124075887D01*
X139485950Y-124093510D01*
X139485950Y-124114067D01*
X139480104Y-124143436D01*
X139624015Y-124281473D01*
X139797296Y-124334340D01*
X139991135Y-124366650D01*
X140184974Y-124443011D01*
X140255461Y-124443011D01*
X140343570Y-124451822D01*
X140387626Y-124478256D01*
X140440494Y-124492943D01*
X140431682Y-124548745D01*
X140422871Y-124592802D01*
X140196725Y-124589879D01*
X139950021Y-124575191D01*
X139952943Y-124595749D01*
X139955866Y-124610436D01*
X139914751Y-124648616D01*
X139873636Y-124689731D01*
X139832521Y-124724976D01*
X139779654Y-124733788D01*
X139764966Y-124786655D01*
X139770812Y-124842457D01*
X139864794Y-124910007D01*
X139964651Y-124968745D01*
X140073319Y-125012801D01*
X140199608Y-125024547D01*
X140223101Y-125024547D01*
X140240723Y-125015736D01*
X140308274Y-125024547D01*
X140372886Y-125033359D01*
X140452184Y-125021612D01*
X140531482Y-125009866D01*
X140616654Y-125142029D01*
X140684204Y-125291814D01*
X140519734Y-125303560D01*
X140393445Y-125294749D01*
X140273030Y-125280068D01*
X140117371Y-125274222D01*
X139979334Y-125233107D01*
X139829550Y-125197862D01*
X139788434Y-125230166D01*
X139756125Y-125271281D01*
X139720880Y-125303591D01*
X139676823Y-125315337D01*
X139662136Y-125344706D01*
X139653325Y-125374075D01*
X139644514Y-125400508D01*
X139618080Y-125406354D01*
X139720874Y-125556139D01*
X139850100Y-125632500D01*
X140014569Y-125673615D01*
X140211345Y-125708860D01*
X140255401Y-125705938D01*
X140296517Y-125700092D01*
X140458049Y-125726525D01*
X140648951Y-125735337D01*
X140833980Y-125708903D01*
X140977891Y-125632542D01*
X141010201Y-125585551D01*
X141048381Y-125541495D01*
X141060127Y-125456324D01*
X141077749Y-125359404D01*
X141092431Y-125256610D01*
X141086585Y-125165564D01*
X141051340Y-125086267D01*
X141030783Y-125009906D01*
X141013160Y-124995224D01*
X140989667Y-124983478D01*
X140951487Y-124883621D01*
X140910372Y-124792576D01*
X140866316Y-124704467D01*
X140822260Y-124601674D01*
X140883936Y-124519439D01*
X140910370Y-124428393D01*
X140925057Y-124334410D01*
X140945615Y-124234554D01*
X140875127Y-124164067D01*
X140781145Y-124117076D01*
X140672478Y-124087707D01*
X140549126Y-124061273D01*
X140340601Y-124002536D01*
X140158510Y-123970232D01*
X139970545Y-123943798D01*
X139750273Y-123908553D01*
X139700346Y-123934987D01*
X139673913Y-123920300D01*
X139659225Y-123902677D01*
X139585802Y-123987849D01*
X139483008Y-124043651D01*
X139483027Y-124043577D01*
X139483027Y-124043577D01*
G37*
G36*
X142276075Y-125391641D02*
G01*
X142111602Y-124748475D01*
X141897204Y-124692673D01*
X141685743Y-124604564D01*
X141750356Y-124457716D01*
X141856087Y-124384292D01*
X141856089Y-124384293D01*
X141929513Y-124469464D01*
X142005874Y-124548762D01*
X142070487Y-124636871D01*
X142111602Y-124748475D01*
X142276075Y-125391641D01*
X142334812Y-125570796D01*
X142408237Y-125694147D01*
X142461104Y-125702959D01*
X142493414Y-125729392D01*
X142531594Y-125729392D01*
X142552152Y-125714705D01*
X142575650Y-125700017D01*
X142613830Y-125694172D01*
X142628518Y-125650116D01*
X142666698Y-125635428D01*
X142663775Y-125597248D01*
X142672586Y-125567879D01*
X142678432Y-125541446D01*
X142675509Y-125506201D01*
X142699001Y-125485643D01*
X142719559Y-125444528D01*
X142701937Y-125344672D01*
X142681379Y-125256563D01*
X142657886Y-125174328D01*
X142666698Y-125089156D01*
X142649075Y-125086233D01*
X142640264Y-125050988D01*
X142637341Y-125006932D01*
X142640264Y-124968752D01*
X142593273Y-124813094D01*
X142558028Y-124651561D01*
X142522783Y-124495902D01*
X142475792Y-124354928D01*
X142405305Y-124363739D01*
X142355378Y-124396043D01*
X142220278Y-124255069D01*
X142099863Y-124090599D01*
X141964763Y-123949626D01*
X141773861Y-123876202D01*
X141644635Y-123967248D01*
X141524219Y-124084726D01*
X141486039Y-124111159D01*
X141444924Y-124137593D01*
X141444924Y-124172838D01*
X141389122Y-124249199D01*
X141348007Y-124340245D01*
X141312762Y-124437164D01*
X141271647Y-124528210D01*
X141277492Y-124554644D01*
X141274569Y-124575201D01*
X141265758Y-124598700D01*
X141265758Y-124631004D01*
X141350930Y-124839527D01*
X141530084Y-124971691D01*
X141756230Y-125056862D01*
X141973565Y-125133223D01*
X141964754Y-125144970D01*
X141955942Y-125159657D01*
X141844338Y-125230144D01*
X141767978Y-125274200D01*
X141688679Y-125306510D01*
X141568264Y-125335879D01*
X141450786Y-125365248D01*
X141371488Y-125382870D01*
X141301001Y-125394616D01*
X141195270Y-125403428D01*
X141151214Y-125468041D01*
X141124780Y-125541465D01*
X141121857Y-125611952D01*
X141142415Y-125664819D01*
X141130669Y-125673631D01*
X141107170Y-125673631D01*
X141136539Y-125702999D01*
X141160031Y-125738244D01*
X141186465Y-125767613D01*
X141227580Y-125785236D01*
X141456663Y-125788158D01*
X141806161Y-125676554D01*
X141979441Y-125606067D01*
X142093982Y-125544391D01*
X142182091Y-125476841D01*
X142276074Y-125391669D01*
X142276075Y-125391641D01*
X142276075Y-125391641D01*
G37*
G36*
X144102863Y-124375453D02*
G01*
X144038249Y-124269723D01*
X143938393Y-124196299D01*
X143823851Y-124143432D01*
X143712247Y-124108187D01*
X143462606Y-124014204D01*
X143189468Y-123931969D01*
X142901647Y-123887913D01*
X142593266Y-123923158D01*
X142566832Y-123978960D01*
X142531587Y-124031828D01*
X142496342Y-124084695D01*
X142478720Y-124134622D01*
X142431729Y-124193359D01*
X142425883Y-124272657D01*
X142484620Y-124316713D01*
X142543358Y-124349017D01*
X142763630Y-124331395D01*
X142963343Y-124346082D01*
X143027956Y-124319648D01*
X143104317Y-124331395D01*
X143183615Y-124354887D01*
X143257038Y-124360733D01*
X143330463Y-124393037D01*
X143421508Y-124404783D01*
X143415663Y-124425341D01*
X143412740Y-124442963D01*
X143368684Y-124472332D01*
X143309946Y-124489954D01*
X143254144Y-124513447D01*
X143221840Y-124554562D01*
X143145479Y-124575120D01*
X143092611Y-124625046D01*
X143063242Y-124689659D01*
X143051496Y-124748396D01*
X143030939Y-124768954D01*
X143004505Y-124780700D01*
X142960449Y-124859998D01*
X142904646Y-124945170D01*
X142895835Y-125077333D01*
X142916392Y-125191875D01*
X143039745Y-125385713D01*
X143215962Y-125538435D01*
X143424486Y-125650039D01*
X143641821Y-125729338D01*
X143665320Y-125729338D01*
X143671165Y-125714650D01*
X143724033Y-125741084D01*
X143782770Y-125744007D01*
X143850320Y-125741084D01*
X143911997Y-125744007D01*
X143950177Y-125702892D01*
X143973669Y-125655900D01*
X143988357Y-125641213D01*
X143997168Y-125626526D01*
X143982480Y-125594222D01*
X143991292Y-125585411D01*
X144003038Y-125579565D01*
X144005961Y-125564883D01*
X143997150Y-125512016D01*
X144002995Y-125447403D01*
X144000072Y-125385727D01*
X143956016Y-125338735D01*
X143768051Y-125332890D01*
X143597708Y-125277087D01*
X143447923Y-125200727D01*
X143304012Y-125127303D01*
X143280513Y-125083247D01*
X143245268Y-125050937D01*
X143212958Y-125018633D01*
X143192401Y-124974577D01*
X143204147Y-124951078D01*
X143215894Y-124927585D01*
X143248197Y-124918774D01*
X143374487Y-124865907D01*
X143494902Y-124815981D01*
X143556578Y-124824792D01*
X143627065Y-124807169D01*
X143820904Y-124786612D01*
X143997122Y-124733744D01*
X144011809Y-124707311D01*
X144044113Y-124701465D01*
X144079358Y-124657409D01*
X144111662Y-124607482D01*
X144102850Y-124548745D01*
X144120473Y-124498819D01*
X144102850Y-124437142D01*
X144102850Y-124375466D01*
X144102863Y-124375453D01*
X144102863Y-124375453D01*
G37*
G36*
X143944267Y-125168432D02*
G01*
X144025768Y-125280771D01*
X144129295Y-125365208D01*
X144249711Y-125427619D01*
X144381874Y-125479749D01*
X144523582Y-125521601D01*
X144672632Y-125559044D01*
X144820214Y-125599429D01*
X144963391Y-125650092D01*
X145002302Y-125650823D01*
X145036810Y-125653015D01*
X145066179Y-125656668D01*
X145095547Y-125661844D01*
X145121981Y-125665498D01*
X145148415Y-125670674D01*
X145176316Y-125673597D01*
X145207152Y-125676519D01*
X145216700Y-125676519D01*
X145221815Y-125682365D01*
X145225469Y-125688211D01*
X145230645Y-125694118D01*
X145278373Y-125700724D01*
X145300587Y-125702369D01*
X145321699Y-125702919D01*
X145337853Y-125702919D01*
X145354008Y-125702919D01*
X145370163Y-125702919D01*
X145386318Y-125702919D01*
X145404123Y-125703470D01*
X145422294Y-125705114D01*
X145440836Y-125707854D01*
X145459743Y-125711690D01*
X145477000Y-125716622D01*
X145493521Y-125719728D01*
X145509304Y-125721007D01*
X145524357Y-125720457D01*
X145628619Y-125706324D01*
X145721133Y-125675670D01*
X145801899Y-125628496D01*
X145870918Y-125564800D01*
X145925801Y-125484401D01*
X145967099Y-125390051D01*
X145994817Y-125281750D01*
X146008951Y-125159499D01*
X146008220Y-125152893D01*
X146008951Y-125147778D01*
X146011143Y-125144124D01*
X146014796Y-125141932D01*
X146017719Y-125140288D01*
X146020642Y-125138278D01*
X146023565Y-125135903D01*
X146026488Y-125133163D01*
X146026123Y-125119030D01*
X146025027Y-125105999D01*
X146023200Y-125094070D01*
X146020642Y-125083243D01*
X146017171Y-125072227D01*
X146015527Y-125059744D01*
X146015715Y-125045794D01*
X146017725Y-125030376D01*
X145978260Y-124951078D01*
X145936225Y-124874717D01*
X145891621Y-124801293D01*
X145844447Y-124730806D01*
X145793602Y-124662522D01*
X145737982Y-124598643D01*
X145677588Y-124539169D01*
X145612424Y-124484103D01*
X145602511Y-124475292D01*
X145593334Y-124466481D01*
X145584888Y-124457669D01*
X145577179Y-124448858D01*
X145570018Y-124440047D01*
X145563223Y-124431236D01*
X145556798Y-124422424D01*
X145550770Y-124413613D01*
X145543244Y-124405167D01*
X145535352Y-124397458D01*
X145518466Y-124384244D01*
X145498639Y-124371761D01*
X145474410Y-124363687D01*
X145406860Y-124296137D01*
X145327562Y-124234461D01*
X145240188Y-124177191D01*
X145148408Y-124122856D01*
X145055159Y-124067790D01*
X144963379Y-124014192D01*
X144873802Y-123955454D01*
X144793036Y-123890841D01*
X144765135Y-123900389D01*
X144746045Y-123899659D01*
X144730626Y-123896736D01*
X144713741Y-123899659D01*
X144689511Y-123937108D01*
X144657938Y-123961337D01*
X144620489Y-123979690D01*
X144584513Y-123999517D01*
X144547801Y-124019344D01*
X144514023Y-124043573D01*
X144485385Y-124074410D01*
X144464097Y-124114057D01*
X144477317Y-124117711D01*
X144481701Y-124128726D01*
X144478048Y-124141210D01*
X144472872Y-124155160D01*
X144469218Y-124167643D01*
X144469949Y-124181594D01*
X144475064Y-124190405D01*
X144490482Y-124193328D01*
X144484636Y-124205074D01*
X144472878Y-124210920D01*
X144459664Y-124214574D01*
X144455280Y-124225589D01*
X144457472Y-124238803D01*
X144464079Y-124249082D01*
X144467002Y-124260828D01*
X144464079Y-124278451D01*
X144526488Y-124315894D01*
X144596242Y-124351869D01*
X144668931Y-124388582D01*
X144746026Y-124428229D01*
X144824590Y-124468614D01*
X144907559Y-124513401D01*
X144989060Y-124561129D01*
X145069092Y-124616194D01*
X145149124Y-124678604D01*
X145230624Y-124748357D01*
X145311391Y-124821047D01*
X145350673Y-124859045D01*
X145389219Y-124898144D01*
X145426851Y-124938157D01*
X145463380Y-124978907D01*
X145498808Y-125020393D01*
X145533134Y-125062611D01*
X145565626Y-125103726D01*
X145595549Y-125144841D01*
X145622896Y-125185956D01*
X145647674Y-125227071D01*
X145644751Y-125234049D01*
X145641828Y-125240291D01*
X145638905Y-125245771D01*
X145635982Y-125250521D01*
X145631780Y-125253992D01*
X145627944Y-125258559D01*
X145624473Y-125264222D01*
X145621368Y-125271023D01*
X145575296Y-125273216D01*
X145531057Y-125273946D01*
X145488657Y-125273216D01*
X145448090Y-125271023D01*
X145406975Y-125268283D01*
X145365860Y-125268834D01*
X145324745Y-125272670D01*
X145283630Y-125279831D01*
X145279611Y-125276543D01*
X145276323Y-125272524D01*
X145273765Y-125267774D01*
X145271938Y-125262233D01*
X145269929Y-125256753D01*
X145266823Y-125252003D01*
X145262622Y-125247984D01*
X145257263Y-125244696D01*
X145095730Y-125222665D01*
X144945945Y-125191822D01*
X144800566Y-125152905D01*
X144652250Y-125112521D01*
X144675011Y-125104440D01*
X144696306Y-125097834D01*
X144713928Y-125089759D01*
X144731551Y-125083152D01*
X144738894Y-125069938D01*
X144731551Y-125059666D01*
X144715396Y-125047919D01*
X144702182Y-125036167D01*
X144739625Y-125009739D01*
X144769731Y-124977430D01*
X144788821Y-124936308D01*
X144799100Y-124883441D01*
X144785886Y-124867286D01*
X144781501Y-124848196D01*
X144785886Y-124829837D01*
X144799100Y-124815886D01*
X144808648Y-124814425D01*
X144813763Y-124815886D01*
X144816685Y-124819540D01*
X144819608Y-124824716D01*
X144820339Y-124830561D01*
X144822531Y-124836468D01*
X144827646Y-124837199D01*
X144837200Y-124833545D01*
X144832816Y-124809316D01*
X144825466Y-124789489D01*
X144815187Y-124770399D01*
X144807844Y-124748374D01*
X144706519Y-124680824D01*
X144605194Y-124613274D01*
X144569212Y-124638234D01*
X144525893Y-124666141D01*
X144478165Y-124693306D01*
X144428969Y-124721944D01*
X144376102Y-124749108D01*
X144323240Y-124777746D01*
X144269642Y-124804180D01*
X144220447Y-124830614D01*
X144181536Y-124851171D01*
X144147028Y-124877605D01*
X144115455Y-124907711D01*
X144085349Y-124939284D01*
X144055980Y-124968652D01*
X144026612Y-124998021D01*
X143992103Y-125025186D01*
X143953193Y-125047947D01*
X143955385Y-125082456D01*
X143950270Y-125109620D01*
X143944424Y-125136048D01*
X143944445Y-125168358D01*
X143944426Y-125168391D01*
X143944267Y-125168432D01*
X143944267Y-125168432D01*
G37*
G36*
X122841200Y-115803800D02*
G01*
X117188800Y-115803800D01*
X117188800Y-110151400D01*
X122841200Y-110151400D01*
X122841200Y-115803800D01*
X122841200Y-115803800D01*
G37*
G36*
X122091200Y-102253800D02*
G01*
X117938800Y-102253800D01*
X117938800Y-98101400D01*
X122091200Y-98101400D01*
X122091200Y-102253800D01*
X122091200Y-102253800D01*
G37*
G36*
X138768194Y-96375396D02*
G01*
X139035607Y-96428587D01*
X139327852Y-96549639D01*
X139413450Y-96585095D01*
X139668200Y-96755314D01*
X139753502Y-96812311D01*
X140042689Y-97101498D01*
X140042690Y-97101500D01*
X140269905Y-97441550D01*
X140269906Y-97441553D01*
X140426413Y-97819393D01*
X140506200Y-98220513D01*
X140506200Y-98629487D01*
X140426413Y-99030607D01*
X140305361Y-99322852D01*
X140269905Y-99408450D01*
X140099686Y-99663200D01*
X140042689Y-99748502D01*
X139753502Y-100037689D01*
X139668200Y-100094686D01*
X139413450Y-100264905D01*
X139327852Y-100300361D01*
X139035607Y-100421413D01*
X138768194Y-100474604D01*
X138634488Y-100501200D01*
X138225512Y-100501200D01*
X138091806Y-100474604D01*
X137824393Y-100421413D01*
X137532148Y-100300361D01*
X137446550Y-100264905D01*
X137191800Y-100094686D01*
X137106498Y-100037689D01*
X136817311Y-99748502D01*
X136760314Y-99663200D01*
X136590095Y-99408450D01*
X136554639Y-99322852D01*
X136433587Y-99030607D01*
X136353800Y-98629487D01*
X136353800Y-98220513D01*
X136433587Y-97819393D01*
X136590094Y-97441553D01*
X136590095Y-97441550D01*
X136817310Y-97101500D01*
X136817311Y-97101498D01*
X137106498Y-96812311D01*
X137191800Y-96755314D01*
X137446550Y-96585095D01*
X137532148Y-96549639D01*
X137824393Y-96428587D01*
X138091806Y-96375396D01*
X138225512Y-96348800D01*
X138634488Y-96348800D01*
X138768194Y-96375396D01*
X138768194Y-96375396D01*
G37*
G36*
X167816200Y-98596200D02*
G01*
X164863800Y-98596200D01*
X164863800Y-97443800D01*
X167816200Y-97443800D01*
X167816200Y-98596200D01*
X167816200Y-98596200D01*
G37*
G36*
X165016200Y-96596200D02*
G01*
X163863800Y-96596200D01*
X163863800Y-95743800D01*
X165016200Y-95743800D01*
X165016200Y-96596200D01*
X165016200Y-96596200D01*
G37*
G36*
X166443489Y-94914022D02*
G01*
X166539247Y-94953686D01*
X166625434Y-95011275D01*
X166698725Y-95084566D01*
X166756314Y-95170753D01*
X166795978Y-95266511D01*
X166816200Y-95368174D01*
X166816200Y-95471826D01*
X166795978Y-95573489D01*
X166756314Y-95669247D01*
X166698725Y-95755434D01*
X166625434Y-95828725D01*
X166539247Y-95886314D01*
X166443489Y-95925978D01*
X166341826Y-95946200D01*
X166238174Y-95946200D01*
X166136511Y-95925978D01*
X166040753Y-95886314D01*
X165954566Y-95828725D01*
X165881275Y-95755434D01*
X165823686Y-95669247D01*
X165784022Y-95573489D01*
X165763800Y-95471826D01*
X165763800Y-95368174D01*
X165784022Y-95266511D01*
X165823686Y-95170753D01*
X165881275Y-95084566D01*
X165954566Y-95011275D01*
X166040753Y-94953686D01*
X166136511Y-94914022D01*
X166238174Y-94893800D01*
X166341826Y-94893800D01*
X166443489Y-94914022D01*
X166443489Y-94914022D01*
G37*
G36*
X165016200Y-95096200D02*
G01*
X163863800Y-95096200D01*
X163863800Y-94243800D01*
X165016200Y-94243800D01*
X165016200Y-95096200D01*
X165016200Y-95096200D01*
G37*
G36*
X166393489Y-91914022D02*
G01*
X166489247Y-91953686D01*
X166575434Y-92011275D01*
X166648725Y-92084566D01*
X166706314Y-92170753D01*
X166745978Y-92266511D01*
X166766200Y-92368174D01*
X166766200Y-92471826D01*
X166745978Y-92573489D01*
X166706314Y-92669247D01*
X166648725Y-92755434D01*
X166575434Y-92828725D01*
X166489247Y-92886314D01*
X166393489Y-92925978D01*
X166291826Y-92946200D01*
X166188174Y-92946200D01*
X166086511Y-92925978D01*
X165990753Y-92886314D01*
X165904566Y-92828725D01*
X165831275Y-92755434D01*
X165773686Y-92669247D01*
X165734022Y-92573489D01*
X165713800Y-92471826D01*
X165713800Y-92368174D01*
X165734022Y-92266511D01*
X165773686Y-92170753D01*
X165831275Y-92084566D01*
X165904566Y-92011275D01*
X165990753Y-91953686D01*
X166086511Y-91914022D01*
X166188174Y-91893800D01*
X166291826Y-91893800D01*
X166393489Y-91914022D01*
X166393489Y-91914022D01*
G37*
G36*
X165016200Y-92096200D02*
G01*
X163863800Y-92096200D01*
X163863800Y-91243800D01*
X165016200Y-91243800D01*
X165016200Y-92096200D01*
X165016200Y-92096200D01*
G37*
G36*
X167816200Y-90646200D02*
G01*
X164863800Y-90646200D01*
X164863800Y-89493800D01*
X167816200Y-89493800D01*
X167816200Y-90646200D01*
X167816200Y-90646200D01*
G37*
G36*
X122841200Y-90203800D02*
G01*
X117188800Y-90203800D01*
X117188800Y-84551400D01*
X122841200Y-84551400D01*
X122841200Y-90203800D01*
X122841200Y-90203800D01*
G37*
G36*
X163759149Y-85141915D02*
G01*
X163936802Y-85215502D01*
X163936804Y-85215503D01*
X164096691Y-85322336D01*
X164232664Y-85458309D01*
X164322527Y-85592798D01*
X164339498Y-85618198D01*
X164413085Y-85795851D01*
X164450600Y-85984453D01*
X164450600Y-86176747D01*
X164413085Y-86365349D01*
X164350019Y-86517602D01*
X164339497Y-86543004D01*
X164232664Y-86702891D01*
X164096691Y-86838864D01*
X163936804Y-86945697D01*
X163936803Y-86945698D01*
X163936802Y-86945698D01*
X163759149Y-87019285D01*
X163570547Y-87056800D01*
X163378253Y-87056800D01*
X163189651Y-87019285D01*
X163011998Y-86945698D01*
X163011997Y-86945698D01*
X163011996Y-86945697D01*
X162852109Y-86838864D01*
X162716136Y-86702891D01*
X162609303Y-86543004D01*
X162598781Y-86517602D01*
X162535715Y-86365349D01*
X162498200Y-86176747D01*
X162498200Y-85984453D01*
X162535715Y-85795851D01*
X162609302Y-85618198D01*
X162626274Y-85592798D01*
X162716136Y-85458309D01*
X162852109Y-85322336D01*
X163011996Y-85215503D01*
X163011998Y-85215502D01*
X163189651Y-85141915D01*
X163378253Y-85104400D01*
X163570547Y-85104400D01*
X163759149Y-85141915D01*
X163759149Y-85141915D01*
G37*
G36*
X161910600Y-87056800D02*
G01*
X159958200Y-87056800D01*
X159958200Y-85104400D01*
X161910600Y-85104400D01*
X161910600Y-87056800D01*
X161910600Y-87056800D01*
G37*
G36*
X157688549Y-85141915D02*
G01*
X157866202Y-85215502D01*
X157866204Y-85215503D01*
X158026091Y-85322336D01*
X158162064Y-85458309D01*
X158251927Y-85592798D01*
X158268898Y-85618198D01*
X158342485Y-85795851D01*
X158380000Y-85984453D01*
X158380000Y-86176747D01*
X158342485Y-86365349D01*
X158279419Y-86517602D01*
X158268897Y-86543004D01*
X158162064Y-86702891D01*
X158026091Y-86838864D01*
X157866204Y-86945697D01*
X157866203Y-86945698D01*
X157866202Y-86945698D01*
X157688549Y-87019285D01*
X157499947Y-87056800D01*
X157307653Y-87056800D01*
X157119051Y-87019285D01*
X156941398Y-86945698D01*
X156941397Y-86945698D01*
X156941396Y-86945697D01*
X156781509Y-86838864D01*
X156645536Y-86702891D01*
X156538703Y-86543004D01*
X156528181Y-86517602D01*
X156465115Y-86365349D01*
X156427600Y-86176747D01*
X156427600Y-85984453D01*
X156465115Y-85795851D01*
X156538702Y-85618198D01*
X156555674Y-85592798D01*
X156645536Y-85458309D01*
X156781509Y-85322336D01*
X156941396Y-85215503D01*
X156941398Y-85215502D01*
X157119051Y-85141915D01*
X157307653Y-85104400D01*
X157499947Y-85104400D01*
X157688549Y-85141915D01*
X157688549Y-85141915D01*
G37*
G36*
X155840000Y-87056800D02*
G01*
X153887600Y-87056800D01*
X153887600Y-85104400D01*
X155840000Y-85104400D01*
X155840000Y-87056800D01*
X155840000Y-87056800D01*
G37*
G36*
X149794800Y-87031400D02*
G01*
X147842400Y-87031400D01*
X147842400Y-85079000D01*
X149794800Y-85079000D01*
X149794800Y-87031400D01*
X149794800Y-87031400D01*
G37*
G36*
X151643349Y-85116515D02*
G01*
X151821002Y-85190102D01*
X151821004Y-85190103D01*
X151980891Y-85296936D01*
X152116864Y-85432909D01*
X152133836Y-85458309D01*
X152223698Y-85592798D01*
X152297285Y-85770451D01*
X152334800Y-85959053D01*
X152334800Y-86151347D01*
X152297285Y-86339949D01*
X152223698Y-86517602D01*
X152223697Y-86517604D01*
X152116864Y-86677491D01*
X151980891Y-86813464D01*
X151821004Y-86920297D01*
X151821003Y-86920298D01*
X151821002Y-86920298D01*
X151643349Y-86993885D01*
X151454747Y-87031400D01*
X151262453Y-87031400D01*
X151073851Y-86993885D01*
X150896198Y-86920298D01*
X150896197Y-86920298D01*
X150896196Y-86920297D01*
X150736309Y-86813464D01*
X150600336Y-86677491D01*
X150493503Y-86517604D01*
X150493502Y-86517602D01*
X150419915Y-86339949D01*
X150382400Y-86151347D01*
X150382400Y-85959053D01*
X150419915Y-85770451D01*
X150493502Y-85592798D01*
X150583365Y-85458309D01*
X150600336Y-85432909D01*
X150736309Y-85296936D01*
X150896196Y-85190103D01*
X150896198Y-85190102D01*
X151073851Y-85116515D01*
X151262453Y-85079000D01*
X151454747Y-85079000D01*
X151643349Y-85116515D01*
X151643349Y-85116515D01*
G37*
M02*
