G04 #@! TF.GenerationSoftware,KiCad,Pcbnew,6.0.0-rc1-unknown-5b3202d~66~ubuntu16.04.1*
G04 #@! TF.CreationDate,2018-12-07T08:51:36-07:00
G04 #@! TF.ProjectId,MakerCozumel,4d616b65-7243-46f7-9a75-6d656c2e6b69,rev?*
G04 #@! TF.SameCoordinates,Original*
G04 #@! TF.FileFunction,Soldermask,Top*
G04 #@! TF.FilePolarity,Negative*
%FSLAX46Y46*%
G04 Gerber Fmt 4.6, Leading zero omitted, Abs format (unit mm)*
G04 Created by KiCad (PCBNEW 6.0.0-rc1-unknown-5b3202d~66~ubuntu16.04.1) date Fri 07 Dec 2018 08:51:36 AM MST*
%MOMM*%
%LPD*%
G04 APERTURE LIST*
%ADD10C,0.100000*%
G04 APERTURE END LIST*
D10*
G36*
X166443489Y-94914022D02*
G01*
X166539247Y-94953686D01*
X166625434Y-95011275D01*
X166698725Y-95084566D01*
X166756314Y-95170753D01*
X166795978Y-95266511D01*
X166816200Y-95368174D01*
X166816200Y-95471826D01*
X166795978Y-95573489D01*
X166756314Y-95669247D01*
X166698725Y-95755434D01*
X166625434Y-95828725D01*
X166539247Y-95886314D01*
X166443489Y-95925978D01*
X166341826Y-95946200D01*
X166238174Y-95946200D01*
X166136511Y-95925978D01*
X166040753Y-95886314D01*
X165954566Y-95828725D01*
X165881275Y-95755434D01*
X165823686Y-95669247D01*
X165784022Y-95573489D01*
X165763800Y-95471826D01*
X165763800Y-95368174D01*
X165784022Y-95266511D01*
X165823686Y-95170753D01*
X165881275Y-95084566D01*
X165954566Y-95011275D01*
X166040753Y-94953686D01*
X166136511Y-94914022D01*
X166238174Y-94893800D01*
X166341826Y-94893800D01*
X166443489Y-94914022D01*
X166443489Y-94914022D01*
G37*
G36*
X166393489Y-91914022D02*
G01*
X166489247Y-91953686D01*
X166575434Y-92011275D01*
X166648725Y-92084566D01*
X166706314Y-92170753D01*
X166745978Y-92266511D01*
X166766200Y-92368174D01*
X166766200Y-92471826D01*
X166745978Y-92573489D01*
X166706314Y-92669247D01*
X166648725Y-92755434D01*
X166575434Y-92828725D01*
X166489247Y-92886314D01*
X166393489Y-92925978D01*
X166291826Y-92946200D01*
X166188174Y-92946200D01*
X166086511Y-92925978D01*
X165990753Y-92886314D01*
X165904566Y-92828725D01*
X165831275Y-92755434D01*
X165773686Y-92669247D01*
X165734022Y-92573489D01*
X165713800Y-92471826D01*
X165713800Y-92368174D01*
X165734022Y-92266511D01*
X165773686Y-92170753D01*
X165831275Y-92084566D01*
X165904566Y-92011275D01*
X165990753Y-91953686D01*
X166086511Y-91914022D01*
X166188174Y-91893800D01*
X166291826Y-91893800D01*
X166393489Y-91914022D01*
X166393489Y-91914022D01*
G37*
G36*
X163759149Y-85141915D02*
G01*
X163936802Y-85215502D01*
X163936804Y-85215503D01*
X164096691Y-85322336D01*
X164232664Y-85458309D01*
X164322527Y-85592798D01*
X164339498Y-85618198D01*
X164413085Y-85795851D01*
X164450600Y-85984453D01*
X164450600Y-86176747D01*
X164413085Y-86365349D01*
X164350019Y-86517602D01*
X164339497Y-86543004D01*
X164232664Y-86702891D01*
X164096691Y-86838864D01*
X163936804Y-86945697D01*
X163936803Y-86945698D01*
X163936802Y-86945698D01*
X163759149Y-87019285D01*
X163570547Y-87056800D01*
X163378253Y-87056800D01*
X163189651Y-87019285D01*
X163011998Y-86945698D01*
X163011997Y-86945698D01*
X163011996Y-86945697D01*
X162852109Y-86838864D01*
X162716136Y-86702891D01*
X162609303Y-86543004D01*
X162598781Y-86517602D01*
X162535715Y-86365349D01*
X162498200Y-86176747D01*
X162498200Y-85984453D01*
X162535715Y-85795851D01*
X162609302Y-85618198D01*
X162626274Y-85592798D01*
X162716136Y-85458309D01*
X162852109Y-85322336D01*
X163011996Y-85215503D01*
X163011998Y-85215502D01*
X163189651Y-85141915D01*
X163378253Y-85104400D01*
X163570547Y-85104400D01*
X163759149Y-85141915D01*
X163759149Y-85141915D01*
G37*
G36*
X161910600Y-87056800D02*
G01*
X159958200Y-87056800D01*
X159958200Y-85104400D01*
X161910600Y-85104400D01*
X161910600Y-87056800D01*
X161910600Y-87056800D01*
G37*
G36*
X157688549Y-85141915D02*
G01*
X157866202Y-85215502D01*
X157866204Y-85215503D01*
X158026091Y-85322336D01*
X158162064Y-85458309D01*
X158251927Y-85592798D01*
X158268898Y-85618198D01*
X158342485Y-85795851D01*
X158380000Y-85984453D01*
X158380000Y-86176747D01*
X158342485Y-86365349D01*
X158279419Y-86517602D01*
X158268897Y-86543004D01*
X158162064Y-86702891D01*
X158026091Y-86838864D01*
X157866204Y-86945697D01*
X157866203Y-86945698D01*
X157866202Y-86945698D01*
X157688549Y-87019285D01*
X157499947Y-87056800D01*
X157307653Y-87056800D01*
X157119051Y-87019285D01*
X156941398Y-86945698D01*
X156941397Y-86945698D01*
X156941396Y-86945697D01*
X156781509Y-86838864D01*
X156645536Y-86702891D01*
X156538703Y-86543004D01*
X156528181Y-86517602D01*
X156465115Y-86365349D01*
X156427600Y-86176747D01*
X156427600Y-85984453D01*
X156465115Y-85795851D01*
X156538702Y-85618198D01*
X156555674Y-85592798D01*
X156645536Y-85458309D01*
X156781509Y-85322336D01*
X156941396Y-85215503D01*
X156941398Y-85215502D01*
X157119051Y-85141915D01*
X157307653Y-85104400D01*
X157499947Y-85104400D01*
X157688549Y-85141915D01*
X157688549Y-85141915D01*
G37*
G36*
X155840000Y-87056800D02*
G01*
X153887600Y-87056800D01*
X153887600Y-85104400D01*
X155840000Y-85104400D01*
X155840000Y-87056800D01*
X155840000Y-87056800D01*
G37*
G36*
X151643349Y-85116515D02*
G01*
X151821002Y-85190102D01*
X151821004Y-85190103D01*
X151980891Y-85296936D01*
X152116864Y-85432909D01*
X152133836Y-85458309D01*
X152223698Y-85592798D01*
X152297285Y-85770451D01*
X152334800Y-85959053D01*
X152334800Y-86151347D01*
X152297285Y-86339949D01*
X152223698Y-86517602D01*
X152223697Y-86517604D01*
X152116864Y-86677491D01*
X151980891Y-86813464D01*
X151821004Y-86920297D01*
X151821003Y-86920298D01*
X151821002Y-86920298D01*
X151643349Y-86993885D01*
X151454747Y-87031400D01*
X151262453Y-87031400D01*
X151073851Y-86993885D01*
X150896198Y-86920298D01*
X150896197Y-86920298D01*
X150896196Y-86920297D01*
X150736309Y-86813464D01*
X150600336Y-86677491D01*
X150493503Y-86517604D01*
X150493502Y-86517602D01*
X150419915Y-86339949D01*
X150382400Y-86151347D01*
X150382400Y-85959053D01*
X150419915Y-85770451D01*
X150493502Y-85592798D01*
X150583365Y-85458309D01*
X150600336Y-85432909D01*
X150736309Y-85296936D01*
X150896196Y-85190103D01*
X150896198Y-85190102D01*
X151073851Y-85116515D01*
X151262453Y-85079000D01*
X151454747Y-85079000D01*
X151643349Y-85116515D01*
X151643349Y-85116515D01*
G37*
G36*
X149794800Y-87031400D02*
G01*
X147842400Y-87031400D01*
X147842400Y-85079000D01*
X149794800Y-85079000D01*
X149794800Y-87031400D01*
X149794800Y-87031400D01*
G37*
M02*
