G04 #@! TF.GenerationSoftware,KiCad,Pcbnew,5.0.2-bee76a0~70~ubuntu16.04.1*
G04 #@! TF.CreationDate,2019-01-04T08:40:48-07:00*
G04 #@! TF.ProjectId,MakerCozumel,4d616b65-7243-46f7-9a75-6d656c2e6b69,rev?*
G04 #@! TF.SameCoordinates,Original*
G04 #@! TF.FileFunction,Copper,L2,Bot*
G04 #@! TF.FilePolarity,Positive*
%FSLAX46Y46*%
G04 Gerber Fmt 4.6, Leading zero omitted, Abs format (unit mm)*
G04 Created by KiCad (PCBNEW 5.0.2-bee76a0~70~ubuntu16.04.1) date Fri 04 Jan 2019 08:40:48 MST*
%MOMM*%
%LPD*%
G01*
G04 APERTURE LIST*
G04 #@! TA.AperFunction,EtchedComponent*
%ADD10C,0.100000*%
G04 #@! TD*
G04 #@! TA.AperFunction,SMDPad,CuDef*
%ADD11R,4.000000X4.000000*%
G04 #@! TD*
G04 #@! TA.AperFunction,SMDPad,CuDef*
%ADD12R,5.500000X5.500000*%
G04 #@! TD*
G04 #@! TA.AperFunction,WasherPad*
%ADD13C,0.900000*%
G04 #@! TD*
G04 #@! TA.AperFunction,SMDPad,CuDef*
%ADD14R,2.800000X1.000000*%
G04 #@! TD*
G04 #@! TA.AperFunction,SMDPad,CuDef*
%ADD15R,1.000000X0.700000*%
G04 #@! TD*
G04 #@! TA.AperFunction,ComponentPad*
%ADD16R,1.800000X1.800000*%
G04 #@! TD*
G04 #@! TA.AperFunction,ComponentPad*
%ADD17C,1.800000*%
G04 #@! TD*
G04 #@! TA.AperFunction,BGAPad,CuDef*
%ADD18C,5.000000*%
G04 #@! TD*
G04 #@! TA.AperFunction,Conductor*
%ADD19C,1.270000*%
G04 #@! TD*
G04 #@! TA.AperFunction,Conductor*
%ADD20C,0.254000*%
G04 #@! TD*
G04 APERTURE END LIST*
D10*
G04 #@! TO.C,svg2mod*
G36*
X131042127Y-125069380D02*
X131890797Y-124561327D01*
X131732201Y-124549580D01*
X131570669Y-124523146D01*
X131614725Y-124341055D01*
X131664651Y-124150153D01*
X131682274Y-124179522D01*
X131796815Y-124317558D01*
X131887860Y-124461470D01*
X131923105Y-124514337D01*
X131955409Y-124567205D01*
X131923105Y-124564282D01*
X131890795Y-124561359D01*
X131890797Y-124561327D01*
X131042127Y-125069380D01*
X131094994Y-125172174D01*
X131174293Y-125263219D01*
X131274149Y-125327832D01*
X131391628Y-125357201D01*
X131444495Y-125336644D01*
X131470929Y-125319021D01*
X131488551Y-125310210D01*
X131500297Y-125301399D01*
X131535542Y-125286711D01*
X131523796Y-125248531D01*
X131526719Y-125213286D01*
X131561964Y-125175106D01*
X131579586Y-125157484D01*
X131594274Y-125139861D01*
X131644200Y-125084059D01*
X131564903Y-125063501D01*
X131467983Y-125010634D01*
X131447425Y-124901966D01*
X131547282Y-124899044D01*
X131626579Y-124919601D01*
X131735247Y-124946035D01*
X131852726Y-124954846D01*
X131896782Y-124954846D01*
X131940838Y-124949000D01*
X131970207Y-124943155D01*
X131981953Y-124907910D01*
X131993699Y-124896163D01*
X132026009Y-124857983D01*
X132031855Y-124793370D01*
X132049478Y-124740503D01*
X132075911Y-124813927D01*
X132087658Y-124843296D01*
X132117026Y-124849142D01*
X132125838Y-124863829D01*
X132128760Y-124878516D01*
X132143448Y-124928443D01*
X132155194Y-124940189D01*
X132166940Y-124949000D01*
X132181628Y-125001868D01*
X132199250Y-125051794D01*
X132225684Y-125128155D01*
X132231530Y-125198641D01*
X132243276Y-125230951D01*
X132275586Y-125260320D01*
X132310831Y-125277943D01*
X132328453Y-125289689D01*
X132343141Y-125295535D01*
X132351952Y-125327838D01*
X132387197Y-125333684D01*
X132434188Y-125342495D01*
X132463557Y-125345418D01*
X132492926Y-125342495D01*
X132542852Y-125301380D01*
X132583967Y-125269070D01*
X132613336Y-125216203D01*
X132619182Y-125183899D01*
X132625027Y-125154530D01*
X132633839Y-125136908D01*
X132672019Y-125101663D01*
X132639709Y-125075229D01*
X132636786Y-125025303D01*
X132513434Y-124737481D01*
X132375397Y-124455533D01*
X132331340Y-124361551D01*
X132284349Y-124267568D01*
X132287272Y-124247011D01*
X132281426Y-124220577D01*
X132228559Y-124132468D01*
X132187444Y-124050233D01*
X132140452Y-123953313D01*
X132075839Y-123856394D01*
X132028848Y-123835836D01*
X132008291Y-123829991D01*
X131981857Y-123824145D01*
X131937801Y-123829991D01*
X131793890Y-123724260D01*
X131667601Y-123556853D01*
X131638232Y-123515738D01*
X131600052Y-123539231D01*
X131558937Y-123556853D01*
X131503134Y-123571541D01*
X131403278Y-123597974D01*
X131326917Y-123642031D01*
X131306359Y-123712517D01*
X131297548Y-123759509D01*
X131282861Y-123859365D01*
X131271115Y-123970969D01*
X131247616Y-124070826D01*
X131227058Y-124167745D01*
X131197690Y-124305783D01*
X131159510Y-124429135D01*
X131130141Y-124432058D01*
X131100772Y-124423246D01*
X131062592Y-124417401D01*
X131030288Y-124414478D01*
X131018542Y-124443847D01*
X130989173Y-124473215D01*
X130933371Y-124490838D01*
X130901061Y-124517272D01*
X130877568Y-124534894D01*
X130833512Y-124552516D01*
X130857005Y-124596573D01*
X130942176Y-124699366D01*
X131062592Y-124778664D01*
X131059669Y-124813909D01*
X131050858Y-124846213D01*
X131036170Y-124949006D01*
X131036170Y-125057674D01*
X131042016Y-125069420D01*
X131042127Y-125069380D01*
X131042127Y-125069380D01*
G37*
G36*
X132743120Y-124787432D02*
X132928149Y-124984208D01*
X133180727Y-125098750D01*
X133471486Y-125178047D01*
X133762245Y-125269093D01*
X133835669Y-125272016D01*
X133894407Y-125280827D01*
X133947274Y-125289638D01*
X134006011Y-125295484D01*
X134020699Y-125301330D01*
X134029510Y-125313076D01*
X134120556Y-125321887D01*
X134185169Y-125321887D01*
X134258593Y-125330699D01*
X134323206Y-125339510D01*
X134669767Y-125183851D01*
X134807804Y-124778551D01*
X134813650Y-124760928D01*
X134825396Y-124752117D01*
X134819551Y-124702191D01*
X134816628Y-124649323D01*
X134643347Y-124349754D01*
X134411328Y-124103049D01*
X134376083Y-124067804D01*
X134349649Y-124032559D01*
X134317345Y-124003190D01*
X134273289Y-123982633D01*
X134126441Y-123853407D01*
X133947287Y-123741802D01*
X133762258Y-123633135D01*
X133591915Y-123509782D01*
X133544924Y-123518593D01*
X133512620Y-123518593D01*
X133456817Y-123580269D01*
X133383394Y-123618449D01*
X133312907Y-123662505D01*
X133262981Y-123732992D01*
X133280603Y-123747680D01*
X133271792Y-123774113D01*
X133268869Y-123800547D01*
X133289426Y-123812293D01*
X133271804Y-123829916D01*
X133254181Y-123844603D01*
X133262993Y-123868096D01*
X133262993Y-123897465D01*
X133395156Y-123970888D01*
X133544940Y-124047250D01*
X133706473Y-124132421D01*
X133868006Y-124235214D01*
X134029538Y-124367378D01*
X134188134Y-124517163D01*
X134332045Y-124681632D01*
X134446586Y-124846102D01*
X134434840Y-124869594D01*
X134420152Y-124890152D01*
X134246872Y-124890152D01*
X134082403Y-124898963D01*
X134070656Y-124881341D01*
X134055975Y-124863718D01*
X133744657Y-124810851D01*
X133450961Y-124731553D01*
X133495018Y-124716865D01*
X133530262Y-124702184D01*
X133530262Y-124678691D01*
X133500894Y-124655193D01*
X133568444Y-124596455D01*
X133597812Y-124502472D01*
X133580190Y-124467227D01*
X133597812Y-124434917D01*
X133612494Y-124434917D01*
X133618340Y-124443728D01*
X133621262Y-124455475D01*
X133635950Y-124452552D01*
X133624204Y-124408496D01*
X133606581Y-124367381D01*
X133403931Y-124232281D01*
X133324633Y-124285148D01*
X133227714Y-124340951D01*
X133121983Y-124396753D01*
X133019189Y-124449620D01*
X132945766Y-124496612D01*
X132884089Y-124558288D01*
X132825352Y-124617025D01*
X132751927Y-124666952D01*
X132749005Y-124728628D01*
X132743159Y-124787366D01*
X132743120Y-124787432D01*
X132743120Y-124787432D01*
G37*
G36*
X135098150Y-125069380D02*
X135946831Y-124561327D01*
X135788235Y-124549580D01*
X135626702Y-124523146D01*
X135670758Y-124341055D01*
X135720685Y-124150153D01*
X135738307Y-124179522D01*
X135852848Y-124317558D01*
X135943894Y-124461470D01*
X135979139Y-124514337D01*
X136011449Y-124567205D01*
X135979139Y-124564282D01*
X135946835Y-124561359D01*
X135946831Y-124561327D01*
X135098150Y-125069380D01*
X135151017Y-125172174D01*
X135230315Y-125263219D01*
X135330172Y-125327832D01*
X135447650Y-125357201D01*
X135500517Y-125336644D01*
X135526951Y-125319021D01*
X135544574Y-125310210D01*
X135556320Y-125301399D01*
X135591565Y-125286711D01*
X135579819Y-125248531D01*
X135582741Y-125213286D01*
X135617986Y-125175106D01*
X135635609Y-125157484D01*
X135650296Y-125139861D01*
X135700223Y-125084059D01*
X135620925Y-125063501D01*
X135524005Y-125010634D01*
X135503448Y-124901966D01*
X135603304Y-124899044D01*
X135682603Y-124919601D01*
X135791270Y-124946035D01*
X135908748Y-124954846D01*
X135952804Y-124954846D01*
X135996861Y-124949000D01*
X136026229Y-124943155D01*
X136037976Y-124907910D01*
X136049722Y-124896163D01*
X136082032Y-124857983D01*
X136087878Y-124793370D01*
X136105500Y-124740503D01*
X136131934Y-124813927D01*
X136143680Y-124843296D01*
X136173049Y-124849142D01*
X136181860Y-124863829D01*
X136184783Y-124878516D01*
X136199470Y-124928443D01*
X136211217Y-124940189D01*
X136222963Y-124949000D01*
X136237650Y-125001868D01*
X136255273Y-125051794D01*
X136281707Y-125128155D01*
X136287552Y-125198641D01*
X136299299Y-125230951D01*
X136331602Y-125260320D01*
X136366847Y-125277943D01*
X136384470Y-125289689D01*
X136399157Y-125295535D01*
X136407968Y-125327838D01*
X136443213Y-125333684D01*
X136490205Y-125342495D01*
X136519573Y-125345418D01*
X136548942Y-125342495D01*
X136598868Y-125301380D01*
X136639984Y-125269070D01*
X136669352Y-125216203D01*
X136675198Y-125183899D01*
X136681044Y-125154530D01*
X136689855Y-125136908D01*
X136728035Y-125101663D01*
X136695731Y-125075229D01*
X136692808Y-125025303D01*
X136569456Y-124737481D01*
X136431419Y-124455533D01*
X136387363Y-124361551D01*
X136340372Y-124267568D01*
X136343294Y-124247011D01*
X136337449Y-124220577D01*
X136284581Y-124132468D01*
X136243466Y-124050233D01*
X136196475Y-123953313D01*
X136131862Y-123856394D01*
X136084871Y-123835836D01*
X136064313Y-123829991D01*
X136037879Y-123824145D01*
X135993823Y-123829991D01*
X135849912Y-123724260D01*
X135723623Y-123556853D01*
X135694254Y-123515738D01*
X135656074Y-123539231D01*
X135614959Y-123556853D01*
X135559156Y-123571541D01*
X135459300Y-123597974D01*
X135382939Y-123642031D01*
X135362381Y-123712517D01*
X135353570Y-123759509D01*
X135338883Y-123859365D01*
X135327136Y-123970969D01*
X135303644Y-124070826D01*
X135283086Y-124167745D01*
X135253718Y-124305783D01*
X135215538Y-124429135D01*
X135186169Y-124432058D01*
X135156800Y-124423246D01*
X135118620Y-124417401D01*
X135086310Y-124414478D01*
X135074564Y-124443847D01*
X135045195Y-124473215D01*
X134989393Y-124490838D01*
X134957089Y-124517272D01*
X134933590Y-124534894D01*
X134889534Y-124552516D01*
X134913033Y-124596573D01*
X134998204Y-124699366D01*
X135118619Y-124778664D01*
X135115697Y-124813909D01*
X135106885Y-124846213D01*
X135092204Y-124949006D01*
X135092204Y-125057674D01*
X135098050Y-125069420D01*
X135098150Y-125069380D01*
X135098150Y-125069380D01*
G37*
G36*
X137747286Y-124781558D02*
X137785466Y-124813868D01*
X137808958Y-124863794D01*
X137829516Y-124913721D01*
X137858885Y-124934278D01*
X137876507Y-124975393D01*
X137900006Y-125013573D01*
X137917628Y-125054688D01*
X137911783Y-125104615D01*
X137941151Y-125154541D01*
X137955839Y-125216217D01*
X137979331Y-125266143D01*
X138043944Y-125283766D01*
X138046867Y-125298453D01*
X138038056Y-125319011D01*
X138087982Y-125321934D01*
X138126162Y-125336615D01*
X138220145Y-125274939D01*
X138284758Y-125178019D01*
X138334684Y-125066415D01*
X138375799Y-124969496D01*
X138372876Y-124907819D01*
X138393434Y-124854952D01*
X138357044Y-124777948D01*
X138319826Y-124699661D01*
X138281786Y-124620087D01*
X138242918Y-124539229D01*
X138203222Y-124457086D01*
X138162704Y-124373658D01*
X138121357Y-124288945D01*
X138079183Y-124202947D01*
X138036874Y-124116445D01*
X137995114Y-124030217D01*
X137953901Y-123944265D01*
X137913243Y-123858589D01*
X137873132Y-123773188D01*
X137833576Y-123688062D01*
X137794568Y-123603211D01*
X137756114Y-123518636D01*
X137623951Y-123580312D01*
X137503535Y-123656673D01*
X137409553Y-123759467D01*
X137359627Y-123885755D01*
X137374314Y-123900443D01*
X137386060Y-123903366D01*
X137374314Y-123923923D01*
X137374314Y-123935670D01*
X137374314Y-123953292D01*
X137365503Y-123979726D01*
X137383125Y-123982649D01*
X137400748Y-123982649D01*
X137394902Y-124035516D01*
X137406648Y-124073696D01*
X137421336Y-124108941D01*
X137418413Y-124155932D01*
X137433100Y-124161778D01*
X137438946Y-124170589D01*
X137447757Y-124179400D01*
X137459504Y-124179400D01*
X137453658Y-124308627D01*
X137459504Y-124440790D01*
X137456581Y-124578827D01*
X137436023Y-124725675D01*
X137268617Y-124567078D01*
X137165823Y-124349744D01*
X137104147Y-124091292D01*
X137060091Y-123809344D01*
X137018976Y-123744731D01*
X136992542Y-123665432D01*
X136969049Y-123580261D01*
X136939681Y-123500963D01*
X136866256Y-123530332D01*
X136807519Y-123577323D01*
X136751716Y-123624314D01*
X136678293Y-123650748D01*
X136613680Y-123747667D01*
X136575500Y-123847524D01*
X136598992Y-123900392D01*
X136613680Y-123959129D01*
X136637172Y-124014932D01*
X136678287Y-124056047D01*
X136701780Y-124197021D01*
X136728213Y-124320373D01*
X136748771Y-124449599D01*
X136754617Y-124593510D01*
X136804543Y-124737421D01*
X136845658Y-124875458D01*
X136919082Y-124966504D01*
X136974885Y-125072234D01*
X136989572Y-125078080D01*
X137010130Y-125069269D01*
X137010130Y-125086891D01*
X137018941Y-125098637D01*
X137024787Y-125110384D01*
X137018941Y-125133882D01*
X137092365Y-125183809D01*
X137162852Y-125242546D01*
X137250961Y-125277791D01*
X137383124Y-125257233D01*
X137597522Y-125054584D01*
X137747307Y-124781446D01*
X137747286Y-124781558D01*
X137747286Y-124781558D01*
G37*
G36*
X138613688Y-124546602D02*
X138648933Y-124590658D01*
X138678302Y-124640584D01*
X138710606Y-124702261D01*
X138754662Y-124755128D01*
X138784031Y-124825615D01*
X138831022Y-124881417D01*
X138969059Y-125136932D01*
X138986681Y-125189800D01*
X139013115Y-125236791D01*
X139024861Y-125257349D01*
X139033672Y-125272036D01*
X139039518Y-125301405D01*
X139071828Y-125342520D01*
X139104132Y-125374824D01*
X139124689Y-125398316D01*
X139168746Y-125415939D01*
X139430135Y-125186856D01*
X139427212Y-125157487D01*
X139418401Y-125128119D01*
X139406655Y-125092874D01*
X139380221Y-125010639D01*
X139330295Y-124937215D01*
X139303861Y-124872602D01*
X139233374Y-124734565D01*
X139168761Y-124622961D01*
X139130581Y-124558348D01*
X139201068Y-124473176D01*
X139268618Y-124332202D01*
X139309733Y-124211786D01*
X139318545Y-124147173D01*
X139330291Y-124091371D01*
X139344978Y-124026758D01*
X139350824Y-123959208D01*
X139368447Y-123918093D01*
X139362601Y-123888724D01*
X139359678Y-123835857D01*
X139374365Y-123765370D01*
X139389053Y-123700757D01*
X139391976Y-123630270D01*
X139374353Y-123565657D01*
X139318551Y-123509854D01*
X139268624Y-123506931D01*
X139218698Y-123536300D01*
X139168772Y-123562734D01*
X139107096Y-123592102D01*
X139045420Y-123630282D01*
X139024862Y-123671398D01*
X138986682Y-123703701D01*
X138986682Y-123736011D01*
X138983760Y-123768315D01*
X138972013Y-123815306D01*
X138960267Y-123850551D01*
X138951456Y-123929849D01*
X138933833Y-123997399D01*
X138916211Y-124064949D01*
X138913288Y-124141310D01*
X138883919Y-124120752D01*
X138872173Y-124111941D01*
X138860427Y-124103130D01*
X138687146Y-123868174D01*
X138692992Y-123838805D01*
X138631316Y-123780067D01*
X138587260Y-123736011D01*
X138549080Y-123691955D01*
X138516770Y-123668456D01*
X138249507Y-123486365D01*
X138208392Y-123480519D01*
X138196646Y-123518699D01*
X138149654Y-123577437D01*
X138070356Y-123627363D01*
X138043923Y-123644986D01*
X138029235Y-123689042D01*
X138032158Y-123715476D01*
X138020412Y-123744844D01*
X138079149Y-123847638D01*
X138143762Y-123906376D01*
X138193689Y-123950432D01*
X138225992Y-123997423D01*
X138246550Y-124020922D01*
X138325848Y-124114904D01*
X138334659Y-124150149D01*
X138369904Y-124150149D01*
X138384592Y-124161895D01*
X138413960Y-124211822D01*
X138443329Y-124250002D01*
X138458017Y-124264689D01*
X138466828Y-124288182D01*
X138475639Y-124311674D01*
X138522630Y-124370412D01*
X138543188Y-124411527D01*
X138566680Y-124458518D01*
X138598984Y-124502574D01*
X138613672Y-124546631D01*
X138613688Y-124546602D01*
X138613688Y-124546602D01*
G37*
G36*
X139483027Y-123662577D02*
X139483027Y-123694887D01*
X139485950Y-123712510D01*
X139485950Y-123733067D01*
X139480104Y-123762436D01*
X139624015Y-123900473D01*
X139797296Y-123953340D01*
X139991135Y-123985650D01*
X140184974Y-124062011D01*
X140255461Y-124062011D01*
X140343570Y-124070822D01*
X140387626Y-124097256D01*
X140440494Y-124111943D01*
X140431682Y-124167745D01*
X140422871Y-124211802D01*
X140196725Y-124208879D01*
X139950021Y-124194191D01*
X139952943Y-124214749D01*
X139955866Y-124229436D01*
X139914751Y-124267616D01*
X139873636Y-124308731D01*
X139832521Y-124343976D01*
X139779654Y-124352788D01*
X139764966Y-124405655D01*
X139770812Y-124461457D01*
X139864794Y-124529007D01*
X139964651Y-124587745D01*
X140073319Y-124631801D01*
X140199608Y-124643547D01*
X140223101Y-124643547D01*
X140240723Y-124634736D01*
X140308274Y-124643547D01*
X140372886Y-124652359D01*
X140452184Y-124640612D01*
X140531482Y-124628866D01*
X140616654Y-124761029D01*
X140684204Y-124910814D01*
X140519734Y-124922560D01*
X140393445Y-124913749D01*
X140273030Y-124899068D01*
X140117371Y-124893222D01*
X139979334Y-124852107D01*
X139829550Y-124816862D01*
X139788434Y-124849166D01*
X139756125Y-124890281D01*
X139720880Y-124922591D01*
X139676823Y-124934337D01*
X139662136Y-124963706D01*
X139653325Y-124993075D01*
X139644514Y-125019508D01*
X139618080Y-125025354D01*
X139720874Y-125175139D01*
X139850100Y-125251500D01*
X140014569Y-125292615D01*
X140211345Y-125327860D01*
X140255401Y-125324938D01*
X140296517Y-125319092D01*
X140458049Y-125345525D01*
X140648951Y-125354337D01*
X140833980Y-125327903D01*
X140977891Y-125251542D01*
X141010201Y-125204551D01*
X141048381Y-125160495D01*
X141060127Y-125075324D01*
X141077749Y-124978404D01*
X141092431Y-124875610D01*
X141086585Y-124784564D01*
X141051340Y-124705267D01*
X141030783Y-124628906D01*
X141013160Y-124614224D01*
X140989667Y-124602478D01*
X140951487Y-124502621D01*
X140910372Y-124411576D01*
X140866316Y-124323467D01*
X140822260Y-124220674D01*
X140883936Y-124138439D01*
X140910370Y-124047393D01*
X140925057Y-123953410D01*
X140945615Y-123853554D01*
X140875127Y-123783067D01*
X140781145Y-123736076D01*
X140672478Y-123706707D01*
X140549126Y-123680273D01*
X140340601Y-123621536D01*
X140158510Y-123589232D01*
X139970545Y-123562798D01*
X139750273Y-123527553D01*
X139700346Y-123553987D01*
X139673913Y-123539300D01*
X139659225Y-123521677D01*
X139585802Y-123606849D01*
X139483008Y-123662651D01*
X139483027Y-123662577D01*
X139483027Y-123662577D01*
G37*
G36*
X142276075Y-125010641D02*
X142111602Y-124367475D01*
X141897204Y-124311673D01*
X141685743Y-124223564D01*
X141750356Y-124076716D01*
X141856087Y-124003292D01*
X141856089Y-124003293D01*
X141929513Y-124088464D01*
X142005874Y-124167762D01*
X142070487Y-124255871D01*
X142111602Y-124367475D01*
X142276075Y-125010641D01*
X142334812Y-125189796D01*
X142408237Y-125313147D01*
X142461104Y-125321959D01*
X142493414Y-125348392D01*
X142531594Y-125348392D01*
X142552152Y-125333705D01*
X142575650Y-125319017D01*
X142613830Y-125313172D01*
X142628518Y-125269116D01*
X142666698Y-125254428D01*
X142663775Y-125216248D01*
X142672586Y-125186879D01*
X142678432Y-125160446D01*
X142675509Y-125125201D01*
X142699001Y-125104643D01*
X142719559Y-125063528D01*
X142701937Y-124963672D01*
X142681379Y-124875563D01*
X142657886Y-124793328D01*
X142666698Y-124708156D01*
X142649075Y-124705233D01*
X142640264Y-124669988D01*
X142637341Y-124625932D01*
X142640264Y-124587752D01*
X142593273Y-124432094D01*
X142558028Y-124270561D01*
X142522783Y-124114902D01*
X142475792Y-123973928D01*
X142405305Y-123982739D01*
X142355378Y-124015043D01*
X142220278Y-123874069D01*
X142099863Y-123709599D01*
X141964763Y-123568626D01*
X141773861Y-123495202D01*
X141644635Y-123586248D01*
X141524219Y-123703726D01*
X141486039Y-123730159D01*
X141444924Y-123756593D01*
X141444924Y-123791838D01*
X141389122Y-123868199D01*
X141348007Y-123959245D01*
X141312762Y-124056164D01*
X141271647Y-124147210D01*
X141277492Y-124173644D01*
X141274569Y-124194201D01*
X141265758Y-124217700D01*
X141265758Y-124250004D01*
X141350930Y-124458527D01*
X141530084Y-124590691D01*
X141756230Y-124675862D01*
X141973565Y-124752223D01*
X141964754Y-124763970D01*
X141955942Y-124778657D01*
X141844338Y-124849144D01*
X141767978Y-124893200D01*
X141688679Y-124925510D01*
X141568264Y-124954879D01*
X141450786Y-124984248D01*
X141371488Y-125001870D01*
X141301001Y-125013616D01*
X141195270Y-125022428D01*
X141151214Y-125087041D01*
X141124780Y-125160465D01*
X141121857Y-125230952D01*
X141142415Y-125283819D01*
X141130669Y-125292631D01*
X141107170Y-125292631D01*
X141136539Y-125321999D01*
X141160031Y-125357244D01*
X141186465Y-125386613D01*
X141227580Y-125404236D01*
X141456663Y-125407158D01*
X141806161Y-125295554D01*
X141979441Y-125225067D01*
X142093982Y-125163391D01*
X142182091Y-125095841D01*
X142276074Y-125010669D01*
X142276075Y-125010641D01*
X142276075Y-125010641D01*
G37*
G36*
X144102863Y-123994453D02*
X144038249Y-123888723D01*
X143938393Y-123815299D01*
X143823851Y-123762432D01*
X143712247Y-123727187D01*
X143462606Y-123633204D01*
X143189468Y-123550969D01*
X142901647Y-123506913D01*
X142593266Y-123542158D01*
X142566832Y-123597960D01*
X142531587Y-123650828D01*
X142496342Y-123703695D01*
X142478720Y-123753622D01*
X142431729Y-123812359D01*
X142425883Y-123891657D01*
X142484620Y-123935713D01*
X142543358Y-123968017D01*
X142763630Y-123950395D01*
X142963343Y-123965082D01*
X143027956Y-123938648D01*
X143104317Y-123950395D01*
X143183615Y-123973887D01*
X143257038Y-123979733D01*
X143330463Y-124012037D01*
X143421508Y-124023783D01*
X143415663Y-124044341D01*
X143412740Y-124061963D01*
X143368684Y-124091332D01*
X143309946Y-124108954D01*
X143254144Y-124132447D01*
X143221840Y-124173562D01*
X143145479Y-124194120D01*
X143092611Y-124244046D01*
X143063242Y-124308659D01*
X143051496Y-124367396D01*
X143030939Y-124387954D01*
X143004505Y-124399700D01*
X142960449Y-124478998D01*
X142904646Y-124564170D01*
X142895835Y-124696333D01*
X142916392Y-124810875D01*
X143039745Y-125004713D01*
X143215962Y-125157435D01*
X143424486Y-125269039D01*
X143641821Y-125348338D01*
X143665320Y-125348338D01*
X143671165Y-125333650D01*
X143724033Y-125360084D01*
X143782770Y-125363007D01*
X143850320Y-125360084D01*
X143911997Y-125363007D01*
X143950177Y-125321892D01*
X143973669Y-125274900D01*
X143988357Y-125260213D01*
X143997168Y-125245526D01*
X143982480Y-125213222D01*
X143991292Y-125204411D01*
X144003038Y-125198565D01*
X144005961Y-125183883D01*
X143997150Y-125131016D01*
X144002995Y-125066403D01*
X144000072Y-125004727D01*
X143956016Y-124957735D01*
X143768051Y-124951890D01*
X143597708Y-124896087D01*
X143447923Y-124819727D01*
X143304012Y-124746303D01*
X143280513Y-124702247D01*
X143245268Y-124669937D01*
X143212958Y-124637633D01*
X143192401Y-124593577D01*
X143204147Y-124570078D01*
X143215894Y-124546585D01*
X143248197Y-124537774D01*
X143374487Y-124484907D01*
X143494902Y-124434981D01*
X143556578Y-124443792D01*
X143627065Y-124426169D01*
X143820904Y-124405612D01*
X143997122Y-124352744D01*
X144011809Y-124326311D01*
X144044113Y-124320465D01*
X144079358Y-124276409D01*
X144111662Y-124226482D01*
X144102850Y-124167745D01*
X144120473Y-124117819D01*
X144102850Y-124056142D01*
X144102850Y-123994466D01*
X144102863Y-123994453D01*
X144102863Y-123994453D01*
G37*
G36*
X143944267Y-124787432D02*
X144025768Y-124899771D01*
X144129295Y-124984208D01*
X144249711Y-125046619D01*
X144381874Y-125098749D01*
X144523582Y-125140601D01*
X144672632Y-125178044D01*
X144820214Y-125218429D01*
X144963391Y-125269092D01*
X145002302Y-125269823D01*
X145036810Y-125272015D01*
X145066179Y-125275668D01*
X145095547Y-125280844D01*
X145121981Y-125284498D01*
X145148415Y-125289674D01*
X145176316Y-125292597D01*
X145207152Y-125295519D01*
X145216700Y-125295519D01*
X145221815Y-125301365D01*
X145225469Y-125307211D01*
X145230645Y-125313118D01*
X145278373Y-125319724D01*
X145300587Y-125321369D01*
X145321699Y-125321919D01*
X145337853Y-125321919D01*
X145354008Y-125321919D01*
X145370163Y-125321919D01*
X145386318Y-125321919D01*
X145404123Y-125322470D01*
X145422294Y-125324114D01*
X145440836Y-125326854D01*
X145459743Y-125330690D01*
X145477000Y-125335622D01*
X145493521Y-125338728D01*
X145509304Y-125340007D01*
X145524357Y-125339457D01*
X145628619Y-125325324D01*
X145721133Y-125294670D01*
X145801899Y-125247496D01*
X145870918Y-125183800D01*
X145925801Y-125103401D01*
X145967099Y-125009051D01*
X145994817Y-124900750D01*
X146008951Y-124778499D01*
X146008220Y-124771893D01*
X146008951Y-124766778D01*
X146011143Y-124763124D01*
X146014796Y-124760932D01*
X146017719Y-124759288D01*
X146020642Y-124757278D01*
X146023565Y-124754903D01*
X146026488Y-124752163D01*
X146026123Y-124738030D01*
X146025027Y-124724999D01*
X146023200Y-124713070D01*
X146020642Y-124702243D01*
X146017171Y-124691227D01*
X146015527Y-124678744D01*
X146015715Y-124664794D01*
X146017725Y-124649376D01*
X145978260Y-124570078D01*
X145936225Y-124493717D01*
X145891621Y-124420293D01*
X145844447Y-124349806D01*
X145793602Y-124281522D01*
X145737982Y-124217643D01*
X145677588Y-124158169D01*
X145612424Y-124103103D01*
X145602511Y-124094292D01*
X145593334Y-124085481D01*
X145584888Y-124076669D01*
X145577179Y-124067858D01*
X145570018Y-124059047D01*
X145563223Y-124050236D01*
X145556798Y-124041424D01*
X145550770Y-124032613D01*
X145543244Y-124024167D01*
X145535352Y-124016458D01*
X145518466Y-124003244D01*
X145498639Y-123990761D01*
X145474410Y-123982687D01*
X145406860Y-123915137D01*
X145327562Y-123853461D01*
X145240188Y-123796191D01*
X145148408Y-123741856D01*
X145055159Y-123686790D01*
X144963379Y-123633192D01*
X144873802Y-123574454D01*
X144793036Y-123509841D01*
X144765135Y-123519389D01*
X144746045Y-123518659D01*
X144730626Y-123515736D01*
X144713741Y-123518659D01*
X144689511Y-123556108D01*
X144657938Y-123580337D01*
X144620489Y-123598690D01*
X144584513Y-123618517D01*
X144547801Y-123638344D01*
X144514023Y-123662573D01*
X144485385Y-123693410D01*
X144464097Y-123733057D01*
X144477317Y-123736711D01*
X144481701Y-123747726D01*
X144478048Y-123760210D01*
X144472872Y-123774160D01*
X144469218Y-123786643D01*
X144469949Y-123800594D01*
X144475064Y-123809405D01*
X144490482Y-123812328D01*
X144484636Y-123824074D01*
X144472878Y-123829920D01*
X144459664Y-123833574D01*
X144455280Y-123844589D01*
X144457472Y-123857803D01*
X144464079Y-123868082D01*
X144467002Y-123879828D01*
X144464079Y-123897451D01*
X144526488Y-123934894D01*
X144596242Y-123970869D01*
X144668931Y-124007582D01*
X144746026Y-124047229D01*
X144824590Y-124087614D01*
X144907559Y-124132401D01*
X144989060Y-124180129D01*
X145069092Y-124235194D01*
X145149124Y-124297604D01*
X145230624Y-124367357D01*
X145311391Y-124440047D01*
X145350673Y-124478045D01*
X145389219Y-124517144D01*
X145426851Y-124557157D01*
X145463380Y-124597907D01*
X145498808Y-124639393D01*
X145533134Y-124681611D01*
X145565626Y-124722726D01*
X145595549Y-124763841D01*
X145622896Y-124804956D01*
X145647674Y-124846071D01*
X145644751Y-124853049D01*
X145641828Y-124859291D01*
X145638905Y-124864771D01*
X145635982Y-124869521D01*
X145631780Y-124872992D01*
X145627944Y-124877559D01*
X145624473Y-124883222D01*
X145621368Y-124890023D01*
X145575296Y-124892216D01*
X145531057Y-124892946D01*
X145488657Y-124892216D01*
X145448090Y-124890023D01*
X145406975Y-124887283D01*
X145365860Y-124887834D01*
X145324745Y-124891670D01*
X145283630Y-124898831D01*
X145279611Y-124895543D01*
X145276323Y-124891524D01*
X145273765Y-124886774D01*
X145271938Y-124881233D01*
X145269929Y-124875753D01*
X145266823Y-124871003D01*
X145262622Y-124866984D01*
X145257263Y-124863696D01*
X145095730Y-124841665D01*
X144945945Y-124810822D01*
X144800566Y-124771905D01*
X144652250Y-124731521D01*
X144675011Y-124723440D01*
X144696306Y-124716834D01*
X144713928Y-124708759D01*
X144731551Y-124702152D01*
X144738894Y-124688938D01*
X144731551Y-124678666D01*
X144715396Y-124666919D01*
X144702182Y-124655167D01*
X144739625Y-124628739D01*
X144769731Y-124596430D01*
X144788821Y-124555308D01*
X144799100Y-124502441D01*
X144785886Y-124486286D01*
X144781501Y-124467196D01*
X144785886Y-124448837D01*
X144799100Y-124434886D01*
X144808648Y-124433425D01*
X144813763Y-124434886D01*
X144816685Y-124438540D01*
X144819608Y-124443716D01*
X144820339Y-124449561D01*
X144822531Y-124455468D01*
X144827646Y-124456199D01*
X144837200Y-124452545D01*
X144832816Y-124428316D01*
X144825466Y-124408489D01*
X144815187Y-124389399D01*
X144807844Y-124367374D01*
X144706519Y-124299824D01*
X144605194Y-124232274D01*
X144569212Y-124257234D01*
X144525893Y-124285141D01*
X144478165Y-124312306D01*
X144428969Y-124340944D01*
X144376102Y-124368108D01*
X144323240Y-124396746D01*
X144269642Y-124423180D01*
X144220447Y-124449614D01*
X144181536Y-124470171D01*
X144147028Y-124496605D01*
X144115455Y-124526711D01*
X144085349Y-124558284D01*
X144055980Y-124587652D01*
X144026612Y-124617021D01*
X143992103Y-124644186D01*
X143953193Y-124666947D01*
X143955385Y-124701456D01*
X143950270Y-124728620D01*
X143944424Y-124755048D01*
X143944445Y-124787358D01*
X143944426Y-124787391D01*
X143944267Y-124787432D01*
X143944267Y-124787432D01*
G37*
G04 #@! TD*
D11*
G04 #@! TO.P,BT1,2*
G04 #@! TO.N,GND*
X120015000Y-100177600D03*
D12*
G04 #@! TO.P,BT1,1*
G04 #@! TO.N,Net-(BT1-Pad1)*
X120015000Y-87377600D03*
X120015000Y-112977600D03*
G04 #@! TD*
D13*
G04 #@! TO.P,SW1,*
G04 #@! TO.N,*
X166290000Y-95420000D03*
X166240000Y-92420000D03*
D14*
G04 #@! TO.P,SW1,NC*
G04 #@! TO.N,N/C*
X166340000Y-98020000D03*
D15*
G04 #@! TO.P,SW1,2*
G04 #@! TO.N,Net-(BT1-Pad1)*
X164440000Y-94670000D03*
G04 #@! TO.P,SW1,3*
G04 #@! TO.N,N/C*
X164440000Y-96170000D03*
G04 #@! TO.P,SW1,1*
G04 #@! TO.N,Net-(D1-Pad2)*
X164440000Y-91670000D03*
D14*
G04 #@! TO.P,SW1,NC*
G04 #@! TO.N,N/C*
X166340000Y-90070000D03*
G04 #@! TD*
D16*
G04 #@! TO.P,D1,1*
G04 #@! TO.N,GND*
X148818600Y-86055200D03*
D17*
G04 #@! TO.P,D1,2*
G04 #@! TO.N,Net-(D1-Pad2)*
X151358600Y-86055200D03*
G04 #@! TD*
G04 #@! TO.P,D2,2*
G04 #@! TO.N,Net-(D1-Pad2)*
X157403800Y-86080600D03*
D16*
G04 #@! TO.P,D2,1*
G04 #@! TO.N,GND*
X154863800Y-86080600D03*
G04 #@! TD*
G04 #@! TO.P,D3,1*
G04 #@! TO.N,GND*
X160934400Y-86080600D03*
D17*
G04 #@! TO.P,D3,2*
G04 #@! TO.N,Net-(D1-Pad2)*
X163474400Y-86080600D03*
G04 #@! TD*
D18*
G04 #@! TO.P,REF\002A\002A,1*
G04 #@! TO.N,N/C*
X138430000Y-100965000D03*
G04 #@! TD*
D19*
G04 #@! TO.N,Net-(BT1-Pad1)*
X154250000Y-94670000D02*
X164440000Y-94670000D01*
X113157000Y-107701200D02*
X113157000Y-91287600D01*
X113157000Y-91287600D02*
X117067000Y-87377600D01*
X118433400Y-112977600D02*
X113157000Y-107701200D01*
X122453400Y-112977600D02*
X118433400Y-112977600D01*
X117067000Y-87377600D02*
X122937600Y-87377600D01*
X122937600Y-87377600D02*
X128905000Y-93345000D01*
X128905000Y-93345000D02*
X128905000Y-104775000D01*
X128905000Y-104775000D02*
X133985000Y-109855000D01*
X133985000Y-109855000D02*
X144780000Y-109855000D01*
X148590000Y-100330000D02*
X154250000Y-94670000D01*
X148590000Y-106045000D02*
X148590000Y-100330000D01*
X144780000Y-109855000D02*
X148590000Y-106045000D01*
G04 #@! TO.N,Net-(D1-Pad2)*
X163474400Y-90704400D02*
X163474400Y-86080600D01*
X164440000Y-91670000D02*
X163474400Y-90704400D01*
X163474400Y-86080600D02*
X163474400Y-82423000D01*
X163474400Y-82423000D02*
X162864800Y-81813400D01*
X162864800Y-81813400D02*
X158648400Y-81813400D01*
X157403800Y-84807808D02*
X157429200Y-84782408D01*
X157403800Y-86080600D02*
X157403800Y-84807808D01*
X157429200Y-83032600D02*
X158648400Y-81813400D01*
X157429200Y-84782408D02*
X157429200Y-83032600D01*
X151358600Y-84782408D02*
X151384000Y-84757008D01*
X151358600Y-86055200D02*
X151358600Y-84782408D01*
X151384000Y-84757008D02*
X151384000Y-82397600D01*
X151968200Y-81813400D02*
X158648400Y-81813400D01*
X151384000Y-82397600D02*
X151968200Y-81813400D01*
G04 #@! TD*
D20*
G04 #@! TO.N,GND*
G36*
X128754040Y-79166365D02*
X129669945Y-79404857D01*
X130526009Y-79787189D01*
X131307974Y-80301085D01*
X132000707Y-80933721D01*
X132588956Y-81671749D01*
X133057823Y-82501668D01*
X133401015Y-83432423D01*
X133798155Y-84987185D01*
X133798156Y-84987187D01*
X134186400Y-86507120D01*
X134574644Y-88027055D01*
X134574645Y-88027057D01*
X134962889Y-89546990D01*
X134962890Y-89546992D01*
X135313731Y-90920506D01*
X135739375Y-92586860D01*
X135739376Y-92586862D01*
X136127620Y-94106795D01*
X136127621Y-94106797D01*
X136486152Y-95510406D01*
X136490308Y-95541187D01*
X136504808Y-95583443D01*
X136515865Y-95626729D01*
X136529276Y-95654746D01*
X136606080Y-95878567D01*
X136629802Y-95948645D01*
X136630607Y-95950043D01*
X136631128Y-95951560D01*
X136668176Y-96015242D01*
X136715562Y-96097478D01*
X136716198Y-96101944D01*
X136791651Y-96229525D01*
X136827222Y-96291258D01*
X136830112Y-96294559D01*
X136832345Y-96298335D01*
X136879874Y-96351399D01*
X136929564Y-96408156D01*
X136930130Y-96409719D01*
X136949283Y-96430681D01*
X136977516Y-96462929D01*
X136979765Y-96464041D01*
X137030473Y-96519535D01*
X137078374Y-96573015D01*
X137081447Y-96575322D01*
X137084038Y-96578158D01*
X137141867Y-96620686D01*
X137260835Y-96710008D01*
X137264662Y-96710991D01*
X137303946Y-96739881D01*
X137362025Y-96783304D01*
X137364787Y-96784623D01*
X137367249Y-96786434D01*
X137432861Y-96817142D01*
X137588808Y-96891639D01*
X137643881Y-96920362D01*
X137656908Y-96924170D01*
X137669146Y-96930016D01*
X137729295Y-96945330D01*
X137865922Y-96985268D01*
X137913832Y-97002671D01*
X137938271Y-97006417D01*
X137962014Y-97013357D01*
X138012811Y-97017841D01*
X138122690Y-97034681D01*
X138162379Y-97044495D01*
X138197193Y-97046100D01*
X138231646Y-97051380D01*
X138272492Y-97049570D01*
X138354706Y-97053360D01*
X138389845Y-97058681D01*
X138430001Y-97056830D01*
X138470157Y-97058681D01*
X138505296Y-97053360D01*
X138587509Y-97049570D01*
X138628354Y-97051380D01*
X138662807Y-97046100D01*
X138697622Y-97044495D01*
X138737312Y-97034681D01*
X138847190Y-97017841D01*
X138897986Y-97013357D01*
X138921728Y-97006417D01*
X138946169Y-97002671D01*
X138994083Y-96985266D01*
X139130705Y-96945330D01*
X139190860Y-96930014D01*
X139203096Y-96924169D01*
X139216119Y-96920362D01*
X139271186Y-96891641D01*
X139427132Y-96817145D01*
X139492749Y-96786434D01*
X139495213Y-96784622D01*
X139497978Y-96783301D01*
X139556067Y-96739870D01*
X139595333Y-96710992D01*
X139599160Y-96710010D01*
X139718147Y-96620674D01*
X139775960Y-96578158D01*
X139778550Y-96575323D01*
X139781622Y-96573017D01*
X139829526Y-96519535D01*
X139880233Y-96464040D01*
X139882485Y-96462927D01*
X139910741Y-96430652D01*
X139929868Y-96409719D01*
X139930434Y-96408158D01*
X139980125Y-96351399D01*
X140027653Y-96298336D01*
X140029887Y-96294558D01*
X140032779Y-96291255D01*
X140068353Y-96229518D01*
X140143800Y-96101946D01*
X140144436Y-96097478D01*
X140191709Y-96015437D01*
X140228869Y-95951563D01*
X140229392Y-95950039D01*
X140230197Y-95948642D01*
X140253909Y-95878592D01*
X140330558Y-95655226D01*
X140343789Y-95627678D01*
X140355028Y-95583916D01*
X140369690Y-95541190D01*
X140373779Y-95510910D01*
X140769625Y-93969635D01*
X140769625Y-93969631D01*
X141157870Y-92457961D01*
X141546114Y-90946286D01*
X141546114Y-90946284D01*
X141934356Y-89434611D01*
X141934356Y-89434608D01*
X142295861Y-88027055D01*
X142710845Y-86411263D01*
X142710845Y-86411259D01*
X142728902Y-86340950D01*
X147283600Y-86340950D01*
X147283600Y-87081510D01*
X147380273Y-87314899D01*
X147558902Y-87493527D01*
X147792291Y-87590200D01*
X148532850Y-87590200D01*
X148691600Y-87431450D01*
X148691600Y-86182200D01*
X147442350Y-86182200D01*
X147283600Y-86340950D01*
X142728902Y-86340950D01*
X143065881Y-85028890D01*
X147283600Y-85028890D01*
X147283600Y-85769450D01*
X147442350Y-85928200D01*
X148691600Y-85928200D01*
X148691600Y-84678950D01*
X148532850Y-84520200D01*
X147792291Y-84520200D01*
X147558902Y-84616873D01*
X147380273Y-84795501D01*
X147283600Y-85028890D01*
X143065881Y-85028890D01*
X143099090Y-84899589D01*
X143099090Y-84899585D01*
X143460999Y-83490456D01*
X143789380Y-82532915D01*
X144248095Y-81692623D01*
X144833096Y-80947021D01*
X145528124Y-80308770D01*
X146316225Y-79790895D01*
X147180133Y-79406101D01*
X148102937Y-79166527D01*
X149102251Y-79081133D01*
X164957680Y-79081133D01*
X165565899Y-79141759D01*
X166091691Y-79303681D01*
X166565905Y-79559866D01*
X166978530Y-79899782D01*
X167318440Y-80312401D01*
X167574627Y-80786619D01*
X167736549Y-81312407D01*
X167797175Y-81920627D01*
X167797176Y-83275232D01*
X167797175Y-83275237D01*
X167797176Y-84743538D01*
X167797175Y-84743543D01*
X167797176Y-86211845D01*
X167797175Y-86211850D01*
X167797176Y-87680152D01*
X167797175Y-87680157D01*
X167797176Y-88933933D01*
X167740000Y-88922560D01*
X164940000Y-88922560D01*
X164744400Y-88961467D01*
X164744400Y-86981417D01*
X164775710Y-86950107D01*
X165009400Y-86385930D01*
X165009400Y-85775270D01*
X164775710Y-85211093D01*
X164744400Y-85179783D01*
X164744400Y-82548076D01*
X164769279Y-82423000D01*
X164744400Y-82297924D01*
X164744400Y-82297920D01*
X164670713Y-81927471D01*
X164390018Y-81507382D01*
X164283979Y-81436529D01*
X163851271Y-81003821D01*
X163780418Y-80897782D01*
X163360329Y-80617087D01*
X162989880Y-80543400D01*
X162989875Y-80543400D01*
X162864800Y-80518521D01*
X162739725Y-80543400D01*
X158773474Y-80543400D01*
X158648399Y-80518521D01*
X158523324Y-80543400D01*
X152093276Y-80543400D01*
X151968200Y-80518521D01*
X151843124Y-80543400D01*
X151843120Y-80543400D01*
X151472671Y-80617087D01*
X151052582Y-80897782D01*
X150981729Y-81003821D01*
X150574419Y-81411131D01*
X150468383Y-81481982D01*
X150397532Y-81588018D01*
X150397530Y-81588020D01*
X150187688Y-81902071D01*
X150089121Y-82397600D01*
X150114001Y-82522680D01*
X150114000Y-84529633D01*
X150093603Y-84632178D01*
X150078298Y-84616873D01*
X149844909Y-84520200D01*
X149104350Y-84520200D01*
X148945600Y-84678950D01*
X148945600Y-85928200D01*
X148965600Y-85928200D01*
X148965600Y-86182200D01*
X148945600Y-86182200D01*
X148945600Y-87431450D01*
X149104350Y-87590200D01*
X149844909Y-87590200D01*
X150078298Y-87493527D01*
X150256927Y-87314899D01*
X150312739Y-87180156D01*
X150489093Y-87356510D01*
X151053270Y-87590200D01*
X151663930Y-87590200D01*
X152228107Y-87356510D01*
X152659910Y-86924707D01*
X152891189Y-86366350D01*
X153328800Y-86366350D01*
X153328800Y-87106910D01*
X153425473Y-87340299D01*
X153604102Y-87518927D01*
X153837491Y-87615600D01*
X154578050Y-87615600D01*
X154736800Y-87456850D01*
X154736800Y-86207600D01*
X153487550Y-86207600D01*
X153328800Y-86366350D01*
X152891189Y-86366350D01*
X152893600Y-86360530D01*
X152893600Y-85749870D01*
X152659910Y-85185693D01*
X152628600Y-85154383D01*
X152628600Y-85054290D01*
X153328800Y-85054290D01*
X153328800Y-85794850D01*
X153487550Y-85953600D01*
X154736800Y-85953600D01*
X154736800Y-84704350D01*
X154578050Y-84545600D01*
X153837491Y-84545600D01*
X153604102Y-84642273D01*
X153425473Y-84820901D01*
X153328800Y-85054290D01*
X152628600Y-85054290D01*
X152628600Y-85009782D01*
X152654000Y-84882088D01*
X152654000Y-84882084D01*
X152678879Y-84757009D01*
X152654000Y-84631934D01*
X152654000Y-83083400D01*
X156144426Y-83083400D01*
X156159200Y-83157675D01*
X156159200Y-84555034D01*
X156138803Y-84657578D01*
X156123498Y-84642273D01*
X155890109Y-84545600D01*
X155149550Y-84545600D01*
X154990800Y-84704350D01*
X154990800Y-85953600D01*
X155010800Y-85953600D01*
X155010800Y-86207600D01*
X154990800Y-86207600D01*
X154990800Y-87456850D01*
X155149550Y-87615600D01*
X155890109Y-87615600D01*
X156123498Y-87518927D01*
X156302127Y-87340299D01*
X156357939Y-87205556D01*
X156534293Y-87381910D01*
X157098470Y-87615600D01*
X157709130Y-87615600D01*
X158273307Y-87381910D01*
X158705110Y-86950107D01*
X158938800Y-86385930D01*
X158938800Y-86366350D01*
X159399400Y-86366350D01*
X159399400Y-87106910D01*
X159496073Y-87340299D01*
X159674702Y-87518927D01*
X159908091Y-87615600D01*
X160648650Y-87615600D01*
X160807400Y-87456850D01*
X160807400Y-86207600D01*
X159558150Y-86207600D01*
X159399400Y-86366350D01*
X158938800Y-86366350D01*
X158938800Y-85775270D01*
X158705110Y-85211093D01*
X158673800Y-85179783D01*
X158673800Y-85054290D01*
X159399400Y-85054290D01*
X159399400Y-85794850D01*
X159558150Y-85953600D01*
X160807400Y-85953600D01*
X160807400Y-84704350D01*
X160648650Y-84545600D01*
X159908091Y-84545600D01*
X159674702Y-84642273D01*
X159496073Y-84820901D01*
X159399400Y-85054290D01*
X158673800Y-85054290D01*
X158673800Y-85035182D01*
X158699200Y-84907488D01*
X158699200Y-84907484D01*
X158724079Y-84782409D01*
X158699200Y-84657334D01*
X158699200Y-83558650D01*
X159174451Y-83083400D01*
X162204401Y-83083400D01*
X162204400Y-84652575D01*
X162194098Y-84642273D01*
X161960709Y-84545600D01*
X161220150Y-84545600D01*
X161061400Y-84704350D01*
X161061400Y-85953600D01*
X161081400Y-85953600D01*
X161081400Y-86207600D01*
X161061400Y-86207600D01*
X161061400Y-87456850D01*
X161220150Y-87615600D01*
X161960709Y-87615600D01*
X162194098Y-87518927D01*
X162204401Y-87508624D01*
X162204400Y-90579325D01*
X162179521Y-90704400D01*
X162204400Y-90829475D01*
X162204400Y-90829479D01*
X162278087Y-91199928D01*
X162558782Y-91620018D01*
X162664821Y-91690871D01*
X163630419Y-92656470D01*
X163944471Y-92866313D01*
X164440000Y-92964879D01*
X164935529Y-92866313D01*
X165182202Y-92701491D01*
X165320182Y-93034603D01*
X165625397Y-93339818D01*
X166024180Y-93505000D01*
X166455820Y-93505000D01*
X166854603Y-93339818D01*
X167159818Y-93034603D01*
X167325000Y-92635820D01*
X167325000Y-92204180D01*
X167159818Y-91805397D01*
X166854603Y-91500182D01*
X166455820Y-91335000D01*
X166024180Y-91335000D01*
X165695338Y-91471211D01*
X165644860Y-91217440D01*
X167740000Y-91217440D01*
X167797175Y-91206067D01*
X167797176Y-92085072D01*
X167797175Y-92085077D01*
X167797176Y-93553378D01*
X167797175Y-93553383D01*
X167797176Y-95021685D01*
X167797175Y-95021690D01*
X167797176Y-96489992D01*
X167797175Y-96489997D01*
X167797175Y-96883933D01*
X167740000Y-96872560D01*
X165468135Y-96872560D01*
X165538157Y-96767765D01*
X165587440Y-96520000D01*
X165587440Y-96251861D01*
X165675397Y-96339818D01*
X166074180Y-96505000D01*
X166505820Y-96505000D01*
X166904603Y-96339818D01*
X167209818Y-96034603D01*
X167375000Y-95635820D01*
X167375000Y-95204180D01*
X167209818Y-94805397D01*
X166904603Y-94500182D01*
X166505820Y-94335000D01*
X166074180Y-94335000D01*
X165699144Y-94490345D01*
X165636313Y-94174471D01*
X165355618Y-93754382D01*
X164935529Y-93473687D01*
X164565080Y-93400000D01*
X154375076Y-93400000D01*
X154250000Y-93375121D01*
X154124924Y-93400000D01*
X154124920Y-93400000D01*
X153754471Y-93473687D01*
X153334382Y-93754382D01*
X153263531Y-93860418D01*
X147780419Y-99343531D01*
X147674383Y-99414382D01*
X147603532Y-99520418D01*
X147603530Y-99520420D01*
X147393688Y-99834471D01*
X147295121Y-100330000D01*
X147320001Y-100455080D01*
X147320000Y-105518949D01*
X144253950Y-108585000D01*
X134511051Y-108585000D01*
X130175000Y-104248950D01*
X130175000Y-100341410D01*
X135295000Y-100341410D01*
X135295000Y-101588590D01*
X135772276Y-102740835D01*
X136654165Y-103622724D01*
X137806410Y-104100000D01*
X139053590Y-104100000D01*
X140205835Y-103622724D01*
X141087724Y-102740835D01*
X141565000Y-101588590D01*
X141565000Y-100341410D01*
X141087724Y-99189165D01*
X140205835Y-98307276D01*
X139053590Y-97830000D01*
X137806410Y-97830000D01*
X136654165Y-98307276D01*
X135772276Y-99189165D01*
X135295000Y-100341410D01*
X130175000Y-100341410D01*
X130175000Y-93470074D01*
X130199879Y-93344999D01*
X130175000Y-93219924D01*
X130175000Y-93219920D01*
X130101313Y-92849471D01*
X129820618Y-92429382D01*
X129714582Y-92358531D01*
X123924071Y-86568021D01*
X123853218Y-86461982D01*
X123433129Y-86181287D01*
X123412440Y-86177172D01*
X123412440Y-84627600D01*
X123363157Y-84379835D01*
X123222809Y-84169791D01*
X123012765Y-84029443D01*
X122765000Y-83980160D01*
X117265000Y-83980160D01*
X117017235Y-84029443D01*
X116807191Y-84169791D01*
X116666843Y-84379835D01*
X116617560Y-84627600D01*
X116617560Y-86172119D01*
X116571471Y-86181287D01*
X116380727Y-86308738D01*
X116265202Y-86385930D01*
X116151382Y-86461982D01*
X116080531Y-86568018D01*
X112347419Y-90301131D01*
X112241383Y-90371982D01*
X112170532Y-90478018D01*
X112170530Y-90478020D01*
X111960688Y-90792071D01*
X111862121Y-91287600D01*
X111887001Y-91412680D01*
X111887000Y-107576125D01*
X111862121Y-107701200D01*
X111887000Y-107826275D01*
X111887000Y-107826279D01*
X111960687Y-108196728D01*
X112241382Y-108616818D01*
X112347421Y-108687671D01*
X116617560Y-112957812D01*
X116617560Y-115727600D01*
X116666843Y-115975365D01*
X116807191Y-116185409D01*
X117017235Y-116325757D01*
X117265000Y-116375040D01*
X122765000Y-116375040D01*
X123012765Y-116325757D01*
X123222809Y-116185409D01*
X123363157Y-115975365D01*
X123412440Y-115727600D01*
X123412440Y-113828233D01*
X123649713Y-113473129D01*
X123748280Y-112977600D01*
X123649713Y-112482071D01*
X123412440Y-112126967D01*
X123412440Y-110227600D01*
X123363157Y-109979835D01*
X123222809Y-109769791D01*
X123012765Y-109629443D01*
X122765000Y-109580160D01*
X117265000Y-109580160D01*
X117017235Y-109629443D01*
X116935745Y-109683894D01*
X114427000Y-107175150D01*
X114427000Y-100463350D01*
X117380000Y-100463350D01*
X117380000Y-102303909D01*
X117476673Y-102537298D01*
X117655301Y-102715927D01*
X117888690Y-102812600D01*
X119729250Y-102812600D01*
X119888000Y-102653850D01*
X119888000Y-100304600D01*
X120142000Y-100304600D01*
X120142000Y-102653850D01*
X120300750Y-102812600D01*
X122141310Y-102812600D01*
X122374699Y-102715927D01*
X122553327Y-102537298D01*
X122650000Y-102303909D01*
X122650000Y-100463350D01*
X122491250Y-100304600D01*
X120142000Y-100304600D01*
X119888000Y-100304600D01*
X117538750Y-100304600D01*
X117380000Y-100463350D01*
X114427000Y-100463350D01*
X114427000Y-98051291D01*
X117380000Y-98051291D01*
X117380000Y-99891850D01*
X117538750Y-100050600D01*
X119888000Y-100050600D01*
X119888000Y-97701350D01*
X120142000Y-97701350D01*
X120142000Y-100050600D01*
X122491250Y-100050600D01*
X122650000Y-99891850D01*
X122650000Y-98051291D01*
X122553327Y-97817902D01*
X122374699Y-97639273D01*
X122141310Y-97542600D01*
X120300750Y-97542600D01*
X120142000Y-97701350D01*
X119888000Y-97701350D01*
X119729250Y-97542600D01*
X117888690Y-97542600D01*
X117655301Y-97639273D01*
X117476673Y-97817902D01*
X117380000Y-98051291D01*
X114427000Y-98051291D01*
X114427000Y-91813650D01*
X116617560Y-89623091D01*
X116617560Y-90127600D01*
X116666843Y-90375365D01*
X116807191Y-90585409D01*
X117017235Y-90725757D01*
X117265000Y-90775040D01*
X122765000Y-90775040D01*
X123012765Y-90725757D01*
X123222809Y-90585409D01*
X123363157Y-90375365D01*
X123412440Y-90127600D01*
X123412440Y-89648490D01*
X127635000Y-93871051D01*
X127635001Y-104649920D01*
X127610121Y-104775000D01*
X127708688Y-105270529D01*
X127918530Y-105584580D01*
X127918532Y-105584582D01*
X127989383Y-105690618D01*
X128095419Y-105761469D01*
X132998531Y-110664582D01*
X133069382Y-110770618D01*
X133175418Y-110841469D01*
X133175419Y-110841470D01*
X133489470Y-111051313D01*
X133571899Y-111067709D01*
X133859920Y-111125000D01*
X133859923Y-111125000D01*
X133985000Y-111149879D01*
X134110076Y-111125000D01*
X144654925Y-111125000D01*
X144780000Y-111149879D01*
X144905075Y-111125000D01*
X144905080Y-111125000D01*
X145275529Y-111051313D01*
X145695618Y-110770618D01*
X145766471Y-110664579D01*
X149399582Y-107031469D01*
X149505618Y-106960618D01*
X149669916Y-106714730D01*
X149786313Y-106540529D01*
X149793402Y-106504888D01*
X149860000Y-106170080D01*
X149860000Y-106170076D01*
X149884879Y-106045000D01*
X149860000Y-105919924D01*
X149860000Y-100856050D01*
X154776051Y-95940000D01*
X163292560Y-95940000D01*
X163292560Y-96520000D01*
X163341843Y-96767765D01*
X163482191Y-96977809D01*
X163692235Y-97118157D01*
X163940000Y-97167440D01*
X164411865Y-97167440D01*
X164341843Y-97272235D01*
X164292560Y-97520000D01*
X164292560Y-98520000D01*
X164341843Y-98767765D01*
X164482191Y-98977809D01*
X164692235Y-99118157D01*
X164940000Y-99167440D01*
X167740000Y-99167440D01*
X167797176Y-99156067D01*
X167797176Y-99426605D01*
X167797175Y-99426610D01*
X167797176Y-100894912D01*
X167797175Y-100894917D01*
X167797176Y-102363218D01*
X167797175Y-102363223D01*
X167797176Y-103831525D01*
X167797175Y-103831530D01*
X167797176Y-105299831D01*
X167797175Y-105299836D01*
X167797176Y-106768137D01*
X167797175Y-106768142D01*
X167797176Y-108236446D01*
X167797175Y-108236451D01*
X167797176Y-109704752D01*
X167797175Y-109704757D01*
X167797176Y-111173059D01*
X167797175Y-111173064D01*
X167797176Y-112641365D01*
X167797175Y-112641370D01*
X167797176Y-114109671D01*
X167797175Y-114109676D01*
X167797176Y-115577977D01*
X167797175Y-115577982D01*
X167797176Y-117046286D01*
X167797175Y-117046291D01*
X167797176Y-118514593D01*
X167797175Y-118514598D01*
X167797176Y-119982899D01*
X167797175Y-119982904D01*
X167797176Y-121451205D01*
X167797175Y-121451210D01*
X167797176Y-122919511D01*
X167797175Y-122919516D01*
X167797176Y-124387817D01*
X167797175Y-124387822D01*
X167797176Y-125856126D01*
X167797175Y-125856131D01*
X167797176Y-127324433D01*
X167797175Y-127324438D01*
X167797176Y-128858738D01*
X167793291Y-129014638D01*
X167782483Y-129158453D01*
X167764717Y-129299763D01*
X167745145Y-129410473D01*
X167574626Y-129964171D01*
X167318439Y-130438390D01*
X166978530Y-130851009D01*
X166565908Y-131190921D01*
X166091685Y-131447110D01*
X165565900Y-131609032D01*
X164957680Y-131669658D01*
X154460497Y-131669658D01*
X153852276Y-131609032D01*
X153326491Y-131447110D01*
X152852273Y-131190924D01*
X152439652Y-130851013D01*
X152099738Y-130438390D01*
X151843549Y-129964168D01*
X151681627Y-129438384D01*
X151623993Y-128860184D01*
X151716765Y-127677378D01*
X151822813Y-126325244D01*
X151921938Y-125061385D01*
X151921938Y-125061383D01*
X152009422Y-123945991D01*
X152017739Y-123839944D01*
X152021066Y-123797526D01*
X152021066Y-123797525D01*
X152120191Y-122533665D01*
X152120191Y-122533662D01*
X152219318Y-121269807D01*
X152318443Y-120005947D01*
X152318443Y-120005945D01*
X152411354Y-118821359D01*
X152417689Y-118750085D01*
X152417257Y-118746092D01*
X152417571Y-118742091D01*
X152409147Y-118671079D01*
X152382975Y-118429020D01*
X152388340Y-118405484D01*
X152366655Y-118278081D01*
X152361044Y-118226181D01*
X152354002Y-118203739D01*
X152350056Y-118180554D01*
X152331426Y-118131790D01*
X152292734Y-118008481D01*
X152277244Y-117989969D01*
X152255454Y-117932935D01*
X152253210Y-117897213D01*
X152201373Y-117791377D01*
X152186802Y-117753238D01*
X152168209Y-117723666D01*
X152152849Y-117692306D01*
X152128090Y-117659858D01*
X152065355Y-117560080D01*
X152036157Y-117539375D01*
X152020674Y-117519084D01*
X152010632Y-117490333D01*
X151928671Y-117398510D01*
X151900743Y-117361909D01*
X151878473Y-117342272D01*
X151858695Y-117320114D01*
X151821915Y-117292401D01*
X151729607Y-117211006D01*
X151711659Y-117204859D01*
X151710690Y-117203321D01*
X151595472Y-117121779D01*
X151544267Y-117083196D01*
X151533872Y-117078182D01*
X151524448Y-117071513D01*
X151465875Y-117045388D01*
X151338755Y-116984079D01*
X151326911Y-116983407D01*
X151254701Y-116951200D01*
X151194890Y-116922762D01*
X151185786Y-116920462D01*
X151177208Y-116916636D01*
X151112614Y-116901975D01*
X150940966Y-116858609D01*
X150894906Y-116843447D01*
X150867877Y-116840143D01*
X150841474Y-116833472D01*
X150793040Y-116830994D01*
X150674470Y-116816499D01*
X150641447Y-116808763D01*
X150599652Y-116807352D01*
X150558139Y-116802277D01*
X150524314Y-116804809D01*
X150443947Y-116802095D01*
X150395493Y-116797052D01*
X150368591Y-116799551D01*
X150341596Y-116798640D01*
X150293534Y-116806525D01*
X150152867Y-116819593D01*
X150145002Y-116817336D01*
X150001202Y-116833684D01*
X149933832Y-116839943D01*
X149926208Y-116842210D01*
X149918297Y-116843109D01*
X149853796Y-116863738D01*
X149720742Y-116903297D01*
X149711089Y-116902933D01*
X149584357Y-116949914D01*
X149528997Y-116967620D01*
X149513629Y-116976134D01*
X149497152Y-116982242D01*
X149447633Y-117012695D01*
X149345425Y-117069317D01*
X149344274Y-117069551D01*
X149340917Y-117071814D01*
X149329412Y-117078188D01*
X149327037Y-117081173D01*
X149231061Y-117145880D01*
X149180370Y-117177054D01*
X149168506Y-117188056D01*
X149155090Y-117197101D01*
X149113185Y-117239356D01*
X149013067Y-117332197D01*
X149006956Y-117345508D01*
X148959943Y-117393877D01*
X148909412Y-117444830D01*
X148907260Y-117448079D01*
X148904547Y-117450871D01*
X148865576Y-117511030D01*
X148783440Y-117635068D01*
X148782674Y-117639002D01*
X148771990Y-117655496D01*
X148736578Y-117706067D01*
X148730963Y-117718828D01*
X148723386Y-117730524D01*
X148700584Y-117787866D01*
X148652121Y-117897998D01*
X148631633Y-117935496D01*
X148621762Y-117966992D01*
X148608467Y-117997205D01*
X148599217Y-118038925D01*
X148581197Y-118096421D01*
X148571965Y-118115805D01*
X148558646Y-118168375D01*
X148542425Y-118220131D01*
X148540124Y-118241481D01*
X148539750Y-118242958D01*
X148534974Y-118253833D01*
X148521210Y-118316133D01*
X148505550Y-118377943D01*
X148504936Y-118389797D01*
X148221076Y-119674640D01*
X147907176Y-121095446D01*
X147907174Y-121095450D01*
X147593277Y-122516254D01*
X147593275Y-122516258D01*
X147279378Y-123937062D01*
X147279376Y-123937066D01*
X146961614Y-125375367D01*
X146651578Y-126778681D01*
X146651576Y-126778685D01*
X146337679Y-128199489D01*
X146337677Y-128199493D01*
X146016654Y-129652552D01*
X145857511Y-130119909D01*
X145641124Y-130519146D01*
X145366914Y-130868631D01*
X145040573Y-131165286D01*
X144667558Y-131405074D01*
X144253166Y-131583290D01*
X143802476Y-131694667D01*
X143289545Y-131735762D01*
X135927199Y-131735762D01*
X135926148Y-131735556D01*
X135851948Y-131735762D01*
X135777159Y-131735762D01*
X135776100Y-131735973D01*
X134791017Y-131738707D01*
X133897632Y-131722949D01*
X133180652Y-131657107D01*
X132639279Y-131523850D01*
X132239744Y-131316096D01*
X131907560Y-130992989D01*
X131594341Y-130462563D01*
X131302007Y-129639618D01*
X130982260Y-128330184D01*
X130982260Y-128330179D01*
X130635318Y-126909376D01*
X130635318Y-126909372D01*
X130287548Y-125485167D01*
X130057916Y-124544769D01*
X130198559Y-124544769D01*
X130204979Y-124579240D01*
X130201508Y-124614132D01*
X130227487Y-124700078D01*
X130243927Y-124788344D01*
X130263051Y-124817735D01*
X130273196Y-124851299D01*
X130296689Y-124895356D01*
X130337451Y-124945125D01*
X130368041Y-125001713D01*
X130401170Y-125041697D01*
X130401170Y-125057674D01*
X130405506Y-125079473D01*
X130402685Y-125101523D01*
X130414758Y-125145929D01*
X130413949Y-125162216D01*
X130432037Y-125212853D01*
X130439295Y-125249343D01*
X130444621Y-125284697D01*
X130447168Y-125288925D01*
X130449506Y-125300678D01*
X130461856Y-125319161D01*
X130467687Y-125340609D01*
X130473533Y-125352354D01*
X130476341Y-125355986D01*
X130477433Y-125359803D01*
X130530300Y-125462597D01*
X130578024Y-125522665D01*
X130616157Y-125589235D01*
X130695455Y-125680280D01*
X130765668Y-125734536D01*
X130829327Y-125796345D01*
X130929183Y-125860958D01*
X131025978Y-125899390D01*
X131120143Y-125943873D01*
X131237621Y-125973242D01*
X131308485Y-125976691D01*
X131377756Y-125992050D01*
X131431047Y-125982655D01*
X131485093Y-125985285D01*
X131551885Y-125961351D01*
X131562018Y-125959565D01*
X131567732Y-125959571D01*
X131572013Y-125957803D01*
X131621758Y-125949033D01*
X131674625Y-125928476D01*
X131714475Y-125903090D01*
X131718336Y-125901707D01*
X131722318Y-125898094D01*
X131728340Y-125894258D01*
X131754910Y-125886982D01*
X131772532Y-125878171D01*
X131778900Y-125873229D01*
X131779809Y-125872850D01*
X131783165Y-125870597D01*
X131796734Y-125864993D01*
X131823168Y-125847370D01*
X131834272Y-125836289D01*
X131840369Y-125832196D01*
X131869593Y-125818179D01*
X131881338Y-125809368D01*
X131884052Y-125806340D01*
X131926655Y-125783353D01*
X131934489Y-125790161D01*
X132016226Y-125866831D01*
X132027682Y-125871152D01*
X132036921Y-125879182D01*
X132143194Y-125914726D01*
X132248046Y-125954279D01*
X132276726Y-125959036D01*
X132317162Y-125966618D01*
X132344829Y-125966314D01*
X132371299Y-125974373D01*
X132400668Y-125977296D01*
X132431065Y-125974334D01*
X132431756Y-125974542D01*
X132464510Y-125971260D01*
X132526446Y-125977296D01*
X132555815Y-125974373D01*
X132614734Y-125956434D01*
X132647265Y-125953264D01*
X132647996Y-125952874D01*
X132678287Y-125949839D01*
X132733209Y-125920363D01*
X132792837Y-125902208D01*
X132841305Y-125862348D01*
X132896597Y-125832673D01*
X132940921Y-125796173D01*
X132976324Y-125768351D01*
X132977370Y-125767130D01*
X132978802Y-125766394D01*
X133023246Y-125713993D01*
X133292987Y-125787557D01*
X133572491Y-125875078D01*
X133655661Y-125884021D01*
X133736986Y-125903590D01*
X133775759Y-125905134D01*
X133795126Y-125908039D01*
X133842882Y-125915998D01*
X133864087Y-125915336D01*
X133869317Y-125916929D01*
X133939759Y-125941701D01*
X133954351Y-125940904D01*
X133968343Y-125945123D01*
X134059389Y-125953934D01*
X134090192Y-125950847D01*
X134120556Y-125956887D01*
X134147197Y-125956887D01*
X134177879Y-125960569D01*
X134237408Y-125968687D01*
X134289973Y-125965486D01*
X134341905Y-125974235D01*
X134412458Y-125958028D01*
X134484714Y-125953628D01*
X134532053Y-125930555D01*
X134583380Y-125918764D01*
X134876046Y-125787312D01*
X134885352Y-125796347D01*
X134985209Y-125860960D01*
X135082002Y-125899391D01*
X135176164Y-125943873D01*
X135293642Y-125973242D01*
X135364507Y-125976691D01*
X135433778Y-125992050D01*
X135487069Y-125982655D01*
X135541114Y-125985285D01*
X135607906Y-125961352D01*
X135618040Y-125959565D01*
X135623754Y-125959571D01*
X135628035Y-125957803D01*
X135677780Y-125949033D01*
X135730647Y-125928476D01*
X135770495Y-125903092D01*
X135774357Y-125901708D01*
X135778341Y-125898094D01*
X135784354Y-125894263D01*
X135810919Y-125886989D01*
X135828542Y-125878178D01*
X135834915Y-125873232D01*
X135835832Y-125872850D01*
X135839190Y-125870596D01*
X135852756Y-125864993D01*
X135879190Y-125847370D01*
X135890292Y-125836291D01*
X135896392Y-125832196D01*
X135925616Y-125818179D01*
X135937361Y-125809368D01*
X135940075Y-125806340D01*
X135982674Y-125783355D01*
X135990505Y-125790161D01*
X136072242Y-125866831D01*
X136083698Y-125871152D01*
X136092937Y-125879182D01*
X136199210Y-125914726D01*
X136304062Y-125954279D01*
X136332723Y-125959033D01*
X136373182Y-125966619D01*
X136400847Y-125966315D01*
X136427314Y-125974373D01*
X136456682Y-125977296D01*
X136487081Y-125974334D01*
X136487772Y-125974542D01*
X136520526Y-125971260D01*
X136582462Y-125977296D01*
X136611831Y-125974373D01*
X136670747Y-125956435D01*
X136703278Y-125953265D01*
X136704011Y-125952874D01*
X136734303Y-125949839D01*
X136789225Y-125920363D01*
X136848853Y-125902208D01*
X136897321Y-125862348D01*
X136942265Y-125838227D01*
X137015120Y-125867371D01*
X137059797Y-125875693D01*
X137101016Y-125894834D01*
X137180492Y-125898177D01*
X137258694Y-125912744D01*
X137303157Y-125903335D01*
X137348562Y-125905245D01*
X137480724Y-125884688D01*
X137543556Y-125861705D01*
X137609511Y-125850507D01*
X137658772Y-125819562D01*
X137663985Y-125817655D01*
X137673868Y-125824435D01*
X137761179Y-125890469D01*
X137775609Y-125894228D01*
X137787907Y-125902664D01*
X137879233Y-125921992D01*
X137898259Y-125929308D01*
X137933810Y-125935438D01*
X137957747Y-125941673D01*
X137997118Y-125958365D01*
X138070302Y-125958972D01*
X138142421Y-125971407D01*
X138193012Y-125959990D01*
X138244874Y-125960420D01*
X138312718Y-125932975D01*
X138384108Y-125916864D01*
X138426481Y-125886954D01*
X138474557Y-125867506D01*
X138568540Y-125805830D01*
X138570693Y-125803712D01*
X138573486Y-125802552D01*
X138607442Y-125768525D01*
X138622815Y-125791533D01*
X138640183Y-125808901D01*
X138646818Y-125816483D01*
X138650919Y-125819637D01*
X138655119Y-125823837D01*
X138664736Y-125830263D01*
X138666869Y-125831904D01*
X138681182Y-125852769D01*
X138764466Y-125906960D01*
X138843219Y-125967526D01*
X138867649Y-125974100D01*
X138888854Y-125987898D01*
X138932911Y-126005521D01*
X139030820Y-126023759D01*
X139127011Y-126049566D01*
X139151853Y-126046304D01*
X139176486Y-126050892D01*
X139273918Y-126030274D01*
X139372667Y-126017306D01*
X139394372Y-126004784D01*
X139418883Y-125999597D01*
X139501012Y-125943261D01*
X139587277Y-125893492D01*
X139644629Y-125843229D01*
X139696098Y-125867542D01*
X139860567Y-125908657D01*
X139882327Y-125909716D01*
X139902614Y-125917668D01*
X140099390Y-125952913D01*
X140176698Y-125951435D01*
X140253369Y-125961468D01*
X140279420Y-125959740D01*
X140355501Y-125972190D01*
X140392667Y-125970921D01*
X140428769Y-125979850D01*
X140619670Y-125988662D01*
X140678923Y-125979693D01*
X140738758Y-125982954D01*
X140911140Y-125958327D01*
X140912983Y-125959704D01*
X140925583Y-125962906D01*
X140936299Y-125970258D01*
X140977109Y-125987750D01*
X140977113Y-125987753D01*
X140977118Y-125987754D01*
X140977414Y-125987881D01*
X141098363Y-126013483D01*
X141219481Y-126039184D01*
X141219804Y-126039188D01*
X141219808Y-126039189D01*
X141219812Y-126039188D01*
X141448564Y-126042106D01*
X141548669Y-126023519D01*
X141649826Y-126012065D01*
X141999324Y-125900461D01*
X142021047Y-125888440D01*
X142045428Y-125883751D01*
X142098882Y-125862007D01*
X142163682Y-125886510D01*
X142212791Y-125909920D01*
X142250410Y-125935056D01*
X142281783Y-125941296D01*
X142310019Y-125956333D01*
X142402121Y-125965261D01*
X142427255Y-125974762D01*
X142446931Y-125974146D01*
X142493414Y-125983392D01*
X142531594Y-125983392D01*
X142550457Y-125979640D01*
X142556628Y-125980238D01*
X142573831Y-125974991D01*
X142602566Y-125969275D01*
X142674899Y-125967011D01*
X142722922Y-125945335D01*
X142774598Y-125935056D01*
X142825768Y-125900865D01*
X142897780Y-125881149D01*
X142918344Y-125865191D01*
X142942814Y-125856307D01*
X143015596Y-125789722D01*
X143030312Y-125778302D01*
X143124845Y-125828897D01*
X143168153Y-125842060D01*
X143206829Y-125865571D01*
X143424164Y-125944870D01*
X143533405Y-125961773D01*
X143641821Y-125983338D01*
X143641958Y-125983338D01*
X143679018Y-125993487D01*
X143685823Y-125992629D01*
X143692472Y-125994299D01*
X143751209Y-125997222D01*
X143780730Y-125992862D01*
X143810222Y-125997413D01*
X143849011Y-125995735D01*
X143881937Y-125997295D01*
X143908731Y-125993273D01*
X143935485Y-125997573D01*
X144030441Y-125975004D01*
X144126956Y-125960517D01*
X144150173Y-125946547D01*
X144176535Y-125940281D01*
X144255626Y-125883092D01*
X144339251Y-125832772D01*
X144355355Y-125810980D01*
X144377311Y-125795104D01*
X144404807Y-125765494D01*
X144511489Y-125792293D01*
X144630245Y-125824790D01*
X144751567Y-125867720D01*
X144852161Y-125882281D01*
X144951464Y-125903980D01*
X144975233Y-125904427D01*
X144985330Y-125906206D01*
X144995849Y-125905976D01*
X144999960Y-125907664D01*
X145005231Y-125908696D01*
X145008597Y-125909863D01*
X145017416Y-125911082D01*
X145026394Y-125912840D01*
X145030054Y-125912829D01*
X145035031Y-125913517D01*
X145047565Y-125912777D01*
X145053401Y-125912759D01*
X145082702Y-125925954D01*
X145098346Y-125926430D01*
X145143585Y-125942122D01*
X145191313Y-125948728D01*
X145211750Y-125947525D01*
X145231478Y-125952990D01*
X145253692Y-125954635D01*
X145269002Y-125952751D01*
X145284050Y-125956154D01*
X145305162Y-125956704D01*
X145313451Y-125955278D01*
X145321699Y-125956919D01*
X145352782Y-125956919D01*
X145359673Y-125959689D01*
X145376194Y-125962795D01*
X145409855Y-125962441D01*
X145442231Y-125971653D01*
X145458014Y-125972932D01*
X145495364Y-125968599D01*
X145532490Y-125974584D01*
X145547543Y-125974034D01*
X145578205Y-125966762D01*
X145609653Y-125968702D01*
X145713915Y-125954569D01*
X145769750Y-125935377D01*
X145828344Y-125928097D01*
X145920858Y-125897443D01*
X145978614Y-125864656D01*
X146041398Y-125842991D01*
X146122164Y-125795817D01*
X146173759Y-125750108D01*
X146232556Y-125714143D01*
X146301575Y-125650447D01*
X146343950Y-125592223D01*
X146395373Y-125541811D01*
X146450256Y-125461412D01*
X146473534Y-125406756D01*
X146507516Y-125358024D01*
X146548814Y-125263674D01*
X146559914Y-125213146D01*
X146582271Y-125166495D01*
X146609989Y-125058194D01*
X146612337Y-125014925D01*
X146625615Y-124973679D01*
X146630405Y-124932246D01*
X146631089Y-124931010D01*
X146634741Y-124898670D01*
X146645038Y-124872841D01*
X146644786Y-124853955D01*
X146655195Y-124820236D01*
X146653731Y-124804583D01*
X146661157Y-124772673D01*
X146658101Y-124754209D01*
X146661276Y-124735769D01*
X146660911Y-124721636D01*
X146656790Y-124703395D01*
X146658889Y-124684810D01*
X146657793Y-124671779D01*
X146651737Y-124650739D01*
X146652708Y-124628866D01*
X146650881Y-124616937D01*
X146650047Y-124614639D01*
X146651211Y-124605538D01*
X146641252Y-124568904D01*
X146641186Y-124567064D01*
X146638628Y-124556237D01*
X146636602Y-124551799D01*
X146634999Y-124545905D01*
X146630880Y-124484251D01*
X146606614Y-124435200D01*
X146605600Y-124429718D01*
X146601835Y-124423916D01*
X146586213Y-124366451D01*
X146546748Y-124287153D01*
X146538579Y-124276587D01*
X146534545Y-124263856D01*
X146492510Y-124187495D01*
X146483646Y-124176962D01*
X146478932Y-124164030D01*
X146434329Y-124090606D01*
X146424765Y-124080179D01*
X146419341Y-124067112D01*
X146372167Y-123996625D01*
X146360712Y-123985187D01*
X146353762Y-123970565D01*
X146302916Y-123902281D01*
X146284701Y-123885834D01*
X146272505Y-123864537D01*
X146216885Y-123800658D01*
X146197385Y-123785585D01*
X146183535Y-123765197D01*
X146123141Y-123705723D01*
X146102694Y-123692287D01*
X146087446Y-123673152D01*
X146036665Y-123630240D01*
X146024861Y-123610164D01*
X146017334Y-123601718D01*
X145999554Y-123588297D01*
X145986959Y-123569918D01*
X145979067Y-123562210D01*
X145949614Y-123543026D01*
X145926687Y-123516376D01*
X145909801Y-123503162D01*
X145880566Y-123488398D01*
X145856789Y-123465878D01*
X145836962Y-123453395D01*
X145836636Y-123453270D01*
X145822767Y-123444003D01*
X145796711Y-123413897D01*
X145717413Y-123352222D01*
X145694192Y-123340581D01*
X145675664Y-123322378D01*
X145588291Y-123265108D01*
X145574642Y-123259595D01*
X145563679Y-123249767D01*
X145471898Y-123195432D01*
X145471562Y-123195314D01*
X145471296Y-123195076D01*
X145378047Y-123140010D01*
X145376561Y-123139489D01*
X145375383Y-123138446D01*
X145297827Y-123093155D01*
X145247074Y-123059875D01*
X145189718Y-123013990D01*
X145127863Y-122981914D01*
X145072482Y-122939635D01*
X145018945Y-122925431D01*
X144969769Y-122899930D01*
X144900344Y-122893966D01*
X144833002Y-122876100D01*
X144778105Y-122883465D01*
X144722913Y-122878724D01*
X144682480Y-122891543D01*
X144622311Y-122890042D01*
X144605426Y-122892965D01*
X144602573Y-122894064D01*
X144601143Y-122894077D01*
X144592901Y-122897578D01*
X144580670Y-122897759D01*
X144478297Y-122941946D01*
X144374228Y-122982043D01*
X144364948Y-122990871D01*
X144353191Y-122995946D01*
X144300971Y-123049732D01*
X144280441Y-123061048D01*
X144246052Y-123079620D01*
X144214724Y-123105557D01*
X144177685Y-123122360D01*
X144143907Y-123146589D01*
X144101958Y-123191419D01*
X144089959Y-123185881D01*
X144050578Y-123176408D01*
X144015077Y-123156910D01*
X143919888Y-123126849D01*
X143686336Y-123038923D01*
X143664874Y-123035378D01*
X143645671Y-123025165D01*
X143372533Y-122942929D01*
X143327793Y-122938616D01*
X143285547Y-122923280D01*
X142997726Y-122879224D01*
X142913533Y-122882969D01*
X142829542Y-122876020D01*
X142521161Y-122911265D01*
X142451780Y-122933501D01*
X142379705Y-122944147D01*
X142334920Y-122970953D01*
X142285217Y-122986882D01*
X142255564Y-123012003D01*
X142220190Y-122987263D01*
X142205462Y-122984006D01*
X142192715Y-122975952D01*
X142001813Y-122902528D01*
X141940430Y-122891939D01*
X141882309Y-122869531D01*
X141819537Y-122871083D01*
X141757655Y-122860408D01*
X141696889Y-122874116D01*
X141634620Y-122875656D01*
X141577220Y-122901112D01*
X141515963Y-122914931D01*
X141465067Y-122950851D01*
X141408129Y-122976102D01*
X141278903Y-123067147D01*
X141243836Y-123103992D01*
X141201201Y-123131725D01*
X141130432Y-123200768D01*
X141065126Y-123168115D01*
X141003791Y-123151318D01*
X140946820Y-123123070D01*
X140838153Y-123093701D01*
X140821168Y-123092551D01*
X140805536Y-123085804D01*
X140701895Y-123063594D01*
X140512767Y-123010321D01*
X140481106Y-123007839D01*
X140451521Y-122996299D01*
X140269431Y-122963995D01*
X140257864Y-122964235D01*
X140246942Y-122960420D01*
X140064942Y-122934825D01*
X139850601Y-122900529D01*
X139770384Y-122903553D01*
X139762197Y-122902715D01*
X139716669Y-122889280D01*
X139664440Y-122894825D01*
X139612312Y-122888412D01*
X139542413Y-122907779D01*
X139504377Y-122911817D01*
X139457920Y-122902576D01*
X139439324Y-122897732D01*
X139427978Y-122892251D01*
X139415545Y-122891538D01*
X139355663Y-122875939D01*
X139305737Y-122873016D01*
X139243425Y-122881662D01*
X139180620Y-122878058D01*
X139121909Y-122898522D01*
X139060323Y-122907067D01*
X139006062Y-122938901D01*
X138946660Y-122959606D01*
X138908985Y-122981768D01*
X138883585Y-122995217D01*
X138834100Y-123018780D01*
X138805860Y-123039839D01*
X138772863Y-123052182D01*
X138755652Y-123062836D01*
X138607047Y-122961588D01*
X138588052Y-122953518D01*
X138572677Y-122939751D01*
X138474636Y-122905336D01*
X138379007Y-122864710D01*
X138358370Y-122864524D01*
X138338897Y-122857688D01*
X138297781Y-122851842D01*
X138223073Y-122855963D01*
X138148638Y-122848336D01*
X138100529Y-122862723D01*
X138050393Y-122865489D01*
X137982949Y-122897886D01*
X137926637Y-122914726D01*
X137853728Y-122903526D01*
X137734506Y-122884003D01*
X137731391Y-122884734D01*
X137728229Y-122884248D01*
X137610887Y-122912998D01*
X137493288Y-122940581D01*
X137490691Y-122942447D01*
X137487582Y-122943209D01*
X137355419Y-123004886D01*
X137337094Y-123018330D01*
X137298596Y-122991922D01*
X137204804Y-122923958D01*
X137196699Y-122922023D01*
X137189827Y-122917309D01*
X137076497Y-122893325D01*
X136963812Y-122866421D01*
X136955582Y-122867735D01*
X136947431Y-122866010D01*
X136833535Y-122887224D01*
X136719147Y-122905489D01*
X136712049Y-122909851D01*
X136703855Y-122911377D01*
X136630430Y-122940747D01*
X136552309Y-122991577D01*
X136469567Y-123034486D01*
X136410830Y-123081477D01*
X136405604Y-123087685D01*
X136398498Y-123091600D01*
X136396200Y-123093535D01*
X136324954Y-123123133D01*
X136291502Y-123156655D01*
X136250929Y-123181082D01*
X136243331Y-123191369D01*
X136235539Y-123181040D01*
X136210968Y-123146642D01*
X136136269Y-123076467D01*
X136066557Y-123001329D01*
X136046483Y-122992119D01*
X136030389Y-122977000D01*
X135934527Y-122940755D01*
X135841361Y-122898012D01*
X135819291Y-122897185D01*
X135798636Y-122889376D01*
X135696200Y-122892575D01*
X135593770Y-122888738D01*
X135573065Y-122896420D01*
X135550992Y-122897109D01*
X135457567Y-122939270D01*
X135435466Y-122947470D01*
X135397522Y-122957457D01*
X135397115Y-122957656D01*
X135396661Y-122957684D01*
X135296805Y-122984117D01*
X135221433Y-123021003D01*
X135141962Y-123047954D01*
X135065601Y-123092011D01*
X134977507Y-123169221D01*
X134887781Y-123244484D01*
X134884545Y-123250697D01*
X134879273Y-123255318D01*
X134827424Y-123360379D01*
X134773338Y-123464234D01*
X134752780Y-123534720D01*
X134752281Y-123540410D01*
X134744506Y-123533341D01*
X134687682Y-123499163D01*
X134673175Y-123486156D01*
X134668415Y-123484481D01*
X134545939Y-123376704D01*
X134500504Y-123350368D01*
X134462198Y-123314433D01*
X134283044Y-123202828D01*
X134275158Y-123199853D01*
X134268863Y-123194249D01*
X134110054Y-123100981D01*
X133964351Y-122995470D01*
X133956518Y-122991874D01*
X133950488Y-122985710D01*
X133844200Y-122940308D01*
X133739183Y-122892095D01*
X133730568Y-122891770D01*
X133722639Y-122888383D01*
X133607092Y-122887113D01*
X133552211Y-122885042D01*
X133544924Y-122883593D01*
X133513784Y-122883593D01*
X133491594Y-122882756D01*
X133485411Y-122885048D01*
X133480915Y-122884385D01*
X133475807Y-122885669D01*
X133474889Y-122885659D01*
X133427898Y-122894470D01*
X133406271Y-122903151D01*
X133375862Y-122910796D01*
X133269616Y-122931929D01*
X133256235Y-122940870D01*
X133240627Y-122944794D01*
X133153675Y-123009398D01*
X133063607Y-123069580D01*
X133059993Y-123074989D01*
X133046835Y-123079976D01*
X132976349Y-123124032D01*
X132975595Y-123124741D01*
X132974624Y-123125113D01*
X132885305Y-123209696D01*
X132795903Y-123293815D01*
X132795477Y-123294761D01*
X132794723Y-123295475D01*
X132744798Y-123365962D01*
X132704272Y-123456728D01*
X132656745Y-123544039D01*
X132654079Y-123569145D01*
X132651446Y-123575042D01*
X132604190Y-123504158D01*
X132564161Y-123464045D01*
X132533610Y-123416313D01*
X132477493Y-123377196D01*
X132429177Y-123328779D01*
X132376844Y-123307038D01*
X132330353Y-123274631D01*
X132283362Y-123254074D01*
X132241062Y-123244790D01*
X132219137Y-123233560D01*
X132179517Y-123181040D01*
X132154946Y-123146642D01*
X132080247Y-123076467D01*
X132010535Y-123001329D01*
X131990461Y-122992119D01*
X131974367Y-122977000D01*
X131878505Y-122940755D01*
X131785339Y-122898012D01*
X131763269Y-122897185D01*
X131742614Y-122889376D01*
X131640178Y-122892575D01*
X131537748Y-122888738D01*
X131517043Y-122896420D01*
X131494970Y-122897109D01*
X131401545Y-122939270D01*
X131379444Y-122947470D01*
X131341500Y-122957457D01*
X131341093Y-122957656D01*
X131340639Y-122957684D01*
X131240783Y-122984117D01*
X131165411Y-123021003D01*
X131085940Y-123047954D01*
X131009579Y-123092011D01*
X130921485Y-123169221D01*
X130831759Y-123244484D01*
X130828523Y-123250697D01*
X130823251Y-123255318D01*
X130771402Y-123360379D01*
X130717316Y-123464234D01*
X130696758Y-123534720D01*
X130694000Y-123566183D01*
X130682235Y-123595494D01*
X130673424Y-123642486D01*
X130673563Y-123655165D01*
X130669307Y-123667107D01*
X130654620Y-123766962D01*
X130655288Y-123780222D01*
X130651349Y-123792901D01*
X130643804Y-123864587D01*
X130629979Y-123923335D01*
X130623565Y-123926829D01*
X130602917Y-123952400D01*
X130575813Y-123970994D01*
X130571181Y-123978114D01*
X130557859Y-123985208D01*
X130534729Y-123992200D01*
X130465271Y-124049088D01*
X130390010Y-124098058D01*
X130370174Y-124126975D01*
X130343049Y-124149191D01*
X130300646Y-124228332D01*
X130249857Y-124302373D01*
X130242597Y-124336676D01*
X130226037Y-124367585D01*
X130217148Y-124456932D01*
X130198559Y-124544769D01*
X130057916Y-124544769D01*
X129941296Y-124067185D01*
X129558646Y-122500139D01*
X129247552Y-121226141D01*
X129247552Y-121226135D01*
X128900610Y-119805332D01*
X128900610Y-119805328D01*
X128548648Y-118363959D01*
X128546579Y-118342897D01*
X128530760Y-118290702D01*
X128517821Y-118237714D01*
X128513020Y-118227404D01*
X128512666Y-118224626D01*
X128492181Y-118163412D01*
X128473447Y-118101598D01*
X128468224Y-118091821D01*
X128457093Y-118058557D01*
X128449106Y-118023009D01*
X128433170Y-117987070D01*
X128420697Y-117949796D01*
X128402620Y-117918170D01*
X128359219Y-117820291D01*
X128339226Y-117768126D01*
X128328644Y-117751336D01*
X128320604Y-117733203D01*
X128288443Y-117687549D01*
X128200468Y-117547959D01*
X128161056Y-117485010D01*
X128160267Y-117484173D01*
X128159654Y-117483200D01*
X128108591Y-117429336D01*
X128064654Y-117382712D01*
X128058998Y-117369319D01*
X127960352Y-117272030D01*
X127918147Y-117227243D01*
X127906619Y-117219035D01*
X127896548Y-117209103D01*
X127845166Y-117175283D01*
X127747671Y-117105869D01*
X127743106Y-117099840D01*
X127628687Y-117032794D01*
X127582263Y-117002237D01*
X127563615Y-116994664D01*
X127546248Y-116984487D01*
X127493730Y-116966281D01*
X127370866Y-116916383D01*
X127355917Y-116916486D01*
X127349084Y-116910843D01*
X127216419Y-116870150D01*
X127158101Y-116849934D01*
X127144286Y-116848025D01*
X127130950Y-116843934D01*
X127069532Y-116837693D01*
X126932085Y-116818696D01*
X126918217Y-116822316D01*
X126767997Y-116807051D01*
X126716662Y-116798629D01*
X126692984Y-116799428D01*
X126669413Y-116797033D01*
X126617625Y-116801972D01*
X126533937Y-116804797D01*
X126500112Y-116802265D01*
X126458604Y-116807339D01*
X126416811Y-116808750D01*
X126383785Y-116816486D01*
X126265208Y-116830982D01*
X126216776Y-116833460D01*
X126190372Y-116840131D01*
X126163345Y-116843435D01*
X126117287Y-116858596D01*
X125945624Y-116901966D01*
X125881038Y-116916626D01*
X125872465Y-116920450D01*
X125863361Y-116922750D01*
X125803543Y-116951191D01*
X125731339Y-116983396D01*
X125719497Y-116984068D01*
X125592380Y-117045376D01*
X125533800Y-117071504D01*
X125524377Y-117078173D01*
X125513985Y-117083185D01*
X125462784Y-117121765D01*
X125347559Y-117203313D01*
X125346591Y-117204849D01*
X125328645Y-117210995D01*
X125236337Y-117292390D01*
X125199557Y-117320103D01*
X125179779Y-117342261D01*
X125157509Y-117361898D01*
X125129581Y-117398499D01*
X125047620Y-117490322D01*
X125037578Y-117519073D01*
X125022095Y-117539364D01*
X124992898Y-117560068D01*
X124930165Y-117659842D01*
X124905402Y-117692296D01*
X124890040Y-117723660D01*
X124871451Y-117753226D01*
X124856881Y-117791362D01*
X124805042Y-117897203D01*
X124802798Y-117932923D01*
X124781007Y-117989958D01*
X124765516Y-118008472D01*
X124726827Y-118131772D01*
X124708195Y-118180541D01*
X124704248Y-118203732D01*
X124697207Y-118226171D01*
X124691597Y-118278059D01*
X124669911Y-118405471D01*
X124675277Y-118429010D01*
X124649920Y-118663543D01*
X124641127Y-118727040D01*
X124641806Y-118738586D01*
X124640564Y-118750075D01*
X124646236Y-118813885D01*
X124715472Y-119990898D01*
X124789816Y-121254758D01*
X124864161Y-122518616D01*
X124938505Y-123782475D01*
X125021690Y-125196608D01*
X125087195Y-126310195D01*
X125161539Y-127574055D01*
X125236752Y-128852674D01*
X125178371Y-129438374D01*
X125016451Y-129964160D01*
X124760264Y-130438376D01*
X124420352Y-130850998D01*
X124007730Y-131190910D01*
X123533508Y-131447099D01*
X123007724Y-131609021D01*
X122399507Y-131669646D01*
X111902315Y-131669646D01*
X111294098Y-131609021D01*
X110768312Y-131447099D01*
X110294088Y-131190908D01*
X109881473Y-130851011D01*
X109541561Y-130438390D01*
X109285372Y-129964168D01*
X109123452Y-129438385D01*
X109062825Y-128830164D01*
X109062825Y-81892040D01*
X109066718Y-81736160D01*
X109077525Y-81592337D01*
X109095283Y-81451036D01*
X109114858Y-81340315D01*
X109285372Y-80786622D01*
X109541561Y-80312399D01*
X109881471Y-79899781D01*
X110294094Y-79559867D01*
X110768312Y-79303680D01*
X111294098Y-79141759D01*
X111902319Y-79081133D01*
X127757711Y-79081133D01*
X128754040Y-79166365D01*
X128754040Y-79166365D01*
G37*
X128754040Y-79166365D02*
X129669945Y-79404857D01*
X130526009Y-79787189D01*
X131307974Y-80301085D01*
X132000707Y-80933721D01*
X132588956Y-81671749D01*
X133057823Y-82501668D01*
X133401015Y-83432423D01*
X133798155Y-84987185D01*
X133798156Y-84987187D01*
X134186400Y-86507120D01*
X134574644Y-88027055D01*
X134574645Y-88027057D01*
X134962889Y-89546990D01*
X134962890Y-89546992D01*
X135313731Y-90920506D01*
X135739375Y-92586860D01*
X135739376Y-92586862D01*
X136127620Y-94106795D01*
X136127621Y-94106797D01*
X136486152Y-95510406D01*
X136490308Y-95541187D01*
X136504808Y-95583443D01*
X136515865Y-95626729D01*
X136529276Y-95654746D01*
X136606080Y-95878567D01*
X136629802Y-95948645D01*
X136630607Y-95950043D01*
X136631128Y-95951560D01*
X136668176Y-96015242D01*
X136715562Y-96097478D01*
X136716198Y-96101944D01*
X136791651Y-96229525D01*
X136827222Y-96291258D01*
X136830112Y-96294559D01*
X136832345Y-96298335D01*
X136879874Y-96351399D01*
X136929564Y-96408156D01*
X136930130Y-96409719D01*
X136949283Y-96430681D01*
X136977516Y-96462929D01*
X136979765Y-96464041D01*
X137030473Y-96519535D01*
X137078374Y-96573015D01*
X137081447Y-96575322D01*
X137084038Y-96578158D01*
X137141867Y-96620686D01*
X137260835Y-96710008D01*
X137264662Y-96710991D01*
X137303946Y-96739881D01*
X137362025Y-96783304D01*
X137364787Y-96784623D01*
X137367249Y-96786434D01*
X137432861Y-96817142D01*
X137588808Y-96891639D01*
X137643881Y-96920362D01*
X137656908Y-96924170D01*
X137669146Y-96930016D01*
X137729295Y-96945330D01*
X137865922Y-96985268D01*
X137913832Y-97002671D01*
X137938271Y-97006417D01*
X137962014Y-97013357D01*
X138012811Y-97017841D01*
X138122690Y-97034681D01*
X138162379Y-97044495D01*
X138197193Y-97046100D01*
X138231646Y-97051380D01*
X138272492Y-97049570D01*
X138354706Y-97053360D01*
X138389845Y-97058681D01*
X138430001Y-97056830D01*
X138470157Y-97058681D01*
X138505296Y-97053360D01*
X138587509Y-97049570D01*
X138628354Y-97051380D01*
X138662807Y-97046100D01*
X138697622Y-97044495D01*
X138737312Y-97034681D01*
X138847190Y-97017841D01*
X138897986Y-97013357D01*
X138921728Y-97006417D01*
X138946169Y-97002671D01*
X138994083Y-96985266D01*
X139130705Y-96945330D01*
X139190860Y-96930014D01*
X139203096Y-96924169D01*
X139216119Y-96920362D01*
X139271186Y-96891641D01*
X139427132Y-96817145D01*
X139492749Y-96786434D01*
X139495213Y-96784622D01*
X139497978Y-96783301D01*
X139556067Y-96739870D01*
X139595333Y-96710992D01*
X139599160Y-96710010D01*
X139718147Y-96620674D01*
X139775960Y-96578158D01*
X139778550Y-96575323D01*
X139781622Y-96573017D01*
X139829526Y-96519535D01*
X139880233Y-96464040D01*
X139882485Y-96462927D01*
X139910741Y-96430652D01*
X139929868Y-96409719D01*
X139930434Y-96408158D01*
X139980125Y-96351399D01*
X140027653Y-96298336D01*
X140029887Y-96294558D01*
X140032779Y-96291255D01*
X140068353Y-96229518D01*
X140143800Y-96101946D01*
X140144436Y-96097478D01*
X140191709Y-96015437D01*
X140228869Y-95951563D01*
X140229392Y-95950039D01*
X140230197Y-95948642D01*
X140253909Y-95878592D01*
X140330558Y-95655226D01*
X140343789Y-95627678D01*
X140355028Y-95583916D01*
X140369690Y-95541190D01*
X140373779Y-95510910D01*
X140769625Y-93969635D01*
X140769625Y-93969631D01*
X141157870Y-92457961D01*
X141546114Y-90946286D01*
X141546114Y-90946284D01*
X141934356Y-89434611D01*
X141934356Y-89434608D01*
X142295861Y-88027055D01*
X142710845Y-86411263D01*
X142710845Y-86411259D01*
X142728902Y-86340950D01*
X147283600Y-86340950D01*
X147283600Y-87081510D01*
X147380273Y-87314899D01*
X147558902Y-87493527D01*
X147792291Y-87590200D01*
X148532850Y-87590200D01*
X148691600Y-87431450D01*
X148691600Y-86182200D01*
X147442350Y-86182200D01*
X147283600Y-86340950D01*
X142728902Y-86340950D01*
X143065881Y-85028890D01*
X147283600Y-85028890D01*
X147283600Y-85769450D01*
X147442350Y-85928200D01*
X148691600Y-85928200D01*
X148691600Y-84678950D01*
X148532850Y-84520200D01*
X147792291Y-84520200D01*
X147558902Y-84616873D01*
X147380273Y-84795501D01*
X147283600Y-85028890D01*
X143065881Y-85028890D01*
X143099090Y-84899589D01*
X143099090Y-84899585D01*
X143460999Y-83490456D01*
X143789380Y-82532915D01*
X144248095Y-81692623D01*
X144833096Y-80947021D01*
X145528124Y-80308770D01*
X146316225Y-79790895D01*
X147180133Y-79406101D01*
X148102937Y-79166527D01*
X149102251Y-79081133D01*
X164957680Y-79081133D01*
X165565899Y-79141759D01*
X166091691Y-79303681D01*
X166565905Y-79559866D01*
X166978530Y-79899782D01*
X167318440Y-80312401D01*
X167574627Y-80786619D01*
X167736549Y-81312407D01*
X167797175Y-81920627D01*
X167797176Y-83275232D01*
X167797175Y-83275237D01*
X167797176Y-84743538D01*
X167797175Y-84743543D01*
X167797176Y-86211845D01*
X167797175Y-86211850D01*
X167797176Y-87680152D01*
X167797175Y-87680157D01*
X167797176Y-88933933D01*
X167740000Y-88922560D01*
X164940000Y-88922560D01*
X164744400Y-88961467D01*
X164744400Y-86981417D01*
X164775710Y-86950107D01*
X165009400Y-86385930D01*
X165009400Y-85775270D01*
X164775710Y-85211093D01*
X164744400Y-85179783D01*
X164744400Y-82548076D01*
X164769279Y-82423000D01*
X164744400Y-82297924D01*
X164744400Y-82297920D01*
X164670713Y-81927471D01*
X164390018Y-81507382D01*
X164283979Y-81436529D01*
X163851271Y-81003821D01*
X163780418Y-80897782D01*
X163360329Y-80617087D01*
X162989880Y-80543400D01*
X162989875Y-80543400D01*
X162864800Y-80518521D01*
X162739725Y-80543400D01*
X158773474Y-80543400D01*
X158648399Y-80518521D01*
X158523324Y-80543400D01*
X152093276Y-80543400D01*
X151968200Y-80518521D01*
X151843124Y-80543400D01*
X151843120Y-80543400D01*
X151472671Y-80617087D01*
X151052582Y-80897782D01*
X150981729Y-81003821D01*
X150574419Y-81411131D01*
X150468383Y-81481982D01*
X150397532Y-81588018D01*
X150397530Y-81588020D01*
X150187688Y-81902071D01*
X150089121Y-82397600D01*
X150114001Y-82522680D01*
X150114000Y-84529633D01*
X150093603Y-84632178D01*
X150078298Y-84616873D01*
X149844909Y-84520200D01*
X149104350Y-84520200D01*
X148945600Y-84678950D01*
X148945600Y-85928200D01*
X148965600Y-85928200D01*
X148965600Y-86182200D01*
X148945600Y-86182200D01*
X148945600Y-87431450D01*
X149104350Y-87590200D01*
X149844909Y-87590200D01*
X150078298Y-87493527D01*
X150256927Y-87314899D01*
X150312739Y-87180156D01*
X150489093Y-87356510D01*
X151053270Y-87590200D01*
X151663930Y-87590200D01*
X152228107Y-87356510D01*
X152659910Y-86924707D01*
X152891189Y-86366350D01*
X153328800Y-86366350D01*
X153328800Y-87106910D01*
X153425473Y-87340299D01*
X153604102Y-87518927D01*
X153837491Y-87615600D01*
X154578050Y-87615600D01*
X154736800Y-87456850D01*
X154736800Y-86207600D01*
X153487550Y-86207600D01*
X153328800Y-86366350D01*
X152891189Y-86366350D01*
X152893600Y-86360530D01*
X152893600Y-85749870D01*
X152659910Y-85185693D01*
X152628600Y-85154383D01*
X152628600Y-85054290D01*
X153328800Y-85054290D01*
X153328800Y-85794850D01*
X153487550Y-85953600D01*
X154736800Y-85953600D01*
X154736800Y-84704350D01*
X154578050Y-84545600D01*
X153837491Y-84545600D01*
X153604102Y-84642273D01*
X153425473Y-84820901D01*
X153328800Y-85054290D01*
X152628600Y-85054290D01*
X152628600Y-85009782D01*
X152654000Y-84882088D01*
X152654000Y-84882084D01*
X152678879Y-84757009D01*
X152654000Y-84631934D01*
X152654000Y-83083400D01*
X156144426Y-83083400D01*
X156159200Y-83157675D01*
X156159200Y-84555034D01*
X156138803Y-84657578D01*
X156123498Y-84642273D01*
X155890109Y-84545600D01*
X155149550Y-84545600D01*
X154990800Y-84704350D01*
X154990800Y-85953600D01*
X155010800Y-85953600D01*
X155010800Y-86207600D01*
X154990800Y-86207600D01*
X154990800Y-87456850D01*
X155149550Y-87615600D01*
X155890109Y-87615600D01*
X156123498Y-87518927D01*
X156302127Y-87340299D01*
X156357939Y-87205556D01*
X156534293Y-87381910D01*
X157098470Y-87615600D01*
X157709130Y-87615600D01*
X158273307Y-87381910D01*
X158705110Y-86950107D01*
X158938800Y-86385930D01*
X158938800Y-86366350D01*
X159399400Y-86366350D01*
X159399400Y-87106910D01*
X159496073Y-87340299D01*
X159674702Y-87518927D01*
X159908091Y-87615600D01*
X160648650Y-87615600D01*
X160807400Y-87456850D01*
X160807400Y-86207600D01*
X159558150Y-86207600D01*
X159399400Y-86366350D01*
X158938800Y-86366350D01*
X158938800Y-85775270D01*
X158705110Y-85211093D01*
X158673800Y-85179783D01*
X158673800Y-85054290D01*
X159399400Y-85054290D01*
X159399400Y-85794850D01*
X159558150Y-85953600D01*
X160807400Y-85953600D01*
X160807400Y-84704350D01*
X160648650Y-84545600D01*
X159908091Y-84545600D01*
X159674702Y-84642273D01*
X159496073Y-84820901D01*
X159399400Y-85054290D01*
X158673800Y-85054290D01*
X158673800Y-85035182D01*
X158699200Y-84907488D01*
X158699200Y-84907484D01*
X158724079Y-84782409D01*
X158699200Y-84657334D01*
X158699200Y-83558650D01*
X159174451Y-83083400D01*
X162204401Y-83083400D01*
X162204400Y-84652575D01*
X162194098Y-84642273D01*
X161960709Y-84545600D01*
X161220150Y-84545600D01*
X161061400Y-84704350D01*
X161061400Y-85953600D01*
X161081400Y-85953600D01*
X161081400Y-86207600D01*
X161061400Y-86207600D01*
X161061400Y-87456850D01*
X161220150Y-87615600D01*
X161960709Y-87615600D01*
X162194098Y-87518927D01*
X162204401Y-87508624D01*
X162204400Y-90579325D01*
X162179521Y-90704400D01*
X162204400Y-90829475D01*
X162204400Y-90829479D01*
X162278087Y-91199928D01*
X162558782Y-91620018D01*
X162664821Y-91690871D01*
X163630419Y-92656470D01*
X163944471Y-92866313D01*
X164440000Y-92964879D01*
X164935529Y-92866313D01*
X165182202Y-92701491D01*
X165320182Y-93034603D01*
X165625397Y-93339818D01*
X166024180Y-93505000D01*
X166455820Y-93505000D01*
X166854603Y-93339818D01*
X167159818Y-93034603D01*
X167325000Y-92635820D01*
X167325000Y-92204180D01*
X167159818Y-91805397D01*
X166854603Y-91500182D01*
X166455820Y-91335000D01*
X166024180Y-91335000D01*
X165695338Y-91471211D01*
X165644860Y-91217440D01*
X167740000Y-91217440D01*
X167797175Y-91206067D01*
X167797176Y-92085072D01*
X167797175Y-92085077D01*
X167797176Y-93553378D01*
X167797175Y-93553383D01*
X167797176Y-95021685D01*
X167797175Y-95021690D01*
X167797176Y-96489992D01*
X167797175Y-96489997D01*
X167797175Y-96883933D01*
X167740000Y-96872560D01*
X165468135Y-96872560D01*
X165538157Y-96767765D01*
X165587440Y-96520000D01*
X165587440Y-96251861D01*
X165675397Y-96339818D01*
X166074180Y-96505000D01*
X166505820Y-96505000D01*
X166904603Y-96339818D01*
X167209818Y-96034603D01*
X167375000Y-95635820D01*
X167375000Y-95204180D01*
X167209818Y-94805397D01*
X166904603Y-94500182D01*
X166505820Y-94335000D01*
X166074180Y-94335000D01*
X165699144Y-94490345D01*
X165636313Y-94174471D01*
X165355618Y-93754382D01*
X164935529Y-93473687D01*
X164565080Y-93400000D01*
X154375076Y-93400000D01*
X154250000Y-93375121D01*
X154124924Y-93400000D01*
X154124920Y-93400000D01*
X153754471Y-93473687D01*
X153334382Y-93754382D01*
X153263531Y-93860418D01*
X147780419Y-99343531D01*
X147674383Y-99414382D01*
X147603532Y-99520418D01*
X147603530Y-99520420D01*
X147393688Y-99834471D01*
X147295121Y-100330000D01*
X147320001Y-100455080D01*
X147320000Y-105518949D01*
X144253950Y-108585000D01*
X134511051Y-108585000D01*
X130175000Y-104248950D01*
X130175000Y-100341410D01*
X135295000Y-100341410D01*
X135295000Y-101588590D01*
X135772276Y-102740835D01*
X136654165Y-103622724D01*
X137806410Y-104100000D01*
X139053590Y-104100000D01*
X140205835Y-103622724D01*
X141087724Y-102740835D01*
X141565000Y-101588590D01*
X141565000Y-100341410D01*
X141087724Y-99189165D01*
X140205835Y-98307276D01*
X139053590Y-97830000D01*
X137806410Y-97830000D01*
X136654165Y-98307276D01*
X135772276Y-99189165D01*
X135295000Y-100341410D01*
X130175000Y-100341410D01*
X130175000Y-93470074D01*
X130199879Y-93344999D01*
X130175000Y-93219924D01*
X130175000Y-93219920D01*
X130101313Y-92849471D01*
X129820618Y-92429382D01*
X129714582Y-92358531D01*
X123924071Y-86568021D01*
X123853218Y-86461982D01*
X123433129Y-86181287D01*
X123412440Y-86177172D01*
X123412440Y-84627600D01*
X123363157Y-84379835D01*
X123222809Y-84169791D01*
X123012765Y-84029443D01*
X122765000Y-83980160D01*
X117265000Y-83980160D01*
X117017235Y-84029443D01*
X116807191Y-84169791D01*
X116666843Y-84379835D01*
X116617560Y-84627600D01*
X116617560Y-86172119D01*
X116571471Y-86181287D01*
X116380727Y-86308738D01*
X116265202Y-86385930D01*
X116151382Y-86461982D01*
X116080531Y-86568018D01*
X112347419Y-90301131D01*
X112241383Y-90371982D01*
X112170532Y-90478018D01*
X112170530Y-90478020D01*
X111960688Y-90792071D01*
X111862121Y-91287600D01*
X111887001Y-91412680D01*
X111887000Y-107576125D01*
X111862121Y-107701200D01*
X111887000Y-107826275D01*
X111887000Y-107826279D01*
X111960687Y-108196728D01*
X112241382Y-108616818D01*
X112347421Y-108687671D01*
X116617560Y-112957812D01*
X116617560Y-115727600D01*
X116666843Y-115975365D01*
X116807191Y-116185409D01*
X117017235Y-116325757D01*
X117265000Y-116375040D01*
X122765000Y-116375040D01*
X123012765Y-116325757D01*
X123222809Y-116185409D01*
X123363157Y-115975365D01*
X123412440Y-115727600D01*
X123412440Y-113828233D01*
X123649713Y-113473129D01*
X123748280Y-112977600D01*
X123649713Y-112482071D01*
X123412440Y-112126967D01*
X123412440Y-110227600D01*
X123363157Y-109979835D01*
X123222809Y-109769791D01*
X123012765Y-109629443D01*
X122765000Y-109580160D01*
X117265000Y-109580160D01*
X117017235Y-109629443D01*
X116935745Y-109683894D01*
X114427000Y-107175150D01*
X114427000Y-100463350D01*
X117380000Y-100463350D01*
X117380000Y-102303909D01*
X117476673Y-102537298D01*
X117655301Y-102715927D01*
X117888690Y-102812600D01*
X119729250Y-102812600D01*
X119888000Y-102653850D01*
X119888000Y-100304600D01*
X120142000Y-100304600D01*
X120142000Y-102653850D01*
X120300750Y-102812600D01*
X122141310Y-102812600D01*
X122374699Y-102715927D01*
X122553327Y-102537298D01*
X122650000Y-102303909D01*
X122650000Y-100463350D01*
X122491250Y-100304600D01*
X120142000Y-100304600D01*
X119888000Y-100304600D01*
X117538750Y-100304600D01*
X117380000Y-100463350D01*
X114427000Y-100463350D01*
X114427000Y-98051291D01*
X117380000Y-98051291D01*
X117380000Y-99891850D01*
X117538750Y-100050600D01*
X119888000Y-100050600D01*
X119888000Y-97701350D01*
X120142000Y-97701350D01*
X120142000Y-100050600D01*
X122491250Y-100050600D01*
X122650000Y-99891850D01*
X122650000Y-98051291D01*
X122553327Y-97817902D01*
X122374699Y-97639273D01*
X122141310Y-97542600D01*
X120300750Y-97542600D01*
X120142000Y-97701350D01*
X119888000Y-97701350D01*
X119729250Y-97542600D01*
X117888690Y-97542600D01*
X117655301Y-97639273D01*
X117476673Y-97817902D01*
X117380000Y-98051291D01*
X114427000Y-98051291D01*
X114427000Y-91813650D01*
X116617560Y-89623091D01*
X116617560Y-90127600D01*
X116666843Y-90375365D01*
X116807191Y-90585409D01*
X117017235Y-90725757D01*
X117265000Y-90775040D01*
X122765000Y-90775040D01*
X123012765Y-90725757D01*
X123222809Y-90585409D01*
X123363157Y-90375365D01*
X123412440Y-90127600D01*
X123412440Y-89648490D01*
X127635000Y-93871051D01*
X127635001Y-104649920D01*
X127610121Y-104775000D01*
X127708688Y-105270529D01*
X127918530Y-105584580D01*
X127918532Y-105584582D01*
X127989383Y-105690618D01*
X128095419Y-105761469D01*
X132998531Y-110664582D01*
X133069382Y-110770618D01*
X133175418Y-110841469D01*
X133175419Y-110841470D01*
X133489470Y-111051313D01*
X133571899Y-111067709D01*
X133859920Y-111125000D01*
X133859923Y-111125000D01*
X133985000Y-111149879D01*
X134110076Y-111125000D01*
X144654925Y-111125000D01*
X144780000Y-111149879D01*
X144905075Y-111125000D01*
X144905080Y-111125000D01*
X145275529Y-111051313D01*
X145695618Y-110770618D01*
X145766471Y-110664579D01*
X149399582Y-107031469D01*
X149505618Y-106960618D01*
X149669916Y-106714730D01*
X149786313Y-106540529D01*
X149793402Y-106504888D01*
X149860000Y-106170080D01*
X149860000Y-106170076D01*
X149884879Y-106045000D01*
X149860000Y-105919924D01*
X149860000Y-100856050D01*
X154776051Y-95940000D01*
X163292560Y-95940000D01*
X163292560Y-96520000D01*
X163341843Y-96767765D01*
X163482191Y-96977809D01*
X163692235Y-97118157D01*
X163940000Y-97167440D01*
X164411865Y-97167440D01*
X164341843Y-97272235D01*
X164292560Y-97520000D01*
X164292560Y-98520000D01*
X164341843Y-98767765D01*
X164482191Y-98977809D01*
X164692235Y-99118157D01*
X164940000Y-99167440D01*
X167740000Y-99167440D01*
X167797176Y-99156067D01*
X167797176Y-99426605D01*
X167797175Y-99426610D01*
X167797176Y-100894912D01*
X167797175Y-100894917D01*
X167797176Y-102363218D01*
X167797175Y-102363223D01*
X167797176Y-103831525D01*
X167797175Y-103831530D01*
X167797176Y-105299831D01*
X167797175Y-105299836D01*
X167797176Y-106768137D01*
X167797175Y-106768142D01*
X167797176Y-108236446D01*
X167797175Y-108236451D01*
X167797176Y-109704752D01*
X167797175Y-109704757D01*
X167797176Y-111173059D01*
X167797175Y-111173064D01*
X167797176Y-112641365D01*
X167797175Y-112641370D01*
X167797176Y-114109671D01*
X167797175Y-114109676D01*
X167797176Y-115577977D01*
X167797175Y-115577982D01*
X167797176Y-117046286D01*
X167797175Y-117046291D01*
X167797176Y-118514593D01*
X167797175Y-118514598D01*
X167797176Y-119982899D01*
X167797175Y-119982904D01*
X167797176Y-121451205D01*
X167797175Y-121451210D01*
X167797176Y-122919511D01*
X167797175Y-122919516D01*
X167797176Y-124387817D01*
X167797175Y-124387822D01*
X167797176Y-125856126D01*
X167797175Y-125856131D01*
X167797176Y-127324433D01*
X167797175Y-127324438D01*
X167797176Y-128858738D01*
X167793291Y-129014638D01*
X167782483Y-129158453D01*
X167764717Y-129299763D01*
X167745145Y-129410473D01*
X167574626Y-129964171D01*
X167318439Y-130438390D01*
X166978530Y-130851009D01*
X166565908Y-131190921D01*
X166091685Y-131447110D01*
X165565900Y-131609032D01*
X164957680Y-131669658D01*
X154460497Y-131669658D01*
X153852276Y-131609032D01*
X153326491Y-131447110D01*
X152852273Y-131190924D01*
X152439652Y-130851013D01*
X152099738Y-130438390D01*
X151843549Y-129964168D01*
X151681627Y-129438384D01*
X151623993Y-128860184D01*
X151716765Y-127677378D01*
X151822813Y-126325244D01*
X151921938Y-125061385D01*
X151921938Y-125061383D01*
X152009422Y-123945991D01*
X152017739Y-123839944D01*
X152021066Y-123797526D01*
X152021066Y-123797525D01*
X152120191Y-122533665D01*
X152120191Y-122533662D01*
X152219318Y-121269807D01*
X152318443Y-120005947D01*
X152318443Y-120005945D01*
X152411354Y-118821359D01*
X152417689Y-118750085D01*
X152417257Y-118746092D01*
X152417571Y-118742091D01*
X152409147Y-118671079D01*
X152382975Y-118429020D01*
X152388340Y-118405484D01*
X152366655Y-118278081D01*
X152361044Y-118226181D01*
X152354002Y-118203739D01*
X152350056Y-118180554D01*
X152331426Y-118131790D01*
X152292734Y-118008481D01*
X152277244Y-117989969D01*
X152255454Y-117932935D01*
X152253210Y-117897213D01*
X152201373Y-117791377D01*
X152186802Y-117753238D01*
X152168209Y-117723666D01*
X152152849Y-117692306D01*
X152128090Y-117659858D01*
X152065355Y-117560080D01*
X152036157Y-117539375D01*
X152020674Y-117519084D01*
X152010632Y-117490333D01*
X151928671Y-117398510D01*
X151900743Y-117361909D01*
X151878473Y-117342272D01*
X151858695Y-117320114D01*
X151821915Y-117292401D01*
X151729607Y-117211006D01*
X151711659Y-117204859D01*
X151710690Y-117203321D01*
X151595472Y-117121779D01*
X151544267Y-117083196D01*
X151533872Y-117078182D01*
X151524448Y-117071513D01*
X151465875Y-117045388D01*
X151338755Y-116984079D01*
X151326911Y-116983407D01*
X151254701Y-116951200D01*
X151194890Y-116922762D01*
X151185786Y-116920462D01*
X151177208Y-116916636D01*
X151112614Y-116901975D01*
X150940966Y-116858609D01*
X150894906Y-116843447D01*
X150867877Y-116840143D01*
X150841474Y-116833472D01*
X150793040Y-116830994D01*
X150674470Y-116816499D01*
X150641447Y-116808763D01*
X150599652Y-116807352D01*
X150558139Y-116802277D01*
X150524314Y-116804809D01*
X150443947Y-116802095D01*
X150395493Y-116797052D01*
X150368591Y-116799551D01*
X150341596Y-116798640D01*
X150293534Y-116806525D01*
X150152867Y-116819593D01*
X150145002Y-116817336D01*
X150001202Y-116833684D01*
X149933832Y-116839943D01*
X149926208Y-116842210D01*
X149918297Y-116843109D01*
X149853796Y-116863738D01*
X149720742Y-116903297D01*
X149711089Y-116902933D01*
X149584357Y-116949914D01*
X149528997Y-116967620D01*
X149513629Y-116976134D01*
X149497152Y-116982242D01*
X149447633Y-117012695D01*
X149345425Y-117069317D01*
X149344274Y-117069551D01*
X149340917Y-117071814D01*
X149329412Y-117078188D01*
X149327037Y-117081173D01*
X149231061Y-117145880D01*
X149180370Y-117177054D01*
X149168506Y-117188056D01*
X149155090Y-117197101D01*
X149113185Y-117239356D01*
X149013067Y-117332197D01*
X149006956Y-117345508D01*
X148959943Y-117393877D01*
X148909412Y-117444830D01*
X148907260Y-117448079D01*
X148904547Y-117450871D01*
X148865576Y-117511030D01*
X148783440Y-117635068D01*
X148782674Y-117639002D01*
X148771990Y-117655496D01*
X148736578Y-117706067D01*
X148730963Y-117718828D01*
X148723386Y-117730524D01*
X148700584Y-117787866D01*
X148652121Y-117897998D01*
X148631633Y-117935496D01*
X148621762Y-117966992D01*
X148608467Y-117997205D01*
X148599217Y-118038925D01*
X148581197Y-118096421D01*
X148571965Y-118115805D01*
X148558646Y-118168375D01*
X148542425Y-118220131D01*
X148540124Y-118241481D01*
X148539750Y-118242958D01*
X148534974Y-118253833D01*
X148521210Y-118316133D01*
X148505550Y-118377943D01*
X148504936Y-118389797D01*
X148221076Y-119674640D01*
X147907176Y-121095446D01*
X147907174Y-121095450D01*
X147593277Y-122516254D01*
X147593275Y-122516258D01*
X147279378Y-123937062D01*
X147279376Y-123937066D01*
X146961614Y-125375367D01*
X146651578Y-126778681D01*
X146651576Y-126778685D01*
X146337679Y-128199489D01*
X146337677Y-128199493D01*
X146016654Y-129652552D01*
X145857511Y-130119909D01*
X145641124Y-130519146D01*
X145366914Y-130868631D01*
X145040573Y-131165286D01*
X144667558Y-131405074D01*
X144253166Y-131583290D01*
X143802476Y-131694667D01*
X143289545Y-131735762D01*
X135927199Y-131735762D01*
X135926148Y-131735556D01*
X135851948Y-131735762D01*
X135777159Y-131735762D01*
X135776100Y-131735973D01*
X134791017Y-131738707D01*
X133897632Y-131722949D01*
X133180652Y-131657107D01*
X132639279Y-131523850D01*
X132239744Y-131316096D01*
X131907560Y-130992989D01*
X131594341Y-130462563D01*
X131302007Y-129639618D01*
X130982260Y-128330184D01*
X130982260Y-128330179D01*
X130635318Y-126909376D01*
X130635318Y-126909372D01*
X130287548Y-125485167D01*
X130057916Y-124544769D01*
X130198559Y-124544769D01*
X130204979Y-124579240D01*
X130201508Y-124614132D01*
X130227487Y-124700078D01*
X130243927Y-124788344D01*
X130263051Y-124817735D01*
X130273196Y-124851299D01*
X130296689Y-124895356D01*
X130337451Y-124945125D01*
X130368041Y-125001713D01*
X130401170Y-125041697D01*
X130401170Y-125057674D01*
X130405506Y-125079473D01*
X130402685Y-125101523D01*
X130414758Y-125145929D01*
X130413949Y-125162216D01*
X130432037Y-125212853D01*
X130439295Y-125249343D01*
X130444621Y-125284697D01*
X130447168Y-125288925D01*
X130449506Y-125300678D01*
X130461856Y-125319161D01*
X130467687Y-125340609D01*
X130473533Y-125352354D01*
X130476341Y-125355986D01*
X130477433Y-125359803D01*
X130530300Y-125462597D01*
X130578024Y-125522665D01*
X130616157Y-125589235D01*
X130695455Y-125680280D01*
X130765668Y-125734536D01*
X130829327Y-125796345D01*
X130929183Y-125860958D01*
X131025978Y-125899390D01*
X131120143Y-125943873D01*
X131237621Y-125973242D01*
X131308485Y-125976691D01*
X131377756Y-125992050D01*
X131431047Y-125982655D01*
X131485093Y-125985285D01*
X131551885Y-125961351D01*
X131562018Y-125959565D01*
X131567732Y-125959571D01*
X131572013Y-125957803D01*
X131621758Y-125949033D01*
X131674625Y-125928476D01*
X131714475Y-125903090D01*
X131718336Y-125901707D01*
X131722318Y-125898094D01*
X131728340Y-125894258D01*
X131754910Y-125886982D01*
X131772532Y-125878171D01*
X131778900Y-125873229D01*
X131779809Y-125872850D01*
X131783165Y-125870597D01*
X131796734Y-125864993D01*
X131823168Y-125847370D01*
X131834272Y-125836289D01*
X131840369Y-125832196D01*
X131869593Y-125818179D01*
X131881338Y-125809368D01*
X131884052Y-125806340D01*
X131926655Y-125783353D01*
X131934489Y-125790161D01*
X132016226Y-125866831D01*
X132027682Y-125871152D01*
X132036921Y-125879182D01*
X132143194Y-125914726D01*
X132248046Y-125954279D01*
X132276726Y-125959036D01*
X132317162Y-125966618D01*
X132344829Y-125966314D01*
X132371299Y-125974373D01*
X132400668Y-125977296D01*
X132431065Y-125974334D01*
X132431756Y-125974542D01*
X132464510Y-125971260D01*
X132526446Y-125977296D01*
X132555815Y-125974373D01*
X132614734Y-125956434D01*
X132647265Y-125953264D01*
X132647996Y-125952874D01*
X132678287Y-125949839D01*
X132733209Y-125920363D01*
X132792837Y-125902208D01*
X132841305Y-125862348D01*
X132896597Y-125832673D01*
X132940921Y-125796173D01*
X132976324Y-125768351D01*
X132977370Y-125767130D01*
X132978802Y-125766394D01*
X133023246Y-125713993D01*
X133292987Y-125787557D01*
X133572491Y-125875078D01*
X133655661Y-125884021D01*
X133736986Y-125903590D01*
X133775759Y-125905134D01*
X133795126Y-125908039D01*
X133842882Y-125915998D01*
X133864087Y-125915336D01*
X133869317Y-125916929D01*
X133939759Y-125941701D01*
X133954351Y-125940904D01*
X133968343Y-125945123D01*
X134059389Y-125953934D01*
X134090192Y-125950847D01*
X134120556Y-125956887D01*
X134147197Y-125956887D01*
X134177879Y-125960569D01*
X134237408Y-125968687D01*
X134289973Y-125965486D01*
X134341905Y-125974235D01*
X134412458Y-125958028D01*
X134484714Y-125953628D01*
X134532053Y-125930555D01*
X134583380Y-125918764D01*
X134876046Y-125787312D01*
X134885352Y-125796347D01*
X134985209Y-125860960D01*
X135082002Y-125899391D01*
X135176164Y-125943873D01*
X135293642Y-125973242D01*
X135364507Y-125976691D01*
X135433778Y-125992050D01*
X135487069Y-125982655D01*
X135541114Y-125985285D01*
X135607906Y-125961352D01*
X135618040Y-125959565D01*
X135623754Y-125959571D01*
X135628035Y-125957803D01*
X135677780Y-125949033D01*
X135730647Y-125928476D01*
X135770495Y-125903092D01*
X135774357Y-125901708D01*
X135778341Y-125898094D01*
X135784354Y-125894263D01*
X135810919Y-125886989D01*
X135828542Y-125878178D01*
X135834915Y-125873232D01*
X135835832Y-125872850D01*
X135839190Y-125870596D01*
X135852756Y-125864993D01*
X135879190Y-125847370D01*
X135890292Y-125836291D01*
X135896392Y-125832196D01*
X135925616Y-125818179D01*
X135937361Y-125809368D01*
X135940075Y-125806340D01*
X135982674Y-125783355D01*
X135990505Y-125790161D01*
X136072242Y-125866831D01*
X136083698Y-125871152D01*
X136092937Y-125879182D01*
X136199210Y-125914726D01*
X136304062Y-125954279D01*
X136332723Y-125959033D01*
X136373182Y-125966619D01*
X136400847Y-125966315D01*
X136427314Y-125974373D01*
X136456682Y-125977296D01*
X136487081Y-125974334D01*
X136487772Y-125974542D01*
X136520526Y-125971260D01*
X136582462Y-125977296D01*
X136611831Y-125974373D01*
X136670747Y-125956435D01*
X136703278Y-125953265D01*
X136704011Y-125952874D01*
X136734303Y-125949839D01*
X136789225Y-125920363D01*
X136848853Y-125902208D01*
X136897321Y-125862348D01*
X136942265Y-125838227D01*
X137015120Y-125867371D01*
X137059797Y-125875693D01*
X137101016Y-125894834D01*
X137180492Y-125898177D01*
X137258694Y-125912744D01*
X137303157Y-125903335D01*
X137348562Y-125905245D01*
X137480724Y-125884688D01*
X137543556Y-125861705D01*
X137609511Y-125850507D01*
X137658772Y-125819562D01*
X137663985Y-125817655D01*
X137673868Y-125824435D01*
X137761179Y-125890469D01*
X137775609Y-125894228D01*
X137787907Y-125902664D01*
X137879233Y-125921992D01*
X137898259Y-125929308D01*
X137933810Y-125935438D01*
X137957747Y-125941673D01*
X137997118Y-125958365D01*
X138070302Y-125958972D01*
X138142421Y-125971407D01*
X138193012Y-125959990D01*
X138244874Y-125960420D01*
X138312718Y-125932975D01*
X138384108Y-125916864D01*
X138426481Y-125886954D01*
X138474557Y-125867506D01*
X138568540Y-125805830D01*
X138570693Y-125803712D01*
X138573486Y-125802552D01*
X138607442Y-125768525D01*
X138622815Y-125791533D01*
X138640183Y-125808901D01*
X138646818Y-125816483D01*
X138650919Y-125819637D01*
X138655119Y-125823837D01*
X138664736Y-125830263D01*
X138666869Y-125831904D01*
X138681182Y-125852769D01*
X138764466Y-125906960D01*
X138843219Y-125967526D01*
X138867649Y-125974100D01*
X138888854Y-125987898D01*
X138932911Y-126005521D01*
X139030820Y-126023759D01*
X139127011Y-126049566D01*
X139151853Y-126046304D01*
X139176486Y-126050892D01*
X139273918Y-126030274D01*
X139372667Y-126017306D01*
X139394372Y-126004784D01*
X139418883Y-125999597D01*
X139501012Y-125943261D01*
X139587277Y-125893492D01*
X139644629Y-125843229D01*
X139696098Y-125867542D01*
X139860567Y-125908657D01*
X139882327Y-125909716D01*
X139902614Y-125917668D01*
X140099390Y-125952913D01*
X140176698Y-125951435D01*
X140253369Y-125961468D01*
X140279420Y-125959740D01*
X140355501Y-125972190D01*
X140392667Y-125970921D01*
X140428769Y-125979850D01*
X140619670Y-125988662D01*
X140678923Y-125979693D01*
X140738758Y-125982954D01*
X140911140Y-125958327D01*
X140912983Y-125959704D01*
X140925583Y-125962906D01*
X140936299Y-125970258D01*
X140977109Y-125987750D01*
X140977113Y-125987753D01*
X140977118Y-125987754D01*
X140977414Y-125987881D01*
X141098363Y-126013483D01*
X141219481Y-126039184D01*
X141219804Y-126039188D01*
X141219808Y-126039189D01*
X141219812Y-126039188D01*
X141448564Y-126042106D01*
X141548669Y-126023519D01*
X141649826Y-126012065D01*
X141999324Y-125900461D01*
X142021047Y-125888440D01*
X142045428Y-125883751D01*
X142098882Y-125862007D01*
X142163682Y-125886510D01*
X142212791Y-125909920D01*
X142250410Y-125935056D01*
X142281783Y-125941296D01*
X142310019Y-125956333D01*
X142402121Y-125965261D01*
X142427255Y-125974762D01*
X142446931Y-125974146D01*
X142493414Y-125983392D01*
X142531594Y-125983392D01*
X142550457Y-125979640D01*
X142556628Y-125980238D01*
X142573831Y-125974991D01*
X142602566Y-125969275D01*
X142674899Y-125967011D01*
X142722922Y-125945335D01*
X142774598Y-125935056D01*
X142825768Y-125900865D01*
X142897780Y-125881149D01*
X142918344Y-125865191D01*
X142942814Y-125856307D01*
X143015596Y-125789722D01*
X143030312Y-125778302D01*
X143124845Y-125828897D01*
X143168153Y-125842060D01*
X143206829Y-125865571D01*
X143424164Y-125944870D01*
X143533405Y-125961773D01*
X143641821Y-125983338D01*
X143641958Y-125983338D01*
X143679018Y-125993487D01*
X143685823Y-125992629D01*
X143692472Y-125994299D01*
X143751209Y-125997222D01*
X143780730Y-125992862D01*
X143810222Y-125997413D01*
X143849011Y-125995735D01*
X143881937Y-125997295D01*
X143908731Y-125993273D01*
X143935485Y-125997573D01*
X144030441Y-125975004D01*
X144126956Y-125960517D01*
X144150173Y-125946547D01*
X144176535Y-125940281D01*
X144255626Y-125883092D01*
X144339251Y-125832772D01*
X144355355Y-125810980D01*
X144377311Y-125795104D01*
X144404807Y-125765494D01*
X144511489Y-125792293D01*
X144630245Y-125824790D01*
X144751567Y-125867720D01*
X144852161Y-125882281D01*
X144951464Y-125903980D01*
X144975233Y-125904427D01*
X144985330Y-125906206D01*
X144995849Y-125905976D01*
X144999960Y-125907664D01*
X145005231Y-125908696D01*
X145008597Y-125909863D01*
X145017416Y-125911082D01*
X145026394Y-125912840D01*
X145030054Y-125912829D01*
X145035031Y-125913517D01*
X145047565Y-125912777D01*
X145053401Y-125912759D01*
X145082702Y-125925954D01*
X145098346Y-125926430D01*
X145143585Y-125942122D01*
X145191313Y-125948728D01*
X145211750Y-125947525D01*
X145231478Y-125952990D01*
X145253692Y-125954635D01*
X145269002Y-125952751D01*
X145284050Y-125956154D01*
X145305162Y-125956704D01*
X145313451Y-125955278D01*
X145321699Y-125956919D01*
X145352782Y-125956919D01*
X145359673Y-125959689D01*
X145376194Y-125962795D01*
X145409855Y-125962441D01*
X145442231Y-125971653D01*
X145458014Y-125972932D01*
X145495364Y-125968599D01*
X145532490Y-125974584D01*
X145547543Y-125974034D01*
X145578205Y-125966762D01*
X145609653Y-125968702D01*
X145713915Y-125954569D01*
X145769750Y-125935377D01*
X145828344Y-125928097D01*
X145920858Y-125897443D01*
X145978614Y-125864656D01*
X146041398Y-125842991D01*
X146122164Y-125795817D01*
X146173759Y-125750108D01*
X146232556Y-125714143D01*
X146301575Y-125650447D01*
X146343950Y-125592223D01*
X146395373Y-125541811D01*
X146450256Y-125461412D01*
X146473534Y-125406756D01*
X146507516Y-125358024D01*
X146548814Y-125263674D01*
X146559914Y-125213146D01*
X146582271Y-125166495D01*
X146609989Y-125058194D01*
X146612337Y-125014925D01*
X146625615Y-124973679D01*
X146630405Y-124932246D01*
X146631089Y-124931010D01*
X146634741Y-124898670D01*
X146645038Y-124872841D01*
X146644786Y-124853955D01*
X146655195Y-124820236D01*
X146653731Y-124804583D01*
X146661157Y-124772673D01*
X146658101Y-124754209D01*
X146661276Y-124735769D01*
X146660911Y-124721636D01*
X146656790Y-124703395D01*
X146658889Y-124684810D01*
X146657793Y-124671779D01*
X146651737Y-124650739D01*
X146652708Y-124628866D01*
X146650881Y-124616937D01*
X146650047Y-124614639D01*
X146651211Y-124605538D01*
X146641252Y-124568904D01*
X146641186Y-124567064D01*
X146638628Y-124556237D01*
X146636602Y-124551799D01*
X146634999Y-124545905D01*
X146630880Y-124484251D01*
X146606614Y-124435200D01*
X146605600Y-124429718D01*
X146601835Y-124423916D01*
X146586213Y-124366451D01*
X146546748Y-124287153D01*
X146538579Y-124276587D01*
X146534545Y-124263856D01*
X146492510Y-124187495D01*
X146483646Y-124176962D01*
X146478932Y-124164030D01*
X146434329Y-124090606D01*
X146424765Y-124080179D01*
X146419341Y-124067112D01*
X146372167Y-123996625D01*
X146360712Y-123985187D01*
X146353762Y-123970565D01*
X146302916Y-123902281D01*
X146284701Y-123885834D01*
X146272505Y-123864537D01*
X146216885Y-123800658D01*
X146197385Y-123785585D01*
X146183535Y-123765197D01*
X146123141Y-123705723D01*
X146102694Y-123692287D01*
X146087446Y-123673152D01*
X146036665Y-123630240D01*
X146024861Y-123610164D01*
X146017334Y-123601718D01*
X145999554Y-123588297D01*
X145986959Y-123569918D01*
X145979067Y-123562210D01*
X145949614Y-123543026D01*
X145926687Y-123516376D01*
X145909801Y-123503162D01*
X145880566Y-123488398D01*
X145856789Y-123465878D01*
X145836962Y-123453395D01*
X145836636Y-123453270D01*
X145822767Y-123444003D01*
X145796711Y-123413897D01*
X145717413Y-123352222D01*
X145694192Y-123340581D01*
X145675664Y-123322378D01*
X145588291Y-123265108D01*
X145574642Y-123259595D01*
X145563679Y-123249767D01*
X145471898Y-123195432D01*
X145471562Y-123195314D01*
X145471296Y-123195076D01*
X145378047Y-123140010D01*
X145376561Y-123139489D01*
X145375383Y-123138446D01*
X145297827Y-123093155D01*
X145247074Y-123059875D01*
X145189718Y-123013990D01*
X145127863Y-122981914D01*
X145072482Y-122939635D01*
X145018945Y-122925431D01*
X144969769Y-122899930D01*
X144900344Y-122893966D01*
X144833002Y-122876100D01*
X144778105Y-122883465D01*
X144722913Y-122878724D01*
X144682480Y-122891543D01*
X144622311Y-122890042D01*
X144605426Y-122892965D01*
X144602573Y-122894064D01*
X144601143Y-122894077D01*
X144592901Y-122897578D01*
X144580670Y-122897759D01*
X144478297Y-122941946D01*
X144374228Y-122982043D01*
X144364948Y-122990871D01*
X144353191Y-122995946D01*
X144300971Y-123049732D01*
X144280441Y-123061048D01*
X144246052Y-123079620D01*
X144214724Y-123105557D01*
X144177685Y-123122360D01*
X144143907Y-123146589D01*
X144101958Y-123191419D01*
X144089959Y-123185881D01*
X144050578Y-123176408D01*
X144015077Y-123156910D01*
X143919888Y-123126849D01*
X143686336Y-123038923D01*
X143664874Y-123035378D01*
X143645671Y-123025165D01*
X143372533Y-122942929D01*
X143327793Y-122938616D01*
X143285547Y-122923280D01*
X142997726Y-122879224D01*
X142913533Y-122882969D01*
X142829542Y-122876020D01*
X142521161Y-122911265D01*
X142451780Y-122933501D01*
X142379705Y-122944147D01*
X142334920Y-122970953D01*
X142285217Y-122986882D01*
X142255564Y-123012003D01*
X142220190Y-122987263D01*
X142205462Y-122984006D01*
X142192715Y-122975952D01*
X142001813Y-122902528D01*
X141940430Y-122891939D01*
X141882309Y-122869531D01*
X141819537Y-122871083D01*
X141757655Y-122860408D01*
X141696889Y-122874116D01*
X141634620Y-122875656D01*
X141577220Y-122901112D01*
X141515963Y-122914931D01*
X141465067Y-122950851D01*
X141408129Y-122976102D01*
X141278903Y-123067147D01*
X141243836Y-123103992D01*
X141201201Y-123131725D01*
X141130432Y-123200768D01*
X141065126Y-123168115D01*
X141003791Y-123151318D01*
X140946820Y-123123070D01*
X140838153Y-123093701D01*
X140821168Y-123092551D01*
X140805536Y-123085804D01*
X140701895Y-123063594D01*
X140512767Y-123010321D01*
X140481106Y-123007839D01*
X140451521Y-122996299D01*
X140269431Y-122963995D01*
X140257864Y-122964235D01*
X140246942Y-122960420D01*
X140064942Y-122934825D01*
X139850601Y-122900529D01*
X139770384Y-122903553D01*
X139762197Y-122902715D01*
X139716669Y-122889280D01*
X139664440Y-122894825D01*
X139612312Y-122888412D01*
X139542413Y-122907779D01*
X139504377Y-122911817D01*
X139457920Y-122902576D01*
X139439324Y-122897732D01*
X139427978Y-122892251D01*
X139415545Y-122891538D01*
X139355663Y-122875939D01*
X139305737Y-122873016D01*
X139243425Y-122881662D01*
X139180620Y-122878058D01*
X139121909Y-122898522D01*
X139060323Y-122907067D01*
X139006062Y-122938901D01*
X138946660Y-122959606D01*
X138908985Y-122981768D01*
X138883585Y-122995217D01*
X138834100Y-123018780D01*
X138805860Y-123039839D01*
X138772863Y-123052182D01*
X138755652Y-123062836D01*
X138607047Y-122961588D01*
X138588052Y-122953518D01*
X138572677Y-122939751D01*
X138474636Y-122905336D01*
X138379007Y-122864710D01*
X138358370Y-122864524D01*
X138338897Y-122857688D01*
X138297781Y-122851842D01*
X138223073Y-122855963D01*
X138148638Y-122848336D01*
X138100529Y-122862723D01*
X138050393Y-122865489D01*
X137982949Y-122897886D01*
X137926637Y-122914726D01*
X137853728Y-122903526D01*
X137734506Y-122884003D01*
X137731391Y-122884734D01*
X137728229Y-122884248D01*
X137610887Y-122912998D01*
X137493288Y-122940581D01*
X137490691Y-122942447D01*
X137487582Y-122943209D01*
X137355419Y-123004886D01*
X137337094Y-123018330D01*
X137298596Y-122991922D01*
X137204804Y-122923958D01*
X137196699Y-122922023D01*
X137189827Y-122917309D01*
X137076497Y-122893325D01*
X136963812Y-122866421D01*
X136955582Y-122867735D01*
X136947431Y-122866010D01*
X136833535Y-122887224D01*
X136719147Y-122905489D01*
X136712049Y-122909851D01*
X136703855Y-122911377D01*
X136630430Y-122940747D01*
X136552309Y-122991577D01*
X136469567Y-123034486D01*
X136410830Y-123081477D01*
X136405604Y-123087685D01*
X136398498Y-123091600D01*
X136396200Y-123093535D01*
X136324954Y-123123133D01*
X136291502Y-123156655D01*
X136250929Y-123181082D01*
X136243331Y-123191369D01*
X136235539Y-123181040D01*
X136210968Y-123146642D01*
X136136269Y-123076467D01*
X136066557Y-123001329D01*
X136046483Y-122992119D01*
X136030389Y-122977000D01*
X135934527Y-122940755D01*
X135841361Y-122898012D01*
X135819291Y-122897185D01*
X135798636Y-122889376D01*
X135696200Y-122892575D01*
X135593770Y-122888738D01*
X135573065Y-122896420D01*
X135550992Y-122897109D01*
X135457567Y-122939270D01*
X135435466Y-122947470D01*
X135397522Y-122957457D01*
X135397115Y-122957656D01*
X135396661Y-122957684D01*
X135296805Y-122984117D01*
X135221433Y-123021003D01*
X135141962Y-123047954D01*
X135065601Y-123092011D01*
X134977507Y-123169221D01*
X134887781Y-123244484D01*
X134884545Y-123250697D01*
X134879273Y-123255318D01*
X134827424Y-123360379D01*
X134773338Y-123464234D01*
X134752780Y-123534720D01*
X134752281Y-123540410D01*
X134744506Y-123533341D01*
X134687682Y-123499163D01*
X134673175Y-123486156D01*
X134668415Y-123484481D01*
X134545939Y-123376704D01*
X134500504Y-123350368D01*
X134462198Y-123314433D01*
X134283044Y-123202828D01*
X134275158Y-123199853D01*
X134268863Y-123194249D01*
X134110054Y-123100981D01*
X133964351Y-122995470D01*
X133956518Y-122991874D01*
X133950488Y-122985710D01*
X133844200Y-122940308D01*
X133739183Y-122892095D01*
X133730568Y-122891770D01*
X133722639Y-122888383D01*
X133607092Y-122887113D01*
X133552211Y-122885042D01*
X133544924Y-122883593D01*
X133513784Y-122883593D01*
X133491594Y-122882756D01*
X133485411Y-122885048D01*
X133480915Y-122884385D01*
X133475807Y-122885669D01*
X133474889Y-122885659D01*
X133427898Y-122894470D01*
X133406271Y-122903151D01*
X133375862Y-122910796D01*
X133269616Y-122931929D01*
X133256235Y-122940870D01*
X133240627Y-122944794D01*
X133153675Y-123009398D01*
X133063607Y-123069580D01*
X133059993Y-123074989D01*
X133046835Y-123079976D01*
X132976349Y-123124032D01*
X132975595Y-123124741D01*
X132974624Y-123125113D01*
X132885305Y-123209696D01*
X132795903Y-123293815D01*
X132795477Y-123294761D01*
X132794723Y-123295475D01*
X132744798Y-123365962D01*
X132704272Y-123456728D01*
X132656745Y-123544039D01*
X132654079Y-123569145D01*
X132651446Y-123575042D01*
X132604190Y-123504158D01*
X132564161Y-123464045D01*
X132533610Y-123416313D01*
X132477493Y-123377196D01*
X132429177Y-123328779D01*
X132376844Y-123307038D01*
X132330353Y-123274631D01*
X132283362Y-123254074D01*
X132241062Y-123244790D01*
X132219137Y-123233560D01*
X132179517Y-123181040D01*
X132154946Y-123146642D01*
X132080247Y-123076467D01*
X132010535Y-123001329D01*
X131990461Y-122992119D01*
X131974367Y-122977000D01*
X131878505Y-122940755D01*
X131785339Y-122898012D01*
X131763269Y-122897185D01*
X131742614Y-122889376D01*
X131640178Y-122892575D01*
X131537748Y-122888738D01*
X131517043Y-122896420D01*
X131494970Y-122897109D01*
X131401545Y-122939270D01*
X131379444Y-122947470D01*
X131341500Y-122957457D01*
X131341093Y-122957656D01*
X131340639Y-122957684D01*
X131240783Y-122984117D01*
X131165411Y-123021003D01*
X131085940Y-123047954D01*
X131009579Y-123092011D01*
X130921485Y-123169221D01*
X130831759Y-123244484D01*
X130828523Y-123250697D01*
X130823251Y-123255318D01*
X130771402Y-123360379D01*
X130717316Y-123464234D01*
X130696758Y-123534720D01*
X130694000Y-123566183D01*
X130682235Y-123595494D01*
X130673424Y-123642486D01*
X130673563Y-123655165D01*
X130669307Y-123667107D01*
X130654620Y-123766962D01*
X130655288Y-123780222D01*
X130651349Y-123792901D01*
X130643804Y-123864587D01*
X130629979Y-123923335D01*
X130623565Y-123926829D01*
X130602917Y-123952400D01*
X130575813Y-123970994D01*
X130571181Y-123978114D01*
X130557859Y-123985208D01*
X130534729Y-123992200D01*
X130465271Y-124049088D01*
X130390010Y-124098058D01*
X130370174Y-124126975D01*
X130343049Y-124149191D01*
X130300646Y-124228332D01*
X130249857Y-124302373D01*
X130242597Y-124336676D01*
X130226037Y-124367585D01*
X130217148Y-124456932D01*
X130198559Y-124544769D01*
X130057916Y-124544769D01*
X129941296Y-124067185D01*
X129558646Y-122500139D01*
X129247552Y-121226141D01*
X129247552Y-121226135D01*
X128900610Y-119805332D01*
X128900610Y-119805328D01*
X128548648Y-118363959D01*
X128546579Y-118342897D01*
X128530760Y-118290702D01*
X128517821Y-118237714D01*
X128513020Y-118227404D01*
X128512666Y-118224626D01*
X128492181Y-118163412D01*
X128473447Y-118101598D01*
X128468224Y-118091821D01*
X128457093Y-118058557D01*
X128449106Y-118023009D01*
X128433170Y-117987070D01*
X128420697Y-117949796D01*
X128402620Y-117918170D01*
X128359219Y-117820291D01*
X128339226Y-117768126D01*
X128328644Y-117751336D01*
X128320604Y-117733203D01*
X128288443Y-117687549D01*
X128200468Y-117547959D01*
X128161056Y-117485010D01*
X128160267Y-117484173D01*
X128159654Y-117483200D01*
X128108591Y-117429336D01*
X128064654Y-117382712D01*
X128058998Y-117369319D01*
X127960352Y-117272030D01*
X127918147Y-117227243D01*
X127906619Y-117219035D01*
X127896548Y-117209103D01*
X127845166Y-117175283D01*
X127747671Y-117105869D01*
X127743106Y-117099840D01*
X127628687Y-117032794D01*
X127582263Y-117002237D01*
X127563615Y-116994664D01*
X127546248Y-116984487D01*
X127493730Y-116966281D01*
X127370866Y-116916383D01*
X127355917Y-116916486D01*
X127349084Y-116910843D01*
X127216419Y-116870150D01*
X127158101Y-116849934D01*
X127144286Y-116848025D01*
X127130950Y-116843934D01*
X127069532Y-116837693D01*
X126932085Y-116818696D01*
X126918217Y-116822316D01*
X126767997Y-116807051D01*
X126716662Y-116798629D01*
X126692984Y-116799428D01*
X126669413Y-116797033D01*
X126617625Y-116801972D01*
X126533937Y-116804797D01*
X126500112Y-116802265D01*
X126458604Y-116807339D01*
X126416811Y-116808750D01*
X126383785Y-116816486D01*
X126265208Y-116830982D01*
X126216776Y-116833460D01*
X126190372Y-116840131D01*
X126163345Y-116843435D01*
X126117287Y-116858596D01*
X125945624Y-116901966D01*
X125881038Y-116916626D01*
X125872465Y-116920450D01*
X125863361Y-116922750D01*
X125803543Y-116951191D01*
X125731339Y-116983396D01*
X125719497Y-116984068D01*
X125592380Y-117045376D01*
X125533800Y-117071504D01*
X125524377Y-117078173D01*
X125513985Y-117083185D01*
X125462784Y-117121765D01*
X125347559Y-117203313D01*
X125346591Y-117204849D01*
X125328645Y-117210995D01*
X125236337Y-117292390D01*
X125199557Y-117320103D01*
X125179779Y-117342261D01*
X125157509Y-117361898D01*
X125129581Y-117398499D01*
X125047620Y-117490322D01*
X125037578Y-117519073D01*
X125022095Y-117539364D01*
X124992898Y-117560068D01*
X124930165Y-117659842D01*
X124905402Y-117692296D01*
X124890040Y-117723660D01*
X124871451Y-117753226D01*
X124856881Y-117791362D01*
X124805042Y-117897203D01*
X124802798Y-117932923D01*
X124781007Y-117989958D01*
X124765516Y-118008472D01*
X124726827Y-118131772D01*
X124708195Y-118180541D01*
X124704248Y-118203732D01*
X124697207Y-118226171D01*
X124691597Y-118278059D01*
X124669911Y-118405471D01*
X124675277Y-118429010D01*
X124649920Y-118663543D01*
X124641127Y-118727040D01*
X124641806Y-118738586D01*
X124640564Y-118750075D01*
X124646236Y-118813885D01*
X124715472Y-119990898D01*
X124789816Y-121254758D01*
X124864161Y-122518616D01*
X124938505Y-123782475D01*
X125021690Y-125196608D01*
X125087195Y-126310195D01*
X125161539Y-127574055D01*
X125236752Y-128852674D01*
X125178371Y-129438374D01*
X125016451Y-129964160D01*
X124760264Y-130438376D01*
X124420352Y-130850998D01*
X124007730Y-131190910D01*
X123533508Y-131447099D01*
X123007724Y-131609021D01*
X122399507Y-131669646D01*
X111902315Y-131669646D01*
X111294098Y-131609021D01*
X110768312Y-131447099D01*
X110294088Y-131190908D01*
X109881473Y-130851011D01*
X109541561Y-130438390D01*
X109285372Y-129964168D01*
X109123452Y-129438385D01*
X109062825Y-128830164D01*
X109062825Y-81892040D01*
X109066718Y-81736160D01*
X109077525Y-81592337D01*
X109095283Y-81451036D01*
X109114858Y-81340315D01*
X109285372Y-80786622D01*
X109541561Y-80312399D01*
X109881471Y-79899781D01*
X110294094Y-79559867D01*
X110768312Y-79303680D01*
X111294098Y-79141759D01*
X111902319Y-79081133D01*
X127757711Y-79081133D01*
X128754040Y-79166365D01*
G04 #@! TD*
M02*
