G04 #@! TF.GenerationSoftware,KiCad,Pcbnew,5.0.2-bee76a0~70~ubuntu16.04.1*
G04 #@! TF.CreationDate,2019-01-04T08:40:48-07:00*
G04 #@! TF.ProjectId,MakerCozumel,4d616b65-7243-46f7-9a75-6d656c2e6b69,rev?*
G04 #@! TF.SameCoordinates,Original*
G04 #@! TF.FileFunction,Profile,NP*
%FSLAX46Y46*%
G04 Gerber Fmt 4.6, Leading zero omitted, Abs format (unit mm)*
G04 Created by KiCad (PCBNEW 5.0.2-bee76a0~70~ubuntu16.04.1) date Fri 04 Jan 2019 08:40:48 MST*
%MOMM*%
%LPD*%
G01*
G04 APERTURE LIST*
G04 #@! TA.AperFunction,NonConductor*
%ADD10C,0.264375*%
G04 #@! TD*
G04 APERTURE END LIST*
D10*
G04 #@! TO.C,svg2mod*
X155744042Y-132436845D02*
X154422359Y-132436845D01*
X157065723Y-132436845D02*
X155744042Y-132436845D01*
X158387406Y-132436845D02*
X157065723Y-132436845D01*
X159709087Y-132436845D02*
X158387406Y-132436845D01*
X161030770Y-132436845D02*
X159709087Y-132436845D01*
X162352453Y-132436845D02*
X161030770Y-132436845D01*
X163674134Y-132436845D02*
X162352453Y-132436845D01*
X164995817Y-132436845D02*
X163674134Y-132436845D01*
X165718354Y-132364824D02*
X164995817Y-132436845D01*
X166389780Y-132158051D02*
X165718354Y-132364824D01*
X166996154Y-131830470D02*
X166389780Y-132158051D01*
X167523537Y-131396020D02*
X166996154Y-131830470D01*
X167957987Y-130868637D02*
X167523537Y-131396020D01*
X168285568Y-130262263D02*
X167957987Y-130868637D01*
X168492341Y-129590840D02*
X168285568Y-130262263D01*
X168523524Y-129414454D02*
X168492341Y-129590840D01*
X168546074Y-129235090D02*
X168523524Y-129414454D01*
X168559761Y-129052966D02*
X168546074Y-129235090D01*
X168564362Y-128868303D02*
X168559761Y-129052966D01*
X168564362Y-127399997D02*
X168564362Y-128868303D01*
X168564362Y-125931690D02*
X168564362Y-127399997D01*
X168564362Y-124463381D02*
X168564362Y-125931690D01*
X168564362Y-122995075D02*
X168564362Y-124463381D01*
X168564362Y-121526769D02*
X168564362Y-122995075D01*
X168564362Y-120058463D02*
X168564362Y-121526769D01*
X168564362Y-118590157D02*
X168564362Y-120058463D01*
X168564362Y-117121850D02*
X168564362Y-118590157D01*
X168564362Y-115653541D02*
X168564362Y-117121850D01*
X168564362Y-114185235D02*
X168564362Y-115653541D01*
X168564362Y-112716929D02*
X168564362Y-114185235D01*
X168564362Y-111248623D02*
X168564362Y-112716929D01*
X168564362Y-109780316D02*
X168564362Y-111248623D01*
X168564362Y-108312010D02*
X168564362Y-109780316D01*
X168564362Y-106843701D02*
X168564362Y-108312010D01*
X168564362Y-105375395D02*
X168564362Y-106843701D01*
X168564362Y-103907089D02*
X168564362Y-105375395D01*
X168564362Y-102438782D02*
X168564362Y-103907089D01*
X168564362Y-100970476D02*
X168564362Y-102438782D01*
X168564362Y-99502169D02*
X168564362Y-100970476D01*
X168564362Y-98033862D02*
X168564362Y-99502169D01*
X168564362Y-96565556D02*
X168564362Y-98033862D01*
X168564362Y-95097249D02*
X168564362Y-96565556D01*
X168564362Y-93628942D02*
X168564362Y-95097249D01*
X168564362Y-92160636D02*
X168564362Y-93628942D01*
X168564362Y-90692329D02*
X168564362Y-92160636D01*
X168564362Y-89224022D02*
X168564362Y-90692329D01*
X168564362Y-87755716D02*
X168564362Y-89224022D01*
X168564362Y-86287409D02*
X168564362Y-87755716D01*
X168564362Y-84819102D02*
X168564362Y-86287409D01*
X168564362Y-83350796D02*
X168564362Y-84819102D01*
X168564362Y-81882489D02*
X168564362Y-83350796D01*
X168492341Y-81159952D02*
X168564362Y-81882489D01*
X168285568Y-80488527D02*
X168492341Y-81159952D01*
X167957987Y-79882153D02*
X168285568Y-80488527D01*
X167523537Y-79354771D02*
X167957987Y-79882153D01*
X166996154Y-78920320D02*
X167523537Y-79354771D01*
X166389780Y-78592738D02*
X166996154Y-78920320D01*
X165718354Y-78385967D02*
X166389780Y-78592738D01*
X164995817Y-78313946D02*
X165718354Y-78385967D01*
X163005033Y-78313946D02*
X164995817Y-78313946D01*
X161014249Y-78313946D02*
X163005033Y-78313946D01*
X159023464Y-78313946D02*
X161014249Y-78313946D01*
X157032680Y-78313946D02*
X159023464Y-78313946D01*
X155041896Y-78313946D02*
X157032680Y-78313946D01*
X153051112Y-78313946D02*
X155041896Y-78313946D01*
X151060328Y-78313946D02*
X153051112Y-78313946D01*
X149069544Y-78313946D02*
X151060328Y-78313946D01*
X147972961Y-78407651D02*
X149069544Y-78313946D01*
X146925942Y-78679474D02*
X147972961Y-78407651D01*
X145947068Y-79115474D02*
X146925942Y-78679474D01*
X145054933Y-79701713D02*
X145947068Y-79115474D01*
X144268120Y-80424250D02*
X145054933Y-79701713D01*
X143605214Y-81269146D02*
X144268120Y-80424250D01*
X143084801Y-82222461D02*
X143605214Y-81269146D01*
X142725468Y-83270256D02*
X143084801Y-82222461D01*
X142337223Y-84781930D02*
X142725468Y-83270256D01*
X141948978Y-86293604D02*
X142337223Y-84781930D01*
X141560734Y-87805279D02*
X141948978Y-86293604D01*
X141172489Y-89316953D02*
X141560734Y-87805279D01*
X140784247Y-90828627D02*
X141172489Y-89316953D01*
X140396003Y-92340302D02*
X140784247Y-90828627D01*
X140007758Y-93851976D02*
X140396003Y-92340302D01*
X139619514Y-95363650D02*
X140007758Y-93851976D01*
X139527743Y-95631085D02*
X139619514Y-95363650D01*
X139405773Y-95842760D02*
X139527743Y-95631085D01*
X139260569Y-96004873D02*
X139405773Y-95842760D01*
X139099101Y-96123618D02*
X139260569Y-96004873D01*
X138928343Y-96205191D02*
X139099101Y-96123618D01*
X138755259Y-96255786D02*
X138928343Y-96205191D01*
X138586820Y-96281601D02*
X138755259Y-96255786D01*
X138430001Y-96288829D02*
X138586820Y-96281601D01*
X138273181Y-96281601D02*
X138430001Y-96288829D01*
X138104742Y-96255786D02*
X138273181Y-96281601D01*
X137931658Y-96205191D02*
X138104742Y-96255786D01*
X137760897Y-96123618D02*
X137931658Y-96205191D01*
X137599429Y-96004873D02*
X137760897Y-96123618D01*
X137454226Y-95842760D02*
X137599429Y-96004873D01*
X137332255Y-95631085D02*
X137454226Y-95842760D01*
X137240485Y-95363650D02*
X137332255Y-95631085D01*
X136852240Y-93843716D02*
X137240485Y-95363650D01*
X136463995Y-92323781D02*
X136852240Y-93843716D01*
X136075751Y-90803846D02*
X136463995Y-92323781D01*
X135687509Y-89283911D02*
X136075751Y-90803846D01*
X135299264Y-87763976D02*
X135687509Y-89283911D01*
X134911020Y-86244041D02*
X135299264Y-87763976D01*
X134522775Y-84724106D02*
X134911020Y-86244041D01*
X134134531Y-83204171D02*
X134522775Y-84724106D01*
X133756226Y-82178189D02*
X134134531Y-83204171D01*
X133226907Y-81241266D02*
X133756226Y-82178189D01*
X132562839Y-80408116D02*
X133226907Y-81241266D01*
X131780285Y-79693452D02*
X132562839Y-80408116D01*
X130895506Y-79111989D02*
X131780285Y-79693452D01*
X129924766Y-78678441D02*
X130895506Y-79111989D01*
X128884329Y-78407522D02*
X129924766Y-78678441D01*
X127790456Y-78313946D02*
X128884329Y-78407522D01*
X125799671Y-78313946D02*
X127790456Y-78313946D01*
X123808887Y-78313946D02*
X125799671Y-78313946D01*
X121818103Y-78313946D02*
X123808887Y-78313946D01*
X119827318Y-78313946D02*
X121818103Y-78313946D01*
X117836534Y-78313946D02*
X119827318Y-78313946D01*
X115845750Y-78313946D02*
X117836534Y-78313946D01*
X113854966Y-78313946D02*
X115845750Y-78313946D01*
X111864181Y-78313946D02*
X113854966Y-78313946D01*
X111141644Y-78385967D02*
X111864181Y-78313946D01*
X110470219Y-78592738D02*
X111141644Y-78385967D01*
X109863846Y-78920320D02*
X110470219Y-78592738D01*
X109336463Y-79354771D02*
X109863846Y-78920320D01*
X108902012Y-79882153D02*
X109336463Y-79354771D01*
X108574431Y-80488527D02*
X108902012Y-79882153D01*
X108367660Y-81159952D02*
X108574431Y-80488527D01*
X108336477Y-81336339D02*
X108367660Y-81159952D01*
X108313934Y-81515703D02*
X108336477Y-81336339D01*
X108300249Y-81697825D02*
X108313934Y-81515703D01*
X108295638Y-81882489D02*
X108300249Y-81697825D01*
X108295638Y-83350796D02*
X108295638Y-81882489D01*
X108295638Y-84819102D02*
X108295638Y-83350796D01*
X108295638Y-86287409D02*
X108295638Y-84819102D01*
X108295638Y-87755716D02*
X108295638Y-86287409D01*
X108295638Y-89224022D02*
X108295638Y-87755716D01*
X108295638Y-90692329D02*
X108295638Y-89224022D01*
X108295638Y-92160636D02*
X108295638Y-90692329D01*
X108295638Y-93628942D02*
X108295638Y-92160636D01*
X108295638Y-95097249D02*
X108295638Y-93628942D01*
X108295638Y-96565556D02*
X108295638Y-95097249D01*
X108295638Y-98033862D02*
X108295638Y-96565556D01*
X108295638Y-99502169D02*
X108295638Y-98033862D01*
X108295638Y-100970476D02*
X108295638Y-99502169D01*
X108295638Y-102438782D02*
X108295638Y-100970476D01*
X108295638Y-103907089D02*
X108295638Y-102438782D01*
X108295638Y-105375395D02*
X108295638Y-103907089D01*
X108295638Y-106843701D02*
X108295638Y-105375395D01*
X108295638Y-108312010D02*
X108295638Y-106843701D01*
X108295638Y-109780316D02*
X108295638Y-108312010D01*
X108295638Y-111248623D02*
X108295638Y-109780316D01*
X108295638Y-112716929D02*
X108295638Y-111248623D01*
X108295638Y-114185235D02*
X108295638Y-112716929D01*
X108295638Y-115653541D02*
X108295638Y-114185235D01*
X108295638Y-117121850D02*
X108295638Y-115653541D01*
X108295638Y-118590157D02*
X108295638Y-117121850D01*
X108295638Y-120058463D02*
X108295638Y-118590157D01*
X108295638Y-121526769D02*
X108295638Y-120058463D01*
X108295638Y-122995075D02*
X108295638Y-121526769D01*
X108295638Y-124463381D02*
X108295638Y-122995075D01*
X108295638Y-125931690D02*
X108295638Y-124463381D01*
X108295638Y-127399997D02*
X108295638Y-125931690D01*
X108295638Y-128868303D02*
X108295638Y-127399997D01*
X108367660Y-129590840D02*
X108295638Y-128868303D01*
X108574431Y-130262263D02*
X108367660Y-129590840D01*
X108902012Y-130868637D02*
X108574431Y-130262263D01*
X109336463Y-131396020D02*
X108902012Y-130868637D01*
X109863846Y-131830459D02*
X109336463Y-131396020D01*
X110470219Y-132158040D02*
X109863846Y-131830459D01*
X111141644Y-132364813D02*
X110470219Y-132158040D01*
X111864181Y-132436833D02*
X111141644Y-132364813D01*
X113185864Y-132436833D02*
X111864181Y-132436833D01*
X114507546Y-132436833D02*
X113185864Y-132436833D01*
X115829229Y-132436833D02*
X114507546Y-132436833D01*
X117150911Y-132436833D02*
X115829229Y-132436833D01*
X118472594Y-132436833D02*
X117150911Y-132436833D01*
X119794276Y-132436833D02*
X118472594Y-132436833D01*
X121115959Y-132436833D02*
X119794276Y-132436833D01*
X122437641Y-132436833D02*
X121115959Y-132436833D01*
X123160178Y-132364813D02*
X122437641Y-132436833D01*
X123831603Y-132158040D02*
X123160178Y-132364813D01*
X124437977Y-131830459D02*
X123831603Y-132158040D01*
X124965359Y-131396009D02*
X124437977Y-131830459D01*
X125399810Y-130868626D02*
X124965359Y-131396009D01*
X125727392Y-130262252D02*
X125399810Y-130868626D01*
X125934163Y-129590828D02*
X125727392Y-130262252D01*
X126006184Y-128868291D02*
X125934163Y-129590828D01*
X125931839Y-127604433D02*
X126006184Y-128868291D01*
X125857495Y-126340574D02*
X125931839Y-127604433D01*
X125783150Y-125076715D02*
X125857495Y-126340574D01*
X125708805Y-123812853D02*
X125783150Y-125076715D01*
X125634461Y-122548995D02*
X125708805Y-123812853D01*
X125560116Y-121285136D02*
X125634461Y-122548995D01*
X125485772Y-120021277D02*
X125560116Y-121285136D01*
X125411427Y-118757418D02*
X125485772Y-120021277D01*
X125451826Y-118383759D02*
X125411427Y-118757418D01*
X125561149Y-118097611D02*
X125451826Y-118383759D01*
X125721584Y-117887353D02*
X125561149Y-118097611D01*
X125915318Y-117741376D02*
X125721584Y-117887353D01*
X126124542Y-117648056D02*
X125915318Y-117741376D01*
X126331442Y-117595783D02*
X126124542Y-117648056D01*
X126518207Y-117572951D02*
X126331442Y-117595783D01*
X126667025Y-117567928D02*
X126518207Y-117572951D01*
X126978215Y-117599551D02*
X126667025Y-117567928D01*
X127223578Y-117684607D02*
X126978215Y-117599551D01*
X127411633Y-117808387D02*
X127223578Y-117684607D01*
X127550901Y-117956173D02*
X127411633Y-117808387D01*
X127649898Y-118113252D02*
X127550901Y-117956173D01*
X127717144Y-118264910D02*
X127649898Y-118113252D01*
X127761156Y-118396431D02*
X127717144Y-118264910D01*
X127790456Y-118493106D02*
X127761156Y-118396431D01*
X128137397Y-119913914D02*
X127790456Y-118493106D01*
X128484339Y-121334722D02*
X128137397Y-119913914D01*
X128831281Y-122755531D02*
X128484339Y-121334722D01*
X129178222Y-124176339D02*
X128831281Y-122755531D01*
X129525164Y-125597150D02*
X129178222Y-124176339D01*
X129872105Y-127017958D02*
X129525164Y-125597150D01*
X130219047Y-128438766D02*
X129872105Y-127017958D01*
X130565989Y-129859574D02*
X130219047Y-128438766D01*
X130896151Y-130789011D02*
X130565989Y-129859574D01*
X131299109Y-131471408D02*
X130896151Y-130789011D01*
X131785705Y-131944708D02*
X131299109Y-131471408D01*
X132366781Y-132246861D02*
X131785705Y-131944708D01*
X133053178Y-132415816D02*
X132366781Y-132246861D01*
X133855739Y-132489516D02*
X133053178Y-132415816D01*
X134785306Y-132505913D02*
X133855739Y-132489516D01*
X135852719Y-132502949D02*
X134785306Y-132505913D01*
X136786158Y-132502949D02*
X135852719Y-132502949D01*
X137719596Y-132502949D02*
X136786158Y-132502949D01*
X138653035Y-132502949D02*
X137719596Y-132502949D01*
X139586471Y-132502949D02*
X138653035Y-132502949D01*
X140519910Y-132502949D02*
X139586471Y-132502949D01*
X141453348Y-132502949D02*
X140519910Y-132502949D01*
X142386787Y-132502949D02*
X141453348Y-132502949D01*
X143320226Y-132502949D02*
X142386787Y-132502949D01*
X143925953Y-132454419D02*
X143320226Y-132502949D01*
X144498382Y-132312957D02*
X143925953Y-132454419D01*
X145028991Y-132084761D02*
X144498382Y-132312957D01*
X145509262Y-131776024D02*
X145028991Y-132084761D01*
X145930677Y-131392944D02*
X145509262Y-131776024D01*
X146284719Y-130941713D02*
X145930677Y-131392944D01*
X146562866Y-130428529D02*
X146284719Y-130941713D01*
X146756600Y-129859586D02*
X146562866Y-130428529D01*
X147070499Y-128438777D02*
X146756600Y-129859586D01*
X147384398Y-127017969D02*
X147070499Y-128438777D01*
X147698299Y-125597161D02*
X147384398Y-127017969D01*
X148012198Y-124176350D02*
X147698299Y-125597161D01*
X148326097Y-122755542D02*
X148012198Y-124176350D01*
X148639996Y-121334734D02*
X148326097Y-122755542D01*
X148953897Y-119913925D02*
X148639996Y-121334734D01*
X149267796Y-118493117D02*
X148953897Y-119913925D01*
X149297096Y-118377471D02*
X149267796Y-118493117D01*
X149341109Y-118237040D02*
X149297096Y-118377471D01*
X149408354Y-118084222D02*
X149341109Y-118237040D01*
X149507352Y-117931402D02*
X149408354Y-118084222D01*
X149646617Y-117790974D02*
X149507352Y-117931402D01*
X149834673Y-117675325D02*
X149646617Y-117790974D01*
X150080037Y-117596850D02*
X149834673Y-117675325D01*
X150391227Y-117567939D02*
X150080037Y-117596850D01*
X150540045Y-117572963D02*
X150391227Y-117567939D01*
X150726809Y-117595795D02*
X150540045Y-117572963D01*
X150933709Y-117648068D02*
X150726809Y-117595795D01*
X151142934Y-117741387D02*
X150933709Y-117648068D01*
X151336668Y-117887364D02*
X151142934Y-117741387D01*
X151497103Y-118097622D02*
X151336668Y-117887364D01*
X151606425Y-118383770D02*
X151497103Y-118097622D01*
X151646825Y-118757430D02*
X151606425Y-118383770D01*
X151547697Y-120021288D02*
X151646825Y-118757430D01*
X151448572Y-121285147D02*
X151547697Y-120021288D01*
X151349445Y-122549006D02*
X151448572Y-121285147D01*
X151250320Y-123812865D02*
X151349445Y-122549006D01*
X151151192Y-125076726D02*
X151250320Y-123812865D01*
X151052067Y-126340585D02*
X151151192Y-125076726D01*
X150952942Y-127604444D02*
X151052067Y-126340585D01*
X150853814Y-128868303D02*
X150952942Y-127604444D01*
X150925835Y-129590840D02*
X150853814Y-128868303D01*
X151132608Y-130262263D02*
X150925835Y-129590840D01*
X151460189Y-130868637D02*
X151132608Y-130262263D01*
X151894641Y-131396020D02*
X151460189Y-130868637D01*
X152422024Y-131830470D02*
X151894641Y-131396020D01*
X153028396Y-132158051D02*
X152422024Y-131830470D01*
X153699822Y-132364824D02*
X153028396Y-132158051D01*
X154422359Y-132436845D02*
X153699822Y-132364824D01*
G04 #@! TD*
M02*
